<?xml version="1.0" encoding="utf-8"?>
<!-- Generator: Adobe Illustrator 27.5.0, SVG Export Plug-In . SVG Version: 6.00 Build 0)  -->
<svg version="1.1" id="Capa_1" xmlns="http://www.w3.org/2000/svg" xmlns:xlink="http://www.w3.org/1999/xlink" x="0px" y="0px"
	 viewBox="0 0 2122 2122" style="enable-background:new 0 0 2122 2122;" xml:space="preserve">
<g>
	<linearGradient id="SVGID_1_" gradientUnits="userSpaceOnUse" x1="1064.2211" y1="47.1018" x2="1059.2332" y2="1463.9736">
		<stop  offset="0" style="stop-color:#56B3DB"/>
		<stop  offset="1" style="stop-color:#DCEFE3"/>
	</linearGradient>
	<rect x="0" y="0.007" style="fill:url(#SVGID_1_);" width="2121.306" height="2121.301"/>
	<path style="fill:#FFFFFF;" d="M0,1855.396c651.278,27.42,1692.574,70.894,2121.306,86.782V613.497
		c-110.24-13.963-179.262,124.018-179.262,124.018c-159.648-96.452-276.061,113.086-276.061,113.086
		c-226.161-56.545-256.1,146.342-256.1,146.342c-182.931-36.584-216.188,152.997-216.188,152.997
		c-153.002-96.457-309.318,51.459-309.318,51.459c-13.311-131.468-126.391-81.393-126.391-81.393
		c-19.956-89.802-123.058-63.196-123.058-63.196c-19.956-189.582-189.582-136.364-189.582-136.364
		C405.434,710.909,209.197,774.1,209.197,774.1C166.391,679.475,62.553,667.266,0,669.234V1855.396z"/>
	<path style="opacity:0.3;fill:#AFDFED;" d="M1942.043,847.273c-159.648-96.452-276.061,113.086-276.061,113.086
		c-226.161-56.545-256.1,146.342-256.1,146.342c-182.931-36.584-216.188,152.997-216.188,152.997
		c-153.002-96.457-309.318,51.459-309.318,51.459c-13.311-131.468-126.391-81.393-126.391-81.393
		c-19.956-89.802-123.058-63.196-123.058-63.196c-19.956-189.582-189.582-136.364-189.582-136.364
		c-39.912-209.538-236.149-146.347-236.149-146.347C166.391,789.233,62.553,777.023,0,778.992v1076.404
		c651.278,27.42,1692.574,70.894,2121.306,86.782V723.255C2011.066,709.292,1942.043,847.273,1942.043,847.273z"/>
	<g>
		<g>
			<rect x="0" y="1335.381" style="fill:#52C4C8;" width="2121.32" height="482.266"/>
			<rect x="0" y="1335.381" style="fill:#88D2D6;" width="2121.32" height="43.196"/>
			<polygon style="fill:#C87031;" points="2.602,1613.576 2121.32,1614.765 2121.32,1947.361 0,1914.202 			"/>
		</g>
	</g>
	<rect x="0" y="1767.767" style="fill:#F38D39;" width="2121.32" height="353.546"/>
	<rect x="0" y="1777.949" style="opacity:0.6;fill:#F1CE46;" width="2121.32" height="50.543"/>
	<path style="fill:#D17732;" d="M0.244,1886.246H2121.32v61.115c0,0-1038.709-41.198-1303.126-30.558
		C553.778,1927.434,0,1930.767,0,1930.767L0.244,1886.246z"/>
	<path style="fill:#D17732;" d="M0,1957.368c0,0,1448.474,1.666,1470.086,14.967l-1466.783,18.3L0,1957.368z"/>
	<path style="fill:#D17732;" d="M1011.002,2035.857l1110.319-21.115v49.89c0,0-1970.116-49.89-2118.056,9.978L0,2014.741
		L1011.002,2035.857z"/>
	<path style="fill:#88D2D6;" d="M1968.386,1406.815c0,6.568-396.464,11.898-885.531,11.898s-885.537-5.33-885.537-11.898
		c0-6.578,396.469-11.903,885.537-11.903S1968.386,1400.238,1968.386,1406.815z"/>
	<ellipse style="fill:#88D2D6;" cx="1082.854" cy="1435.122" rx="641.542" ry="4.804"/>
	<ellipse style="fill:#88D2D6;" cx="1085.536" cy="1452.009" rx="856.846" ry="4.804"/>
	<g>
		<path style="fill:#FFFFFF;" d="M1015.25,245.617c0,0,14.446-21.339,57.081-11.868c0,0-0.872-66.299,67.176-49.724
			c0,0,35.766-68.043,96.832-11.342c0,0,86.367-71.532,114.074,21.154c0,0,56.039-36.857,69.997,16.36
			c0,0,62.811-28.789,46.236,27.04c0,0,80.37-24.779,63.785,35.615c0,0,41.452-2.368,36.716,20.141
			c-4.736,22.504-137.382,18.943-227.389,17.764l-423.996-7.108c0,0-10.66-28.424,42.64-28.424c0,0,8.293-22.504,33.159-20.136
			C991.562,255.089,990.373,233.774,1015.25,245.617z"/>
		<path style="opacity:0.5;fill:#AFDFED;" d="M1567.148,292.993c4.735-22.509-36.716-20.141-36.716-20.141
			c16.585-60.394-63.785-35.615-63.785-35.615c4.561-15.366,3.089-24.301-1.413-29.208c-4.395,21.218-12.541,41.422-12.541,41.422
			c59.868-15.907,47.103,25.306,47.103,25.306c20.068,3.483,10.47,15.697,10.47,15.697s-492.02,0-506.856-6.982
			c-14.83-6.977,34.898-13.954,34.898-13.954c-10.47-17.452,51.469-15.707,51.469-15.707c-1.144-30.416,18.85-57.427,32.667-72.36
			c-50.825-2.363-50.114,52.297-50.114,52.297c-42.635-9.471-57.081,11.868-57.081,11.868c-24.877-11.844-23.688,9.472-23.688,9.472
			c-24.867-2.368-33.159,20.136-33.159,20.136c-53.3,0-42.64,28.424-42.64,28.424l423.996,7.108
			C1429.765,311.936,1562.412,315.498,1567.148,292.993z"/>
	</g>
	<g>
		<path style="fill:#FFFFFF;" d="M635.366,407.477c0,0,9.481-14.007,37.457-7.79c0,0-0.565-43.508,44.082-32.629
			c0,0,23.474-44.647,63.541-7.445c0,0,56.677-46.937,74.859,13.885c0,0,36.769-24.185,45.934,10.733
			c0,0,41.218-18.889,30.338,17.749c0,0,52.735-16.263,41.861,23.366c0,0,27.196-1.544,24.087,13.213
			c-3.108,14.767-90.148,12.433-149.212,11.659l-278.229-4.663c0,0-6.992-18.65,27.98-18.65c0,0,5.437-14.767,21.759-13.213
			C619.824,413.694,619.045,399.702,635.366,407.477z"/>
		<path style="opacity:0.5;fill:#AFDFED;" d="M997.525,438.561c3.109-14.757-24.087-13.213-24.087-13.213
			c10.875-39.629-41.861-23.366-41.861-23.366c2.991-10.09,2.027-15.951-0.926-19.176c-2.884,13.924-8.233,27.186-8.233,27.186
			c39.288-10.436,30.913,16.604,30.913,16.604c13.169,2.29,6.87,10.305,6.87,10.305s-322.867,0-332.601-4.575
			c-9.729-4.59,22.898-9.165,22.898-9.165c-6.869-11.449,33.773-10.304,33.773-10.304c-0.75-19.961,12.375-37.69,21.437-47.483
			c-33.349-1.554-32.886,34.314-32.886,34.314c-27.976-6.217-37.457,7.79-37.457,7.79c-16.321-7.776-15.542,6.217-15.542,6.217
			c-16.322-1.554-21.759,13.213-21.759,13.213c-34.972,0-27.98,18.65-27.98,18.65l278.229,4.663
			C907.378,450.994,994.417,453.328,997.525,438.561z"/>
	</g>
</g>
<g>
	<path style="opacity:0.8;fill:#8EB2BA;" d="M920.133,425.828c0.702,4.565-8.09,9.705-19.632,11.476
		c-11.54,1.776-21.464-0.487-22.166-5.047c-0.696-4.567,8.083-9.708,19.63-11.476C909.507,419.004,919.431,421.268,920.133,425.828z
		"/>
	<g>
		<g>
			<g>
				<g>
					<path style="fill:#B2D0E0;" d="M1364.436,1982.075c0,0-7.045,58.679-295.752,58.679c-291.05,0-295.751-58.679-295.751-58.679
						L704.868,951.411h727.633L1364.436,1982.075z"/>
					<g>
						<g>
							<g>
								<path style="fill:#99C156;" d="M722.468,951.411l62.869,1010.283c0,0,4.497,56.218,283.347,56.218
									c276.602,0,283.347-56.218,283.347-56.218l65.212-1010.283H722.468z"/>
							</g>
						</g>
					</g>
					<path style="fill:#8FAC4A;" d="M722.468,951.411l8.546,137.302c7.257,4.658,15.003,9.374,19.62,11.425
						c10.563,4.699,17.608,5.873,30.519,0c12.911-5.864,28.165-2.614,36.377,3.976c8.217,6.59,15.259,17.15,26.996,17.15
						c11.734,0,15.257-7.038,23.471-5.864c8.214,1.171,5.871-1.177,14.085,5.864c8.214,7.045,30.509,35.208,53.982,35.208
						c23.476,0,43.43-12.906,55.161-16.426c11.737-3.52,34.031-22.148,48.117-23.398c14.08-1.247,26.996-5.793,43.425,0
						c16.431,5.793,42.248,23.395,48.116,31.612c5.871,8.212,12.911,23.471,18.777,31.688c5.871,8.214,50.465,29.337,63.378,38.728
						c12.911,9.391,30.514,15.255,43.42,14.083c12.913-1.174,51.642-5.871,65.726-12.909c14.08-7.042,14.08-14.085,31.686-24.648
						c17.603-10.563,4.928-8.502,26.994-15.254c13.262-4.061,18.124-1.764,21.987-5.618l14.392-222.919H722.468z"/>
					<path style="fill:#8FAC4A;" d="M1352.032,1961.695l41.076-636.421c-6.465-1.334-15.177-2.882-26.329-5.671
						c-28.165-7.042-22.297-9.386-29.339-22.297c-7.043-12.909-10.565-16.426-3.523-24.645c7.04-8.214,15.259-5.868,22.299-16.434
						c7.042-10.56-1.174-11.734,12.906-16.426c14.085-4.697,19.732,9.674,30.407-13.939l0,0l3.371-52.231
						c-14.387-9.739-41.99-24.197-41.99-24.197l-245.284-32.862c0,0,30.516,65.722,36.385,97.41
						c5.864,31.691,3.52,38.728,21.127,52.813c17.603,14.085,31.686-5.869,41.072,0c9.388,5.866,15.254,10.558,16.426,18.776
						c1.177,8.214,10.57,19.952,0,23.474c-10.56,3.52-30.511,7.038-34.031,11.734c-3.52,4.694-26.718,9.391-20.986,18.775
						c5.729,9.391-1.311,15.259-9.525,24.648c-8.219,9.391,9.659,30.516,9.525,42.248c-0.141,11.74,23.334,16.434,31.551,25.824
						c8.214,9.384,3.518,21.123,1.169,28.165c-2.343,7.04-19.676,32.858-32.721,39.902c-13.047,7.04-31.824,21.125-35.347,35.208
						c-3.517,14.083,10.563,44.597,4.697,51.639c-5.868,7.04-9.388-4.697-18.779,0c-9.391,4.694-25.817,5.866-29.337,12.908
						c-3.522,7.037-11.742,34.034-21.125,36.382c-9.388,2.343-35.21,7.04-35.21,14.082c0,7.042-22.299,38.73-30.514,38.73
						s-24.648,0-29.337,0c-4.701,0-32.865,8.214-35.208,11.737c-2.353,3.518-50.47,5.866-63.376,9.389
						c-12.911,3.518-18.779,14.082-19.953,24.643c-1.172,10.565-2.351,41.079,15.257,49.293
						c17.603,8.214,29.342,26.991,37.556,36.38c8.212,9.391,10.565,31.688,22.297,41.076c11.737,9.388,23.473,12.908,34.036,12.908
						c10.563,0,16.429,2.351,31.688,0c15.252-2.343,28.165-3.52,36.38-10.563c8.216-7.04,2.348-29.337,0-36.38
						c-2.346-7.042-3.518-17.603,2.348-23.476c5.868-5.864,11.42-12.909,6.882-18.772c-4.533-5.871-3.36-10.565-9.23-16.434
						c-5.866-5.864-9.389-11.734-11.737-24.645c-2.348-12.909,11.425-12.911,20.967-29.34c9.551-16.431,6.029-28.168,20.112-41.076
						c14.083-12.909,25.817-22.297,29.337-41.074c3.522-18.78,1.174-30.516,11.737-30.516c10.563,0,14.085-1.172,23.474,15.257
						c9.388,16.431,2.348,12.909,16.429,31.686c14.085,18.781,29.339,17.605,36.382,26.996c7.042,9.388,7.042,24.648,1.171,35.208
						c-5.866,10.563-7.04,35.208-19.951,45.771c-12.906,10.562-15.257,35.208-14.08,46.94c1.174,11.742,16.431,39.902,12.911,58.683
						c-3.518,18.777-14.087,36.382-37.554,36.382c-23.479,0-56.336,8.217-69.247,14.08c-12.908,5.871-57.505,12.911-71.59,7.045
						c-14.085-5.871-46.942-14.085-49.288-24.648c-2.351-10.563-21.123-15.254-30.516-18.775
						c-9.388-3.523-22.299-22.302-28.168-32.867c-5.869-10.56-30.514-38.725-52.811-32.857
						c-22.294,5.868-44.937,15.715-49.461,23.702l7.878,126.647c0,0,4.497,56.218,283.347,56.218
						C1345.286,2017.913,1352.032,1961.695,1352.032,1961.695z"/>
					<path style="opacity:0.6;fill:#82973D;" d="M828.092,974.586c12.913,9.386,17.605,2.346,21.125,10.56
						c3.522,8.216-7.042,10.563,0,17.605c7.042,7.042,8.217,8.214,15.262,11.737c7.04,3.52,16.426,2.343,15.252,14.08
						c-1.172,11.737-3.32,17.605,0.102,26.996c3.422,9.384,10.463,16.426,18.677,16.426c8.216,0,10.562-8.212,18.782-8.212
						c8.214,0,9.384,3.52,12.901,8.212c3.523,4.699,0,8.219,12.911,10.563c12.914,2.351,28.17,0,32.86,0
						c4.701,0,18.782-10.563,18.782-10.563s9.391-9.384,15.257-9.384c5.871,0,8.212-2.351,14.085,1.172
						c5.866,3.52-7.045,5.866,7.04,10.56c14.085,4.697,26.996,2.351,32.859-1.172c5.869-3.522,12.911-15.257,18.78-9.388
						c5.866,5.866,3.089,14.996,7.408,19.82c4.327,4.825,4.327,8.777,21.932,8.56c17.603-0.214,22.3-3.735,28.165,9.176
						c5.871,12.906,3.525,22.297,11.74,29.337c8.214,7.042,5.868,19.953,17.603,23.474c11.734,3.52,17.021-17.32,19.948-22.299
						c2.933-4.977,2.348-22.297,15.262-26.991c12.909-4.697,17.603-0.745,26.989-12.697c9.393-11.949,14.09-16.641,11.739-26.032
						c-2.346-9.391-2.324-22.302,0.597-26.996c2.923-4.692,9.964-7.041,9.964-22.297c0-15.259-22.299-29.337-34.036-31.688
						c-11.732-2.346-43.42,10.563-50.462,3.522c-7.038-7.042-34.034-10.565-24.646-17.603c7.613-5.712,33.754-3.71,30.212-19.654
						H826.546C823.238,959.828,821.406,969.721,828.092,974.586z"/>
					<path style="fill:#82973D;" d="M1328.051,1418.204c-8.214-2.346-7.045-1.172-10.565-14.085
						c-3.52-12.907-9.393-11.735-10.565-19.947c-1.169-8.219,2.351-37.556-9.384-26.996c0,0-10.568,4.699-11.742,10.563
						c-1.17,5.871-4.692,4.328-8.209,10.967c-3.523,6.638-5.871,12.506-8.214,16.029c-2.348,3.518-10.563,0-15.259,4.692
						c-4.694,4.692,2.348,7.043,0,12.911c-2.346,5.866,7.262,8.214-1.652,15.254c-8.913,7.043-15.951,7.043-10.085,15.257
						c5.873,8.217,16.626,10.563,26.501,17.606c9.878,7.037,26.311,4.692,28.66,10.56c2.346,5.871,8.214,22.299,0,30.516
						c-8.219,8.211-21.398,7.042-26.543,14.08c-5.145,7.045-16.882,16.434-25.096,23.476c-8.214,7.04-17.603,25.797-29.339,28.158
						c-11.74,2.353-21.123,10.568-19.954,23.479c1.172,12.911,3.52,18.782,12.908,25.819c9.389,7.042,12.911,39.902,10.563,44.596
						c-2.343,4.697-4.687-2.348,1.174,17.605c5.871,19.952,14.085,21.128,5.871,30.514c-8.219,9.391-14.083,15.254-10.562,22.297
						c3.517,7.042,10.562-5.866,18.777-9.388c8.212-3.518,18.772-12.908,26.991-17.603c8.217-4.697,8.217-16.431,18.777-17.605
						c10.565-1.174,23.473-3.517,28.168-14.08c4.694-10.563,2.35-14.085,0-30.516c-2.351-16.431-11.74-21.125-23.476-24.646
						c-11.732-3.52-17.603-8.212-21.123-15.257c-3.52-7.042-5.869-19.951-3.52-28.165c2.344-8.217,9.391-23.754,16.434-28.891
						c7.04-5.143,17.603-6.319,28.165-7.493c10.563-1.174,21.123-1.174,34.034-1.174c12.906,0,24.899-12.74,32.859-15.252
						c2.044-0.646,5.177-5.603,8.629-12.887l5.956-92.206c-8.044-4.999-17.893-7.432-25.147-8.748
						C1349.172,1405.295,1336.263,1420.552,1328.051,1418.204z"/>
					<path style="fill:#82973D;" d="M790.541,1884.124c0,0,9.388-18.774,22.294-12.909c12.911,5.871,17.608,3.557,29.34,5.885
						c11.739,2.331,24.648,2.331,22.304,15.24c-2.351,12.909-0.624,15.259,0.275,25.822c0.894,10.56,2.068,11.735,9.108,25.817
						c7.042,14.083,32.865,8.214,37.554,18.777c4.699,10.563,8.216,18.779,18.777,22.299c10.565,3.523,23.474,8.214,21.13,12.906
						c-2.348,4.699-7.045,3.523-21.13,0c-14.078-3.518-14.078-3.518-28.165-3.518c-14.082,0-37.549,11.737-49.288-7.042
						c-11.734-18.777-11.734-29.339-12.909-39.902c-1.174-10.563-10.562-5.079-25.822-11.929
						C798.755,1928.723,778.673,1896.865,790.541,1884.124z"/>
					<path style="fill:#82973D;" d="M939.582,1961.585c0,0-3.518,12.908,5.875,16.434c9.384,3.517,15.254,0,24.648,0
						c9.384,0,5.859-0.397,16.424,1.564c10.563,1.954,18.782-8.219,23.474-9.001c4.697-0.784,10.56-6.65,16.434-8.996
						c5.864-2.348,18.777-2.346,19.949-8.217c1.174-5.868,10.565-8.216,0-9.388c-10.565-1.172-26.993,10.563-30.511,0
						c-3.52-10.56-23.474-10.952-26.996-8.409c-3.522,2.54-4.692,15.451-8.212,16.623c-3.522,1.174-8.216,0.003-12.91-5.866
						C963.058,1940.459,939.239,1950.523,939.582,1961.585z"/>
					<path style="fill:#82973D;" d="M1083.941,1928.723c0,0,7.04-9.388,14.08-9.388c7.04,0,16.429,1.174,25.819,0
						c9.391-1.172,11.734-4.697,21.127,0c9.389,4.694,17.33-4.365,19.949,3.508c3.522,10.577,1.176,13.449-7.042,11.422
						c-8.214-2.021-9.389-11.157-16.429-8.351c-7.042,2.809-13.671,6.857-16.224,8.351c-2.553,1.501,3.313,10.887-11.941,13.235
						C1098.022,1949.848,1059.294,1942.808,1083.941,1928.723z"/>
					<path style="fill:#82973D;" d="M1159.049,1947.943c0,0,8.214,0.448,16.429,0c8.219-0.443,21.127,11.613,29.342,9.106
						c8.219-2.506,19.953,0,19.953,0l14.083-21.478c0,0,1.174-4.5,0-10.368c-1.172-5.868-9.391-17.603-9.391-17.603
						s-12.29-6.49-7.041-11.739c9.389-9.386,5.739-1.172,16.955-5.864c11.21-4.699,15.905-15.184,18.253-19.917
						c2.351-4.73-8.214-17.641,0-24.682c8.216-7.042,11.739-14.085,19.953-15.257c8.209-1.174,19.089-1.172,21.281,10.56
						c2.19,11.737,8.054,35.211-6.027,38.73c-14.085,3.52-12.911,5.866-24.648,9.386c-11.735,3.522-22.295-7.03-24.646,4.702
						c-2.341,11.729,5.871,16.372,11.74,23.439c5.865,7.069,15.257,18.521,4.697,30.984c-10.565,12.471-11.735,30.076-18.777,37.113
						c-7.045,7.042-15.257-1.172-26.996,0c-11.737,1.174-6.066-12.911-17.703-9.391c-11.637,3.522-19.028,16.333-30.004,12.277
						C1155.529,1983.882,1120.321,1964.82,1159.049,1947.943z"/>
					<path style="fill:#092916;" d="M933.716,1284.429c0,0-11.737,2.348-11.737,11.735
						C921.98,1305.552,943.105,1304.378,933.716,1284.429z"/>
					<path style="fill:#092916;" d="M1214.795,1373.04c0,0-11.737,2.346-11.737,11.732
						C1203.058,1394.163,1224.184,1392.986,1214.795,1373.04z"/>
					<path style="fill:#092916;" d="M1251.709,1169.419c0,0-11.74,2.348-11.74,11.737
						C1239.969,1190.545,1261.094,1189.368,1251.709,1169.419z"/>
					<path style="fill:#092916;" d="M1273.421,1183.502c0,0-11.737,2.348-11.737,11.734
						C1261.684,1204.627,1282.812,1203.453,1273.421,1183.502z"/>
					<path style="fill:#092916;" d="M988.234,1462.23c0,0-11.737,2.351-11.737,11.739
						C976.498,1483.355,997.618,1482.184,988.234,1462.23z"/>
					<path style="fill:#092916;" d="M977.923,1673.734c0,0-1.834-11.832-11.21-12.241
						C957.331,1661.081,957.585,1682.24,977.923,1673.734z"/>
					<path style="fill:#092916;" d="M1234.378,1766.446c0,0-1.829-11.831-11.21-12.239
						C1213.789,1753.794,1214.035,1774.953,1234.378,1766.446z"/>
					<path style="fill:#092916;" d="M1199.76,1780.709c0,0-1.834-11.827-11.211-12.241
						C1179.166,1768.059,1179.414,1789.216,1199.76,1780.709z"/>
					<path style="fill:#092916;" d="M1316.821,1914.299c0,0-1.831-11.829-11.21-12.239
						C1296.232,1901.647,1296.478,1922.806,1316.821,1914.299z"/>
					<path style="fill:#092916;" d="M1291.867,1879.99c0,0-7.822-9.062-15.99-4.436
						C1267.698,1880.18,1279.121,1897.985,1291.867,1879.99z"/>
					<path style="fill:#092916;" d="M884.922,1915.218c0,0,1.496-11.876-7.408-14.855
						C868.616,1897.384,863.023,1917.79,884.922,1915.218z"/>
					<path style="fill:#092916;" d="M903.797,1938.681c0,0,10.782,5.201,16.443-2.297
						C925.897,1928.891,908.325,1917.098,903.797,1938.681z"/>
					<path style="fill:#092916;" d="M986.371,1633.547c0,0,10.784,5.196,16.438-2.3
						C1008.468,1623.756,990.9,1611.963,986.371,1633.547z"/>
					<path style="fill:#092916;" d="M1081.403,1508.408c0,0,10.782,5.196,16.443-2.3
						C1103.503,1498.612,1085.929,1486.824,1081.403,1508.408z"/>
					<path style="fill:#092916;" d="M1059.912,1477.894c0,0,10.777,5.196,16.438-2.3
						C1082.007,1468.104,1064.438,1456.311,1059.912,1477.894z"/>
					<path style="fill:#092916;" d="M798.2,1331.776c0,0,10.782,5.201,16.438-2.295
						C820.295,1321.99,802.726,1310.198,798.2,1331.776z"/>
					<path style="fill:#092916;" d="M990.642,1117.595c0,0,10.782,5.198,16.438-2.295
						C1012.737,1107.81,995.17,1096.014,990.642,1117.595z"/>
					<path style="fill:#092916;" d="M808.299,1038.246c0,0,4.527-11.084-3.298-16.27
						C797.177,1016.785,786.48,1035.04,808.299,1038.246z"/>
					<path style="fill:#092916;" d="M786.775,1171.821c0,0,9.13,7.747,16.492,1.917
						C810.626,1167.914,796.594,1152.077,786.775,1171.821z"/>
					<path style="fill:#092916;" d="M1245.789,988.366c0,0,4.529-11.082-3.303-16.271
						C1234.661,966.907,1223.969,985.165,1245.789,988.366z"/>
					<path style="fill:#092916;" d="M1281.64,1013.002c0,0,4.531-11.084-3.299-16.271
						C1270.517,991.54,1259.82,1009.801,1281.64,1013.002z"/>
					<path style="fill:#092916;" d="M1032.892,1166.871c0,0,10.782,5.196,16.438-2.3
						C1054.987,1157.078,1037.423,1145.29,1032.892,1166.871z"/>
					<path style="fill:#092916;" d="M1081.403,1285.99c0,0,10.782,5.196,16.443-2.299
						C1103.503,1276.2,1085.929,1264.408,1081.403,1285.99z"/>
					<path style="fill:#092916;" d="M808.439,1346.526c0,1.214-0.987,2.2-2.2,2.2c-1.218,0-2.202-0.986-2.202-2.2
						c0-1.218,0.984-2.202,2.202-2.202C807.452,1344.324,808.439,1345.308,808.439,1346.526z"/>
					<path style="fill:#092916;" d="M921.98,1397.941c0,1.218-0.982,2.2-2.198,2.2c-1.213,0-2.2-0.982-2.2-2.2
						c0-1.213,0.987-2.2,2.2-2.2C920.998,1395.741,921.98,1396.728,921.98,1397.941z"/>
					<path style="fill:#092916;" d="M906.287,1411.734c0,1.216-0.987,2.2-2.203,2.2c-1.215,0-2.2-0.984-2.2-2.2
						c0-1.215,0.984-2.202,2.2-2.202C905.3,1409.531,906.287,1410.518,906.287,1411.734z"/>
					<path style="fill:#092916;" d="M971.124,1314.909c0,1.218-0.981,2.202-2.197,2.202c-1.213,0-2.202-0.984-2.202-2.202
						c0-1.211,0.989-2.2,2.202-2.2C970.142,1312.709,971.124,1313.698,971.124,1314.909z"/>
					<path style="fill:#092916;" d="M960.858,1301.847c0,1.211-0.984,2.2-2.197,2.2c-1.22,0-2.202-0.989-2.202-2.2
						c0-1.22,0.982-2.202,2.202-2.202C959.875,1299.644,960.858,1300.626,960.858,1301.847z"/>
					<path style="fill:#092916;" d="M825.308,1211.633c0,1.216-0.984,2.202-2.197,2.202c-1.218,0-2.202-0.986-2.202-2.202
						c0-1.215,0.984-2.2,2.202-2.2C824.324,1209.433,825.308,1210.418,825.308,1211.633z"/>
					<path style="fill:#092916;" d="M904.528,1112.314c0,1.216-0.989,2.2-2.202,2.2c-1.215,0-2.2-0.984-2.2-2.2
						c0-1.215,0.984-2.202,2.2-2.202C903.539,1110.112,904.528,1111.098,904.528,1112.314z"/>
					<path style="fill:#092916;" d="M976.702,1007.426c0,1.215-0.984,2.202-2.2,2.202c-1.22,0-2.202-0.987-2.202-2.202
						c0-1.216,0.982-2.2,2.202-2.2C975.718,1005.226,976.702,1006.21,976.702,1007.426z"/>
					<path style="fill:#092916;" d="M990.642,1023.253c0,1.215-0.989,2.2-2.203,2.2c-1.215,0-2.202-0.984-2.202-2.2
						c0-1.216,0.987-2.2,2.202-2.2C989.652,1021.053,990.642,1022.037,990.642,1023.253z"/>
					<path style="fill:#092916;" d="M937.093,1052.977c0,1.215-0.984,2.202-2.198,2.202c-1.218,0-2.202-0.987-2.202-2.202
						c0-1.216,0.984-2.2,2.202-2.2C936.108,1050.777,937.093,1051.761,937.093,1052.977z"/>
					<path style="fill:#092916;" d="M1047.121,1094.358c0,1.218-0.992,2.197-2.203,2.197c-1.215,0-2.2-0.979-2.2-2.197
						c0-1.213,0.984-2.2,2.2-2.2C1046.129,1092.158,1047.121,1093.145,1047.121,1094.358z"/>
					<path style="fill:#092916;" d="M1088.489,1003.026c0,1.213-0.989,2.2-2.2,2.2c-1.218,0-2.202-0.987-2.202-2.2
						c0-1.218,0.984-2.2,2.202-2.2C1087.5,1000.826,1088.489,1001.808,1088.489,1003.026z"/>
					<path style="fill:#092916;" d="M1128.979,1031.776c0,1.218-0.989,2.203-2.202,2.203c-1.218,0-2.195-0.984-2.195-2.203
						c0-1.21,0.977-2.2,2.195-2.2C1127.99,1029.576,1128.979,1030.566,1128.979,1031.776z"/>
					<path style="fill:#092916;" d="M1169.173,1096.555c0,1.221-0.984,2.205-2.202,2.205c-1.213,0-2.2-0.984-2.2-2.205
						c0-1.211,0.986-2.197,2.2-2.197C1168.189,1094.358,1169.173,1095.344,1169.173,1096.555z"/>
					<path style="fill:#092916;" d="M1197.926,1065.225c0,1.218-0.982,2.2-2.2,2.2c-1.213,0-2.202-0.982-2.202-2.2
						c0-1.215,0.989-2.202,2.202-2.202C1196.944,1063.023,1197.926,1064.01,1197.926,1065.225z"/>
					<path style="fill:#092916;" d="M1370.738,1137.402c0,1.216-0.982,2.205-2.2,2.205c-1.213,0-2.202-0.989-2.202-2.205
						c0-1.213,0.989-2.2,2.202-2.2C1369.756,1135.203,1370.738,1136.19,1370.738,1137.402z"/>
					<path style="fill:#092916;" d="M1302.375,1256.235c0,1.21-0.979,2.197-2.197,2.197c-1.213,0-2.2-0.987-2.2-2.197
						c0-1.221,0.986-2.202,2.2-2.202C1301.396,1254.032,1302.375,1255.014,1302.375,1256.235z"/>
					<path style="fill:#092916;" d="M1324.675,1282.931c0,1.214-0.982,2.2-2.202,2.2c-1.213,0-2.198-0.987-2.198-2.2
						c0-1.218,0.984-2.202,2.198-2.202C1323.693,1280.729,1324.675,1281.713,1324.675,1282.931z"/>
					<path style="fill:#092916;" d="M1304.578,1280.729c0,1.213-0.981,2.202-2.202,2.202c-1.213,0-2.197-0.989-2.197-2.202
						c0-1.215,0.984-2.197,2.197-2.197C1303.596,1278.531,1304.578,1279.513,1304.578,1280.729z"/>
					<path style="fill:#092916;" d="M1359.301,1370.838c0,1.213-0.989,2.202-2.2,2.202c-1.221,0-2.202-0.989-2.202-2.202
						c0-1.216,0.981-2.202,2.202-2.202C1358.312,1368.636,1359.301,1369.622,1359.301,1370.838z"/>
					<path style="fill:#092916;" d="M1376.319,1395.008c0,1.218-0.989,2.202-2.202,2.202c-1.218,0-2.2-0.984-2.2-2.202
						c0-1.213,0.982-2.2,2.2-2.2C1375.33,1392.808,1376.319,1393.795,1376.319,1395.008z"/>
					<path style="fill:#092916;" d="M1351.376,1420.83c0,1.213-0.986,2.2-2.2,2.2c-1.218,0-2.202-0.987-2.202-2.2
						c0-1.218,0.984-2.2,2.202-2.2C1350.39,1418.63,1351.376,1419.612,1351.376,1420.83z"/>
					<path style="fill:#092916;" d="M1361.498,1454.572c0,1.21-0.984,2.2-2.197,2.2c-1.218,0-2.2-0.989-2.2-2.2
						c0-1.218,0.981-2.203,2.2-2.203C1360.514,1452.369,1361.498,1453.353,1361.498,1454.572z"/>
					<path style="fill:#092916;" d="M1203.058,1526.159c0,1.215-0.982,2.2-2.197,2.2c-1.218,0-2.202-0.984-2.202-2.2
						c0-1.213,0.984-2.2,2.202-2.2C1202.077,1523.959,1203.058,1524.946,1203.058,1526.159z"/>
					<path style="fill:#092916;" d="M1273.623,1589.83c0,1.213-0.981,2.202-2.2,2.202c-1.213,0-2.202-0.989-2.202-2.202
						c0-1.218,0.99-2.202,2.202-2.202C1272.641,1587.627,1273.623,1588.611,1273.623,1589.83z"/>
					<path style="fill:#092916;" d="M1274.505,1567.245c0,1.211-0.986,2.2-2.2,2.2c-1.213,0-2.202-0.989-2.202-2.2
						c0-1.22,0.989-2.205,2.202-2.205C1273.519,1565.04,1274.505,1566.025,1274.505,1567.245z"/>
					<path style="fill:#092916;" d="M1259.833,1484.661c0,1.213-0.984,2.202-2.2,2.202c-1.211,0-2.202-0.989-2.202-2.202
						c0-1.215,0.991-2.2,2.202-2.2C1258.848,1482.462,1259.833,1483.446,1259.833,1484.661z"/>
					<path style="fill:#092916;" d="M1278.907,1505.321c0,1.216-0.984,2.202-2.202,2.202c-1.213,0-2.2-0.986-2.2-2.202
						c0-1.215,0.987-2.2,2.2-2.2C1277.923,1503.121,1278.907,1504.106,1278.907,1505.321z"/>
					<path style="fill:#092916;" d="M1233.426,1533.496c0,1.213-0.984,2.2-2.202,2.2c-1.213,0-2.2-0.987-2.2-2.2
						c0-1.218,0.986-2.2,2.2-2.2C1232.442,1531.297,1233.426,1532.278,1233.426,1533.496z"/>
					<path style="fill:#092916;" d="M1365.902,1594.229c0,1.213-0.986,2.2-2.202,2.2c-1.218,0-2.202-0.986-2.202-2.2
						c0-1.218,0.984-2.197,2.202-2.197C1364.916,1592.032,1365.902,1593.011,1365.902,1594.229z"/>
					<path style="fill:#092916;" d="M1337.586,1603.912c0,1.216-0.986,2.2-2.202,2.2c-1.218,0-2.197-0.984-2.197-2.2
						c0-1.218,0.979-2.2,2.197-2.2C1336.599,1601.712,1337.586,1602.694,1337.586,1603.912z"/>
					<path style="fill:#092916;" d="M1297.979,1707.777c0,1.213-0.989,2.2-2.202,2.2c-1.218,0-2.2-0.987-2.2-2.2
						c0-1.218,0.981-2.202,2.2-2.202C1296.989,1705.575,1297.979,1706.559,1297.979,1707.777z"/>
					<path style="fill:#092916;" d="M1320.86,1733.626c0,1.213-0.984,2.2-2.2,2.2c-1.216,0-2.2-0.987-2.2-2.2
						c0-1.218,0.984-2.202,2.2-2.202C1319.876,1731.424,1320.86,1732.408,1320.86,1733.626z"/>
					<path style="fill:#092916;" d="M1243.109,1668.898c0,1.214-0.986,2.202-2.2,2.202c-1.215,0-2.202-0.989-2.202-2.202
						c0-1.215,0.987-2.2,2.202-2.2C1242.123,1666.698,1243.109,1667.683,1243.109,1668.898z"/>
					<path style="fill:#092916;" d="M1180.618,1692.374c0,1.213-0.989,2.2-2.202,2.2c-1.213,0-2.203-0.987-2.203-2.2
						c0-1.22,0.989-2.202,2.203-2.202C1179.629,1690.172,1180.618,1691.154,1180.618,1692.374z"/>
					<path style="fill:#092916;" d="M1137.193,1722.301c0,1.213-0.984,2.2-2.203,2.2c-1.213,0-2.2-0.986-2.2-2.2
						c0-1.218,0.987-2.205,2.2-2.205C1136.209,1720.096,1137.193,1721.083,1137.193,1722.301z"/>
					<path style="fill:#092916;" d="M1251.326,1821.906c0,1.218-0.989,2.202-2.202,2.202c-1.216,0-2.197-0.984-2.197-2.202
						c0-1.213,0.981-2.2,2.197-2.2C1250.337,1819.705,1251.326,1820.692,1251.326,1821.906z"/>
					<path style="fill:#092916;" d="M1283.599,1849.486c0,1.215-0.982,2.2-2.2,2.2c-1.215,0-2.202-0.984-2.202-2.2
						c0-1.216,0.987-2.202,2.202-2.202C1282.617,1847.284,1283.599,1848.27,1283.599,1849.486z"/>
					<path style="fill:#092916;" d="M1259.833,1858.875c0,1.218-0.984,2.202-2.2,2.202c-1.211,0-2.202-0.984-2.202-2.202
						c0-1.211,0.991-2.202,2.202-2.202C1258.848,1856.672,1259.833,1857.664,1259.833,1858.875z"/>
					<path style="fill:#092916;" d="M1297.979,1786.407c0,1.213-0.989,2.2-2.202,2.2c-1.218,0-2.2-0.986-2.2-2.2
						c0-1.218,0.981-2.202,2.2-2.202C1296.989,1784.205,1297.979,1785.189,1297.979,1786.407z"/>
					<path style="fill:#092916;" d="M1040.078,1839.803c0,1.218-0.989,2.2-2.202,2.2c-1.215,0-2.2-0.982-2.2-2.2
						c0-1.213,0.984-2.2,2.2-2.2C1039.089,1837.603,1040.078,1838.59,1040.078,1839.803z"/>
					<path style="fill:#092916;" d="M1008.322,1809.291c0,1.216-0.984,2.202-2.2,2.202c-1.216,0-2.202-0.986-2.202-2.202
						c0-1.215,0.986-2.2,2.202-2.2C1007.338,1807.092,1008.322,1808.076,1008.322,1809.291z"/>
					<path style="fill:#092916;" d="M858.755,1859.464c0,1.215-0.984,2.2-2.197,2.2c-1.218,0-2.202-0.984-2.202-2.2
						c0-1.218,0.984-2.202,2.202-2.202C857.77,1857.262,858.755,1858.246,858.755,1859.464z"/>
					<path style="fill:#092916;" d="M809.756,1886.748c0,1.213-0.982,2.202-2.197,2.202c-1.218,0-2.202-0.989-2.202-2.202
						c0-1.215,0.984-2.197,2.202-2.197C808.774,1884.55,809.756,1885.532,809.756,1886.748z"/>
					<path style="fill:#092916;" d="M894.257,1950.145c0,1.216-0.984,2.2-2.202,2.2c-1.213,0-2.197-0.984-2.197-2.2
						c0-1.213,0.984-2.202,2.197-2.202C893.274,1947.943,894.257,1948.932,894.257,1950.145z"/>
					<path style="fill:#092916;" d="M998.413,1950.145c0,1.216-0.984,2.2-2.202,2.2c-1.211,0-2.2-0.984-2.2-2.2
						c0-1.213,0.989-2.202,2.2-2.202C997.428,1947.943,998.413,1948.932,998.413,1950.145z"/>
					<path style="fill:#092916;" d="M1042.278,1990.613c0,1.215-0.987,2.2-2.2,2.2c-1.218,0-2.202-0.984-2.202-2.2
						c0-1.216,0.984-2.2,2.202-2.2C1041.292,1988.413,1042.278,1989.397,1042.278,1990.613z"/>
					<path style="fill:#092916;" d="M1008.391,1995.017c0,1.211-0.987,2.197-2.2,2.197c-1.216,0-2.2-0.986-2.2-2.197
						c0-1.22,0.984-2.205,2.2-2.205C1007.404,1992.812,1008.391,1993.797,1008.391,1995.017z"/>
					<path style="fill:#092916;" d="M945.896,1849.781c0,1.213-0.989,2.2-2.202,2.2c-1.216,0-2.2-0.987-2.2-2.2
						c0-1.218,0.984-2.198,2.2-2.198C944.908,1847.583,945.896,1848.563,945.896,1849.781z"/>
					<path style="fill:#092916;" d="M902.326,1726.846c0,1.213-0.986,2.2-2.2,2.2c-1.216,0-2.2-0.987-2.2-2.2
						c0-1.215,0.984-2.202,2.2-2.202C901.339,1724.644,902.326,1725.631,902.326,1726.846z"/>
					<path style="fill:#092916;" d="M852.007,1688.705c0,1.213-0.984,2.2-2.2,2.2c-1.216,0-2.203-0.986-2.203-2.2
						c0-1.218,0.987-2.202,2.203-2.202C851.023,1686.503,852.007,1687.488,852.007,1688.705z"/>
					<path style="fill:#092916;" d="M842.326,1709.534c0,1.216-0.984,2.2-2.202,2.2c-1.218,0-2.2-0.984-2.2-2.2
						c0-1.215,0.982-2.2,2.2-2.2C841.342,1707.334,842.326,1708.318,842.326,1709.534z"/>
					<path style="fill:#092916;" d="M816.799,1788.607c0,1.216-0.984,2.2-2.2,2.2c-1.215,0-2.202-0.984-2.202-2.2
						c0-1.218,0.987-2.2,2.202-2.2C815.815,1786.407,816.799,1787.389,816.799,1788.607z"/>
					<path style="fill:#092916;" d="M844.526,1804.89c0,1.213-0.982,2.202-2.2,2.202c-1.215,0-2.202-0.989-2.202-2.202
						c0-1.215,0.987-2.2,2.202-2.2C843.544,1802.69,844.526,1803.674,844.526,1804.89z"/>
					<path style="fill:#092916;" d="M967.312,1870.08c0,1.216-0.982,2.2-2.2,2.2c-1.213,0-2.202-0.984-2.202-2.2
						c0-1.218,0.989-2.2,2.202-2.2C966.33,1867.881,967.312,1868.862,967.312,1870.08z"/>
					<path style="fill:#092916;" d="M1111.666,1909.183c0,1.218-0.987,2.202-2.2,2.202c-1.215,0-2.202-0.984-2.202-2.202
						c0-1.213,0.987-2.202,2.202-2.202C1110.679,1906.981,1111.666,1907.97,1111.666,1909.183z"/>
					<path style="fill:#092916;" d="M1134.843,1942.788c0,1.216-0.982,2.2-2.2,2.2c-1.213,0-2.202-0.984-2.202-2.2
						c0-1.215,0.989-2.202,2.202-2.202C1133.861,1940.586,1134.843,1941.573,1134.843,1942.788z"/>
					<path style="fill:#092916;" d="M1085.554,1963.03c0,1.22-0.984,2.202-2.202,2.202c-1.213,0-2.2-0.982-2.2-2.202
						c0-1.211,0.987-2.198,2.2-2.198C1084.57,1960.832,1085.554,1961.819,1085.554,1963.03z"/>
					<path style="fill:#092916;" d="M1251.326,1968.9c0,1.218-0.989,2.202-2.202,2.202c-1.216,0-2.197-0.984-2.197-2.202
						c0-1.215,0.981-2.202,2.197-2.202C1250.337,1966.698,1251.326,1967.685,1251.326,1968.9z"/>
					<path style="fill:#092916;" d="M1236.579,1959.251c0,1.211-0.984,2.198-2.2,2.198c-1.213,0-2.2-0.987-2.2-2.198
						c0-1.22,0.987-2.202,2.2-2.202C1235.594,1957.049,1236.579,1958.031,1236.579,1959.251z"/>
					<path style="fill:#092916;" d="M1257.633,1923.719c0,1.213-0.987,2.197-2.202,2.197c-1.211,0-2.2-0.984-2.2-2.197
						c0-1.221,0.989-2.2,2.2-2.2C1256.646,1921.52,1257.633,1922.499,1257.633,1923.719z"/>
					<path style="fill:#092916;" d="M1137.042,1807.092c0,1.213-0.984,2.2-2.2,2.2c-1.211,0-2.2-0.986-2.2-2.2
						c0-1.215,0.989-2.202,2.2-2.202C1136.058,1804.89,1137.042,1805.876,1137.042,1807.092z"/>
					<path style="fill:#092916;" d="M1123.42,1821.906c0,1.218-0.984,2.202-2.197,2.202c-1.218,0-2.2-0.984-2.2-2.202
						c0-1.213,0.981-2.2,2.2-2.2C1122.435,1819.705,1123.42,1820.692,1123.42,1821.906z"/>
					<path style="fill:#092916;" d="M1055.041,1784.205c0,1.213-0.987,2.202-2.198,2.202c-1.22,0-2.202-0.989-2.202-2.202
						c0-1.215,0.982-2.2,2.202-2.2C1054.054,1782.006,1055.041,1782.99,1055.041,1784.205z"/>
					<path style="fill:#092916;" d="M1346.39,1109.824c0,1.215-0.989,2.2-2.202,2.2c-1.218,0-2.2-0.984-2.2-2.2
						c0-1.216,0.981-2.202,2.2-2.202C1345.401,1107.622,1346.39,1108.608,1346.39,1109.824z"/>
					<path style="fill:#092916;" d="M1368.538,1084.887c0,1.21-0.984,2.2-2.202,2.2c-1.213,0-2.2-0.989-2.2-2.2
						c0-1.221,0.987-2.203,2.2-2.203C1367.554,1082.684,1368.538,1083.666,1368.538,1084.887z"/>
					<path style="fill:#092916;" d="M1348.589,1010.8c0,1.215-0.986,2.202-2.2,2.202c-1.218,0-2.202-0.987-2.202-2.202
						c0-1.216,0.984-2.2,2.202-2.2C1347.603,1008.599,1348.589,1009.584,1348.589,1010.8z"/>
					<path style="fill:#092916;" d="M1364.136,1025.031c0,1.215-0.982,2.202-2.2,2.202c-1.213,0-2.202-0.987-2.202-2.202
						c0-1.216,0.989-2.2,2.202-2.2C1363.154,1022.831,1364.136,1023.815,1364.136,1025.031z"/>
					<path style="fill:#092916;" d="M1344.188,1033.979c0,1.215-0.987,2.2-2.2,2.2c-1.216,0-2.202-0.984-2.202-2.2
						c0-1.216,0.986-2.203,2.202-2.203C1343.201,1031.776,1344.188,1032.763,1344.188,1033.979z"/>
					<path style="fill:#092916;" d="M1137.193,993.345c0,1.213-0.984,2.2-2.203,2.2c-1.213,0-2.2-0.986-2.2-2.2
						c0-1.22,0.987-2.202,2.2-2.202C1136.209,991.143,1137.193,992.125,1137.193,993.345z"/>
					<path style="fill:#092916;" d="M1123.403,1003.026c0,1.213-0.987,2.2-2.2,2.2c-1.218,0-2.202-0.987-2.202-2.2
						c0-1.218,0.984-2.2,2.202-2.2C1122.416,1000.826,1123.403,1001.808,1123.403,1003.026z"/>
					<path style="fill:#092916;" d="M1175.921,1071.389c0,1.215-0.984,2.197-2.203,2.197c-1.21,0-2.2-0.982-2.2-2.197
						c0-1.216,0.989-2.202,2.2-2.202C1174.937,1069.186,1175.921,1070.173,1175.921,1071.389z"/>
					<path style="fill:#092916;" d="M918.316,1128.601c0,1.215-0.987,2.202-2.2,2.202c-1.216,0-2.205-0.987-2.205-2.202
						c0-1.213,0.989-2.2,2.205-2.2C917.329,1126.401,918.316,1127.388,918.316,1128.601z"/>
					<path style="fill:#092916;" d="M996.946,1219.555c0,1.216-0.984,2.2-2.2,2.2c-1.215,0-2.2-0.984-2.2-2.2
						c0-1.215,0.984-2.2,2.2-2.2C995.962,1217.355,996.946,1218.34,996.946,1219.555z"/>
					<path style="fill:#092916;" d="M1022.178,1241.27c0,1.213-0.984,2.2-2.2,2.2c-1.215,0-2.2-0.987-2.2-2.2
						c0-1.218,0.984-2.202,2.2-2.202C1021.194,1239.068,1022.178,1240.052,1022.178,1241.27z"/>
					<path style="fill:#092916;" d="M1017.779,1207.231c0,1.216-0.986,2.202-2.202,2.202c-1.213,0-2.202-0.986-2.202-2.202
						c0-1.215,0.989-2.2,2.202-2.2C1016.792,1205.032,1017.779,1206.016,1017.779,1207.231z"/>
					<path style="fill:#092916;" d="M849.074,1223.959c0,1.211-0.987,2.2-2.202,2.2c-1.213,0-2.202-0.989-2.202-2.2
						c0-1.22,0.989-2.205,2.202-2.205C848.087,1221.755,849.074,1222.739,849.074,1223.959z"/>
					<path style="fill:#B2D0E0;" d="M847.481,1277.196c0,1.949-1.581,3.532-3.53,3.532c-1.954,0-3.535-1.583-3.535-3.532
						c0-1.951,1.581-3.532,3.535-3.532C845.9,1273.664,847.481,1275.245,847.481,1277.196z"/>
					<path style="fill:#B2D0E0;" d="M964.391,1092.161c0,1.949-1.581,3.53-3.532,3.53c-1.954,0-3.532-1.581-3.532-3.53
						c0-1.952,1.578-3.532,3.532-3.532C962.81,1088.629,964.391,1090.209,964.391,1092.161z"/>
					<path style="fill:#B2D0E0;" d="M1002.949,1067.43c0,1.949-1.583,3.53-3.533,3.53c-1.954,0-3.532-1.581-3.532-3.53
						c0-1.954,1.579-3.537,3.532-3.537C1001.365,1063.892,1002.949,1065.476,1002.949,1067.43z"/>
					<path style="fill:#B2D0E0;" d="M913.351,979.769c0,1.949-1.579,3.532-3.532,3.532c-1.952,0-3.532-1.583-3.532-3.532
						c0-1.954,1.581-3.535,3.532-3.535C911.773,976.234,913.351,977.815,913.351,979.769z"/>
					<path style="fill:#B2D0E0;" d="M1093.712,1445.18c0,1.949-1.583,3.53-3.537,3.53c-1.949,0-3.53-1.58-3.53-3.53
						c0-1.951,1.581-3.532,3.53-3.532C1092.129,1441.648,1093.712,1443.229,1093.712,1445.18z"/>
					<path style="fill:#B2D0E0;" d="M876.211,1557.847c0,1.949-1.583,3.53-3.53,3.53c-1.954,0-3.53-1.581-3.53-3.53
						c0-1.951,1.576-3.532,3.53-3.532C874.628,1554.315,876.211,1555.896,876.211,1557.847z"/>
					<path style="fill:#B2D0E0;" d="M836.896,1617.691c0,1.949-1.581,3.53-3.53,3.53c-1.954,0-3.532-1.581-3.532-3.53
						c0-1.952,1.578-3.53,3.532-3.53C835.315,1614.16,836.896,1615.739,836.896,1617.691z"/>
					<path style="fill:#B2D0E0;" d="M909.819,1589.83c0,1.949-1.583,3.532-3.532,3.532c-1.952,0-3.53-1.583-3.53-3.532
						c0-1.954,1.578-3.535,3.53-3.535C908.235,1586.295,909.819,1587.876,909.819,1589.83z"/>
					<path style="fill:#B2D0E0;" d="M1023.513,1526.162c0,1.951-1.583,3.532-3.535,3.532c-1.951,0-3.53-1.581-3.53-3.532
						c0-1.952,1.578-3.535,3.53-3.535C1021.93,1522.627,1023.513,1524.21,1023.513,1526.162z"/>
					<path style="fill:#B2D0E0;" d="M1063.44,1569.445c0,1.949-1.576,3.53-3.528,3.53c-1.951,0-3.535-1.581-3.535-3.53
						c0-1.954,1.583-3.535,3.535-3.535C1061.864,1565.91,1063.44,1567.491,1063.44,1569.445z"/>
					<path style="fill:#B2D0E0;" d="M1027.043,1603.912c0,1.949-1.581,3.53-3.53,3.53c-1.954,0-3.535-1.581-3.535-3.53
						c0-1.954,1.581-3.535,3.535-3.535C1025.462,1600.377,1027.043,1601.958,1027.043,1603.912z"/>
					<path style="fill:#B2D0E0;" d="M1106.017,1745.027c0,1.949-1.578,3.53-3.527,3.53c-1.954,0-3.532-1.581-3.532-3.53
						c0-1.954,1.578-3.535,3.532-3.535C1104.438,1741.492,1106.017,1743.073,1106.017,1745.027z"/>
					<path style="fill:#B2D0E0;" d="M1206.591,1892.48c0,1.949-1.578,3.532-3.532,3.532c-1.949,0-3.532-1.583-3.532-3.532
						c0-1.949,1.583-3.53,3.532-3.53C1205.012,1888.95,1206.591,1890.531,1206.591,1892.48z"/>
					<path style="fill:#B2D0E0;" d="M994.174,1909.188c0,1.949-1.581,3.53-3.532,3.53c-1.952,0-3.53-1.581-3.53-3.53
						c0-1.954,1.579-3.537,3.53-3.537C992.593,1905.651,994.174,1907.235,994.174,1909.188z"/>
					<path style="fill:#B2D0E0;" d="M1027.043,1867.881c0,1.949-1.581,3.53-3.53,3.53c-1.954,0-3.532-1.581-3.532-3.53
						c0-1.951,1.578-3.532,3.532-3.532C1025.462,1864.348,1027.043,1865.929,1027.043,1867.881z"/>
					<path style="fill:#B2D0E0;" d="M1254.108,1621.22c0,1.951-1.583,3.532-3.532,3.532c-1.954,0-3.532-1.581-3.532-3.532
						c0-1.949,1.578-3.53,3.532-3.53C1252.524,1617.691,1254.108,1619.271,1254.108,1621.22z"/>
					<path style="fill:#B2D0E0;" d="M1341.116,1526.162c0,1.951-1.576,3.532-3.53,3.532c-1.949,0-3.532-1.581-3.532-3.532
						c0-1.952,1.583-3.535,3.532-3.535C1339.539,1522.627,1341.116,1524.21,1341.116,1526.162z"/>
					<path style="fill:#B2D0E0;" d="M1358.429,1544.269c0,1.949-1.578,3.53-3.53,3.53c-1.952,0-3.53-1.581-3.53-3.53
						c0-1.949,1.578-3.53,3.53-3.53C1356.85,1540.738,1358.429,1542.319,1358.429,1544.269z"/>
					<path style="fill:#B2D0E0;" d="M1210.125,1205.032c0,1.951-1.581,3.532-3.535,3.532c-1.949,0-3.532-1.581-3.532-3.532
						s1.583-3.535,3.532-3.535C1208.544,1201.497,1210.125,1203.08,1210.125,1205.032z"/>
					<path style="fill:#B2D0E0;" d="M1323.81,1005.226c0,1.949-1.583,3.53-3.535,3.53s-3.53-1.581-3.53-3.53
						c0-1.951,1.578-3.532,3.53-3.532S1323.81,1003.275,1323.81,1005.226z"/>
					<path style="fill:#B2D0E0;" d="M1375.449,1256.235c0,1.949-1.584,3.53-3.532,3.53c-1.954,0-3.535-1.581-3.535-3.53
						c0-1.956,1.581-3.537,3.535-3.537C1373.866,1252.698,1375.449,1254.279,1375.449,1256.235z"/>
					<path style="fill:#B2D0E0;" d="M1167.278,1169.419c0,1.949-1.578,3.53-3.532,3.53c-1.949,0-3.532-1.581-3.532-3.53
						c0-1.954,1.583-3.535,3.532-3.535C1165.699,1165.885,1167.278,1167.466,1167.278,1169.419z"/>
					<path style="fill:#B2D0E0;" d="M1120.92,1317.113c0,1.949-1.579,3.532-3.532,3.532c-1.949,0-3.532-1.583-3.532-3.532
						c0-1.951,1.584-3.532,3.532-3.532C1119.342,1313.581,1120.92,1315.162,1120.92,1317.113z"/>
					<g>
						<path style="fill:#B2D0E0;" d="M1440.995,931.616l-742.6-2.577c-12.913,13.827-4.202,37.31-4.202,37.31
							c19.477,35.505,167.668,59.434,374.491,59.434c206.824,0,360.572-23.41,374.491-59.434
							C1443.176,966.349,1450.985,944.052,1440.995,931.616z"/>
						<path style="fill:#B4D9EE;" d="M1443.176,938.225c0,33.788-167.667,61.184-374.491,61.184
							c-206.824,0-374.491-27.396-374.491-61.184c0-33.793,167.668-61.186,374.491-61.186
							C1275.509,877.039,1443.176,904.432,1443.176,938.225z"/>
					</g>
					<path style="fill:#99C156;" d="M1402.901,938.225c0,0-307.227,97.446-680.432,0c0,0-17.6-42.292,28.156-99.794
						c0,0-9.374-97.412,103.809-132.623c0,0-0.519-90.364,159.092-98.581c159.609-8.214,177.231-49.291,193.065-84.499
						c15.834-35.208,76.355,28.589,76.355,82.15c0,0-6.134,15.262,8.921,30.514c15.055,15.262,40.876,57.507,28.409,84.501
						c0,0,61.758,10.563,43.861,85.67C1364.136,805.564,1426.63,850.163,1402.901,938.225z"/>
					<path style="opacity:0.6;fill:#8FAC4A;" d="M722.468,938.225c373.205,97.446,680.432,0,680.432,0
						c13.111-48.65-0.097-84.009-14.548-105.938C1249.67,985.847,793.93,934.92,786.775,908.126
						c-7.423-27.82,36.794-16.161,36.794-16.161c366.615,67.975,482.404-96.14,514.256-165.353
						c-9.469-5.318-17.549-6.719-17.549-6.719c4.382-9.491,4.02-20.867,1.072-32.29c-160.615,197.1-517.608,154.788-525.978,117.378
						c-8.667-38.731,77.312-29.927,77.312-29.927c284.185,52.277,396.367-62.837,433.719-120.732
						c-4.955-7.873-10.19-14.528-14.533-18.93c-15.055-15.252-8.921-30.514-8.921-30.514c0-9.961-2.097-20.28-5.608-30.246
						c-30.265,115.921-291.13,157.913-316.589,128.245c-26.424-30.787,194.841-15.844,257.685-102.106
						c31.094-42.674,28.438-58.679,19.084-81.768c-12.887-8.758-25.018-9.413-30.928,3.725
						c-15.834,35.208-33.456,76.284-193.065,84.499c-159.611,8.217-159.092,98.581-159.092,98.581
						C741.25,741.019,750.624,838.431,750.624,838.431C704.868,895.933,722.468,938.225,722.468,938.225z"/>
					<path style="opacity:0.6;fill:#82973D;" d="M1402.901,938.225c8.765-32.536,5.749-59.117-1.522-79.729
						c-207.318,176.644-669.497,79.968-667.704,52.365c1.813-27.914,53.101-33.822,53.101-33.822
						c355.541,74.153,494.512-76.102,541.478-154.841c-4.747-1.742-7.978-2.304-7.978-2.304c3.727-8.066,4.015-17.498,2.217-27.16
						c-159.755,229.109-543.43,131.373-557.768,121.046c-14.67-10.56,11.144-56.185,51.025-66.706
						c39.883-10.526,98.625,40.653,261.712,19.177c120.13-15.82,181.494-82.608,211.938-133.587
						c-11.869-14.292-6.453-27.785-6.453-27.785c0-3.352-0.239-6.748-0.682-10.151c-47.966,93.281-243.087,132.299-264.485,136.316
						c-53.388,10.024-132.766-10.56-129.244-28.166c3.52-17.605,278.144-49.293,321.59-100.343
						c26.214-30.808,15.827-65.444,3.471-88.079c-2.801,1.603-5.203,4.268-7.006,8.273c-15.834,35.208-33.456,76.284-193.065,84.499
						c-159.611,8.217-159.092,98.581-159.092,98.581C741.25,741.019,750.624,838.431,750.624,838.431
						c-45.756,57.502-28.156,99.794-28.156,99.794C1095.673,1035.671,1402.901,938.225,1402.901,938.225z"/>
					<path style="opacity:0.6;fill:#535B26;" d="M1038.473,740.441c-7.384-16.031-11.883-30.862-27.213-41.193
						c-17.284-11.642-38.061,0.246-55.858,2.439c-16.375,2.02-32.684-0.273-49.072,2.699c-14.036,2.55-24.068,11.152-31.038,22.309
						c-2.626,0.036-5.386,0.682-8.192,2.148c-15.708,8.19-11.369,33.464-10.041,47.552c1.683,17.978,2.553,41.466,11.939,57.512
						c7.315,12.502,27.842,10.935,31.915-3.386c1.501-0.682,2.991-1.367,4.497-2.034c5.88-2.633,11.493-8.896,16.107-13.233
						c9.383-8.833,22.292-14.002,33.373-20.363c10.88-6.241,19.734-14.828,28.492-23.664c8.209-8.28,24.19-7.456,35.21-4.93
						C1034.529,769.954,1044.897,754.39,1038.473,740.441z"/>
					<path style="fill:#B5D27A;" d="M1346.39,767.133c0,0-7.191-6.163-26.114,11.442c-18.928,17.605-119.858,132.028-277.557,135.55
						c0,0-26.565,4.195-23.03,14.083c3.532,9.885,166.065-0.926,234.424-43.152C1322.473,842.828,1375.581,782.974,1346.39,767.133z
						"/>
					<path style="fill:#D1E1AB;" d="M1339.786,778.575c0,0-12.911,6.161-32.275,24.645c-19.364,18.482-81.86,69.303-89.777,73.819
						c-7.925,4.519-6.163,14.202,7.04,10.682C1237.974,884.199,1354.343,806.672,1339.786,778.575z"/>
					<path style="fill:#D1E1AB;" d="M1197.926,888.472c0,0-56.772,11.571-60.732,16.853c-3.961,5.279,6.601,10.56,18.046,7.919
						C1166.679,910.603,1220.371,897.151,1197.926,888.472z"/>
					<path style="fill:#B5D27A;" d="M1303.991,679.112c0,0-78.341,67.444-128.069,86.976c0,0-54.718,17.768-51.34,24.811
						c3.364,7.038,35.632,2.351,68.942-12.324C1228.189,763.301,1344.483,675.592,1303.991,679.112z"/>
					<path style="fill:#B5D27A;" d="M1124.426,675.297c9.074,6.234,130.922-23.681,150.844-106.101
						c-6.287-15.403-15.754-29.6-25.798-39.936c1.873,16.319-0.28,39.627-18.835,63.3c0,0-32.27,44.009-83.904,61.615
						C1146.733,654.174,1115.035,668.844,1124.426,675.297z"/>
					<path style="fill:#D1E1AB;" d="M1275.007,568.584c-5.045-12.168-12.056-23.557-19.749-32.857
						c-0.526,21.742-10.46,72.752-85.41,114.338c0,0-18.426,5.281-14.317,11.15C1160.857,668.82,1253.022,637.017,1275.007,568.584z
						"/>
					<path style="opacity:0.6;fill:#728033;" d="M883.841,744.412c214.771,39.186,271.69-9.259,271.091-20.409
						c-0.594-11.152-30.506,0.587-30.506,0.587c-120.294,44.597-231.199,0-231.199,0C822.599,688.939,935,633.31,992.43,608.876
						c-138.464,14.721-137.996,96.932-137.996,96.932c-28.76,8.948-49.578,21.922-64.679,36.282
						C832.85,726.271,883.841,744.412,883.841,744.412z"/>
					<g>
						<path style="fill:#728033;" d="M757.677,857.792c271.101,71.001,399.027-9.391,397.263-18.777
							c-1.761-9.388-19.949-5.488-19.949-5.488c-262.804,68.016-350.593,7.815-379.631-34.46
							c-6.339,22.351-4.736,39.364-4.736,39.364c-15.654,19.673-23.888,37.561-27.953,52.589
							C731.35,868.041,757.677,857.792,757.677,857.792z"/>
						<path style="fill:#728033;" d="M1408.055,907.139c-105.076,92.621-671.889,57.907-685.587,14.611
							c-1.998-6.322-2.699-12.114-2.484-17.437c-2.821,21.093,2.484,33.912,2.484,33.912c373.205,97.446,680.432,0,680.432,0
							C1405.877,927.175,1407.493,916.815,1408.055,907.139z"/>
					</g>
				</g>
				<path style="fill:#092916;" d="M1050.495,850.014c0,0,10.784,5.199,16.438-2.294
					C1072.589,840.229,1055.026,828.433,1050.495,850.014z"/>
				<path style="fill:#092916;" d="M868.15,770.663c0,0,4.531-11.082-3.298-16.268C857.03,749.204,846.336,767.46,868.15,770.663z"
					/>
				<path style="fill:#092916;" d="M1106.178,626.07c0,0,4.526-11.082-3.304-16.27
					C1095.05,604.608,1084.355,622.869,1106.178,626.07z"/>
				<path style="fill:#092916;" d="M1252.907,696.198c0,0,4.526-11.079-3.306-16.268
					C1241.782,674.739,1231.088,693,1252.907,696.198z"/>
				<path style="fill:#092916;" d="M1300.437,912.908c0,0,4.529-11.079-3.304-16.271
					C1289.314,891.453,1278.619,909.712,1300.437,912.908z"/>
				<path style="fill:#092916;" d="M782.609,901.003c0,0,11.415,3.589,15.941-4.645
					C803.062,888.131,783.978,878.993,782.609,901.003z"/>
				<path style="fill:#092916;" d="M862.277,742.629c0,1.216-0.989,2.197-2.2,2.197c-1.218,0-2.2-0.981-2.2-2.197
					c0-1.215,0.982-2.202,2.2-2.202C861.288,740.427,862.277,741.414,862.277,742.629z"/>
				<path style="fill:#092916;" d="M947.952,702.288c0,1.218-0.989,2.202-2.202,2.202c-1.218,0-2.202-0.984-2.202-2.202
					c0-1.211,0.984-2.202,2.202-2.202C946.964,700.086,947.952,701.078,947.952,702.288z"/>
				<path style="fill:#092916;" d="M1012.497,704.491c0,1.218-0.986,2.2-2.197,2.2c-1.218,0-2.202-0.982-2.202-2.2
					c0-1.216,0.984-2.202,2.202-2.202C1011.511,702.288,1012.497,703.275,1012.497,704.491z"/>
				<path style="fill:#092916;" d="M1046.241,684.169c0,1.213-0.984,2.2-2.202,2.2c-1.213,0-2.2-0.987-2.2-2.2
					c0-1.218,0.986-2.2,2.2-2.2C1045.257,681.969,1046.241,682.951,1046.241,684.169z"/>
				<path style="fill:#092916;" d="M1081.447,704.491c0,1.218-0.984,2.2-2.202,2.2c-1.215,0-2.2-0.982-2.2-2.2
					c0-1.216,0.984-2.202,2.2-2.202C1080.463,702.288,1081.447,703.275,1081.447,704.491z"/>
				<path style="fill:#092916;" d="M1030.69,759.46c0,1.215-0.984,2.2-2.202,2.2s-2.2-0.984-2.2-2.2c0-1.216,0.982-2.203,2.2-2.203
					S1030.69,758.244,1030.69,759.46z"/>
				<path style="fill:#092916;" d="M947.952,805.568c0,1.216-0.989,2.2-2.202,2.2c-1.218,0-2.202-0.984-2.202-2.2
					c0-1.218,0.984-2.2,2.202-2.2C946.964,803.369,947.952,804.351,947.952,805.568z"/>
				<circle style="fill:#092916;" cx="959.831" cy="818.772" r="2.202"/>
				<path style="fill:#092916;" d="M954.698,647.132c0,1.213-0.984,2.2-2.2,2.2c-1.218,0-2.202-0.986-2.202-2.2
					c0-1.218,0.984-2.2,2.202-2.2C953.714,644.932,954.698,645.914,954.698,647.132z"/>
				<path style="fill:#092916;" d="M1074.699,617.471c0,1.216-0.987,2.202-2.202,2.202c-1.213,0-2.202-0.986-2.202-2.202
					c0-1.216,0.989-2.197,2.202-2.197C1073.712,615.273,1074.699,616.255,1074.699,617.471z"/>
				<path style="fill:#092916;" d="M1051.523,647.132c0,1.213-0.989,2.2-2.202,2.2c-1.216,0-2.2-0.986-2.2-2.2
					c0-1.218,0.984-2.2,2.2-2.2C1050.534,644.932,1051.523,645.914,1051.523,647.132z"/>
				<path style="fill:#092916;" d="M1124.891,681.209c0,1.211-0.986,2.2-2.202,2.2c-1.218,0-2.202-0.989-2.202-2.2
					c0-1.218,0.984-2.2,2.202-2.2C1123.905,679.01,1124.891,679.991,1124.891,681.209z"/>
				<path style="fill:#092916;" d="M1166.538,702.288c0,1.218-0.989,2.202-2.205,2.202c-1.216,0-2.2-0.984-2.2-2.202
					c0-1.211,0.984-2.202,2.2-2.202C1165.548,700.086,1166.538,701.078,1166.538,702.288z"/>
				<path style="fill:#092916;" d="M1201.183,563.51c0,1.215-0.989,2.202-2.202,2.202c-1.218,0-2.202-0.987-2.202-2.202
					c0-1.213,0.984-2.197,2.202-2.197C1200.194,561.313,1201.183,562.297,1201.183,563.51z"/>
				<path style="fill:#092916;" d="M1228.88,572.314c0,1.216-0.984,2.202-2.202,2.202c-1.208,0-2.2-0.986-2.2-2.202
					c0-1.215,0.991-2.2,2.2-2.2C1227.896,570.114,1228.88,571.098,1228.88,572.314z"/>
				<path style="fill:#092916;" d="M1217.173,649.331c0,1.216-0.989,2.2-2.202,2.2c-1.218,0-2.2-0.984-2.2-2.2
					c0-1.215,0.982-2.2,2.2-2.2C1216.184,647.132,1217.173,648.116,1217.173,649.331z"/>
				<path style="fill:#092916;" d="M1260.276,653.735c0,1.213-0.987,2.2-2.203,2.2c-1.215,0-2.197-0.987-2.197-2.2
					c0-1.22,0.982-2.204,2.197-2.204C1259.29,651.531,1260.276,652.515,1260.276,653.735z"/>
				<path style="fill:#092916;" d="M1265.849,666.496c0,1.215-0.984,2.202-2.202,2.202c-1.213,0-2.202-0.987-2.202-2.202
					c0-1.216,0.989-2.2,2.202-2.2C1264.866,664.296,1265.849,665.28,1265.849,666.496z"/>
				<path style="fill:#092916;" d="M1296.364,679.01c0,1.213-0.984,2.2-2.203,2.2c-1.215,0-2.197-0.987-2.197-2.2
					c0-1.218,0.982-2.202,2.197-2.202C1295.379,676.808,1296.364,677.792,1296.364,679.01z"/>
				<path style="fill:#092916;" d="M1286.682,725.175c0,1.215-0.984,2.2-2.2,2.2c-1.22,0-2.202-0.984-2.202-2.2
					c0-1.216,0.982-2.2,2.202-2.2C1285.699,722.975,1286.682,723.959,1286.682,725.175z"/>
				<path style="fill:#092916;" d="M1306.631,734.361c0,1.213-0.982,2.2-2.2,2.2c-1.215,0-2.2-0.986-2.2-2.2
					c0-1.218,0.984-2.2,2.2-2.2C1305.65,732.161,1306.631,733.143,1306.631,734.361z"/>
				<path style="fill:#092916;" d="M1291.082,763.886c0,1.215-0.984,2.202-2.202,2.202c-1.216,0-2.198-0.987-2.198-2.202
					c0-1.216,0.982-2.2,2.198-2.2C1290.098,761.686,1291.082,762.67,1291.082,763.886z"/>
				<path style="fill:#092916;" d="M1339.637,851.049c0,1.218-0.982,2.203-2.197,2.203c-1.213,0-2.203-0.984-2.203-2.203
					c0-1.213,0.989-2.202,2.203-2.202C1338.655,848.847,1339.637,849.836,1339.637,851.049z"/>
				<path style="fill:#092916;" d="M1376.024,872.462c0,1.216-0.986,2.2-2.2,2.2c-1.218,0-2.202-0.984-2.202-2.2
					c0-1.215,0.984-2.202,2.202-2.202C1375.038,870.26,1376.024,871.247,1376.024,872.462z"/>
				<path style="fill:#092916;" d="M1356.777,907.963c0,1.215-0.986,2.202-2.202,2.202c-1.213,0-2.202-0.987-2.202-2.202
					c0-1.216,0.989-2.2,2.202-2.2C1355.791,905.763,1356.777,906.747,1356.777,907.963z"/>
				<path style="fill:#092916;" d="M1376.024,913.948c0,1.213-0.986,2.2-2.2,2.2c-1.218,0-2.202-0.987-2.202-2.2
					c0-1.216,0.984-2.202,2.202-2.202C1375.038,911.746,1376.024,912.732,1376.024,913.948z"/>
				<path style="fill:#092916;" d="M1224.922,940.425c0,1.213-0.986,2.202-2.2,2.202c-1.218,0-2.202-0.989-2.202-2.202
					c0-1.216,0.984-2.2,2.202-2.2C1223.936,938.225,1224.922,939.209,1224.922,940.425z"/>
				<path style="fill:#092916;" d="M1197.782,926.153c0,1.215-0.987,2.202-2.202,2.202c-1.218,0-2.2-0.987-2.2-2.202
					c0-1.213,0.981-2.202,2.2-2.202C1196.795,923.95,1197.782,924.939,1197.782,926.153z"/>
				<path style="fill:#092916;" d="M1217.387,831.325c0,1.216-0.987,2.202-2.202,2.202c-1.213,0-2.2-0.986-2.2-2.202
					c0-1.218,0.987-2.202,2.2-2.202C1216.401,829.123,1217.387,830.107,1217.387,831.325z"/>
				<path style="fill:#092916;" d="M1197.782,821.702c0,1.216-0.987,2.202-2.202,2.202c-1.218,0-2.2-0.986-2.2-2.202
					c0-1.215,0.981-2.197,2.2-2.197C1196.795,819.505,1197.782,820.487,1197.782,821.702z"/>
				<path style="fill:#092916;" d="M1217.387,784.736c0,1.213-0.987,2.2-2.202,2.2c-1.213,0-2.2-0.987-2.2-2.2
					c0-1.218,0.987-2.2,2.2-2.2C1216.401,782.536,1217.387,783.518,1217.387,784.736z"/>
				<path style="fill:#092916;" d="M1103.162,766.088c0,1.213-0.989,2.2-2.202,2.2c-1.218,0-2.2-0.987-2.2-2.2
					c0-1.221,0.982-2.202,2.2-2.202C1102.173,763.886,1103.162,764.867,1103.162,766.088z"/>
				<path style="fill:#092916;" d="M1041.84,818.772c0,1.213-0.987,2.202-2.2,2.202c-1.218,0-2.202-0.989-2.202-2.202
					c0-1.218,0.984-2.202,2.202-2.202C1040.853,816.57,1041.84,817.554,1041.84,818.772z"/>
				<path style="fill:#092916;" d="M1100.96,859.992c0,1.216-0.987,2.202-2.2,2.202c-1.215,0-2.2-0.986-2.2-2.202
					c0-1.213,0.984-2.2,2.2-2.2C1099.973,857.792,1100.96,858.779,1100.96,859.992z"/>
				<path style="fill:#092916;" d="M1021.565,894.53c0,1.215-0.984,2.2-2.202,2.2c-1.213,0-2.202-0.984-2.202-2.2
					c0-1.216,0.989-2.2,2.202-2.2C1020.58,892.331,1021.565,893.314,1021.565,894.53z"/>
				<path style="fill:#092916;" d="M957.629,931.616c0,1.213-0.979,2.2-2.198,2.2c-1.213,0-2.2-0.987-2.2-2.2
					c0-1.218,0.987-2.2,2.2-2.2C956.649,929.417,957.629,930.398,957.629,931.616z"/>
				<path style="fill:#092916;" d="M988.439,958.135c0,1.216-0.984,2.2-2.202,2.2c-1.213,0-2.197-0.984-2.197-2.2
					c0-1.218,0.984-2.197,2.197-2.197C987.455,955.938,988.439,956.917,988.439,958.135z"/>
				<path style="fill:#092916;" d="M1157.156,715.784c0,1.215-0.982,2.202-2.2,2.202c-1.211,0-2.202-0.987-2.202-2.202
					c0-1.213,0.991-2.2,2.202-2.2C1156.175,713.584,1157.156,714.571,1157.156,715.784z"/>
				<path style="fill:#092916;" d="M1195.58,736.561c0,1.213-0.984,2.202-2.2,2.202c-1.216,0-2.2-0.989-2.2-2.202
					c0-1.215,0.984-2.2,2.2-2.2C1194.596,734.361,1195.58,735.346,1195.58,736.561z"/>
				<path style="fill:#B2D0E0;" d="M914.93,870.262c0,1.949-1.583,3.53-3.532,3.53c-1.954,0-3.532-1.581-3.532-3.53
					c0-1.951,1.578-3.532,3.532-3.532C913.346,866.73,914.93,868.311,914.93,870.262z"/>
				<path style="fill:#B2D0E0;" d="M872.986,802.599c0,1.951-1.573,3.532-3.527,3.532c-1.949,0-3.532-1.581-3.532-3.532
					c0-1.951,1.583-3.532,3.532-3.532C871.412,799.067,872.986,800.648,872.986,802.599z"/>
				<path style="fill:#B2D0E0;" d="M906.287,782.974c0,1.951-1.581,3.535-3.53,3.535c-1.954,0-3.537-1.583-3.537-3.535
					c0-1.951,1.583-3.535,3.537-3.535C904.706,779.44,906.287,781.023,906.287,782.974z"/>
				<path style="fill:#B2D0E0;" d="M1034.222,629.602c0,1.949-1.578,3.53-3.532,3.53c-1.949,0-3.532-1.581-3.532-3.53
					c0-1.951,1.583-3.532,3.532-3.532C1032.644,626.07,1034.222,627.651,1034.222,629.602z"/>
				<path style="fill:#B2D0E0;" d="M1165.666,602.679c0,1.949-1.578,3.53-3.532,3.53c-1.949,0-3.537-1.581-3.537-3.53
					c0-1.954,1.589-3.537,3.537-3.537C1164.087,599.142,1165.666,600.726,1165.666,602.679z"/>
				<path style="fill:#B2D0E0;" d="M1221.967,681.209c0,1.949-1.583,3.53-3.532,3.53c-1.954,0-3.532-1.581-3.532-3.53
					c0-1.954,1.579-3.535,3.532-3.535C1220.384,677.675,1221.967,679.256,1221.967,681.209z"/>
				<path style="fill:#B2D0E0;" d="M1208.243,700.091c0,1.949-1.578,3.53-3.528,3.53c-1.954,0-3.532-1.581-3.532-3.53
					c0-1.954,1.578-3.534,3.532-3.534C1206.664,696.557,1208.243,698.137,1208.243,700.091z"/>
				<path style="fill:#B2D0E0;" d="M1263.803,774.195c0,1.949-1.578,3.53-3.527,3.53c-1.954,0-3.535-1.581-3.535-3.53
					c0-1.949,1.581-3.532,3.535-3.532C1262.225,770.663,1263.803,772.246,1263.803,774.195z"/>
				<ellipse style="fill:#B2D0E0;" cx="1254.208" cy="799.067" rx="3.535" ry="3.532"/>
				<path style="fill:#B2D0E0;" d="M1352.373,825.593c0,1.949-1.578,3.53-3.527,3.53c-1.954,0-3.537-1.581-3.537-3.53
					c0-1.954,1.583-3.535,3.537-3.535C1350.794,822.058,1352.373,823.639,1352.373,825.593z"/>
				<path style="fill:#B2D0E0;" d="M1100.088,887.278c0,1.949-1.579,3.53-3.528,3.53c-1.954,0-3.537-1.581-3.537-3.53
					c0-1.951,1.583-3.532,3.537-3.532C1098.509,883.746,1100.088,885.327,1100.088,887.278z"/>
				<path style="fill:#B2D0E0;" d="M1116.964,894.53c0,1.949-1.583,3.53-3.537,3.53c-1.949,0-3.532-1.581-3.532-3.53
					c0-1.954,1.583-3.535,3.532-3.535C1115.381,890.995,1116.964,892.576,1116.964,894.53z"/>
				<path style="fill:#B2D0E0;" d="M1071.579,951.411c0,1.949-1.581,3.53-3.535,3.53c-1.949,0-3.532-1.581-3.532-3.53
					c0-1.951,1.583-3.534,3.532-3.534C1069.998,947.877,1071.579,949.46,1071.579,951.411z"/>
			</g>
		</g>
		<g>
			
				<linearGradient id="SVGID_00000040562373656419376380000016935776501291938721_" gradientUnits="userSpaceOnUse" x1="878.3115" y1="431.6254" x2="878.3287" y2="431.6228">
				<stop  offset="0" style="stop-color:#FFFFFF"/>
				<stop  offset="0.522" style="stop-color:#000000"/>
				<stop  offset="0.5824" style="stop-color:#0D0603"/>
				<stop  offset="0.668" style="stop-color:#443C3A"/>
				<stop  offset="0.7502" style="stop-color:#756D6B"/>
				<stop  offset="0.8267" style="stop-color:#A7A09F"/>
				<stop  offset="0.8961" style="stop-color:#D0CDCB"/>
				<stop  offset="0.9561" style="stop-color:#EEECEC"/>
				<stop  offset="1" style="stop-color:#FFFFFF"/>
			</linearGradient>
			<path style="fill:url(#SVGID_00000040562373656419376380000016935776501291938721_);" d="M878.318,431.528h-0.022l0.024,0.195
				C878.321,431.658,878.314,431.592,878.318,431.528z"/>
			<path style="opacity:0.8;fill:#9AAEB4;" d="M920.152,425.75l-0.039,0.005c0.005,0.026,0.015,0.051,0.019,0.073
				c0.702,4.565-8.09,9.705-19.632,11.476c-11.189,1.722-20.833-0.358-22.051-4.645l39.549,286.368l41.851-5.778L920.152,425.75z"/>
		</g>
		<g>
			<path style="fill:#579D44;" d="M923.339,687.17c2.767-1.128,16.042-15.035,47.247,8.843
				c21.479,16.433,30.906,14.207,24.29,36.901c-6.616,22.691-34.986,40.657-57.68,49.169c-22.692,8.509-26.475,17.549-35.932,23.43
				c-9.457,5.885-5.673,4.465-28.367,23.61c0,0-9.452,6.624-13.235,12.886c0,0-10.402-36.126-6.623-47.554
				c3.783-11.43-0.709-24.667-0.826-36.959c-0.115-12.29-5.559-33.091,0-42.548c5.559-9.459,12.407-28.675,21.629-31.763
				C893.7,676.539,916.713,689.872,923.339,687.17z"/>
			<path style="fill:#4B823C;" d="M970.585,696.013c-26.185-20.041-39.744-13.471-45.059-10.171
				c0.872,0.565,1.964,0.872,3.159,0.738c5.352-0.589,4.729-1.417,11.35-1.417c6.616,0,21.88,4.865,22.689,8.511
				c0.813,3.637,14.187,10.4,17.025,13.237c2.838,2.836,8.753,1.343,10.4,9.805c1.642,8.47-8.039,5.323-12.292,6.268
				c-4.254,0.945-3.308,3.308-6.146,7.094c-2.838,3.781-3.783,1.89-5.671,4.606c-1.898,2.719,2.833,4.848,3.342,15.725
				c0.509,10.872-5.235,7.564-12.801,11.25c-7.564,3.688-12.292,3.4-16.076,3.878c-3.783,0.472-3.778,6.146-9.927,11.82
				c-6.146,5.674-7.564,2.838-16.548,3.783c-8.982,0.942-6.619,3.781-12.29,11.345c-5.676,7.564-11.824,11.822-11.824,8.039
				c0-3.783,3.783-5.676,0-10.875c-3.781-5.203,5.673-8.984,7.094-13.712c1.418-4.729,6.143-11.347,10.875-17.963
				c4.726-6.621,6.618-6.148,13.237-10.402c6.621-4.256,6.143-3.781,2.217-5.393c-3.932-1.615-12.619,9.647-15.454,7.754
				c-2.838-1.89,5.198-8.037,6.146-11.7c0.945-3.664,4.256-4.373,9.308-7.211c5.047-2.836,11.021-2.836,18.587-4.729
				c7.564-1.888,10.402-3.308,17.963-3.778c7.566-0.475,12.765,0,7.094-4.724c-5.671-4.714-44.443,6.614-49.174,7.084
				c-4.726,0.472,3.786-5.674,8.989-12.772c5.198-7.104,8.507-4.721,13.707-6.141c5.199-1.418,11.345,0,9.932-2.833
				c-1.423-2.838-8.987-1.42-15.133-0.475c-6.144,0.95-16.55,9.457-18.441,6.621c-1.888-2.836,1.89-8.039,4.258-13.118
				c0.95-2.036,2.268-5.72,3.454-9.715c-0.531,0.344-0.945,0.609-1.238,0.728c-1.32,0.536-3.303,0.429-5.759-0.022
				c-4.879,13.949-16.273,48.202-25.12,74.372c-1.233-0.173-2.952-0.156-4.906,0.139c-5.676,0.85-13.238,5.768-18.913,9.079
				c-5.674,3.308-8.512,0.47-9.457-3.311c-0.945-3.783,5.203-7.089,7.566-10.402c2.363-3.311,12.77-9.93,16.078-11.82
				c3.308-1.89,8.979-4.256,13.237-6.974c4.254-2.719,0.945-1.065-6.623,0c-7.564,1.064-14.18,6.974-19.379,10.285
				c-5.204,3.308-13.242,7.089-12.292,3.783c0.945-3.313,0.468-8.039-1.422-14.068c-1.89-6.027,5.203-4.373,10.402-10.046
				c5.198-5.671,24.112-8.984,20.331-11.469c-3.783-2.475-31.678,10.048-33.098,4.85c-1.418-5.201,4.256-5.201,9.932-9.464
				c5.671-4.266,34.041-10.395,34.041-12.285c0-1.89-33.096,6.621-35.459,4.725c-2.368-1.89,2.836-4.725,6.187-8.387
				c3.343-3.661,0.911-4.375,0.02-9.496c-6.711,6.76-12.024,20.679-16.492,28.287c-5.559,9.457-0.115,30.258,0,42.548
				c0.117,12.292,4.609,25.53,0.826,36.959c-3.778,11.427,6.623,47.554,6.623,47.554c3.783-6.263,13.235-12.886,13.235-12.886
				c22.694-19.145,18.911-17.724,28.367-23.61c9.457-5.881,13.24-14.921,35.932-23.43c22.694-8.511,51.064-26.477,57.68-49.169
				C1001.492,710.22,992.064,712.446,970.585,696.013z M868.64,813.627c-3.308,2.234-8.039,1.549-9.925,0
				c-1.895-1.549,1.885-8.85,5.199-14.053c3.308-5.199,11.819-11.344,15.128-14.183c3.311-2.836,7.561-4.726,1.89-3.778
				c-5.671,0.945-17.966,14.185-20.804,12.843c-2.836-1.342-0.468-7.172,3.786-11.9c4.256-4.728,4.256-5.198,8.039-10.355
				c3.586-4.897,14.397-6.076,19.537-7.798c-5.367,15.831-9.612,28.138-10.558,30.053
				C878.097,800.209,871.953,811.398,868.64,813.627z"/>
			<path style="fill:#386732;" d="M901.263,805.513c9.457-5.881,13.24-14.921,35.932-23.43c22.694-8.511,51.064-26.477,57.68-49.169
				c2.036-6.97,2.538-11.576,1.659-15.109c-3.072,6.129-2.134,9.435-6.862,10.38c-4.721,0.947-8.507,2.363-10.87,4.729
				c-2.365,2.36-1.89,0.234-2.365,5.318c-0.472,5.084,2.365,3.191,0,9.81c-2.365,6.618-7.091,16.078-11.822,16.548
				c-4.726,0.47-12.765,3.313-14.653,3.783c-1.888,0.475-5.671,0.945-8.981,5.203c-3.313,4.251-14.036,12.88-16.219,14.129
				c-2.18,1.25-7.898-1.471-11.206,0c-3.308,1.469-6.621,1.629-9.927,6.75c-3.31,5.123-7.564,11.557-12.294,12.833
				c-4.731,1.269-4.254-2.458-8.982,1.771c-4.729,4.227-4.729,6.592-8.037,10.375c-3.308,3.781-7.566,14.183-9.457,11.345
				c-1.893-2.833-2.838-3.087-4.258-7.689c-1.418-4.601-7.559-16.894-4.726-20.674c2.84-3.783-0.144-9.25-0.736-14.183
				c-0.594-4.94,1.92-7.3-2.217-21.383l0,0c1.135,9.445,2.952,19.035,0.114,27.605c-3.778,11.427,6.623,47.554,6.623,47.554
				c3.783-6.263,13.235-12.886,13.235-12.886C895.59,809.978,891.807,811.398,901.263,805.513z"/>
			<path style="fill:#72C05B;" d="M954.335,731.138c0,0-4.609,1.067-9.22,2.838c-4.609,1.774-8.156,2.836-10.992,6.027
				c-2.833,3.194-5.966,5.676-9.546,8.87c-3.574,3.188-9.954,7.442-11.376,9.924c-1.418,2.485-0.351,2.838-2.48,5.674
				c-2.129,2.838-0.356,2.838-3.547,6.387c-3.192,3.542-4.609,6.38-1.774,6.38c2.836,0,6.382-2.482,9.576-3.9
				c3.188-1.42,4.67-1.067,9.6-3.549c4.935-2.48,7.42-5.625,9.546-8.129c2.127-2.507,4.612-8.536,7.803-7.469
				c3.189,1.065,9.574,0.356,12.409-1.42c2.836-1.773,5.671-3.897,5.315-8.156C959.299,740.361,958.466,730.023,954.335,731.138z"/>
			<path style="fill:#72C05B;" d="M962.842,702.775c0,0-7.442,1.062-9.925,3.186c-2.48,2.132-5.32,4.256-9.223,4.614
				c-3.898,0.353-7.089,2.719-10.635,4.373c-3.547,1.654-10.28,2.996-5.316,2.857c4.96-0.139,9.925-2.382,15.245-2.857
				c5.32-0.473,7.803-2.736,12.412-2.845c4.606-0.112,11.347,0.818,13.83,0c2.482-0.819,2.126,6.511,5.673,2.845
				c3.544-3.664,2.482-5.084,0-7.566C972.415,704.902,965.034,702.386,962.842,702.775z"/>
			<path style="fill:#72C05B;" d="M938.735,688.588c0,0-8.156,3.194-9.93,6.029c-1.773,2.838-7.742,4.253-5.466,5.673
				c2.276,1.418,5.384,1.771,8.438,0c3.055-1.774,8.019-2.129,10.86-2.129c2.833,0,5.832,1.42,8.943-0.706
				c3.113-2.129,2.916-4.965,0-6.387C948.664,689.653,942.052,687.124,938.735,688.588z"/>
			<path style="fill:#72C05B;" d="M879.519,686.108c0,0-3.902,3.192-4.967,6.736c-1.065,3.545-9.22,7.091-3.193,6.738
				c6.027-0.356,9.218-2.953,13.123-3.425c3.898-0.475,6.736-0.239,9.925,0c3.193,0.232,7.232,0.472,9.469,0
				c2.236-0.475,7.198-1.159,4.01-3.301c-3.191-2.141-5.676-3.379-8.159-4.709C897.244,686.817,881.965,683.643,879.519,686.108z"/>
			<path style="fill:#72C05B;" d="M866.75,733.623c0,0-7.8,7.091-3.897,8.154c3.897,1.062,7.8,3.547,10.635,0
				c2.841-3.544,3.898-8.507,8.156-8.154c4.253,0.353,8.512,0.675,9.929-0.017c1.418-0.691,5.32-2.55,5.32-2.55
				s4.254-2.044,2.48-3.462c-1.774-1.42-4.611,2.129-7.089,0c-2.484-2.126-6.387,0.017-9.22-0.346
				C880.226,726.887,870.652,725.467,866.75,733.623z"/>
		</g>
		<g>
			<path style="fill:#72C05B;" d="M942.345,708.357c0,0,13.135-25.432,30.65-27.803c0,0,6.568-19.69,25.174-24.165
				c18.602-4.478,37.21,17.595,40.497,34.472c3.284,16.874,3.284,32.124,7.659,40.915c0,0-27.362-1.133-36.121,0
				c-8.751,1.133-38.307,6.414-48.158,5.416C952.196,736.193,930.155,725.236,942.345,708.357z"/>
			<path style="opacity:0.5;fill:#4B823C;" d="M1046.324,731.776c-4.375-8.792-4.375-24.041-7.659-40.915
				c-3.286-16.877-21.895-38.95-40.497-34.472c-10.891,2.619-17.637,10.439-21.369,16.482c-0.02,1.284,0.061,2.324,0.205,2.757
				c0.365,1.094,2.19,0.366,4.377-1.096c2.19-1.459,6.935-6.568,11.164-9.486c4.229-2.921,14.012-3.284,17.657-1.369
				c3.649,1.915-3.279,7.934-6.195,13.045c-2.921,5.108-1.099,9.486,0.363,10.942c1.457,1.462,4.375-8.753,5.832-10.942
				c1.466-2.19,10.587-8.029,12.414-5.474c1.82,2.553,1.092,5.837,0.366,9.305c-0.736,3.464-3.654,9.301-4.385,11.859
				c-0.728,2.548-1.827,5.837,0.731,4.144c2.558-1.688,5.837-5.608,9.12-5.24c3.284,0.36,4.743,5.106,4.743,10.216
				c0,5.104,1.094,6.202,0,9.849c-1.094,3.65-3.647,1.823-5.835,0c-2.192-1.822-7.298-2.553-8.76-3.025
				c-1.457-0.47,4.745,5.581,6.568,7.037c1.827,1.459,5.839,3.286,4.745,5.476c-1.099,2.188-6.928,2.55-9.851,2.974
				c-2.918,0.419-9.486-2.246-11.676-0.824c-2.192,1.418-1.459-5.8,0.728-7.99c2.193-2.188,3.284-8.758,0-6.675
				c-3.284,2.085-6.202,10.324-9.486,12.148c-3.284,1.823-7.659,2.185-10.942,2.516c-3.284,0.327-1.827-3.247-2.188-5.415
				c-0.37-2.171,3.279-6.95,6.051-9.25c2.767-2.292,4.158-6.095,0-4.636c-4.163,1.459-5.325,5.839-8.609,8.755
				c-3.289,2.918-7.296,2.19-11.308,2.19c-4.015,0-8.029,5.471-11.313,5.839c-3.284,0.366-4.375-0.368-3.284-2.899
				c1.096-2.533,9.489-12.792,10.948-14.979c1.461-2.19-8.76,5.84-12.67,9.123c-3.91,3.281-5.936,8.387-8.129,11.271
				c-2.19,2.882-3.649-2.516-4.375-5.415c-0.731-2.897,1.094-6.587,2.913-9.25c1.16-1.686,9.822-14.567,15.988-23.754
				c-12.124,7.819-20.362,23.754-20.362,23.754c-12.19,16.879,9.851,27.837,19.7,28.835c9.851,0.999,39.408-4.283,48.158-5.416
				C1018.963,730.644,1046.324,731.776,1046.324,731.776z"/>
			<path style="opacity:0.4;fill:#C6DD7C;" d="M984.848,696.332c-0.96,0.224-9.666,2.28-11.673,4.47
				c-2.01,2.188-2.734,3.284-4.197,4.743c-1.457,1.459-3.467,1.824-4.012,5.656c-0.548,3.83,2.007,2.733,5.291,1.274
				c3.284-1.457,4.192-0.726,7.662-2.37c3.464-1.639,5.15-2.346,6.955-5.099C986.673,702.261,989.967,695.143,984.848,696.332z"/>
			<path style="opacity:0.4;fill:#C6DD7C;" d="M1001.452,704.266c0,0-6.565,2.738-7.666,5.654c-1.094,2.923-3.101,3.288-3.644,6.755
				c-0.548,3.461,0.728,4.377,3.644,3.099c2.919-1.277,4.56-1.459,6.385-4.38C1001.998,712.476,1005.677,702.023,1001.452,704.266z"
				/>
			<path style="opacity:0.4;fill:#C6DD7C;" d="M1002.364,665.046c-0.536-0.122-3.464-2.19-7.113,2.19
				c-3.649,4.375-4.565,5.289-6.024,8.758c-1.459,3.464,0.548,3.829,0,5.834c-0.543,2.007,0,4.015,2.19,2.007
				c2.19-2.007,1.832-3.646,5.291-6.202c3.464-2.555,5.656-3.284,7.479-5.654C1004.186,671.979,1008.888,666.542,1002.364,665.046z"
				/>
			<g>
				<path style="fill:#4B823C;" d="M1007.718,732.123c-4.081-1.036-3.893-3.774-7.727-4.32c-3.832-0.548-8.931-1.094-11.303,0.361
					c-2.378,1.462-5.116,4.382-8.214,2.555c-3.104-1.822-0.802-7.113-4.234-7.661c-3.43-0.548-4.711-0.183-8.175,0.73
					c-3.464,0.911-6.017-1.099-9.121,1.274c-3.103,2.373-4.38,4.931-6.383,4.015c-2.009-0.913-8.938-4.377-10.036-5.656
					c-0.526-0.611-2.102-3.963-3.601-7.281c-1.873,12.407,14.88,20.217,23.121,21.052c9.072,0.916,34.821-3.481,45.678-5.065
					C1007.718,732.123,1007.718,732.123,1007.718,732.123z"/>
				<path style="fill:#4B823C;" d="M998.169,656.389c-1.778,0.426-3.41,1.028-4.971,1.7c7.754,0.275,18.735,1.035,20.475,3.126
					c2.738,3.286,3.469,6.204,5.839,6.75c2.373,0.548,5.108-0.804,6.57,1.608c1.457,2.407,2.55,5.871,2.55,8.607
					c0,2.738-0.546,4.565,1.094,6.568c1.642,2.01,4.926,4.926,5.476,8.212c0.543,3.284,2.55,9.225,1.277,10.999
					c-1.277,1.768,0.102,5.054,0.417,6.511c0.314,1.462,1.586,4.926,2.319,7.664c0.728,2.738,0.368,6.022,1.459,8.209
					c0,0-2.553-1.279-6.568,0c-4.012,1.276-2.919,0.914-7.477,0.914c-4.562,0-6.933-2.093-10.77,0.046
					c-2.463,1.378-3.449,3.396-4.918,4.392c9.449-0.986,35.383,0.083,35.383,0.083c-4.375-8.792-4.375-24.041-7.659-40.915
					C1035.379,673.984,1016.771,651.911,998.169,656.389z"/>
			</g>
		</g>
	</g>
</g>
</svg>
