<?xml version="1.0" encoding="utf-8"?>
<!-- Generator: Adobe Illustrator 27.5.0, SVG Export Plug-In . SVG Version: 6.00 Build 0)  -->
<svg version="1.1" id="Capa_1" xmlns="http://www.w3.org/2000/svg" xmlns:xlink="http://www.w3.org/1999/xlink" x="0px" y="0px"
	 viewBox="0 0 425.2 425.2" style="enable-background:new 0 0 425.2 425.2;" xml:space="preserve">
<rect x="0.002" y="0.002" style="fill:#FFFFFF;" width="425.197" height="425.196"/>
<g>
	<ellipse style="fill:#BCBEC0;" cx="212.6" cy="338.411" rx="180.66" ry="46.852"/>
	<g>
		<g>
			<ellipse style="fill:#7D6C51;" cx="212.6" cy="325.54" rx="154.799" ry="44.559"/>
			<rect x="57.74" y="314.531" style="fill:#7D6C51;" width="309.719" height="12.409"/>
			<path style="fill:#DDBE90;" d="M367.461,314.531c0,24.609-69.307,44.559-154.799,44.559c-85.496,0-154.803-19.95-154.803-44.559
				c0-24.609,69.307-44.559,154.803-44.559C298.154,269.973,367.461,289.922,367.461,314.531z"/>
		</g>
		<g>
			<path style="fill:#DBB16C;" d="M343.422,294.261v-92.095H80.693v97.032c0,21.657,59.047,39.214,131.883,39.214
				c72.838,0,131.883-17.557,131.883-39.214C344.459,297.525,344.104,295.878,343.422,294.261z"/>
			<g>
				<path style="fill:#D1D3D4;" d="M99.316,216.819c0,2.372-1.922,4.295-4.295,4.295c-2.371,0-4.295-1.923-4.295-4.295
					c0-2.372,1.924-4.296,4.295-4.296C97.395,212.523,99.316,214.446,99.316,216.819z"/>
				<path style="fill:#D1D3D4;" d="M102.281,236.025c0,1.187-0.963,2.148-2.148,2.148c-1.186,0-2.148-0.961-2.148-2.148
					c0-1.186,0.963-2.148,2.148-2.148C101.318,233.877,102.281,234.839,102.281,236.025z"/>
				<path style="fill:#D1D3D4;" d="M119.805,219.537c0,1.854-1.504,3.356-3.357,3.356c-1.856,0-3.357-1.503-3.357-3.356
					s1.502-3.355,3.357-3.355C118.301,216.182,119.805,217.684,119.805,219.537z"/>
				<path style="fill:#D1D3D4;" d="M123.16,246.557c0,1.853-1.506,3.355-3.355,3.355c-1.855,0-3.357-1.502-3.357-3.355
					c0-1.854,1.502-3.356,3.357-3.356C121.654,243.201,123.16,244.703,123.16,246.557z"/>
				<path style="fill:#D1D3D4;" d="M105.637,256.786c0,1.853-1.504,3.355-3.355,3.355c-1.854,0-3.357-1.502-3.357-3.355
					c0-1.854,1.504-3.355,3.357-3.355C104.133,253.431,105.637,254.933,105.637,256.786z"/>
				<path style="fill:#D1D3D4;" d="M94.084,273.101c0,1.854-1.502,3.355-3.357,3.355c-1.854,0-3.355-1.502-3.355-3.355
					c0-1.853,1.502-3.355,3.355-3.355C92.582,269.745,94.084,271.247,94.084,273.101z"/>
				<path style="fill:#D1D3D4;" d="M118.123,274.779c0,0.926-0.75,1.677-1.676,1.677c-0.926,0-1.678-0.751-1.678-1.677
					c0-0.927,0.752-1.678,1.678-1.678C117.373,273.101,118.123,273.852,118.123,274.779z"/>
				<path style="fill:#D1D3D4;" d="M116.447,258.493c0,0.927-0.752,1.678-1.678,1.678c-0.93,0-1.68-0.751-1.68-1.678
					c0-0.927,0.75-1.678,1.68-1.678C115.695,256.815,116.447,257.566,116.447,258.493z"/>
				<path style="fill:#D1D3D4;" d="M108.021,285.342c0,1.349-1.094,2.443-2.441,2.443c-1.352,0-2.445-1.094-2.445-2.443
					c0-1.35,1.094-2.443,2.445-2.443C106.928,282.899,108.021,283.992,108.021,285.342z"/>
				<path style="fill:#D1D3D4;" d="M128.047,293.436c0,1.348-1.094,2.443-2.445,2.443c-1.35,0-2.441-1.095-2.441-2.443
					c0-1.35,1.092-2.443,2.441-2.443C126.953,290.994,128.047,292.086,128.047,293.436z"/>
				<path style="fill:#D1D3D4;" d="M95.836,299.885c0,1.349-1.092,2.442-2.443,2.442c-1.35,0-2.441-1.094-2.441-2.442
					c0-1.35,1.092-2.443,2.441-2.443C94.744,297.441,95.836,298.535,95.836,299.885z"/>
				<path style="fill:#D1D3D4;" d="M152.354,233.893c0,2.372-1.92,4.295-4.295,4.295c-2.371,0-4.295-1.923-4.295-4.295
					c0-2.373,1.924-4.296,4.295-4.296C150.434,229.597,152.354,231.52,152.354,233.893z"/>
				<path style="fill:#D1D3D4;" d="M155.316,253.099c0,1.186-0.961,2.147-2.148,2.147c-1.186,0-2.146-0.961-2.146-2.147
					c0-1.186,0.961-2.147,2.146-2.147C154.355,250.952,155.316,251.913,155.316,253.099z"/>
				<path style="fill:#D1D3D4;" d="M172.84,236.611c0,1.854-1.502,3.355-3.355,3.355c-1.855,0-3.357-1.502-3.357-3.355
					s1.502-3.355,3.357-3.355C171.338,233.256,172.84,234.758,172.84,236.611z"/>
				<path style="fill:#D1D3D4;" d="M176.197,263.63c0,1.853-1.504,3.355-3.357,3.355s-3.355-1.502-3.355-3.355
					c0-1.854,1.502-3.356,3.355-3.356S176.197,261.777,176.197,263.63z"/>
				<path style="fill:#D1D3D4;" d="M158.674,273.86c0,1.854-1.504,3.356-3.357,3.356c-1.852,0-3.354-1.502-3.354-3.356
					c0-1.853,1.502-3.356,3.354-3.356C157.17,270.504,158.674,272.007,158.674,273.86z"/>
				<path style="fill:#D1D3D4;" d="M147.119,290.175c0,1.853-1.5,3.355-3.355,3.355c-1.854,0-3.357-1.503-3.357-3.355
					c0-1.854,1.504-3.356,3.357-3.356C145.619,286.819,147.119,288.321,147.119,290.175z"/>
				<path style="fill:#D1D3D4;" d="M171.162,291.853c0,0.926-0.75,1.677-1.678,1.677c-0.928,0-1.678-0.751-1.678-1.677
					c0-0.928,0.75-1.678,1.678-1.678C170.412,290.175,171.162,290.925,171.162,291.853z"/>
				<path style="fill:#D1D3D4;" d="M107.313,301.081c0,0.927-0.75,1.678-1.676,1.678c-0.926,0-1.678-0.751-1.678-1.678
					c0-0.927,0.752-1.678,1.678-1.678C106.563,299.403,107.313,300.154,107.313,301.081z"/>
				<path style="fill:#D1D3D4;" d="M161.059,302.416c0,1.348-1.094,2.442-2.443,2.442c-1.352,0-2.443-1.094-2.443-2.442
					c0-1.35,1.092-2.443,2.443-2.443C159.965,299.973,161.059,301.066,161.059,302.416z"/>
				<path style="fill:#D1D3D4;" d="M181.082,310.51c0,1.349-1.092,2.442-2.443,2.442c-1.35,0-2.441-1.094-2.441-2.442
					c0-1.35,1.092-2.442,2.441-2.442C179.99,308.068,181.082,309.16,181.082,310.51z"/>
				<path style="fill:#D1D3D4;" d="M151.318,317.517c0,1.348-1.094,2.442-2.445,2.442c-1.35,0-2.441-1.094-2.441-2.442
					c0-1.351,1.092-2.443,2.441-2.443C150.225,315.074,151.318,316.167,151.318,317.517z"/>
				<path style="fill:#D1D3D4;" d="M199.139,248.154c0,2.373-1.922,4.295-4.295,4.295c-2.371,0-4.295-1.923-4.295-4.295
					s1.924-4.296,4.295-4.296C197.217,243.858,199.139,245.782,199.139,248.154z"/>
				<path style="fill:#D1D3D4;" d="M202.102,267.361c0,1.186-0.961,2.147-2.148,2.147c-1.184,0-2.146-0.961-2.146-2.147
					c0-1.187,0.963-2.148,2.146-2.148C201.141,265.213,202.102,266.174,202.102,267.361z"/>
				<path style="fill:#D1D3D4;" d="M180.785,276.974c0,1.186-0.961,2.148-2.146,2.148c-1.188,0-2.148-0.961-2.148-2.148
					c0-1.186,0.961-2.148,2.148-2.148C179.824,274.826,180.785,275.788,180.785,276.974z"/>
				<path style="fill:#D1D3D4;" d="M219.623,250.873c0,1.854-1.502,3.355-3.353,3.355c-1.856,0-3.358-1.502-3.358-3.355
					c0-1.854,1.502-3.355,3.358-3.355C218.121,247.518,219.623,249.02,219.623,250.873z"/>
				<path style="fill:#D1D3D4;" d="M226.336,271.494c0,1.853-1.502,3.355-3.355,3.355c-1.855,0-3.357-1.502-3.357-3.355
					c0-1.854,1.502-3.355,3.357-3.355C224.834,268.138,226.336,269.64,226.336,271.494z"/>
				<path style="fill:#D1D3D4;" d="M205.459,288.122c0,1.853-1.504,3.356-3.357,3.356s-3.355-1.502-3.355-3.356
					c0-1.854,1.502-3.356,3.355-3.356S205.459,286.268,205.459,288.122z"/>
				<path style="fill:#D1D3D4;" d="M193.906,304.436c0,1.853-1.504,3.355-3.357,3.355s-3.355-1.503-3.355-3.355
					c0-1.853,1.502-3.356,3.355-3.356S193.906,302.583,193.906,304.436z"/>
				<path style="fill:#D1D3D4;" d="M217.945,306.114c0,0.926-0.75,1.678-1.676,1.678c-0.928,0-1.68-0.751-1.68-1.678
					c0-0.927,0.752-1.678,1.68-1.678C217.195,304.436,217.945,305.187,217.945,306.114z"/>
				<path style="fill:#D1D3D4;" d="M169.484,324.772c0,0.927-0.752,1.678-1.678,1.678c-0.93,0-1.68-0.751-1.68-1.678
					c0-0.927,0.75-1.678,1.68-1.678C168.732,323.094,169.484,323.845,169.484,324.772z"/>
				<path style="fill:#D1D3D4;" d="M207.844,316.678c0,1.348-1.094,2.442-2.445,2.442c-1.348,0-2.441-1.094-2.441-2.442
					c0-1.35,1.094-2.443,2.441-2.443C206.75,314.235,207.844,315.328,207.844,316.678z"/>
				<path style="fill:#D1D3D4;" d="M227.867,324.772c0,1.349-1.094,2.442-2.443,2.442c-1.352,0-2.443-1.094-2.443-2.442
					c0-1.35,1.092-2.443,2.443-2.443C226.773,322.329,227.867,323.422,227.867,324.772z"/>
				<path style="fill:#D1D3D4;" d="M239.609,263.631c0,1.348-1.094,2.442-2.445,2.442c-1.35,0-2.441-1.094-2.441-2.442
					c0-1.35,1.092-2.443,2.441-2.443C238.516,261.188,239.609,262.281,239.609,263.631z"/>
				<path style="fill:#D1D3D4;" d="M198.102,331.778c0,1.349-1.094,2.443-2.443,2.443c-1.352,0-2.443-1.094-2.443-2.443
					c0-1.35,1.092-2.443,2.443-2.443C197.008,329.335,198.102,330.429,198.102,331.778z"/>
				<path style="fill:#D1D3D4;" d="M254.744,247.236c0,2.373-1.924,4.296-4.295,4.296c-2.373,0-4.295-1.923-4.295-4.296
					c0-2.372,1.922-4.295,4.295-4.295C252.82,242.941,254.744,244.864,254.744,247.236z"/>
				<path style="fill:#D1D3D4;" d="M257.707,266.443c0,1.186-0.961,2.147-2.148,2.147c-1.186,0-2.146-0.961-2.146-2.147
					c0-1.186,0.961-2.147,2.146-2.147C256.746,264.295,257.707,265.257,257.707,266.443z"/>
				<path style="fill:#D1D3D4;" d="M275.23,249.955c0,1.854-1.506,3.355-3.355,3.355c-1.855,0-3.357-1.502-3.357-3.355
					s1.502-3.355,3.357-3.355C273.725,246.599,275.23,248.101,275.23,249.955z"/>
				<path style="fill:#D1D3D4;" d="M278.588,276.974c0,1.853-1.506,3.355-3.357,3.355c-1.855,0-3.355-1.503-3.355-3.355
					c0-1.853,1.5-3.356,3.355-3.356C277.082,273.618,278.588,275.121,278.588,276.974z"/>
				<path style="fill:#D1D3D4;" d="M261.065,287.203c0,1.854-1.504,3.356-3.357,3.356c-1.855,0-3.355-1.503-3.355-3.356
					c0-1.853,1.5-3.355,3.355-3.355C259.561,283.848,261.065,285.35,261.065,287.203z"/>
				<path style="fill:#D1D3D4;" d="M246.154,297.441c0,1.853-1.502,3.355-3.357,3.355c-1.854,0-3.355-1.502-3.355-3.355
					c0-1.854,1.502-3.355,3.355-3.355C244.652,294.086,246.154,295.588,246.154,297.441z"/>
				<path style="fill:#D1D3D4;" d="M273.551,305.196c0,0.927-0.75,1.678-1.676,1.678c-0.93,0-1.682-0.751-1.682-1.678
					s0.752-1.678,1.682-1.678C272.801,303.518,273.551,304.269,273.551,305.196z"/>
				<path style="fill:#D1D3D4;" d="M255.854,317.517c0,1.348-1.09,2.442-2.442,2.442c-1.352,0-2.441-1.094-2.441-2.442
					c0-1.351,1.09-2.443,2.441-2.443C254.764,315.074,255.854,316.167,255.854,317.517z"/>
				<path style="fill:#D1D3D4;" d="M122.246,315.074c0,1.348-1.094,2.442-2.441,2.442c-1.352,0-2.445-1.094-2.445-2.442
					c0-1.35,1.094-2.443,2.445-2.443C121.152,312.631,122.246,313.724,122.246,315.074z"/>
				<circle style="fill:#D1D3D4;" cx="281.029" cy="323.853" r="2.442"/>
				<path style="fill:#D1D3D4;" d="M253.705,330.86c0,1.349-1.092,2.442-2.441,2.442c-1.352,0-2.443-1.094-2.443-2.442
					c0-1.35,1.092-2.443,2.443-2.443C252.613,328.418,253.705,329.51,253.705,330.86z"/>
				<path style="fill:#D1D3D4;" d="M307.537,231.362c0,2.372-1.922,4.295-4.295,4.295c-2.371,0-4.297-1.923-4.297-4.295
					c0-2.373,1.926-4.296,4.297-4.296C305.615,227.066,307.537,228.989,307.537,231.362z"/>
				<path style="fill:#D1D3D4;" d="M310.502,250.568c0,1.186-0.963,2.148-2.148,2.148c-1.186,0-2.148-0.961-2.148-2.148
					c0-1.186,0.963-2.148,2.148-2.148C309.539,248.42,310.502,249.382,310.502,250.568z"/>
				<path style="fill:#D1D3D4;" d="M328.023,234.081c0,1.853-1.504,3.355-3.355,3.355c-1.855,0-3.357-1.503-3.357-3.355
					c0-1.854,1.502-3.356,3.357-3.356C326.52,230.724,328.023,232.227,328.023,234.081z"/>
				<path style="fill:#D1D3D4;" d="M331.379,261.099c0,1.854-1.504,3.355-3.355,3.355c-1.853,0-3.355-1.502-3.355-3.355
					c0-1.853,1.502-3.355,3.355-3.355C329.875,257.744,331.379,259.246,331.379,261.099z"/>
				<path style="fill:#D1D3D4;" d="M313.858,263.161c0,1.854-1.506,3.355-3.355,3.355c-1.855,0-3.357-1.502-3.357-3.355
					c0-1.854,1.502-3.355,3.357-3.355C312.352,259.805,313.858,261.307,313.858,263.161z"/>
				<path style="fill:#D1D3D4;" d="M302.303,287.643c0,1.854-1.502,3.356-3.357,3.356c-1.852,0-3.354-1.502-3.354-3.356
					c0-1.853,1.502-3.355,3.354-3.355C300.801,284.288,302.303,285.79,302.303,287.643z"/>
				<path style="fill:#D1D3D4;" d="M326.344,289.321c0,0.926-0.75,1.678-1.676,1.678c-0.928,0-1.68-0.751-1.68-1.678
					c0-0.927,0.752-1.678,1.68-1.678C325.594,287.643,326.344,288.394,326.344,289.321z"/>
				<path style="fill:#D1D3D4;" d="M339.621,293.531c0,0.926-0.752,1.678-1.678,1.678c-0.928,0-1.678-0.751-1.678-1.678
					c0-0.927,0.75-1.678,1.678-1.678C338.869,291.853,339.621,292.603,339.621,293.531z"/>
				<path style="fill:#D1D3D4;" d="M316.242,299.885c0,1.349-1.094,2.442-2.443,2.442c-1.35,0-2.443-1.094-2.443-2.442
					c0-1.35,1.094-2.443,2.443-2.443C315.148,297.441,316.242,298.535,316.242,299.885z"/>
				<path style="fill:#D1D3D4;" d="M332.908,310.422c0,1.348-1.092,2.443-2.441,2.443c-1.352,0-2.443-1.095-2.443-2.443
					c0-1.35,1.092-2.443,2.443-2.443C331.816,307.979,332.908,309.072,332.908,310.422z"/>
				<path style="fill:#D1D3D4;" d="M306.5,314.986c0,1.348-1.094,2.443-2.445,2.443c-1.35,0-2.441-1.095-2.441-2.443
					c0-1.35,1.092-2.443,2.441-2.443C305.406,312.543,306.5,313.636,306.5,314.986z"/>
			</g>
			<g>
				<path style="fill:#DEBC95;" d="M343.422,282.8v-24.753c-22.105,14.96-72.365,25.41-130.846,25.41
					c-59.41,0-110.344-10.785-131.883-26.128v24.753c21.539,15.343,72.473,26.128,131.883,26.128
					C271.057,308.21,321.316,297.761,343.422,282.8z"/>
			</g>
			<g>
				<g>
					<path style="fill:#DEDEC7;" d="M212.576,300.986c-53.029,0-102.195-9.075-124.658-22.792v-8.391
						c26.938,12.88,73.637,20.877,124.658,20.877c50.969,0,96.531-7.644,123.621-20.35v8.482
						C313.082,292.353,265.359,300.986,212.576,300.986z"/>
				</g>
			</g>
			<g>
				<path style="fill:#451B11;" d="M349.484,262.543l-6.063-54.508v-5.87H80.693v5.87c0,0-14.91,62.381,0,66.701
					c6.336,3.759,12.895,0.091,17.5-4.793c3.434-3.639,5.754-7.568,7.801-12.099c1.338-2.956,2.73-6.949,5.85-8.485
					c3.473-1.708,7.156,1.91,9.414,4.04c3.789,3.571,5.105,8.194,5.408,13.269c0.326,5.541-0.064,12.025,4.129,16.329
					c3.256,3.338,9.969,8.676,14.902,5.66c3.729-2.28,5.639-6.842,7.604-10.554c2.436-4.6,5.295-9.055,8.924-12.82
					c2.75-2.853,6.104-5.431,10.234-5.571c4.588-0.156,9.031,1.729,13.236,3.342c10.998,4.223,21.027,6.726,31.031-1.272
					c3.422-2.734,6.922-6.6,11.365-7.594c4.592-1.026,9.248,0.928,12.969,3.563c5.961,4.219,9.045,11.013,12.045,17.431
					c2.982,6.382,6.281,13.974,13.07,17.122c4.242,1.966,9.074,2.007,13.6,1.129c4.547-0.883,8.59-2.409,11.379-6.299
					c4.617-6.441,5.502-14.676,7.803-22.066c1.818-5.843,4.838-12.197,11.639-13.031c3.936-0.484,8.59,0.261,11.686,2.891
					c3.246,2.756,4.563,6.717,6.721,10.248c2.58,4.222,7.156,6.952,12.24,6.47c0.758-0.072,1.484-0.226,2.18-0.441
					C350.775,267.479,349.484,262.543,349.484,262.543z"/>
				<g>
					<path style="fill:#848689;" d="M349.484,262.543l-3.213-28.879c-2.596,4.551-6.654,7.98-12.143,8.928
						c-12.127,2.097-26.406-9.629-36.469,1.585c-6.215,6.922-6.377,19.197-15.225,23.83c-10.865,5.689-20.887-4.63-25.42-13.732
						c-2.697-5.409-4.979-12.395-10.697-15.39c-7.115-3.728-15.936-1.638-22.766,1.765c-5.395,2.686-10.174,7.281-15.98,9.042
						c-5.996,1.817-11.867,0.167-17.146-2.881c-6.133-3.542-11.736-7.711-19.219-6.84c-3.867,0.45-7.815,1.573-11.143,3.647
						c-3.178,1.98-4.934,5.134-5.963,8.651c-1.467,5.005-2.611,10.885-7.867,13.325c-4.395,2.039-9.559,1.176-12.848-2.517
						c-4.494-5.047-3.824-10.541-4.244-16.838c-0.379-5.683-2.812-12.064-8.643-14.119c-4.672-1.646-9.904-0.743-14.178,1.622
						c-2.361,1.307-4.561,2.945-6.342,4.987c-2.584,2.96-3.719,5.85-4.152,9.725c-0.49,4.379-1.166,10.816-6.088,12.6
						c-4.254,1.542-8.586-1.526-10.508-5.258c-3.59-6.98-2.773-16.213-1.816-23.714c1.26-9.819,3.697-19.668,7.793-28.705
						c0.184-0.399,0.367-0.803,0.559-1.21h-5.074v5.87c0,0-14.91,62.381,0,66.701c6.336,3.759,12.895,0.091,17.5-4.793
						c3.434-3.639,5.754-7.568,7.801-12.099c1.338-2.956,2.73-6.949,5.85-8.485c3.473-1.708,7.156,1.91,9.414,4.04
						c3.789,3.571,5.105,8.194,5.408,13.269c0.326,5.541-0.064,12.025,4.129,16.329c3.256,3.338,9.969,8.676,14.902,5.66
						c3.729-2.28,5.639-6.842,7.604-10.554c2.436-4.6,5.295-9.055,8.924-12.82c2.75-2.853,6.104-5.431,10.234-5.571
						c4.588-0.156,9.031,1.729,13.236,3.342c10.998,4.223,21.027,6.726,31.031-1.272c3.422-2.734,6.922-6.6,11.365-7.594
						c4.592-1.026,9.248,0.928,12.969,3.563c5.961,4.219,9.045,11.013,12.045,17.431c2.982,6.382,6.281,13.974,13.07,17.122
						c4.242,1.966,9.074,2.007,13.6,1.129c4.547-0.883,8.59-2.409,11.379-6.299c4.617-6.441,5.502-14.676,7.803-22.066
						c1.818-5.843,4.838-12.197,11.639-13.031c3.936-0.484,8.59,0.261,11.686,2.891c3.246,2.756,4.563,6.717,6.721,10.248
						c2.58,4.222,7.156,6.952,12.24,6.47c0.758-0.072,1.484-0.226,2.18-0.441C350.775,267.479,349.484,262.543,349.484,262.543z"/>
					<path style="fill:#848689;" d="M90.719,247.761c-0.08-0.263-0.484-0.284-0.553,0c-0.316,1.347-0.426,2.731-1.002,4.004
						c-1.031,2.274-3.703,2.406-5.725,1.495c-3.035-1.365-3.344-5.13-3.379-8.006c-0.082-7.431,0.35-14.775,0.68-22.185
						c0.004-0.121-0.162-0.128-0.197-0.026c-1.92,5.143-1.461,11.152-1.457,16.55c0.004,3.778-0.67,7.893,0.814,11.479
						c1.178,2.851,4.211,4.262,7.174,3.807C90.18,254.398,91.496,250.396,90.719,247.761z"/>
					<path style="fill:#848689;" d="M143.818,258.504c-1.008,1.73-1.375,3.841-3.826,3.811c-1.949-0.024-3.736-1.764-4.945-3.105
						c-3.787-4.212-2.15-9.38-2.641-14.47c-0.023-0.215-0.305-0.209-0.33,0c-0.852,6.469-1.363,12.602,4.191,17.008
						c3.164,2.513,8.19,1.781,8.176-3.075C144.441,258.34,143.988,258.215,143.818,258.504z"/>
					<path style="fill:#848689;" d="M293.846,243.684c-1.953,1.015-3.232,4.464-4.242,6.283c-1.832,3.3-3.619,6.626-5.701,9.777
						c-1.783,2.703-4.08,5.974-7.285,7.075c-3.99,1.372-6.82-3.393-8.516-6.17c-0.119-0.195-0.387-0.025-0.297,0.176
						c1.328,3.044,3.453,6.583,7.072,7.032c3.057,0.38,5.756-2.427,7.514-4.523c2.645-3.149,4.654-6.835,6.641-10.415
						c0.945-1.702,1.873-3.413,2.857-5.094c0.727-1.246,1.799-2.401,2.404-3.694C294.432,243.837,294.15,243.527,293.846,243.684z"
						/>
					<path style="fill:#848689;" d="M344.873,227.889c-0.074-0.352-0.568-0.242-0.594,0.081c-0.217,2.936-0.142,5.793-2.314,8.061
						c-1.777,1.857-4.598,2.258-7.033,2.287c-5.078,0.061-9.783-1.854-14.566-3.256c-0.152-0.045-0.238,0.172-0.105,0.251
						c4.713,2.727,11.043,4.294,16.473,3.807C342.557,238.597,346.078,233.651,344.873,227.889z"/>
					<g>
						<path style="fill:#FFFFFF;" d="M103.928,249.934c-0.469,1.052-0.896,2.115-1.318,3.175c-0.727,1.814-1.479,3.69-2.439,5.453
							c-1.953,3.584-4.316,6.6-7.021,8.961c-3.076,2.684-6.869,3.759-10.309,2.894c-4.738-1.189-5.627-6.123-4.885-10.342
							l0.023-0.309l-0.154-0.185c-0.117-0.138-0.283-0.217-0.461-0.217l-0.375,0.042l-0.144,0.277
							c-1.738,3.339-1.016,7.549,1.793,10.474c1.631,1.697,4.035,2.632,6.771,2.632c1.629,0,3.252-0.334,4.697-0.967
							c4.746-2.08,7.984-6.245,10.01-9.198c3.264-4.759,5.059-8.76,5.488-12.231c0.027-0.233-0.043-0.46-0.201-0.637
							C105.014,249.316,104.168,249.397,103.928,249.934z"/>
						<path style="fill:#FFFFFF;" d="M150.303,271.911c-1.248,3.727-2.951,6.14-5.701,8.069c-1.746,1.224-3.723,1.898-5.563,1.898
							c-1.652,0-3.117-0.526-4.355-1.564c-3.086-2.589-3.285-6.462-3.494-10.563c-0.193-3.749-0.395-7.624-2.928-10.573
							c-0.285-0.33-0.881-0.244-1.082,0.144c-0.115,0.213-0.096,0.467,0.039,0.664c1.824,2.644,2.06,6.341,2.285,9.915
							c0.35,5.481,0.709,11.149,6.637,13.552c0.916,0.372,1.914,0.56,2.967,0.56c6.02,0,12.676-6.072,12.951-11.811
							c0.012-0.245-0.068-0.473-0.229-0.641C151.402,271.113,150.504,271.309,150.303,271.911z"/>
						<path style="fill:#FFFFFF;" d="M216.871,253.606c-2.324,3.852-4.787,6.659-9.252,7.835c-3.334,0.875-7.299,0.516-11.592-1.044
							c-2.178-0.792-4.395-1.95-6.537-3.07c-4.076-2.131-8.291-4.336-12.721-4.336c-2.35,0-4.549,0.607-6.717,1.855
							c-0.293,0.167-0.428,0.507-0.338,0.843c0.092,0.333,0.369,0.557,0.693,0.557l0.182-0.017l0.096-0.04
							c1.902-0.787,3.766-1.17,5.697-1.17c4.504,0,8.543,2.094,12.814,4.31c3.52,1.826,7.16,3.713,11.162,4.395
							c1.047,0.179,2.125,0.27,3.197,0.27c7.086,0,13.02-3.759,15.117-9.576c0.107-0.295,0.07-0.606-0.104-0.854
							C218.193,253.026,217.221,253.023,216.871,253.606z"/>
						<path style="fill:#FFFFFF;" d="M292.33,270.2c-0.986,1.708-1.768,3.481-2.52,5.196c-1.318,2.999-2.565,5.832-4.826,8.323
							c-2.125,2.347-4.814,3.587-7.773,3.587c-2.258,0-4.641-0.729-6.887-2.108c-2.908-1.784-4.18-5.391-5.414-8.879
							c-0.527-1.485-1.023-2.889-1.637-4.148c-1.957-4.01-5.598-7.426-11.131-10.441c-0.404-0.219-0.916-0.006-1.051,0.425
							c-0.098,0.309,0.02,0.642,0.289,0.828c2.5,1.732,5.363,3.805,7.711,6.491c2.184,2.497,3.318,5.582,4.416,8.567
							c1.852,5.04,4.191,8.807,9.588,10.81c1.307,0.486,2.652,0.731,4,0.731c3.152,0,6.34-1.376,8.977-3.875
							c3.67-3.478,6.887-9.605,7.824-14.901c0.047-0.257-0.023-0.518-0.189-0.716C293.346,269.663,292.615,269.71,292.33,270.2z"/>
						<path style="fill:#FFFFFF;" d="M346.994,253.852c-0.199-0.539-0.973-0.71-1.369-0.314c-0.148,0.15-0.232,0.355-0.23,0.579
							c0,0.994,0.137,2.107,0.279,3.287c0.484,4.016,0.984,8.168-3.193,9.321c-0.445,0.124-0.924,0.185-1.424,0.185
							c-2.371,0-4.756-1.369-5.965-2.185c-2.322-1.567-3.223-4.388-4.014-6.875c-1.189-3.729-2.598-7.244-6.758-9.253
							c-2.086-1.007-4.611-1.497-7.721-1.497c-2.563,0-5.135,0.336-7.316,0.666c-0.346,0.052-0.584,0.361-0.557,0.718
							c0.027,0.364,0.315,0.64,0.711,0.64h0.002c1.52-0.103,3.406-0.23,5.307-0.23c6.582,0,10.617,1.614,12.697,5.079
							c0.916,1.524,1.461,3.196,1.988,4.813c0.893,2.742,1.816,5.577,4.553,7.647c2.037,1.543,4.674,2.465,7.051,2.465h0.004
							c2.037,0,3.797-0.676,5.086-1.956C349.195,263.892,348.287,257.294,346.994,253.852z"/>
					</g>
				</g>
			</g>
			<g>
				<path style="fill:#280000;" d="M343.94,202.165c0,21.657-59.047,39.214-131.883,39.214c-72.836,0-131.883-17.557-131.883-39.214
					c0-21.657,59.047-39.213,131.883-39.213C284.893,162.952,343.94,180.508,343.94,202.165z"/>
				<path style="fill:#120000;" d="M237.455,221.423c-59.533,0-107.795-14.35-107.795-32.052c0-9.518,13.957-18.064,36.113-23.935
					c-50.002,5.574-85.6,19.914-85.6,36.728c0,21.657,59.047,39.214,131.883,39.214c72.836,0,131.883-17.557,131.883-39.214
					c0-1.922-0.475-3.811-1.373-5.659C331.658,210.773,288.742,221.423,237.455,221.423z"/>
				<g>
					<g>
						<path style="fill:#FFFFFF;" d="M177.316,218.532c0,0-0.485,0.037-1.395,0.105c-0.91,0.05-2.242,0.177-3.943,0.237
							c-1.701,0.074-3.771,0.175-6.143,0.195c-2.372,0.04-5.052,0.063-7.973-0.021c-2.922-0.052-6.09-0.177-9.434-0.404
							c-3.344-0.245-6.877-0.492-10.512-0.967c-3.635-0.456-7.396-0.951-11.191-1.665c-3.799-0.7-7.636-1.565-11.443-2.609
							c-3.799-1.078-7.58-2.295-11.193-3.931c-3.6-1.633-7.129-3.537-9.965-6.648l-0.518-0.595l-0.465-0.672
							c-0.149-0.229-0.307-0.445-0.445-0.683l-0.369-0.763c-0.268-0.487-0.402-1.072-0.555-1.628
							c-0.15-0.557-0.129-1.172-0.173-1.746c-0.005,0.022,0.026-0.4,0.017-0.24l0.006-0.041l0.013-0.081l0.024-0.162l0.049-0.323
							c0.047-0.237,0.033-0.38,0.131-0.693c0.188-0.575,0.379-1.245,0.645-1.698c0.273-0.444,0.514-0.928,0.825-1.313
							c0.315-0.38,0.624-0.766,0.945-1.122c2.697-2.663,5.71-4.066,8.466-5.205c2.764-1.148,5.378-1.862,7.689-2.467
							c2.313-0.599,4.352-0.994,6.031-1.291c1.678-0.315,3.008-0.484,3.912-0.609c0.904-0.118,1.387-0.181,1.387-0.181
							s-0.463,0.149-1.332,0.43c-0.871,0.262-2.141,0.683-3.748,1.214c-1.609,0.528-3.545,1.223-5.736,2.052
							c-2.176,0.862-4.623,1.858-7.139,3.162c-2.492,1.298-5.145,2.948-7.082,5.116c-0.205,0.281-0.41,0.563-0.618,0.847
							c-0.204,0.283-0.304,0.589-0.471,0.877c-0.148,0.294-0.132,0.484-0.252,0.714c-0.03,0.033-0.037,0.153-0.046,0.263
							l-0.027,0.325l-0.027,0.326l-0.014,0.163l-0.008,0.082l-0.002,0.041c-0.012,0.187,0.01-0.208,0.011-0.159
							c0.081,1.137,0.694,2.337,1.767,3.444c1.061,1.104,2.448,2.091,3.948,2.969c1.534,0.846,3.144,1.649,4.841,2.356
							c3.381,1.429,7.002,2.591,10.665,3.605c3.663,1.03,7.392,1.886,11.081,2.665c3.696,0.749,7.352,1.452,10.912,2.023
							c3.559,0.571,7.013,1.085,10.295,1.54c3.287,0.412,6.398,0.831,9.278,1.156c2.884,0.316,5.529,0.605,7.873,0.862
							c2.351,0.237,4.399,0.443,6.087,0.614C175.381,218.338,177.316,218.532,177.316,218.532z"/>
					</g>
				</g>
				<g>
					<path style="fill:#370F03;" d="M343.94,202.165c0,0,0.029,0.286,0.085,0.839c0.028,0.276,0.063,0.62,0.103,1.028
						c0.037,0.407-0.044,0.898-0.081,1.467c-0.193,2.256-1.264,5.572-3.845,9.017c-2.526,3.47-6.372,7.016-11.181,10.289
						c-4.807,3.297-10.568,6.397-17.035,9.228c-6.474,2.821-13.662,5.332-21.363,7.538c-7.707,2.187-15.926,4.078-24.49,5.565
						c-4.279,0.786-8.648,1.406-13.078,1.978c-2.217,0.266-4.447,0.533-6.689,0.802c-2.243,0.239-4.502,0.411-6.77,0.62
						c-9.069,0.769-18.307,1.162-27.539,1.162l-6.846-0.071c-2.332-0.07-4.66-0.141-6.985-0.211
						c-2.299-0.108-4.593-0.213-6.878-0.359c-2.285-0.169-4.563-0.337-6.831-0.505c-2.267-0.204-4.524-0.408-6.771-0.611
						c-2.242-0.269-4.473-0.537-6.689-0.803c-4.429-0.58-8.801-1.184-13.079-1.973c-8.566-1.489-16.786-3.377-24.493-5.562
						c-7.703-2.208-14.892-4.719-21.366-7.542c-6.468-2.835-12.229-5.936-17.037-9.236c-4.808-3.277-8.653-6.826-11.179-10.299
						c-2.576-3.44-3.654-6.787-3.834-9.004c-0.035-0.563-0.117-1.039-0.082-1.464c0.04-0.419,0.074-0.771,0.102-1.055
						c0.057-0.552,0.086-0.837,0.086-0.837s0.077,0.277,0.227,0.815c0.074,0.261,0.165,0.585,0.273,0.97
						c0.117,0.377,0.353,0.791,0.553,1.258c0.105,0.229,0.217,0.472,0.336,0.728c0.157,0.238,0.324,0.487,0.498,0.749
						c0.168,0.257,0.343,0.525,0.525,0.805c0.178,0.277,0.443,0.531,0.67,0.809c0.234,0.271,0.478,0.551,0.729,0.842
						c0.264,0.281,0.588,0.539,0.881,0.823c0.307,0.278,0.601,0.573,0.932,0.855c0.352,0.266,0.713,0.538,1.084,0.819
						c2.963,2.214,7.008,4.32,11.943,6.143c4.919,1.843,10.668,3.491,17.049,4.922c1.602,0.342,3.234,0.691,4.9,1.047
						c1.684,0.309,3.379,0.656,5.127,0.95c3.492,0.594,7.095,1.22,10.838,1.706c7.465,1.059,15.391,1.904,23.607,2.606
						c4.113,0.314,8.293,0.649,12.533,0.908c4.244,0.213,8.541,0.429,12.871,0.646c2.167,0.072,4.344,0.143,6.526,0.215
						c2.185,0.033,4.376,0.09,6.569,0.154c2.17,0.031,4.344,0.063,6.52,0.095l6.691,0.031c8.821,0,17.639-0.148,26.309-0.479
						c4.33-0.215,8.627-0.429,12.871-0.639c4.239-0.268,8.422-0.587,12.535-0.904c8.218-0.704,16.143-1.546,23.609-2.603
						c7.465-1.048,14.49-2.257,20.867-3.707c6.382-1.435,12.131-3.084,17.051-4.93c4.936-1.827,8.98-3.936,11.941-6.153
						c0.372-0.281,0.732-0.555,1.084-0.821c0.33-0.282,0.625-0.577,0.931-0.856c0.295-0.284,0.618-0.543,0.88-0.824
						c0.252-0.291,0.495-0.572,0.729-0.843c0.228-0.278,0.492-0.532,0.67-0.809c0.183-0.28,0.357-0.549,0.525-0.806
						c0.174-0.262,0.34-0.512,0.497-0.75c0.116-0.249,0.226-0.485,0.329-0.709c0.199-0.46,0.434-0.86,0.553-1.254
						c0.11-0.395,0.203-0.728,0.277-0.996C343.863,202.441,343.94,202.165,343.94,202.165z"/>
				</g>
			</g>
		</g>
	</g>
	<g>
		<path style="fill:#DBB16C;" d="M312.465,180.426v-69.885H113.1v73.631c0,16.434,44.805,29.757,100.076,29.757
			s100.076-13.323,100.076-29.757C313.252,182.903,312.983,181.653,312.465,180.426z"/>
		<g>
			<path style="fill:#D1D3D4;" d="M127.232,121.66c0,1.8-1.461,3.259-3.262,3.259c-1.799,0-3.258-1.459-3.258-3.259
				c0-1.8,1.459-3.26,3.258-3.26C125.771,118.4,127.232,119.86,127.232,121.66z"/>
			<path style="fill:#D1D3D4;" d="M129.48,136.235c0,0.9-0.73,1.63-1.631,1.63c-0.9,0-1.629-0.729-1.629-1.63
				c0-0.9,0.729-1.63,1.629-1.63C128.75,134.605,129.48,135.335,129.48,136.235z"/>
			<path style="fill:#D1D3D4;" d="M142.777,123.723c0,1.407-1.141,2.546-2.547,2.546c-1.408,0-2.549-1.14-2.549-2.546
				c0-1.406,1.141-2.546,2.549-2.546C141.637,121.177,142.777,122.317,142.777,123.723z"/>
			<path style="fill:#D1D3D4;" d="M145.324,144.226c0,1.406-1.143,2.547-2.547,2.547c-1.408,0-2.547-1.141-2.547-2.547
				c0-1.406,1.139-2.546,2.547-2.546C144.182,141.68,145.324,142.82,145.324,144.226z"/>
			<circle style="fill:#D1D3D4;" cx="129.48" cy="151.989" r="2.546"/>
			<path style="fill:#D1D3D4;" d="M123.26,164.369c0,1.406-1.139,2.546-2.547,2.546c-1.406,0-2.545-1.14-2.545-2.546
				c0-1.406,1.139-2.546,2.545-2.546C122.121,161.823,123.26,162.962,123.26,164.369z"/>
			<path style="fill:#D1D3D4;" d="M141.504,165.642c0,0.703-0.57,1.272-1.273,1.272c-0.705,0-1.275-0.57-1.275-1.272
				c0-0.704,0.57-1.273,1.275-1.273C140.934,164.369,141.504,164.939,141.504,165.642z"/>
			<path style="fill:#D1D3D4;" d="M140.23,153.284c0,0.703-0.57,1.273-1.275,1.273c-0.703,0-1.273-0.57-1.273-1.273
				c0-0.703,0.57-1.273,1.273-1.273C139.66,152.011,140.23,152.581,140.23,153.284z"/>
			<path style="fill:#D1D3D4;" d="M133.836,173.658c0,1.022-0.83,1.853-1.852,1.853c-1.025,0-1.855-0.831-1.855-1.853
				c0-1.025,0.83-1.855,1.855-1.855C133.006,171.804,133.836,172.633,133.836,173.658z"/>
			<path style="fill:#D1D3D4;" d="M149.031,179.8c0,1.023-0.83,1.854-1.855,1.854c-1.025,0-1.852-0.831-1.852-1.854
				c0-1.025,0.826-1.854,1.852-1.854C148.201,177.946,149.031,178.775,149.031,179.8z"/>
			<path style="fill:#D1D3D4;" d="M124.59,184.693c0,1.023-0.83,1.853-1.855,1.853c-1.021,0-1.852-0.83-1.852-1.853
				c0-1.025,0.83-1.854,1.852-1.854C123.76,182.839,124.59,183.669,124.59,184.693z"/>
			<path style="fill:#D1D3D4;" d="M167.479,134.617c0,1.8-1.459,3.26-3.262,3.26c-1.797,0-3.258-1.46-3.258-3.26
				c0-1.8,1.461-3.259,3.258-3.259C166.02,131.357,167.479,132.816,167.479,134.617z"/>
			<path style="fill:#D1D3D4;" d="M169.727,149.191c0,0.9-0.73,1.63-1.631,1.63c-0.9,0-1.629-0.73-1.629-1.63
				c0-0.9,0.729-1.63,1.629-1.63C168.996,147.561,169.727,148.291,169.727,149.191z"/>
			<path style="fill:#D1D3D4;" d="M183.021,136.68c0,1.406-1.139,2.546-2.545,2.546c-1.408,0-2.549-1.14-2.549-2.546
				c0-1.407,1.141-2.546,2.549-2.546C181.883,134.133,183.021,135.273,183.021,136.68z"/>
			<path style="fill:#D1D3D4;" d="M185.57,157.182c0,1.407-1.143,2.546-2.549,2.546c-1.406,0-2.545-1.14-2.545-2.546
				c0-1.406,1.139-2.546,2.545-2.546C184.428,154.636,185.57,155.776,185.57,157.182z"/>
			<path style="fill:#D1D3D4;" d="M172.273,164.945c0,1.406-1.143,2.547-2.547,2.547c-1.406,0-2.547-1.141-2.547-2.547
				c0-1.406,1.141-2.546,2.547-2.546C171.131,162.398,172.273,163.539,172.273,164.945z"/>
			<path style="fill:#D1D3D4;" d="M163.504,177.325c0,1.406-1.137,2.546-2.545,2.546c-1.406,0-2.549-1.141-2.549-2.546
				c0-1.407,1.143-2.547,2.549-2.547C162.367,174.778,163.504,175.919,163.504,177.325z"/>
			<path style="fill:#D1D3D4;" d="M181.748,178.599c0,0.703-0.568,1.273-1.271,1.273c-0.705,0-1.275-0.57-1.275-1.273
				c0-0.704,0.57-1.273,1.275-1.273C181.18,177.325,181.748,177.895,181.748,178.599z"/>
			<path style="fill:#D1D3D4;" d="M133.301,185.601c0,0.703-0.57,1.273-1.273,1.273c-0.703,0-1.275-0.57-1.275-1.273
				c0-0.704,0.572-1.273,1.275-1.273C132.73,184.328,133.301,184.898,133.301,185.601z"/>
			<path style="fill:#D1D3D4;" d="M174.082,186.614c0,1.023-0.83,1.854-1.856,1.854c-1.021,0-1.852-0.831-1.852-1.854
				c0-1.025,0.83-1.854,1.852-1.854C173.252,184.76,174.082,185.589,174.082,186.614z"/>
			<path style="fill:#D1D3D4;" d="M189.277,192.756c0,1.023-0.83,1.854-1.855,1.854c-1.021,0-1.852-0.83-1.852-1.854
				c0-1.024,0.83-1.854,1.852-1.854C188.447,190.903,189.277,191.732,189.277,192.756z"/>
			<path style="fill:#D1D3D4;" d="M166.689,198.073c0,1.023-0.828,1.854-1.854,1.854s-1.855-0.831-1.855-1.854
				c0-1.024,0.83-1.854,1.855-1.854S166.689,197.049,166.689,198.073z"/>
			<path style="fill:#D1D3D4;" d="M202.98,145.439c0,1.8-1.461,3.259-3.262,3.259c-1.801,0-3.26-1.459-3.26-3.259
				c0-1.801,1.459-3.26,3.26-3.26C201.52,142.179,202.98,143.638,202.98,145.439z"/>
			<path style="fill:#D1D3D4;" d="M205.227,160.013c0,0.9-0.729,1.629-1.631,1.629c-0.898,0-1.627-0.729-1.627-1.629
				c0-0.9,0.729-1.63,1.627-1.63C204.498,158.383,205.227,159.113,205.227,160.013z"/>
			<path style="fill:#D1D3D4;" d="M189.053,167.308c0,0.9-0.729,1.629-1.631,1.629c-0.898,0-1.631-0.73-1.631-1.629
				c0-0.9,0.732-1.63,1.631-1.63C188.324,165.678,189.053,166.408,189.053,167.308z"/>
			<path style="fill:#D1D3D4;" d="M218.523,147.501c0,1.407-1.141,2.547-2.545,2.547c-1.408,0-2.549-1.14-2.549-2.547
				c0-1.406,1.141-2.546,2.549-2.546C217.383,144.956,218.523,146.095,218.523,147.501z"/>
			<path style="fill:#D1D3D4;" d="M223.617,163.149c0,1.406-1.141,2.546-2.547,2.546c-1.408,0-2.547-1.14-2.547-2.546
				c0-1.406,1.139-2.546,2.547-2.546C222.477,160.603,223.617,161.743,223.617,163.149z"/>
			<path style="fill:#D1D3D4;" d="M207.775,175.767c0,1.406-1.143,2.547-2.549,2.547c-1.406,0-2.545-1.141-2.545-2.547
				c0-1.406,1.139-2.546,2.545-2.546C206.633,173.221,207.775,174.361,207.775,175.767z"/>
			<path style="fill:#D1D3D4;" d="M199.008,188.147c0,1.406-1.141,2.547-2.549,2.547c-1.404,0-2.545-1.141-2.545-2.547
				c0-1.406,1.141-2.546,2.545-2.546C197.867,185.601,199.008,186.741,199.008,188.147z"/>
			<path style="fill:#D1D3D4;" d="M217.25,189.42c0,0.703-0.568,1.273-1.271,1.273c-0.705,0-1.275-0.57-1.275-1.273
				c0-0.704,0.57-1.273,1.275-1.273C216.682,188.147,217.25,188.716,217.25,189.42z"/>
			<path style="fill:#D1D3D4;" d="M180.477,203.579c0,0.703-0.572,1.273-1.275,1.273c-0.701,0-1.273-0.57-1.273-1.273
				s0.572-1.273,1.273-1.273C179.904,202.306,180.477,202.876,180.477,203.579z"/>
			<path style="fill:#D1D3D4;" d="M209.584,197.436c0,1.023-0.83,1.853-1.855,1.853c-1.021,0-1.854-0.831-1.854-1.853
				c0-1.024,0.832-1.854,1.854-1.854C208.754,195.583,209.584,196.412,209.584,197.436z"/>
			<path style="fill:#D1D3D4;" d="M224.779,203.579c0,1.023-0.83,1.853-1.855,1.853c-1.023,0-1.854-0.83-1.854-1.853
				c0-1.024,0.83-1.854,1.854-1.854C223.949,201.725,224.779,202.554,224.779,203.579z"/>
			<path style="fill:#D1D3D4;" d="M233.688,157.183c0,1.022-0.828,1.852-1.852,1.852c-1.025,0-1.855-0.83-1.855-1.852
				c0-1.025,0.83-1.855,1.855-1.855C232.859,155.329,233.688,156.158,233.688,157.183z"/>
			<path style="fill:#D1D3D4;" d="M202.191,208.895c0,1.023-0.828,1.854-1.854,1.854c-1.025,0-1.855-0.83-1.855-1.854
				c0-1.024,0.83-1.854,1.855-1.854C201.363,207.042,202.191,207.871,202.191,208.895z"/>
			<path style="fill:#D1D3D4;" d="M245.176,144.742c0,1.801-1.461,3.26-3.262,3.26c-1.801,0-3.26-1.459-3.26-3.26
				c0-1.8,1.459-3.259,3.26-3.259C243.715,141.482,245.176,142.941,245.176,144.742z"/>
			<path style="fill:#D1D3D4;" d="M247.422,159.317c0,0.9-0.729,1.629-1.631,1.629c-0.899,0-1.627-0.73-1.627-1.629
				c0-0.9,0.729-1.63,1.627-1.63C246.693,157.687,247.422,158.417,247.422,159.317z"/>
			<path style="fill:#D1D3D4;" d="M260.719,146.805c0,1.406-1.141,2.546-2.547,2.546c-1.406,0-2.547-1.14-2.547-2.546
				c0-1.407,1.141-2.547,2.547-2.547C259.578,144.258,260.719,145.398,260.719,146.805z"/>
			<path style="fill:#D1D3D4;" d="M263.266,167.308c0,1.406-1.141,2.546-2.547,2.546c-1.406,0-2.547-1.14-2.547-2.546
				c0-1.407,1.141-2.547,2.547-2.547C262.125,164.761,263.266,165.901,263.266,167.308z"/>
			<path style="fill:#D1D3D4;" d="M249.971,175.071c0,1.406-1.143,2.546-2.549,2.546c-1.408,0-2.545-1.14-2.545-2.546
				c0-1.407,1.137-2.547,2.545-2.547C248.828,172.524,249.971,173.664,249.971,175.071z"/>
			<path style="fill:#D1D3D4;" d="M238.654,182.839c0,1.406-1.139,2.546-2.547,2.546c-1.406,0-2.545-1.14-2.545-2.546
				c0-1.407,1.139-2.546,2.545-2.546C237.516,180.293,238.654,181.433,238.654,182.839z"/>
			<path style="fill:#D1D3D4;" d="M259.445,188.724c0,0.703-0.568,1.272-1.273,1.272c-0.703,0-1.273-0.57-1.273-1.272
				c0-0.704,0.57-1.273,1.273-1.273C258.877,187.451,259.445,188.02,259.445,188.724z"/>
			<path style="fill:#D1D3D4;" d="M246.016,198.073c0,1.023-0.826,1.854-1.852,1.854c-1.025,0-1.855-0.831-1.855-1.854
				c0-1.024,0.83-1.854,1.855-1.854C245.189,196.219,246.016,197.049,246.016,198.073z"/>
			<path style="fill:#D1D3D4;" d="M144.631,196.219c0,1.024-0.83,1.854-1.854,1.854c-1.025,0-1.855-0.83-1.855-1.854
				c0-1.024,0.83-1.853,1.855-1.853C143.801,194.366,144.631,195.195,144.631,196.219z"/>
			<path style="fill:#D1D3D4;" d="M266.975,202.882c0,1.024-0.83,1.854-1.855,1.854s-1.854-0.83-1.854-1.854
				c0-1.024,0.828-1.854,1.854-1.854S266.975,201.858,266.975,202.882z"/>
			<path style="fill:#D1D3D4;" d="M244.387,208.198c0,1.023-0.828,1.854-1.854,1.854c-1.025,0-1.855-0.83-1.855-1.854
				c0-1.024,0.83-1.853,1.855-1.853C243.559,206.345,244.387,207.174,244.387,208.198z"/>
			<path style="fill:#D1D3D4;" d="M285.234,132.696c0,1.8-1.457,3.259-3.258,3.259c-1.801,0-3.262-1.459-3.262-3.259
				c0-1.801,1.461-3.26,3.262-3.26C283.777,129.436,285.234,130.895,285.234,132.696z"/>
			<path style="fill:#D1D3D4;" d="M287.484,147.27c0,0.9-0.73,1.629-1.631,1.629c-0.9,0-1.629-0.73-1.629-1.629
				c0-0.9,0.729-1.63,1.629-1.63C286.754,145.641,287.484,146.371,287.484,147.27z"/>
			<path style="fill:#D1D3D4;" d="M300.781,134.759c0,1.406-1.143,2.546-2.549,2.546c-1.408,0-2.547-1.14-2.547-2.546
				c0-1.407,1.139-2.547,2.547-2.547C299.639,132.212,300.781,133.352,300.781,134.759z"/>
			<path style="fill:#D1D3D4;" d="M303.326,155.262c0,1.406-1.139,2.546-2.545,2.546c-1.408,0-2.549-1.14-2.549-2.546
				c0-1.407,1.141-2.546,2.549-2.546C302.188,152.715,303.326,153.855,303.326,155.262z"/>
			<path style="fill:#D1D3D4;" d="M290.029,156.826c0,1.407-1.141,2.547-2.545,2.547c-1.408,0-2.547-1.14-2.547-2.547
				c0-1.406,1.139-2.546,2.547-2.546C288.889,154.28,290.029,155.419,290.029,156.826z"/>
			<path style="fill:#D1D3D4;" d="M281.264,175.404c0,1.406-1.141,2.546-2.549,2.546c-1.404,0-2.545-1.14-2.545-2.546
				c0-1.406,1.141-2.547,2.545-2.547C280.123,172.857,281.264,173.998,281.264,175.404z"/>
			<path style="fill:#D1D3D4;" d="M299.506,176.678c0,0.703-0.568,1.273-1.273,1.273c-0.703,0-1.272-0.57-1.272-1.273
				c0-0.704,0.568-1.273,1.272-1.273C298.938,175.404,299.506,175.974,299.506,176.678z"/>
			<path style="fill:#D1D3D4;" d="M309.582,179.872c0,0.702-0.57,1.273-1.275,1.273c-0.703,0-1.272-0.571-1.272-1.273
				c0-0.704,0.568-1.273,1.272-1.273C309.012,178.599,309.582,179.168,309.582,179.872z"/>
			<path style="fill:#D1D3D4;" d="M291.84,184.693c0,1.023-0.83,1.853-1.854,1.853c-1.025,0-1.855-0.83-1.855-1.853
				c0-1.025,0.83-1.854,1.855-1.854C291.01,182.839,291.84,183.669,291.84,184.693z"/>
			<path style="fill:#D1D3D4;" d="M304.488,192.689c0,1.023-0.83,1.854-1.855,1.854c-1.023,0-1.852-0.831-1.852-1.854
				c0-1.025,0.828-1.854,1.852-1.854C303.658,190.836,304.488,191.665,304.488,192.689z"/>
			<path style="fill:#D1D3D4;" d="M284.449,196.152c0,1.023-0.83,1.854-1.855,1.854c-1.025,0-1.855-0.831-1.855-1.854
				c0-1.025,0.83-1.854,1.855-1.854C283.619,194.299,284.449,195.127,284.449,196.152z"/>
		</g>
		<g>
			<path style="fill:#DEBC95;" d="M312.465,171.73v-18.784c-16.773,11.352-54.914,19.282-99.289,19.282
				c-45.082,0-83.732-8.183-100.076-19.827v18.784c16.344,11.643,54.994,19.827,100.076,19.827
				C257.551,191.011,295.691,183.082,312.465,171.73z"/>
		</g>
		<g>
			<g>
				<path style="fill:#DEDEC7;" d="M213.176,185.529c-40.242,0-77.549-6.886-94.596-17.295v-6.367
					c20.441,9.774,55.879,15.842,94.596,15.842c38.678,0,73.252-5.8,93.807-15.441v6.436
					C289.441,178.978,253.229,185.529,213.176,185.529z"/>
			</g>
		</g>
		<g>
			<path style="fill:#451B11;" d="M317.065,156.357l-4.6-41.362v-4.455H113.1v4.455c0,0-11.314,47.336,0,50.614
				c4.809,2.853,9.785,0.069,13.277-3.638c2.605-2.762,4.365-5.742,5.922-9.181c1.016-2.243,2.07-5.273,4.439-6.439
				c2.635-1.295,5.428,1.449,7.143,3.066c2.873,2.71,3.873,6.218,4.104,10.068c0.246,4.205-0.049,9.126,3.135,12.391
				c2.469,2.533,7.563,6.584,11.307,4.295c2.828-1.729,4.279-5.192,5.77-8.008c1.85-3.49,4.018-6.871,6.77-9.729
				c2.088-2.165,4.635-4.122,7.77-4.228c3.482-0.119,6.85,1.312,10.043,2.536c8.348,3.205,15.955,5.104,23.549-0.966
				c2.596-2.074,5.252-5.008,8.623-5.762c3.484-0.779,7.018,0.704,9.842,2.704c4.521,3.201,6.863,8.357,9.139,13.227
				c2.266,4.843,4.768,10.604,9.918,12.994c3.221,1.492,6.887,1.523,10.322,0.857c3.449-0.67,6.517-1.828,8.631-4.78
				c3.506-4.888,4.176-11.136,5.924-16.745c1.381-4.433,3.672-9.255,8.832-9.888c2.984-0.368,6.516,0.198,8.867,2.194
				c2.463,2.091,3.463,5.097,5.098,7.776c1.959,3.204,5.43,5.276,9.289,4.911c0.576-0.055,1.127-0.172,1.654-0.336
				C318.045,160.102,317.065,156.357,317.065,156.357z"/>
			<g>
				<path style="fill:#848689;" d="M317.065,156.357l-2.438-21.914c-1.969,3.454-5.049,6.055-9.213,6.775
					c-9.203,1.591-20.039-7.307-27.676,1.203c-4.715,5.252-4.838,14.567-11.553,18.083c-8.244,4.316-15.85-3.514-19.289-10.42
					c-2.047-4.105-3.779-9.406-8.115-11.679c-5.4-2.829-12.094-1.242-17.277,1.339c-4.09,2.038-7.719,5.525-12.127,6.861
					c-4.549,1.378-9.002,0.126-13.008-2.186c-4.656-2.688-8.908-5.852-14.586-5.191c-2.936,0.342-5.93,1.194-8.455,2.767
					c-2.412,1.504-3.742,3.896-4.523,6.566c-1.115,3.797-1.984,8.259-5.973,10.111c-3.334,1.546-7.252,0.892-9.748-1.91
					c-3.41-3.83-2.904-7.999-3.221-12.777c-0.285-4.313-2.135-9.155-6.559-10.714c-3.545-1.25-7.514-0.564-10.76,1.231
					c-1.791,0.992-3.459,2.234-4.811,3.784c-1.961,2.246-2.82,4.439-3.15,7.379c-0.371,3.323-0.885,8.208-4.619,9.561
					c-3.229,1.17-6.518-1.157-7.973-3.99c-2.727-5.296-2.107-12.303-1.379-17.994c0.953-7.451,2.805-14.925,5.912-21.783
					c0.141-0.303,0.279-0.609,0.424-0.918h-3.85v4.455c0,0-11.314,47.336,0,50.614c4.809,2.853,9.785,0.069,13.277-3.638
					c2.605-2.762,4.365-5.742,5.922-9.181c1.016-2.243,2.07-5.273,4.439-6.439c2.635-1.295,5.428,1.449,7.143,3.066
					c2.873,2.71,3.873,6.218,4.104,10.068c0.246,4.205-0.049,9.126,3.135,12.391c2.469,2.533,7.563,6.584,11.307,4.295
					c2.828-1.729,4.279-5.192,5.77-8.008c1.85-3.49,4.018-6.871,6.77-9.729c2.088-2.165,4.635-4.122,7.77-4.228
					c3.482-0.119,6.85,1.312,10.043,2.536c8.348,3.205,15.955,5.104,23.549-0.966c2.596-2.074,5.252-5.008,8.623-5.762
					c3.484-0.779,7.018,0.704,9.842,2.704c4.521,3.201,6.863,8.357,9.139,13.227c2.266,4.843,4.768,10.604,9.918,12.994
					c3.221,1.492,6.887,1.523,10.322,0.857c3.449-0.67,6.517-1.828,8.631-4.78c3.506-4.888,4.176-11.136,5.924-16.745
					c1.381-4.433,3.672-9.255,8.832-9.888c2.984-0.368,6.516,0.198,8.867,2.194c2.463,2.091,3.463,5.097,5.098,7.776
					c1.959,3.204,5.43,5.276,9.289,4.911c0.576-0.055,1.127-0.172,1.654-0.336C318.045,160.102,317.065,156.357,317.065,156.357z"/>
				<path style="fill:#848689;" d="M120.705,145.14c-0.059-0.2-0.367-0.216-0.416,0c-0.242,1.021-0.324,2.072-0.762,3.038
					c-0.785,1.726-2.809,1.825-4.346,1.134c-2.303-1.036-2.537-3.893-2.563-6.075c-0.064-5.639,0.264-11.211,0.514-16.835
					c0.004-0.091-0.121-0.097-0.148-0.02c-1.457,3.902-1.107,8.463-1.105,12.559c0.002,2.867-0.506,5.989,0.619,8.71
					c0.895,2.163,3.195,3.234,5.441,2.889C120.297,150.177,121.297,147.14,120.705,145.14z"/>
				<path style="fill:#848689;" d="M161,153.292c-0.764,1.314-1.043,2.915-2.904,2.893c-1.479-0.018-2.834-1.339-3.75-2.357
					c-2.877-3.196-1.633-7.118-2.008-10.98c-0.016-0.163-0.229-0.158-0.25,0c-0.645,4.909-1.031,9.562,3.182,12.906
					c2.4,1.907,6.215,1.352,6.205-2.333C161.473,153.168,161.129,153.073,161,153.292z"/>
				<path style="fill:#848689;" d="M274.848,142.046c-1.484,0.77-2.457,3.388-3.223,4.768c-1.391,2.504-2.746,5.028-4.324,7.42
					c-1.354,2.051-3.098,4.533-5.529,5.368c-3.027,1.04-5.174-2.574-6.461-4.682c-0.09-0.148-0.293-0.019-0.227,0.133
					c1.01,2.31,2.621,4.995,5.369,5.336c2.318,0.288,4.365-1.842,5.699-3.433c2.008-2.39,3.533-5.186,5.039-7.903
					c0.719-1.292,1.422-2.59,2.168-3.866c0.553-0.945,1.365-1.822,1.826-2.803C275.289,142.162,275.076,141.928,274.848,142.046z"/>
				<path style="fill:#848689;" d="M313.566,130.061c-0.057-0.267-0.432-0.184-0.451,0.062c-0.164,2.227-0.109,4.396-1.756,6.118
					c-1.348,1.409-3.49,1.713-5.336,1.735c-3.855,0.046-7.426-1.408-11.053-2.472c-0.115-0.034-0.182,0.131-0.082,0.19
					c3.576,2.07,8.381,3.259,12.498,2.889C311.809,138.186,314.48,134.433,313.566,130.061z"/>
				<g>
					<path style="fill:#FFFFFF;" d="M130.729,146.789c-0.356,0.799-0.678,1.605-0.998,2.41c-0.551,1.376-1.123,2.8-1.852,4.137
						c-1.484,2.72-3.275,5.008-5.33,6.8c-2.334,2.036-5.209,2.853-7.822,2.196c-3.596-0.903-4.27-4.646-3.705-7.848l0.018-0.234
						l-0.117-0.14c-0.088-0.104-0.217-0.165-0.35-0.165l-0.285,0.032l-0.109,0.211c-1.318,2.534-0.771,5.728,1.359,7.948
						c1.238,1.288,3.064,1.997,5.139,1.997c1.236,0,2.469-0.254,3.565-0.734c3.604-1.579,6.059-4.739,7.598-6.979
						c2.475-3.612,3.836-6.647,4.162-9.281c0.023-0.178-0.029-0.35-0.152-0.484C131.555,146.32,130.912,146.381,130.729,146.789z"/>
					<path style="fill:#FFFFFF;" d="M165.922,163.466c-0.947,2.828-2.24,4.659-4.328,6.123c-1.326,0.929-2.822,1.44-4.219,1.44
						c-1.256,0.001-2.367-0.399-3.307-1.187c-2.34-1.965-2.492-4.904-2.652-8.016c-0.146-2.844-0.297-5.785-2.221-8.023
						c-0.217-0.251-0.668-0.186-0.822,0.108c-0.086,0.162-0.072,0.355,0.029,0.504c1.387,2.007,1.564,4.812,1.736,7.524
						c0.264,4.159,0.537,8.46,5.037,10.283c0.691,0.283,1.449,0.425,2.248,0.425c4.568,0,9.621-4.608,9.83-8.963
						c0.008-0.186-0.053-0.358-0.174-0.486C166.756,162.86,166.072,163.009,165.922,163.466z"/>
					<path style="fill:#FFFFFF;" d="M216.434,149.576c-1.764,2.923-3.633,5.053-7.02,5.946c-2.529,0.664-5.541,0.392-8.797-0.792
						c-1.65-0.6-3.334-1.48-4.959-2.33c-3.094-1.618-6.293-3.29-9.652-3.29c-1.785,0-3.451,0.46-5.098,1.408
						c-0.223,0.127-0.324,0.385-0.258,0.64c0.068,0.253,0.279,0.422,0.527,0.422l0.139-0.012l0.072-0.03
						c1.443-0.598,2.857-0.888,4.322-0.888c3.418,0,6.48,1.588,9.725,3.27c2.672,1.385,5.432,2.818,8.469,3.335
						c0.795,0.136,1.613,0.205,2.428,0.205c5.375,0,9.879-2.852,11.471-7.267c0.082-0.224,0.053-0.46-0.078-0.647
						C217.438,149.135,216.699,149.134,216.434,149.576z"/>
					<path style="fill:#FFFFFF;" d="M273.695,162.168c-0.75,1.296-1.342,2.642-1.912,3.942c-1.002,2.276-1.947,4.425-3.66,6.316
						c-1.615,1.781-3.656,2.722-5.9,2.722c-1.715,0-3.521-0.553-5.227-1.599c-2.205-1.354-3.172-4.09-4.109-6.737
						c-0.398-1.127-0.775-2.192-1.24-3.148c-1.484-3.043-4.25-5.634-8.445-7.923c-0.309-0.166-0.695-0.004-0.799,0.322
						c-0.074,0.235,0.016,0.487,0.219,0.629c1.896,1.314,4.07,2.887,5.852,4.925c1.658,1.896,2.518,4.237,3.35,6.501
						c1.406,3.825,3.184,6.683,7.277,8.203c0.99,0.369,2.014,0.555,3.035,0.555c2.391,0,4.813-1.045,6.813-2.941
						c2.783-2.639,5.225-7.288,5.936-11.307c0.035-0.195-0.018-0.393-0.145-0.544C274.467,161.76,273.912,161.796,273.695,162.168z"
						/>
					<path style="fill:#FFFFFF;" d="M315.176,149.762c-0.152-0.408-0.738-0.539-1.039-0.239c-0.113,0.114-0.176,0.27-0.174,0.439
						c0,0.754,0.104,1.599,0.211,2.494c0.369,3.047,0.746,6.198-2.422,7.073c-0.338,0.094-0.701,0.141-1.082,0.141
						c-1.799,0-3.608-1.039-4.525-1.658c-1.764-1.19-2.445-3.33-3.045-5.217c-0.904-2.83-1.973-5.497-5.131-7.021
						c-1.582-0.764-3.498-1.136-5.855-1.136c-1.945,0-3.898,0.255-5.553,0.506c-0.262,0.04-0.445,0.273-0.424,0.545
						c0.023,0.276,0.238,0.485,0.541,0.485h0.002c1.15-0.078,2.582-0.174,4.025-0.174c4.996,0,8.059,1.225,9.635,3.855
						c0.695,1.156,1.111,2.425,1.51,3.653c0.676,2.08,1.379,4.231,3.453,5.802c1.547,1.171,3.549,1.87,5.354,1.87l0,0
						c1.547,0,2.881-0.513,3.859-1.484C316.848,157.381,316.156,152.374,315.176,149.762z"/>
				</g>
			</g>
		</g>
		<g>
			<path style="fill:#280000;" d="M312.858,110.54c0,16.435-44.805,29.757-100.076,29.757c-55.27,0-100.076-13.322-100.076-29.757
				c0-16.434,44.807-29.756,100.076-29.756C268.053,80.784,312.858,94.107,312.858,110.54z"/>
			<path style="fill:#120000;" d="M232.055,125.155c-45.176,0-81.799-10.89-81.799-24.322c0-7.222,10.59-13.707,27.404-18.163
				c-37.943,4.23-64.955,15.112-64.955,27.871c0,16.435,44.807,29.757,100.076,29.757c55.271,0,100.076-13.322,100.076-29.757
				c0-1.458-0.358-2.892-1.041-4.294C303.539,117.073,270.971,125.155,232.055,125.155z"/>
			<g>
				<g>
					<path style="fill:#FFFFFF;" d="M186.418,122.96c0,0-0.368,0.026-1.059,0.074c-0.691,0.039-1.701,0.141-2.992,0.186
						c-1.291,0.056-2.861,0.133-4.66,0.147c-1.801,0.03-3.834,0.048-6.051-0.016c-2.217-0.04-4.62-0.134-7.158-0.307
						c-2.537-0.186-5.219-0.374-7.977-0.733c-2.758-0.349-5.615-0.715-8.492-1.27c-2.878-0.549-5.791-1.191-8.684-1.974
						c-2.881-0.825-5.743-1.766-8.49-2.99c-2.738-1.226-5.412-2.68-7.566-5.038c-1.035-1.17-1.965-2.791-1.914-4.619
						c-0.004,0.017,0.02-0.305,0.012-0.183l0.004-0.031l0.01-0.062l0.02-0.123l0.037-0.245c0.036-0.18,0.025-0.289,0.1-0.526
						c0.143-0.437,0.287-0.944,0.489-1.288c0.207-0.337,0.39-0.704,0.626-0.996c0.239-0.288,0.474-0.581,0.717-0.851
						c2.047-2.02,4.334-3.085,6.426-3.949c2.096-0.872,4.08-1.414,5.834-1.873c1.754-0.454,3.303-0.753,4.577-0.979
						c1.272-0.241,2.283-0.363,2.97-0.457c0.686-0.093,1.051-0.143,1.051-0.143s-0.351,0.112-1.012,0.321
						c-0.661,0.2-1.623,0.525-2.844,0.926c-1.221,0.401-2.689,0.928-4.352,1.557c-1.652,0.654-3.51,1.411-5.418,2.399
						c-1.891,0.985-3.902,2.237-5.373,3.883l-0.471,0.643c-0.154,0.214-0.229,0.447-0.357,0.665c-0.111,0.223-0.1,0.368-0.191,0.542
						c-0.041,0.071-0.035,0.302-0.055,0.446l-0.021,0.247l-0.01,0.124l-0.006,0.062l-0.002,0.031
						c-0.01,0.143,0.008-0.159,0.008-0.121c0.061,0.863,0.527,1.774,1.342,2.614c0.805,0.838,1.855,1.586,2.995,2.252
						c1.165,0.641,2.384,1.253,3.671,1.795c2.559,1.103,5.314,1.966,8.096,2.729c2.775,0.792,5.604,1.456,8.406,2.029
						c2.809,0.555,5.58,1.098,8.282,1.528c2.7,0.433,5.321,0.823,7.813,1.169c2.495,0.312,4.854,0.63,7.04,0.877
						c2.189,0.24,4.195,0.459,5.975,0.654c1.783,0.18,3.338,0.337,4.619,0.465C184.949,122.813,186.418,122.96,186.418,122.96z"/>
				</g>
			</g>
			<g>
				<path style="fill:#370F03;" d="M312.858,110.54c0,0,0.021,0.217,0.064,0.637c0.021,0.21,0.047,0.47,0.078,0.78
					c0.029,0.309-0.035,0.682-0.066,1.112c-0.17,1.699-0.943,4.233-2.912,6.844c-1.916,2.633-4.834,5.324-8.483,7.807
					c-3.647,2.502-8.02,4.854-12.927,7.002c-9.828,4.276-21.804,7.665-34.796,9.943c-3.246,0.596-6.563,1.067-9.925,1.501
					c-1.682,0.202-3.373,0.404-5.074,0.608c-1.703,0.181-3.418,0.311-5.138,0.47c-6.882,0.602-13.892,0.837-20.897,0.881
					l-5.194-0.069c-1.769-0.052-3.536-0.103-5.301-0.154c-3.489-0.117-6.962-0.379-10.403-0.646
					c-1.72-0.155-3.434-0.309-5.138-0.463c-1.7-0.204-3.394-0.408-5.075-0.609c-3.361-0.441-6.68-0.898-9.926-1.498
					c-6.5-1.13-12.737-2.562-18.586-4.221c-5.846-1.676-11.301-3.581-16.213-5.723c-4.908-2.151-9.28-4.504-12.929-7.009
					c-3.647-2.487-6.565-5.18-8.481-7.815c-1.967-2.607-2.744-5.164-2.905-6.834c-0.03-0.426-0.095-0.788-0.067-1.11
					c0.031-0.317,0.057-0.585,0.077-0.8c0.044-0.419,0.065-0.635,0.065-0.635s0.059,0.211,0.172,0.618
					c0.056,0.198,0.125,0.444,0.208,0.736c0.089,0.286,0.265,0.601,0.414,0.956c0.634,1.424,2.044,3.204,4.296,4.878
					c2.248,1.68,5.317,3.278,9.063,4.661c3.732,1.398,8.096,2.649,12.938,3.735c4.838,1.1,10.169,2.017,15.834,2.81
					c5.664,0.803,11.678,1.445,17.912,1.978c3.121,0.238,6.294,0.492,9.512,0.689c3.221,0.162,6.48,0.326,9.766,0.491
					c1.645,0.054,3.297,0.108,4.953,0.163c1.658,0.022,3.32,0.072,4.984,0.127c1.646,0.026,3.297,0.052,4.949,0.078l5.076,0.008
					c6.695,0.044,13.385-0.132,19.963-0.364c3.287-0.163,6.547-0.325,9.768-0.485c3.217-0.203,6.391-0.445,9.512-0.686
					c6.236-0.534,12.25-1.173,17.916-1.975c5.664-0.795,10.996-1.712,15.834-2.813c4.844-1.088,9.207-2.34,12.939-3.741
					c3.744-1.386,6.815-2.986,9.063-4.669c0.281-0.213,0.555-0.421,0.821-0.623c0.251-0.214,0.474-0.438,0.706-0.649
					c0.224-0.215,0.471-0.41,0.672-0.623c0.191-0.22,0.377-0.433,0.557-0.638c0.389-0.404,0.66-0.827,0.912-1.224
					c0.13-0.2,0.254-0.391,0.373-0.572c0.086-0.189,0.168-0.37,0.246-0.54c0.147-0.351,0.323-0.654,0.414-0.953
					c0.084-0.3,0.154-0.553,0.21-0.756C312.799,110.751,312.858,110.54,312.858,110.54z"/>
			</g>
		</g>
	</g>
	<g>
		<g>
			
				<ellipse transform="matrix(0.9239 -0.3827 0.3827 0.9239 -15.4176 87.6448)" style="fill:#D83633;" cx="212.602" cy="82.577" rx="14.856" ry="14.855"/>
			<path style="fill:#FFFFFF;" d="M209.912,71.229c-1.859,2.23-3.01,5.091-2.324,7.731c0.879,3.383,3.994,5.89,7.498,5.979
				c2.924,0.075,5.996-1.074,7.883-3.379c0.014-0.017,0.025-0.035,0.039-0.052c0.102-0.555,0.162-1.124,0.162-1.707
				c0-5.194-4.211-9.404-9.404-9.404C212.391,70.397,211.09,70.699,209.912,71.229z"/>
			<path style="fill:#A7A9AC;" d="M212.932,91.714c-5.627-0.973-11.211-5.707-11.477-11.756c-0.146-3.348,0.875-6.668,2.654-9.561
				c-3.844,2.685-6.363,7.135-6.363,12.18c0,8.205,6.65,14.855,14.855,14.855c6.43,0,11.891-4.094,13.957-9.812
				C222.895,90.842,217.783,92.552,212.932,91.714z"/>
		</g>
		<path style="fill:#8DC63F;" d="M210.639,39.967c-0.125-0.093-0.33,0.043-0.254,0.194c2.613,5.275,6.094,9.871,7.455,15.739
			c0.707,3.039,1.33,6.006,1.02,9.15c-0.391,3.927-3.307,4.397-6.047,6.284c-0.971,0.669-0.373,1.986,0.592,2.21
			c7.391,1.709,9.555-8.129,8.025-13.353C219.605,53.956,216.092,44.042,210.639,39.967z"/>
	</g>
	<path style="fill:#280000;" d="M225.652,83.265c-5.234-0.067-12.395,8.921-16.995,4.626c-0.745-0.695-1.515-1.219-2.3-1.622
		c-0.473-0.42-1.047-0.63-1.619-0.649c-4.172-1.165-8.605,1.072-12.134,4.279c-1.344,1.222-0.812,2.871,0.335,3.696
		c-0.069,0.304-0.118,0.617-0.125,0.946c-0.098,4.767,5.172,7.42,9.127,8.469c6.764,1.794,14.785,0.094,21.53-1.1
		c4.433-0.785,11.427-3.838,12.725-8.704C237.834,87.065,230.937,83.333,225.652,83.265z"/>
	<g>
		<g>
			<path style="fill:#C3C0BD;" d="M284.633,83.07c0.674,1.045-2.377,5.931-2.877,6.712c-2.027,3.17-4.557,3.783-7.76,5.356
				c-2.58,1.268-3.758,5.492-1.09,7.334c5.281,3.648,9.307,0.383,11.875-4.316C287.375,93.41,287.721,87.853,284.633,83.07z"/>
			<path style="fill:#E5E0DB;" d="M284.518,82.967c1.061,1.013-1.088,7.462-1.445,8.497c-1.455,4.199-4.188,5.603-7.428,8.293
				c-2.609,2.167-2.791,7.342,0.779,8.719c7.068,2.726,10.785-2.134,12.434-8.236C290.523,94.075,289.381,87.604,284.518,82.967z"/>
			<path style="fill:#D3CDBE;" d="M284.957,83.365c1.318,0.643,1.227,7.441,1.197,8.535c-0.111,4.441-2.291,6.609-4.563,10.155
				c-1.83,2.856-0.435,7.842,3.385,8.072c7.565,0.454,9.633-5.302,9.354-11.619C294.049,92.127,290.996,86.309,284.957,83.365z"/>
			<path style="fill:#E6E7E8;" d="M293.742,102.969c-0.891,1.895-2.434,3.632-4.697,3.574c-2.418-0.064-5.582-1.549-5.233-4.374
				c0.412-3.328,3.94-5.191,4.424-8.503c0.445-3.027-1.045-5.787-2.451-8.468c0.441,2.284,0.389,5.926,0.369,6.702
				c-0.111,4.441-2.291,6.609-4.563,10.155c-1.83,2.856-0.435,7.842,3.385,8.072c6.236,0.374,8.732-3.474,9.264-8.378
				C294.092,102.164,293.928,102.572,293.742,102.969z"/>
		</g>
		<g>
			<path style="fill:#C3C0BD;" d="M253.135,97.112c0.674,1.044-2.377,5.93-2.877,6.711c-2.029,3.17-4.559,3.783-7.76,5.356
				c-2.58,1.267-3.758,5.493-1.09,7.334c5.279,3.648,9.305,0.384,11.875-4.315C255.877,107.452,256.221,101.896,253.135,97.112z"/>
			<path style="fill:#E5E0DB;" d="M253.02,97.009c1.06,1.012-1.088,7.462-1.447,8.497c-1.453,4.199-4.188,5.604-7.426,8.293
				c-2.609,2.167-2.793,7.342,0.777,8.718c7.07,2.726,10.785-2.133,12.434-8.236C259.025,108.117,257.881,101.646,253.02,97.009z"/>
			<path style="fill:#D3CDBE;" d="M253.457,97.407c1.318,0.643,1.226,7.44,1.197,8.536c-0.109,4.441-2.289,6.608-4.563,10.154
				c-1.828,2.856-0.434,7.843,3.385,8.072c7.565,0.454,9.633-5.302,9.354-11.619C262.549,106.17,259.498,100.351,253.457,97.407z"/>
			<path style="fill:#E6E7E8;" d="M262.242,117.011c-0.889,1.896-2.434,3.632-4.697,3.574c-2.416-0.063-5.58-1.549-5.231-4.374
				c0.41-3.328,3.939-5.191,4.424-8.502c0.443-3.027-1.045-5.787-2.451-8.468c0.439,2.283,0.387,5.926,0.367,6.702
				c-0.109,4.441-2.289,6.608-4.563,10.154c-1.828,2.856-0.434,7.843,3.385,8.072c6.238,0.374,8.734-3.475,9.264-8.377
				C262.594,116.206,262.428,116.614,262.242,117.011z"/>
		</g>
		<g>
			<path style="fill:#C3C0BD;" d="M173.152,99.448c-0.674,1.043,2.377,5.929,2.877,6.71c2.029,3.17,4.557,3.784,7.76,5.356
				c2.58,1.267,3.756,5.493,1.09,7.334c-5.281,3.647-9.305,0.383-11.877-4.315C170.408,109.787,170.066,104.231,173.152,99.448z"/>
			<path style="fill:#E5E0DB;" d="M173.268,99.345c-1.063,1.012,1.09,7.461,1.447,8.497c1.453,4.199,4.186,5.603,7.426,8.293
				c2.609,2.167,2.791,7.342-0.777,8.718c-7.07,2.726-10.785-2.133-12.436-8.236C167.26,110.452,168.404,103.981,173.268,99.345z"/>
			<path style="fill:#D3CDBE;" d="M172.828,99.742c-1.32,0.643-1.225,7.44-1.199,8.536c0.113,4.44,2.293,6.608,4.564,10.154
				c1.83,2.856,0.434,7.843-3.385,8.073c-7.564,0.453-9.631-5.303-9.354-11.619C163.736,108.505,166.787,102.686,172.828,99.742z"/>
			<path style="fill:#E6E7E8;" d="M164.045,119.346c0.887,1.896,2.432,3.632,4.695,3.574c2.416-0.063,5.58-1.55,5.232-4.374
				c-0.412-3.328-3.941-5.19-4.426-8.502c-0.441-3.026,1.045-5.787,2.453-8.468c-0.441,2.284-0.389,5.926-0.371,6.703
				c0.113,4.44,2.293,6.608,4.564,10.154c1.83,2.856,0.434,7.843-3.385,8.073c-6.238,0.373-8.736-3.475-9.264-8.378
				C163.693,118.541,163.857,118.949,164.045,119.346z"/>
		</g>
		<g>
			<path style="fill:#C3C0BD;" d="M212.291,100.456c-0.674,1.044,2.375,5.93,2.875,6.711c2.031,3.17,4.56,3.784,7.762,5.356
				c2.58,1.268,3.756,5.493,1.09,7.335c-5.283,3.647-9.307,0.383-11.875-4.316C209.547,110.796,209.205,105.24,212.291,100.456z"/>
			<path style="fill:#E5E0DB;" d="M212.406,100.354c-1.063,1.012,1.09,7.462,1.447,8.497c1.453,4.199,4.185,5.604,7.426,8.293
				c2.609,2.167,2.791,7.342-0.779,8.718c-7.068,2.726-10.783-2.133-12.434-8.236C206.398,111.461,207.541,104.99,212.406,100.354z"
				/>
			<path style="fill:#D3CDBE;" d="M211.967,100.752c-1.32,0.642-1.227,7.44-1.199,8.535c0.111,4.441,2.291,6.608,4.565,10.154
				c1.83,2.857,0.434,7.843-3.385,8.073c-7.564,0.454-9.631-5.303-9.354-11.619C202.875,109.515,205.926,103.695,211.967,100.752z"
				/>
			<path style="fill:#E6E7E8;" d="M203.182,120.355c0.889,1.896,2.434,3.632,4.697,3.573c2.416-0.063,5.58-1.548,5.232-4.373
				c-0.41-3.329-3.941-5.191-4.426-8.503c-0.441-3.026,1.047-5.786,2.453-8.467c-0.441,2.283-0.391,5.925-0.371,6.702
				c0.111,4.441,2.291,6.608,4.565,10.154c1.83,2.857,0.434,7.843-3.385,8.073c-6.238,0.375-8.734-3.475-9.262-8.378
				C202.832,119.551,202.996,119.957,203.182,120.355z"/>
		</g>
		<g>
			<path style="fill:#C3C0BD;" d="M144.773,83.718c-0.674,1.044,2.377,5.931,2.875,6.711c2.031,3.169,4.559,3.783,7.762,5.355
				c2.578,1.267,3.756,5.493,1.09,7.334c-5.281,3.648-9.307,0.383-11.875-4.316C142.031,94.058,141.688,88.502,144.773,83.718z"/>
			<path style="fill:#E5E0DB;" d="M144.889,83.616c-1.061,1.013,1.088,7.462,1.445,8.497c1.455,4.199,4.188,5.603,7.428,8.293
				c2.609,2.167,2.793,7.342-0.777,8.719c-7.07,2.726-10.785-2.134-12.436-8.236C138.881,94.724,140.025,88.252,144.889,83.616z"/>
			<path style="fill:#D3CDBE;" d="M144.449,84.013c-1.318,0.643-1.225,7.441-1.197,8.536c0.111,4.441,2.291,6.608,4.563,10.154
				c1.83,2.857,0.436,7.842-3.385,8.072c-7.564,0.454-9.631-5.302-9.354-11.619C135.357,92.776,138.41,86.957,144.449,84.013z"/>
			<path style="fill:#E6E7E8;" d="M135.666,103.617c0.889,1.896,2.433,3.632,4.695,3.574c2.418-0.063,5.582-1.549,5.232-4.374
				c-0.412-3.328-3.939-5.191-4.424-8.502c-0.443-3.027,1.043-5.787,2.451-8.468c-0.441,2.284-0.389,5.926-0.369,6.703
				c0.111,4.441,2.291,6.608,4.563,10.154c1.83,2.857,0.436,7.842-3.385,8.072c-6.236,0.374-8.732-3.474-9.264-8.377
				C135.314,102.813,135.479,103.22,135.666,103.617z"/>
		</g>
	</g>
</g>
</svg>
