<?xml version="1.0" encoding="utf-8"?>
<!-- Generator: Adobe Illustrator 27.5.0, SVG Export Plug-In . SVG Version: 6.00 Build 0)  -->
<svg version="1.1" id="Capa_1" xmlns="http://www.w3.org/2000/svg" xmlns:xlink="http://www.w3.org/1999/xlink" x="0px" y="0px"
	 viewBox="0 0 2122 2122" style="enable-background:new 0 0 2122 2122;" xml:space="preserve">
<g>
	<path style="fill:#A4D9E7;" d="M1751.557,1328.984c-13.498,25.662-29.374,48.784-47.209,69.678
		c53.118,31.096,83.225,66.501,83.225,104.078c0,123.639-325.451,223.873-726.913,223.873
		c-401.463,0-726.912-100.234-726.912-223.873c0-34.138,24.854-66.486,69.226-95.438c-18.396-22.593-33.836-46.945-46.156-72.583
		c-109.572,49.765-174.458,111.538-174.458,178.458c0,164.74,393.23,298.289,878.301,298.289
		c485.072,0,878.301-133.549,878.301-298.289C1938.961,1443.661,1868.944,1379.701,1751.557,1328.984z"/>
	<path style="fill:#70B4C4;" d="M1626.194,1469.132c-286.601,200.687-742.654,179.298-1054.154,58.836
		c-21.55-8.351-41.808-18.075-60.775-29.052c-43.08-24.84-79.332-56.048-108.291-91.614c-44.372,28.952-69.226,61.3-69.226,95.438
		c0,123.639,325.449,223.873,726.912,223.873c401.461,0,726.913-100.234,726.913-223.873c0-37.576-30.106-72.982-83.225-104.078
		C1681.289,1425.677,1654.971,1448.984,1626.194,1469.132z"/>
	<path style="fill:#FAC893;" d="M745.445,1288.665c146.409,26.193,293.057,71.79,440.837,55.006
		c123.608-14.046,244.592-76.073,314.165-179.221c32.006-47.463,52.031-102.044,60.985-158.661
		c-43.126-1.475-85.907-12.06-129.024-16.72c-51.535-5.53-108.314-0.809-147.215,33.452c-17.876,15.781-30.59,36.682-47.823,53.15
		c-36.036,34.504-89.062,46.446-138.82,42.938c-49.757-3.513-97.376-20.702-144.229-37.812
		c-35.311-12.872-72.719-26.032-109.686-19.289c-40.314,7.342-73.283,37.204-112.993,47.333
		c-55.932,14.29-115.9-14.003-154.801-56.658c-12.307-13.476-23.528-28.77-39.547-37.486c-28.653-15.659-63.761-6.421-95.802-0.282
		c-26.301,5.029-57.274,5.851-78.196-8.523c-53.571,105.613-54.692,220.706-11.231,318.647
		C467.155,1260.173,613.282,1264.977,745.445,1288.665z"/>
	<path style="fill:#DE9745;" d="M511.265,1498.915c10.531-6.943,22.073-12.55,33.817-17.111
		c64.407-24.901,136.643-20.18,204.197-5.813c67.554,14.324,133.009,37.896,201.009,50.041
		c240.757,42.977,491.644-65.578,662.912-240.194c32.889-33.496,63.64-69.813,84.906-111.703
		c22.195-43.741,43.622-107.181,78.287-151.854c-14.864-37.034-36.264-71.668-62.719-103.808c-0.746,3.06-1.594,6.101-2.656,9.095
		c-17.352,48.828-72.56,74.777-124.294,77.963c-8.448,0.521-16.876,0.545-25.292,0.257c-8.955,56.617-28.979,111.198-60.985,158.661
		c-69.573,103.147-190.557,165.174-314.165,179.221c-147.781,16.784-294.428-28.814-440.837-55.006
		c-132.163-23.688-278.29-28.492-393.381,35.873c1.515,3.421,3.13,6.803,4.753,10.181c12.321,25.639,27.761,49.99,46.156,72.583
		C431.933,1442.868,468.185,1474.075,511.265,1498.915z"/>
	<path style="fill:#F1E9D4;" d="M516.914,888.665c18.482,25.749,52.502,37.208,84.02,34.222
		c31.517-2.987,60.614-18.607,85.551-38.095c20.582-16.102,39.951-35.595,65.135-42.533c44.913-12.473,89.143,18.563,125.907,47.215
		c36.762,28.653,82.526,58.431,126.633,43.381c53.754-18.28,67.233-89.306,111.057-125.466
		c49.474-40.838,123.405-27.279,183.252-4.117c41.968,16.224,89.466,36.121,129.822,16.224
		c38.137-18.807,52.986-68.482,43.14-109.808c-9.725-40.96-38.256-74.655-68.925-103.469
		c-69.865-22.936-143.729-36.181-214.98-41.908c-13.993,119.5-180.824,174.124-288.853,147.76
		c-5.81-1.413-11.501-3.064-16.948-4.965c-49.017-17.068-70.351-58.587-67.642-103.384
		c-116.357,35.106-226.35,91.247-321.826,166.38c1.454,6.699,2.463,13.437,3.067,19.976
		C498.512,824.056,497.061,860.982,516.914,888.665z"/>
	<path style="fill:#F8E3B4;" d="M441.492,1014.414c32.041-6.139,67.149-15.376,95.802,0.282c16.019,8.716,27.24,24.01,39.547,37.486
		c38.901,42.655,98.869,70.948,154.801,56.658c39.71-10.129,72.68-39.991,112.993-47.333c36.967-6.743,74.375,6.417,109.686,19.289
		c46.852,17.11,94.472,34.3,144.229,37.812c49.759,3.508,102.784-8.434,138.82-42.938c17.233-16.468,29.947-37.369,47.823-53.15
		c38.901-34.261,95.681-38.982,147.215-33.452c43.118,4.66,85.899,15.244,129.024,16.72c8.417,0.288,16.844,0.264,25.292-0.257
		c51.734-3.187,106.942-29.135,124.294-77.963c1.062-2.994,1.909-6.035,2.656-9.095c7.281-29.859-0.041-62.446-15.084-89.536
		c-62.389-112.024-173.083-182.363-296.084-222.718c30.67,28.814,59.201,62.509,68.925,103.469
		c9.846,41.325-5.003,91.001-43.14,109.808c-40.356,19.897-87.854,0-129.822-16.224c-59.846-23.162-133.778-36.721-183.252,4.117
		c-43.825,36.161-57.303,107.186-111.057,125.466c-44.107,15.05-89.871-14.728-126.633-43.381
		c-36.765-28.653-80.994-59.688-125.907-47.215c-25.184,6.938-44.553,26.431-65.135,42.533
		c-24.938,19.489-54.034,35.109-85.551,38.095c-31.518,2.986-65.537-8.473-84.02-34.222c-19.853-27.683-18.402-64.609-21.591-98.587
		c-0.604-6.539-1.612-13.277-3.067-19.976c-16.222,12.711-32.042,26.027-47.376,39.873c-28.451,25.661-53.189,55.366-76.514,85.792
		c-21.751,28.409-38.377,69.452-17.271,98.344c3.47,4.75,7.601,8.618,12.201,11.779
		C384.218,1020.265,415.191,1019.443,441.492,1014.414z"/>
	<path style="fill:#EB5844;" d="M1009.286,575.189c61.864-20.38,98.465-90.718,92.494-155.61
		c-2.665-28.653-11.786-53.189-24.78-75.503c-18.039-14.451-37.934-26.231-59.686-34.222c16.546,36.882-5.932,86.723-36.358,113.354
		c-25.142,21.993-58.272,29.462-84.626,49.115c-27.32,20.375-51.815,45.477-67.111,76.268
		c-8.758,17.554-13.842,35.956-15.091,53.876c5.81-3.956,11.985-7.303,18.441-9.969
		C887.696,569.82,952.667,593.791,1009.286,575.189z"/>
	<path style="fill:#D84030;" d="M881.725,707.106c5.447,1.9,11.138,3.552,16.948,4.965c108.029,26.365,274.861-28.26,288.853-147.76
		c1.364-11.652,1.304-23.909-0.435-36.781c-4.884-36.239-20.341-70.382-39.549-101.496c-18.926-30.708-42.453-59.522-70.541-81.958
		c12.994,22.314,22.114,46.85,24.78,75.503c5.971,64.891-30.631,135.23-92.494,155.61c-56.619,18.602-121.591-5.369-176.716,17.311
		c-6.456,2.665-12.631,6.012-18.441,9.969c-0.029,0.42-0.021,0.835-0.046,1.254C811.374,648.519,832.708,690.038,881.725,707.106z"
		/>
	<path style="fill:#C17E39;" d="M1613.2,1285.839c-171.269,174.616-422.155,283.171-662.912,240.194
		c-68-12.146-133.454-35.717-201.009-50.041c-67.554-14.367-139.79-19.089-204.197,5.813c-11.744,4.56-23.286,10.168-33.817,17.111
		c18.967,10.977,39.225,20.702,60.775,29.052c311.5,120.463,767.553,141.851,1054.154-58.836
		c28.777-20.148,55.095-43.455,78.154-70.47c17.835-20.894,33.71-44.016,47.209-69.678c2.431-4.622,4.807-9.301,7.083-14.089
		c51.854-109.121,52.056-207.225,17.754-292.614c-34.665,44.672-56.093,108.112-78.287,151.854
		C1676.84,1216.026,1646.089,1252.343,1613.2,1285.839z"/>
</g>
</svg>
