<?xml version="1.0" encoding="utf-8"?>
<!-- Generator: Adobe Illustrator 27.5.0, SVG Export Plug-In . SVG Version: 6.00 Build 0)  -->
<svg version="1.1" xmlns="http://www.w3.org/2000/svg" xmlns:xlink="http://www.w3.org/1999/xlink" x="0px" y="0px"
	 viewBox="0 0 500 500" style="enable-background:new 0 0 500 500;" xml:space="preserve">
<g id="BACKGROUND">
	<rect style="fill:#E9F2C7;" width="500" height="500"/>
	<ellipse style="fill:#C7CFAA;" cx="252.333" cy="393.5" rx="162.667" ry="17.5"/>
</g>
<g id="OBJECTS">
	<g>
		<ellipse style="fill:#C7E8F2;" cx="250.333" cy="236.667" rx="176.211" ry="42.667"/>
		<path style="fill:#512323;" d="M250.333,280.083c-47.125,0-91.438-4.445-124.777-12.518
			c-33.652-8.148-52.185-19.122-52.185-30.899s18.533-22.75,52.185-30.899c33.338-8.072,77.651-12.518,124.777-12.518
			s91.439,4.446,124.777,12.518c33.651,8.148,52.185,19.122,52.185,30.899s-18.533,22.75-52.185,30.899
			C341.772,275.638,297.459,280.083,250.333,280.083z M250.333,194.75c-47.01,0-91.198,4.431-124.424,12.476
			c-32.435,7.854-51.038,18.584-51.038,29.441s18.603,21.587,51.038,29.441c33.226,8.045,77.414,12.476,124.424,12.476
			c47.01,0,91.198-4.431,124.423-12.476c32.436-7.854,51.038-18.584,51.038-29.441s-18.603-21.587-51.038-29.441
			C341.531,199.181,297.344,194.75,250.333,194.75z"/>
	</g>
	<g>
		<g>
			<path style="fill:#FFFFFF;" d="M443,237.333C443,266.42,434.747,402,250.333,402S57.667,266.42,57.667,237.333
				s86.26-52.667,192.667-52.667S443,208.246,443,237.333z"/>
			<path style="fill:#C7E8F2;" d="M443.75,237.33c0,15.9-2.66,56.83-27.3,93.66c-14.26,21.3-33.73,38.14-57.88,50.04
				c-15.77,7.78-33.64,13.49-53.45,17.09c0.61-0.36,1.22-0.73,1.83-1.09c0.58-0.35,1.16-0.7,1.73-1.05
				c43.98-26.97,71.59-65.83,64.32-87.65c-11.33-34-55.33-22-143.33-22S67,260,67.33,236.33c0.21-14.31,19.07-25.21,33.94-31.58
				c3.39-1.46,6.57-2.68,9.27-3.65c5.06-1.82,8.46-2.77,8.46-2.77l-0.07-0.28c35.82-9.14,82.22-14.13,131.4-14.13
				c51.53,0,99.98,5.48,136.44,15.45C423.51,209.41,443.75,222.9,443.75,237.33z"/>
			<path style="fill:#512323;" d="M386.77,199.37c-36.46-9.97-84.91-15.45-136.44-15.45c-49.18,0-95.58,4.99-131.4,14.13
				c-1.7,0.42-3.38,0.87-5.03,1.32c-36.75,10.04-56.98,23.53-56.98,37.96c0,15.9,2.66,56.83,27.3,93.66
				c14.26,21.3,33.73,38.14,57.88,50.04c29.23,14.41,65.65,21.72,108.23,21.72c19.6,0,37.9-1.55,54.79-4.63
				c19.81-3.6,37.68-9.31,53.45-17.09c24.15-11.9,43.62-28.74,57.88-50.04c24.64-36.83,27.3-77.76,27.3-93.66
				C443.75,222.9,423.51,209.41,386.77,199.37z M308.68,395.98c-17.17,3.39-36.53,5.27-58.35,5.27
				c-178.07,0-191.91-125.46-191.91-163.92c0-11.95,15.09-23.33,42.85-32.58c4.07-1.36,8.41-2.67,13.02-3.93
				c36.33-9.93,84.65-15.4,136.04-15.4c51.4,0,99.71,5.47,136.04,15.4c36.04,9.85,55.88,22.81,55.88,36.51
				C442.25,271.08,431.59,371.81,308.68,395.98z"/>
		</g>
		<g>
			<polygon style="fill:#FF2E2E;" points="225.22,210.367 214.608,202.925 198.283,203.483 211.353,210.087 			"/>
			<path style="fill:#EA7618;" d="M143.111,217.793c-0.312-0.381-1.337-1.442-2.768-1.243L138.894,218
				c1.528,0.655,3.054,1.519,4.516,2.48L143.111,217.793z"/>
			<path style="fill:#EA7618;" d="M116.262,201.975c-1,0.341-4.466,1.797-5.144,5.675c0.44-0.576,1.125-1.226,2.138-1.753
				l-0.012-0.018c0.171-0.116,2.36-1.57,5.607-2.558L116.262,201.975z"/>
			<path style="fill:#E2B851;" d="M144.9,214.508c-0.263-0.262-0.398-0.544-0.468-0.777c-0.074-0.249-0.091-0.497-0.072-0.731
				c-1.052,0.053-1.942-0.277-2.541-0.584c-0.265,0.395-0.594,0.658-0.935,0.82c0.242,0.628,0.26,1.252,0.174,1.788
				c1.141,0.102,2.035,0.686,2.618,1.205C144.066,215.609,144.543,214.968,144.9,214.508z"/>
			<path style="fill:#FFAD1D;" d="M153.72,229.327l0.074,0.095c0.022,0.034,1.079,1.577,3.572,3.624l6-9.952l-14.438-4.559
				l-3.009,3.726C150.202,225.515,153.466,229.05,153.72,229.327z"/>
			<path style="fill:#EA7618;" d="M147.599,217.794l-2.089-1.598c-0.36,0.5-0.702,1.023-0.906,1.437l0.378,3.402L147.599,217.794z"
				/>
			<polygon style="fill:#C90049;" points="177.515,207.554 167.244,210.17 171.782,219.538 182.381,212.341 188.229,214.215 
				184.725,205.718 181.331,206.582 181.331,206.584 177.516,207.557 			"/>
			<path style="fill:#F9E073;" d="M181.83,204.907l3.785-0.964l0.029,0.071c0.78-0.712,1.399-1.564,1.826-2.248
				C184.779,202.361,182.589,204.203,181.83,204.907z"/>
			<path style="fill:#90C453;" d="M234.527,220.746c0.792-2.215,3.696-8.275,12.589-12.04
				c-14.324,2.108-21.127,11.015-23.563,15.169c1.564-0.765,3.25-1.425,5.081-1.931
				C230.632,221.392,232.598,221.005,234.527,220.746z"/>
			<path style="fill:#F9E073;" d="M176.37,206.3l-4.08,1.04l-2.53,0.64c0.62-2.89,0.28-5.41-1.03-7.48
				c-1.99-3.14-5.59-4.29-6.92-4.63c-0.54-2.5-1.78-4.37-3.67-5.57c-3.5-2.22-8.15-1.41-9.48-1.11c-3.29-2.38-6.51-3.25-9.59-2.58
				c-4.08,0.89-6.67,4.22-7.64,5.68c-1.69-0.99-6.24-3.02-11.16,0.08c-4.92,3.09-5.02,6.77-4.8,8.31c-1.59,0.63-5.47,2.66-5.92,7.41
				c-0.56-0.1-1.2-0.2-1.86-0.23v-0.11c-0.04,0-0.71-0.02-1.79,0.08c-0.44,0.04-0.95,0.1-1.52,0.18
				c4.11-15.57,19.16-26.76,36.24-26.76C157.04,181.25,171.61,191.51,176.37,206.3z"/>
			<path style="fill:#EFC652;" d="M169.859,253.275c14.021,3.721,24.225-1.948,29.519-8.938c-4.009,0.513-14.375,1.313-26.243-1.948
				c-12.818-3.521-18.478-9.461-20.089-11.467C153.945,236.392,157.407,249.971,169.859,253.275z"/>
			<path style="fill:#FFA436;" d="M181.373,205.023l-0.758-0.724c0.096,0.28,0.182,0.565,0.272,0.848L181.373,205.023z"/>
			<path style="fill:#FFA436;" d="M140.68,211.39c-0.24,0.51-0.57,0.57-0.76,0.56l-3.57-2.09c-0.08-0.26-0.17-0.51-0.27-0.77
				c-0.95-2.39-2.7-4.65-5.9-5.76c-0.03-0.01-0.07-0.03-0.11-0.04c-1.3-0.45-2.58-0.7-3.83-0.81c-1.86-0.16-3.63-0.01-5.24,0.31
				c-0.08,0.01-0.16,0.02-0.24,0.04l0.09-0.16l-3.87-2.01c-0.18-0.95-0.41-4.2,4.09-7.03c4.91-3.08,9.25-0.33,10.02,0.21l0.93,1.7
				l3.19,5.84L140.68,211.39z"/>
			<path style="fill:#BA36B1;" d="M288.22,191.37c-4.59,2.48-6.01,6.7-6.44,8.88c-1.31-0.8-2.89-1.47-4.8-1.93
				c-0.11-0.03-0.22-0.05-0.34-0.08c0.11-0.37,0.2-0.74,0.27-1.11c0.23-1.34-0.36-3.03-1.77-5.03c-1.39-1.97-3.51-4.14-6.05-6.27
				c0.98-0.77,3.56-2.25,9.08-2.25c1.6,0,2.97,0.36,4.14,0.93C286.15,186.37,287.86,190.43,288.22,191.37z"/>
			<path style="fill:#FFAD1D;" d="M237.11,179.149c5.123,1.685,20.442,7.483,31.314,19.521c2.021-0.497,5.736-1.767,7.028-2.215
				c-0.03-0.891-0.56-2.106-1.535-3.487c-4.59-6.506-17.984-15.682-27.789-17.376C244.103,175.741,239.8,177.762,237.11,179.149z"/>
			<path style="fill:#E158C8;" d="M311.21,189.19c-2.75,1.14-4.65,3.09-5.62,4.27c-1.39-1.82-3.24-3.05-5.48-3.64
				c-1.06-0.28-2.21-0.41-3.45-0.4c-2.88,0.04-5.2,0.54-7.09,1.32c-0.4-1.01-1.76-3.94-4.42-6.12c0.02-0.07,0.04-0.14,0.07-0.22
				c2.1-6.77,6.69-10.3,13.63-10.48c2.57-0.07,4.62,0.37,6.26,1.08c2.23,0.96,3.68,2.41,4.59,3.72
				C312.13,182.2,312.19,186.53,311.21,189.19z"/>
			<path style="fill:#E158C8;" d="M286.74,210.38c-2.14,2.46-3.31,5.24-3.87,6.93c-2.54-2.6-6.83-5.95-13.45-8.17
				c0.53-0.54,1.37-1.43,2.31-2.55c1.54-1.86,3.35-4.36,4.4-6.92c4.85,1.04,7.49,3.48,8.91,5.79
				C286.44,207.7,286.7,209.81,286.74,210.38z"/>
			<path style="fill:#BA36B1;" d="M324.66,201.69c-4.28,1.14-7.62,1.94-7.71,1.96l-0.17,0.04l-0.14,0.11
				c-2.42,2.04-4.15,4.89-5.33,7.41c-0.77-0.89-2.09-2.21-3.99-3.39c0.46-1.07,0.78-2.38,0.91-3.81c0.28-2.98-0.21-6.47-1.77-9.25
				c1.12-1.52,5.16-6.19,11.71-4.7c0.12,0.03,0.24,0.06,0.36,0.1c2.22,0.57,3.89,1.73,4.95,3.42
				C325.38,196.62,324.86,200.58,324.66,201.69z"/>
			<path style="fill:#FFAD1D;" d="M262.667,207.473c1.853,0.31,3.575,0.708,5.172,1.174l-0.022-0.024
				c0.061-0.058,5.645-5.427,7.274-10.457c-1.703,0.582-4.635,1.555-6.385,1.978C268.182,201.299,266.331,204.893,262.667,207.473z"
				/>
			<path style="fill:#C90049;" d="M206.629,243.727c0.568-1.664,2.526-6.757,6.686-11.727h-0.231v-6.718l-11.84,6.659l-0.15,10.643
				l0.078,0.018C203.164,243.072,204.968,243.434,206.629,243.727z"/>
			<polygon style="fill:#FF2E2E;" points="212.234,224.039 197.874,216.859 186.551,223.917 200.474,230.654 			"/>
			<path style="fill:#E158C8;" d="M306.01,207.08c-2.56-1.3-5.91-2.19-10.1-1.66c-3.36,0.43-5.93,1.86-7.87,3.63
				c-0.22-1.05-0.68-2.55-1.61-4.12c-0.75-1.28-1.81-2.6-3.31-3.76c0.25-2.14,1.94-10.08,13.56-10.25c1.3-0.02,2.48,0.14,3.54,0.48
				c1.96,0.61,3.5,1.82,4.65,3.61C307.33,198.87,307.12,204.29,306.01,207.08z"/>
			<path style="fill:#FF2E2E;" d="M199.743,231.967l-14.018-6.783l-0.299,14.218l6.881,3.909c3.322-0.042,5.867-0.317,7.284-0.513
				L199.743,231.967z"/>
			<path style="fill:#A1EA71;" d="M253.62,208.25h-0.61c-0.07,0-0.13,0.01-0.2,0.01l0.04,0.14c-11.29,2.77-15.35,9.3-16.61,12.15
				c6.41-0.61,12.34,0.25,17.43,1.77c6.86,2.05,12.18,5.31,15.09,7.81c1.95-1.41,3.99-2.73,6.1-3.94c3.03-1.76,6.22-3.32,9.53-4.65
				C283.01,219.46,274.6,208.25,253.62,208.25z M270.67,222.15c0.88,0,0.88,1.37,0,1.37C269.78,223.52,269.78,222.15,270.67,222.15z
				 M264.75,219.42c1.17,0,1.17,1.82,0,1.82S263.58,219.42,264.75,219.42z M258.08,218.33c1.09,0,1.08,1.68,0,1.68
				C257,220.01,257,218.33,258.08,218.33z M254.33,218.79c0.7,0,0.7,1.08,0,1.08C253.64,219.87,253.64,218.79,254.33,218.79z
				 M266.25,226.74c-0.75,0-0.74-1.15,0-1.15C267,225.59,266.99,226.74,266.25,226.74z M270.67,228.23c-0.73,0-0.73-1.13,0-1.13
				C271.4,227.1,271.4,228.23,270.67,228.23z"/>
			<path style="fill:#AEBC5C;" d="M318.37,216.247c-1.312-2.83-1.769-7.647-1.921-10.188c-3.058,3.245-4.736,7.85-5.389,9.984
				c0.607-0.014,1.21-0.043,1.82-0.043C314.684,216,316.521,216.088,318.37,216.247z"/>
			<path style="fill:#90C453;" d="M236.954,224.281c5.317-1.569,10.3-1.644,14.679-0.986c-6.506-1.693-14.286-2.202-22.6,0.095
				c-14.248,3.935-19.761,17.336-20.907,20.593c2.715,0.428,4.946,0.635,6.734,0.717C215.529,242.66,220.529,229.13,236.954,224.281
				z"/>
			<path style="fill:#F9E073;" d="M210.004,174.899c-3.841,3.171-4.501,8.563-4.592,11.051
				C209.63,182.784,210.052,177.37,210.004,174.899z"/>
			<path style="fill:#FF9B8A;" d="M126.166,213.731l-1.319-0.304l0.956-0.958c0.504-0.505,1.407-0.98,2.165-1.322
				c-1.984-1.102-4.37-0.903-4.4-0.9l-1.562,0.142l1.964-2.947c-3.591-0.695-8.258,1.541-8.309,1.566l-0.769,0.374l-0.27-0.811
				c-0.207-0.621-0.384-1.094-0.519-1.43c-1.848,0.887-2.281,2.254-2.3,2.318l-0.223,0.738l-0.734-0.235
				c-0.021-0.007-1.73-0.567-3.421-0.615c0.381,0.709,0.847,1.673,1.126,2.604l0.251,0.837l-0.866,0.121
				c-0.063,0.009-5.839,0.829-8.749,2.269c0.724,0.823,1.831,2.22,2.197,3.44l0.139,0.463l-0.365,0.318
				c-0.033,0.029-3.044,2.681-3.774,5.429c0.538,0.043,1.27,0.088,1.949,0.088h0.907l-0.171,0.892
				c-0.007,0.037-0.62,3.297-0.224,5.864c0.914-0.463,2.375-1.038,3.878-0.919l0.692,0.053l0,0.694c0,0.034,0.013,3.146,0.858,5.311
				c0.508-0.062,1.289-0.077,2.359,0.118l0.49,0.089l0.108,0.486c0.225,1.006,0.988,3.56,2.114,4.962l1.438-2.396l0.443,1.748
				c0.148,0.585,0.636,1.881,1.429,2.606c0.021-2.882,0.291-5.892,0.944-8.915c0.252-1.169,0.547-2.265,0.863-3.323
				c-0.933-1.916-6.727-14.336-3.468-20.854l0.383-0.765l0.708,0.479c0.227,0.153,5.238,3.634,7.003,11.897
				c2.082-2.523,4.645-4.263,7.698-5.25l-0.089-0.112c0.584-0.467,1.761-1.116,2.545-1.53
				C128.858,214.369,126.196,213.738,126.166,213.731z"/>
			<path style="fill:#BA36B1;" d="M309.54,215.89l0.53,0.18c-3.53,0.12-7,0.5-10.39,1.09c-4.8,0.84-9.44,2.12-13.87,3.81
				c-0.22-0.36-0.78-1.23-1.76-2.39c0.62-2.25,3.5-10.58,12.04-11.67c2.18-0.28,4.11-0.15,5.79,0.22c5.14,1.14,7.98,4.56,8.76,5.62
				c-0.5,1.23-0.85,2.3-1.07,3.03L309.54,215.89z"/>
			<path style="fill:#EA7618;" d="M137.359,217.414l2.031-2.031c0.136-0.268,0.52-1.225-0.232-2.144l-2.316-1.351
				c0.398,2.298,0.264,4.39,0.151,5.415C137.115,217.34,137.237,217.374,137.359,217.414z"/>
			<path style="fill:#ED2B3A;" d="M112.974,212.886c-1.701,5.105,1.611,13.638,3.183,17.21c0.76-2.071,1.66-3.905,2.711-5.489
				C117.823,217.945,114.468,214.238,112.974,212.886z"/>
			<path style="fill:#F9E073;" d="M235.386,200.999c-5.047-2.123-8.611-1.208-10.409-0.377
				C230.26,202.146,233.665,201.573,235.386,200.999z"/>
			<path style="fill:#ED2B3A;" d="M135.53,216.94c-0.59-0.11-1.17-0.18-1.74-0.2c-0.22,0-0.44,0-0.66,0.01
				c-0.39,0.02-0.77,0.06-1.15,0.1l0.38-0.19l-0.36-0.68c-0.9-1.68-2.67-2.67-3.96-3.2c0.59-0.3,1.25-0.58,1.71-0.74l1.17-0.42
				l-0.91-0.84c-1.6-1.48-3.72-1.91-5.12-2.02l1.19-1.79l0.23-0.34l-0.88-0.33c-1.34-0.51-2.86-0.57-4.31-0.42
				c-2.21,0.24-4.27,0.99-5.34,1.44c-0.16-0.42-0.28-0.72-0.38-0.96c0.09-0.05,0.19-0.1,0.29-0.15c0.01,0,0.02,0,0.02,0
				c2.65-1.34,8.17-3.44,13.88-1.5C136.09,206.92,135.8,214.5,135.53,216.94z"/>
			<path style="fill:#FFAD1D;" d="M412.045,244.645l7.656-12.166l-14.006,1c-1.407,1.331-2.884,2.766-3.652,3.561
				C404.65,237.97,409.137,240.138,412.045,244.645z"/>
			<path style="fill:#FF2E2E;" d="M389.499,226.492c2.007,1.831,3.142,3.449,3.406,3.847c3.868,0.801,5.434,3.631,5.735,4.259
				c0.185,0.228,0.711,0.901,1.329,1.855l0.005-0.023c0.015,0.003,0.197,0.041,0.496,0.119c0.291-0.345,0.884-0.973,2.099-2.155
				l-3.328-12.278C397.491,222.851,392.843,224.958,389.499,226.492z"/>
			<path style="fill:#E9FF8A;" d="M387.57,224.9c-4.87-3.63-13.03-6.94-24.51-2.43c-3.96,1.56-7.27,3.91-10.03,6.78
				c-2.21-2.08-5.11-4.02-8.47-5.74c-6.89-3.52-15.69-6.1-24.37-7.07c-1.61-2.23-2.18-8.54-2.3-11.48
				c3.4-0.82,19.87-4.88,25.08-7.78c1.25,2.16,5.63,8.36,14.63,8.36c1.6,0,3.34-0.19,5.24-0.64c17.1-4.05,16.46-17.74,16.02-21.16
				l8.85-1.49l15.77-2.65C404.91,184.27,413.09,214.81,387.57,224.9z"/>
			<path style="fill:#C7E8F2;" d="M396.058,221.869c3.359-1.492,3.558-1.494,3.692-1.494c0.326,0,9.751,0.095,12.186,0.119
				c-2.909-1.64-6.264-3.241-10.05-4.793C400.358,217.937,398.445,220.024,396.058,221.869z"/>
			<path style="fill:#C90049;" d="M400.732,221.883l3.069,11.325c0.326-0.311,0.67-0.638,1.059-1.004l0.194-0.183l10.117-0.723
				l-3.208-9.304C410.02,221.975,403.276,221.907,400.732,221.883z"/>
			<polygon style="fill:#FF2E2E;" points="165.883,210.801 154.765,218.806 164.944,222.021 168.641,226.671 168.213,221.961 
				170.527,220.39 			"/>
			<path style="fill:#FFA436;" d="M147.66,190.33l-1.05,4.79l-0.76,3.5l-2.77,12.7c-0.48-0.16-0.84-0.38-1-0.49l-3.51-6.43
				l-4.23-7.73l-1.81-3.32c0.69-1.08,3.09-4.46,6.87-5.28C142,187.51,144.78,188.28,147.66,190.33z"/>
			<path style="fill:#F9E073;" d="M180.752,182.199c1.812,1.706,5.023,4.398,8.473,5.727
				C188.132,186.114,185.657,183.179,180.752,182.199z"/>
			<path style="fill:#FFAD1D;" d="M173.532,240.943c5.8,1.593,11.22,2.195,15.683,2.337l-5.308-3.016l0.275-13.073l-14.338-3.854
				l1.542,16.962C172.083,240.52,172.787,240.739,173.532,240.943z"/>
			<polygon style="fill:#FFAD1D;" points="182.619,213.992 170.776,222.034 184.215,225.647 184.259,223.578 193.857,217.595 			"/>
			<path style="fill:#FFA436;" d="M160.35,196.26l-2.16,2.13l-3.83,3.79l-9.25,9.15c-0.18,0.06-0.35,0.11-0.52,0.14l1.53-7.02
				l2.16-9.93l0.85-3.89c1.3-0.27,5.32-0.9,8.21,0.94C158.89,192.56,159.9,194.14,160.35,196.26z"/>
			<path style="fill:#FFA436;" d="M168.13,208.4l-2.28,0.58l-2.09,1.5l-0.79,0.57l-11.83,1.76l-5.01,0.75
				c-0.13-0.08-0.23-0.16-0.26-0.26c-0.08-0.25,0.11-0.65,0.22-0.83l5.17-5.12l7.44-7.36l2.7-2.67c1.09,0.27,4.35,1.28,6.07,3.99
				C168.66,203.2,168.88,205.59,168.13,208.4z"/>
			<path style="fill:#C90049;" d="M221.186,225.166c0.32-0.708,1.239-2.575,2.965-4.873l-0.036-0.011l2.545-8.386l-14.923-0.301
				l-2.501,9.268l5.346,2.673v7.037C216.408,228.621,218.592,226.745,221.186,225.166z"/>
			<path style="fill:#FFDB43;" d="M258.08,200.85c-8.95-8.14-29.48-16.4-29.69-16.49l-0.52-0.2l0.05-0.55
				c0.41-5.09,0.04-12.52-0.52-19.44c-0.64-7.78-1.54-14.91-1.86-17.35c-15.92,5.4-30.31,23.13-30.46,23.32l-0.43,0.54l-0.58-0.4
				c-9.76-6.8-28.09-10.61-31.49-11.27c-2.57,5.62-1.67,22.28-1.66,22.45l-0.12,0.01c9.13,4.86,16.31,12.83,19.73,22.6
				c0.56-0.56,3.99-3.82,8.27-3.99l1.21-0.04l-0.49,1.1c-0.05,0.12-1.21,2.66-3.27,4.33l0.86,2.09l2.98,7.23l4.03-10.82l0.69-1.87
				l2.45-0.08l17.8-0.61l13.48,9.45l-2.01,6.62c4.39-4.64,11.79-9.72,23.45-10.59l-0.1-0.25
				C253.3,205.25,256.78,202.11,258.08,200.85z M178.11,181.67l-1.24-1.38l1.85,0.13c9.88,0.69,12.55,8.19,12.66,8.5l0.44,1.3
				l-1.33-0.32C184.17,188.36,178.35,181.94,178.11,181.67z M210.27,172.86l0.98-0.61l0.16,1.15c0.06,0.41,1.31,10.22-6.37,14.59
				l-1.04,0.58l-0.08-1.18C203.89,186.97,203.3,177.22,210.27,172.86z M237.61,201.61c-0.13,0.09-2.13,1.5-6.3,1.5
				c-2.19,0-4.97-0.39-8.39-1.57l-1.25-0.43l1.01-0.85c0.23-0.19,5.66-4.6,14.83,0.07l1.08,0.56L237.61,201.61z"/>
			<polygon style="fill:#FF2E2E;" points="197.793,215.141 207.868,220.179 210.283,211.228 195.744,203.881 191.511,215.267 
				195.526,216.554 			"/>
			<polygon style="fill:#FFA436;" points="153.23,218.06 153.47,218.4 150.16,217.35 149.02,216.99 146.45,215.03 150.76,214.39 
				160.31,212.96 			"/>
			<path style="fill:#D36907;" d="M158.558,233.974c2.53,1.88,6.201,4.02,11.274,5.801l-0.944-10.382l-4.304-5.415L158.558,233.974z
				"/>
			<path style="fill:#FF9B8A;" d="M388.656,257.661l0.526-1.763l1.627,3.092c1.4-1.757,1.947-4.596,1.953-4.629l0.163-0.868
				l2.922,1.063c0.475-1.408,0.46-3.653,0.404-4.506l-0.132-1.99l2.495,2.495c0.626-2.832,0.635-6.512,0.635-6.555v-1.81
				l2.128,2.127c-0.167-4.24-3.911-8.786-3.954-8.837l-0.12-0.202c-0.073-0.178-1.9-4.436-8.197-3.536l-0.232,0.033l-0.209-0.104
				c-0.073-0.036-6.863-3.375-12.349-2.248c0.386,0.528,0.871,1.275,1.354,2.241l0.726,1.451l-1.577-0.388
				c-0.033-0.008-3.162-0.751-6.513,0.518l2.211,2.211l-1.369,0.278c-0.042,0.008-3.721,0.786-5.8,3.515h8.744l-5.911,1.478
				c-0.124,0.032-2.73,0.729-3.987,3.201l9.146-2.287l-6.004,3.029c-0.032,0.016-2.771,1.424-4.1,4.126l4.534-1.511l-2.241,2.245
				c-0.026,0.026-2.43,2.452-3.548,5.007l3.706,1.235l-1.271,0.852c-0.563,0.376-1.976,1.515-2.482,2.626h3.105l-0.328,0.987
				c-0.009,0.025-0.734,2.222-0.92,4.013h2.216l-0.289,0.966c-0.006,0.019-0.474,1.602-0.717,3.077
				c5.511-1.144,10.757-2.373,15.685-3.688c1.517-0.405,2.99-0.818,4.436-1.235l-0.008-0.014
				C387.332,262.026,388.644,257.704,388.656,257.661z M373.581,259.346l-1.021,0.292l0.065-1.06
				c0.011-0.172,0.309-4.271,4.252-10.122c3.258-4.834,13.057-15.003,15.99-13.36c0.471,0.265,0.771,0.687,0.869,1.219
				c0.377,2.051-2.471,5.662-6.536,10.54C384.255,250.391,376.734,258.445,373.581,259.346z"/>
			<path style="fill:#FFAD1D;" d="M297.521,223.036c14.687-4.687,26.806-4.339,35.976-2.331c-6.595-2.007-13.832-3.204-20.617-3.204
				c-37.437,0-69.081,27.911-69.367,61.049c0.011,0,0.022,0,0.034,0c1.745,0.016,3.508,0.02,5.268,0.023
				C249.543,274.71,257.862,235.693,297.521,223.036z"/>
			<path style="fill:#EDF980;" d="M252.34,246.76c-0.82,1.19-1.6,2.41-2.33,3.66c-3.14,5.31-5.44,11.03-6.75,17.03
				c-0.39,1.78-0.69,3.59-0.9,5.41c-2.66-1.91-5.48-8.73-2.82-15.93C242.04,250.16,249.14,247.59,252.34,246.76z"/>
			<path style="fill:#FAD021;" d="M293.731,230.3c33.595-12.866,54.488,0.788,56.541,2.225c0.543-0.734,1.105-1.452,1.703-2.138
				c-3.348-2.59-22.671-15.921-53.997-5.923c-38.101,12.16-46.663,49.199-47.638,54.116c1.077,0,2.152-0.005,3.227-0.01
				C254.228,275.177,261.357,242.698,293.731,230.3z"/>
			<path style="fill:#EFC652;" d="M360.007,197.646l-0.005-0.008c-6.596,1.84-12.215,0.747-15.068-0.113
				c2.018,2.93,7.276,8.346,17.559,5.911c14.687-3.478,15.354-14.183,15.012-18.419c-5.805,7.474-11.975,11.071-17.474,12.612
				C360.023,197.636,360.009,197.644,360.007,197.646z"/>
			<path style="fill:#F9E073;" d="M349.4,233.75c-0.41,0.61-0.81,1.24-1.19,1.88c-0.57,0.95-1.11,1.94-1.61,2.94
				c-11.18-10.47-22.04-4.42-24.3-2.96c-15.95-9.2-27.55,3.56-29.2,5.52c-16.9,2.53-18.14,16.21-18.19,19.53
				c-1.61,0.23-5.57,1.13-8.37,4.59c-2.58,3.17-3.47,7.62-2.68,13.2c-1.24,0.03-2.48,0.05-3.72,0.06c-1.68,0.02-3.36,0.04-5.04,0.05
				c0.92-4.46,8.28-35.03,39.17-46.86C327.26,219.07,347.6,232.48,349.4,233.75z"/>
			<path style="fill:#E9FF8A;" d="M220.13,246.05c-0.85,4.13-6.2,26.08-24.89,30.37c-29.81-2.41-56.19-6.71-76.6-12.27
				c-0.64-1.74-2.52-7.31-3.21-14.3c-0.43-4.32-0.41-9.18,0.64-14.03c2.45-11.38,8.06-17.13,17.13-17.57
				c6.31-0.31,14.82,7.47,18.07,10.71c0.22,2.37,2.5,21.6,18.2,25.76c0.98,0.26,1.93,0.48,2.87,0.65c2.16,0.41,4.22,0.59,6.18,0.59
				c10.75,0,18.57-5.55,22.81-11.78C212.26,246.7,218.06,246.34,220.13,246.05z"/>
			<path style="fill:#C7E8F2;" d="M88.514,246.37c-3.451-6.08-6.049-15.169-4.862-23.009c-7.241,4.741-8.782,8.779-8.782,13.309
				c0,6.828,7.147,13.33,19.731,19.089c-2.391-2.763-4.384-6.014-5.911-9.488L88.514,246.37z"/>
			<path style="fill:#A1EA71;" d="M237.38,225.72c-14.87,4.39-19.93,16.18-20.95,19.02c2.86,0.02,4.19-0.29,4.21-0.3l0.19-0.02
				c0.52,0,3.86,0.3,4.24,0.33l0.39,0.04l0.19,0.33c0.07,0.12,3.63,6.4,4.89,14.06c1.04,6.27,0.55,13.47-4.64,18.99
				c5.3,0.18,10.68,0.3,16.11,0.36c0.02-1.39,0.09-2.77,0.21-4.14l-0.06,0.11c-0.1-0.05-0.2-0.12-0.3-0.18
				c-0.13,0.1-0.26,0.2-0.37,0.29c-0.4,0.35-0.75,0.72-1.09,1.13c-0.23,0.28-0.72-0.1-0.51-0.4c0.31-0.46,0.64-0.9,1.01-1.32
				c0.07-0.07,0.14-0.16,0.22-0.24c-0.71-0.6-1.37-1.41-1.96-2.42c-0.51,0.22-1.05,0.4-1.56,0.59c-0.9,0.34-1.82,0.66-2.73,0.99
				c-0.56,0.2-0.76-0.66-0.24-0.87c1.25-0.52,2.64-1.27,4.01-1.67c-1.06-2.19-1.74-5.01-1.65-8.09c-0.33,0-0.64-0.09-0.97-0.11
				c-0.45-0.02-0.88,0.04-1.32,0.15c-0.56,0.16-0.79-0.7-0.23-0.86c0.72-0.22,1.82-0.41,2.57-0.07c0.13-1.63,0.46-3.32,1.09-5.01
				c0.18-0.49,0.38-0.94,0.6-1.39c-0.19-0.15-0.36-0.32-0.53-0.48c-0.4-0.35-0.78-0.71-1.17-1.07c-0.43-0.39,0.2-1,0.63-0.63
				c0.37,0.32,0.75,0.65,1.13,0.97c0.12,0.11,0.26,0.22,0.4,0.34c1.13-1.99,2.62-3.56,4.21-4.8c-0.19-0.4-0.33-0.83-0.49-1.23
				c-0.25-0.61-0.5-1.22-0.76-1.83c-0.17-0.41,0.55-0.71,0.73-0.3l0.77,1.82c0.14,0.34,0.31,0.68,0.44,1.03
				c2.54-1.8,5.24-2.81,7.14-3.35c-0.21-0.89-0.28-1.86-0.3-2.74c-0.02-0.51,0.8-0.63,0.9-0.12c0.16,0.83,0.3,1.74,0.32,2.62
				c0.77-0.19,1.31-0.29,1.51-0.32c2.04-2.75,4.32-5.36,6.8-7.8c2.14-2.11,4.44-4.1,6.87-5.94
				C264.7,229.28,252.41,221.28,237.38,225.72z M236.68,277.43c0.28-0.16,0.49-0.32,0.82-0.31c0.29,0.02,0.46,0.31,0.32,0.57
				c-0.15,0.29-0.39,0.39-0.67,0.54C236.62,278.52,236.17,277.74,236.68,277.43z M251.05,231.31c0.06,0.45,0.15,0.9,0.14,1.36
				c0,0.4-0.59,0.48-0.7,0.09c-0.13-0.44-0.16-0.89-0.22-1.34S250.99,230.87,251.05,231.31z M238.63,237.44
				c0.47,0.61,0.97,1.36,1.03,2.15c0.03,0.42-0.57,0.53-0.77,0.2c-0.39-0.61-0.58-1.31-1-1.92
				C237.57,237.41,238.31,237.02,238.63,237.44z M229.98,245.57c-0.42-0.26-0.05-0.9,0.39-0.66c0.64,0.34,1.37,0.82,1.7,1.49
				c0.21,0.4-0.27,0.73-0.6,0.46C230.95,246.44,230.55,245.94,229.98,245.57z M234.54,267.06c0.22,0.13,0.29,0.47,0.09,0.65
				c-0.3,0.27-0.71,0.32-1.06,0.53c-0.48,0.28-0.91-0.35-0.57-0.74C233.37,267.08,234.01,266.74,234.54,267.06z M237.17,249.16
				c-0.5-0.21-0.9-0.57-1.3-0.93c-0.09-0.08-0.18-0.17-0.27-0.25c-0.45-0.4,0.2-1.04,0.66-0.65c0.09,0.08,0.18,0.15,0.28,0.23
				c0.38,0.32,0.77,0.64,1.03,1.08C237.71,248.88,237.47,249.28,237.17,249.16z M246.25,242.33c-0.05,0.47-0.68,0.6-0.83,0.12
				c-0.19-0.59-0.2-1.25-0.25-1.87c-0.05-0.63,0.91-0.61,0.98,0C246.21,241.16,246.32,241.76,246.25,242.33z M255.84,240.77
				c-0.09,0.27-0.55,0.4-0.68,0.09c-0.29-0.68-0.26-1.55-0.25-2.27c0-0.6,0.83-0.56,0.9,0
				C255.89,239.26,256.03,240.11,255.84,240.77z"/>
			<path style="fill:#ED2B3A;" d="M116.87,263.65c-0.19-0.05-0.39-0.11-0.58-0.17c-0.01,0-0.03,0-0.04-0.01
				c-6.73-1.91-12.77-3.97-18.02-6.13c-10.51-9.42-14.95-28.34-8.76-38.45c1.47-2.4,3.39-4.38,5.74-5.92
				c1.05-0.69,2.19-1.3,3.41-1.81c0.38-0.16,0.77-0.31,1.17-0.46c0.83-0.3,1.69-0.56,2.58-0.77c0.38-0.09,0.76-0.18,1.14-0.25
				c0.83-0.16,1.57-0.26,2.2-0.32c0.25,0.42,0.74,1.29,1.11,2.2c-2.05,0.34-7.02,1.29-9.24,2.82l-0.75,0.51l0.64,0.64
				c0.5,0.5,1.78,1.93,2.32,3.1c-1.03,0.98-3.74,3.83-4.04,6.8l-0.07,0.73l0.74,0.09c0.05,0,0.98,0.1,2.04,0.15
				c-0.21,1.45-0.5,4.43,0.15,6.64l0.3,1l0.85-0.59c0.02-0.01,1.54-1.05,3.18-1.2c0.06,1.29,0.3,3.91,1.22,5.75l0.31,0.59l0.63-0.22
				c0,0,0.58-0.2,1.79-0.04c0.34,1.27,1.36,4.59,3.16,5.94l0.67,0.5l0.63-1.06c0.45,0.93,1.2,2.01,2.32,2.48
				C113.89,254.03,115.85,260.69,116.87,263.65z"/>
			<path style="fill:#AEBC5C;" d="M224.535,246.211c-0.922-0.082-2.076-0.182-2.859-0.241c-0.577,2.989-5.25,24.22-22.329,30.764
				c7.952,0.59,16.134,1.046,24.503,1.357C235.345,267.593,225.999,248.942,224.535,246.211z"/>
			<path style="fill:#FFA436;" d="M305.63,276.41c-1.71,0.14-3.43,0.27-5.16,0.39c-11.04,0.8-22.42,1.33-34,1.59
				c-0.36,0.01-0.73,0.02-1.1,0.03c-0.78-5.23,0-9.35,2.32-12.21c2.78-3.44,6.99-4.03,7.85-4.11l30.35,13.45
				C305.97,275.93,305.82,276.22,305.63,276.41z"/>
			<path style="fill:#FFA436;" d="M340.99,258.52c-0.65,5.26-0.7,10.15-0.44,14.03c-5.52,0.8-11.2,1.52-17.04,2.16
				c-0.55,0.06-1.1,0.12-1.65,0.18l0.03-0.31c-0.52-0.03-0.66-0.24-0.7-0.3c-0.24-0.37-0.15-1.08-0.03-1.5l19.95-15.21
				C341.07,257.89,341.03,258.21,340.99,258.52z"/>
			<path style="fill:#ED2B3A;" d="M413.16,252.15c-1.93,1.15-4.08,2.28-6.44,3.38c-5.23,2.45-11.49,4.79-18.73,6.99
				c0.65-0.94,1.16-1.97,1.51-2.8l0.89,1.7l0.71-0.59c1.7-1.4,2.58-3.99,2.94-5.34l2.55,0.93l0.31-0.55
				c0.62-1.09,0.82-2.75,0.87-4.04l1.56,1.56l0.38-1.15c0.66-1.97,0.9-4.71,0.99-6.48l1.76,1.76l0.28-1.37
				c0.54-2.72-0.52-5.64-1.7-7.87c0.9,0.29,2.17,0.78,3.55,1.54C408.08,241.74,412.29,245.42,413.16,252.15z"/>
			<path style="fill:#D36907;" d="M412.892,246.116c0.762,1.497,1.346,3.217,1.666,5.184c6.483-4.097,10.252-8.421,11.061-12.826
				l-4.423-5.554L412.892,246.116z"/>
			<path style="fill:#C7E8F2;" d="M413.311,221.304l3.409,9.884l4.746-0.339l4.294,5.392
				C425.534,231.135,421.283,226.069,413.311,221.304z"/>
			<path style="fill:#ED2B3A;" d="M392.263,236.586c-0.018-0.093-0.048-0.136-0.131-0.182c-0.046-0.017-0.101-0.026-0.163-0.026
				c-1.77,0-9.706,6.772-13.847,12.916c-2.383,3.536-3.354,6.398-3.744,7.995c2.792-1.812,8.003-6.993,11.671-11.394
				C388.634,242.792,392.541,238.104,392.263,236.586z"/>
			<path style="fill:#ED2B3A;" d="M88.19,218.108c1.15-1.875,2.556-3.513,4.205-4.906c-2.695,1.476-5.558,3.878-6.675,7.676
				c-1.009,3.429-1.051,7.33-0.486,11.168C84.964,226.813,85.878,221.881,88.19,218.108z"/>
			<path style="fill:#E2B851;" d="M319.559,273.166c-0.72-0.021-1.363-0.231-1.922-0.626c-0.629-0.445-1.035-1.056-1.292-1.604
				c-1.865,1.535-4.336,1.36-5.593,1.134c-0.563,1.75-2.376,2.86-3.353,3.348c0.045,0.307,0.024,0.592-0.038,0.854
				c4.253-0.353,8.446-0.745,12.572-1.175C319.541,274.496,319.499,273.762,319.559,273.166z"/>
			<path style="fill:#ED2B3A;" d="M390.91,230.13c-0.56,0-1.15,0.02-1.79,0.1c-1.35-0.64-8.61-3.85-14.36-1.94l-1.14,0.38l0.85,0.86
				c0,0.01,0.5,0.51,1.13,1.51c-1.62-0.13-4.27-0.05-6.93,1.29l-0.94,0.46l1.84,1.84c-1.72,0.59-4.73,2.02-6.24,5.03l-0.54,1.09
				h2.14c-1.09,0.85-2.18,2.15-2.66,4.07l-0.3,1.21l1.71-0.43c-0.99,1.04-1.96,2.44-2.41,4.22l-0.33,1.32l1.72-0.57
				c-0.88,1.16-1.86,2.66-2.37,4.19l-0.24,0.71l2.39,0.8c-0.97,0.86-2.19,2.24-2.19,3.73v0.75h2.74c-0.31,1.09-0.74,2.87-0.74,4.25
				v0.75h1.77c-0.2,0.77-0.45,1.86-0.58,2.86c-3.95,0.81-8.03,1.56-12.24,2.27c-2.99,0.51-6.05,0.99-9.16,1.45
				c-0.93-13.82,2.37-40.92,21.57-48.47c13.56-5.33,22.05,0.67,25.82,4.56c0.01,0.01,0.02,0.01,0.02,0.02
				C390.06,229.08,390.55,229.66,390.91,230.13z"/>
			<path style="fill:#FFA436;" d="M309.38,271.3c-0.06,0.38-0.23,0.73-0.47,1.05c-0.47,0.66-1.21,1.19-1.84,1.54
				c-0.21,0.12-0.4,0.21-0.57,0.29l-0.97-0.43l-1.18-0.52c-0.01,0-0.02-0.01-0.03-0.01l-27.92-12.38
				c-0.05-2.62,0.56-15.65,16.71-18.18l1.48,2.61l11.18,19.68l0.84,1.47l2.45,4.31L309.38,271.3z"/>
			<path style="fill:#FFA436;" d="M345.93,239.99c-0.6,1.31-1.13,2.64-1.61,4c-0.78,2.2-1.43,4.44-1.95,6.69
				c-0.43,1.82-0.77,3.63-1.05,5.42l-0.27-0.36l-20.85,15.88c-0.68,0.11-1.24,0.01-1.69-0.3c-0.75-0.53-1.02-1.52-1.08-1.83l2-11.65
				l2.92-16.99l0.67-3.91C324.67,235.82,335.12,229.53,345.93,239.99z"/>
			<path style="fill:#FFA436;" d="M321.5,236.9l-0.74,4.32l-2.58,15.02l-2.22,12.94c-1.56,1.99-4.41,1.54-5.3,1.34l-5.22-9.19
				l-9.76-17.18l-1.27-2.24C296.32,239.62,306.79,228.45,321.5,236.9z"/>
			<path style="fill:#7C4A32;" d="M259.949,167.612c-0.809,1.238-2.162,3.881-3.324,6.382c1.304,0.546,2.576,0.947,3.118,0.98
				C259.975,173.774,260.151,169.523,259.949,167.612z"/>
			<path style="fill:#FF9B8A;" d="M345.358,161.54l-1.915-0.855c-0.066-0.03-6.377-2.794-11.607-0.832l1.569,2.615l-0.962,0.257
				c-0.032,0.009-2.94,0.8-4.85,2.308l1.594,1.595l-1.236,0.345c-0.039,0.011-3.569,1.015-5.764,3.102l3.622,2.113l-1.572,0.524
				c0.001,0-1.074,0.439-2.592,2.651l3.722,1.329l-0.837,0.838c-0.012,0.012-1.095,1.103-2.154,2.626l3.193,1.331l-0.788,0.792
				c-0.015,0.015-1.328,1.346-2.088,3.104l1.593,0.796l-0.381,0.685c-0.003,0.007-0.907,1.893,1.026,5.83l4.723-0.555l-0.216,1.294
				c1.131-0.422,2.864-1.301,3.783-2.927l0.739-1.307l0.602,1.375c0.128,0.293,0.333,0.779,0.52,1.288
				c0.614-0.859,1.375-2.094,1.692-3.303l0.318-1.21l0.918,0.852c0.137,0.128,0.98,0.935,1.487,1.958
				c0.663-0.864,1.513-2.172,1.903-3.606l0.326-1.195l0.908,0.843c0.205,0.191,0.916,0.878,1.43,1.702
				c0.871-1.328,1.989-3.233,2.196-4.407l0.175-0.99l0.898,0.45c0.175,0.087,1.223,0.634,1.984,1.547
				c0.329-0.97,0.604-2.11,0.447-2.844l-0.275-1.284l1.246,0.416c0.079,0.026,1.492,0.508,2.511,1.559
				c0.458-1.194,0.971-3.124,0.413-4.869l-0.278-0.867l0.904-0.106c0.591-0.069,1.572,0.012,2.385,0.53
				c0.396-2.671,0.825-8.17-1.638-11.323c-2.876-3.681-5.399-4.22-5.425-4.225l-0.231-0.085c-0.028-0.016-2.466-1.394-5.063-1.949
				L345.358,161.54z M344.724,168.197c-0.079,0.289-1.986,7.128-6.95,11.965c-4.869,4.744-8.577,7.233-8.732,7.337l-1.935,1.29
				l0.816-2.177c0.234-0.625,5.855-15.356,15.8-19.309l1.396-0.555L344.724,168.197z"/>
			<path style="fill:#ED2B3A;" d="M359.24,196.35l0.02,0.04c-2.03,0.55-3.95,0.79-5.71,0.85c-1.21,0.04-2.34-0.02-3.37-0.13
				c-3.83-0.39-6.35-1.54-6.61-1.66l-0.39-0.19l-0.36,0.25c-2.42,1.68-10.18,4.02-16.57,5.75c0.2-1.52,0.34-4.41-0.81-7.12
				l2.41-0.28l-0.27,1.59l1.07-0.21c0.14-0.03,3.09-0.65,5.03-2.82c0.19,0.51,0.32,0.93,0.32,1.08v1.96l1.31-1.46
				c0.07-0.08,1.58-1.78,2.47-3.79c0.34,0.48,0.64,1.04,0.6,1.47l-0.19,2.07l1.47-1.47c0.08-0.08,1.77-1.79,2.76-4.1
				c0.39,0.49,0.7,1.01,0.7,1.32v2.29l1.36-1.85c0.1-0.13,2.13-2.92,2.96-5.15c0.55,0.42,1.14,1.02,1.19,1.64l0.21,2.79l1.21-2.52
				c0.13-0.27,1.05-2.23,1.23-4c0.54,0.32,1.15,0.81,1.39,1.44l0.57,1.48l0.79-1.37c0.08-0.14,1.75-3.11,1.3-6.18
				c0.42,0.11,0.89,0.36,1.09,0.93l0.85,2.4l0.59-2.48c0.08-0.37,2.01-8.85-1.38-13.75c0.37,0.23,0.76,0.48,1.16,0.75
				c1.01,0.66,2.11,1.44,3.2,2.3c3.3,2.6,6.57,6.04,7.3,9.8C370.38,189.59,359.35,196.29,359.24,196.35z"/>
			<path style="fill:#7C4A32;" d="M277.414,177.07c-0.026-0.826-1.132-4.026-1.905-5.405c-0.239,1.198-0.473,3.496-0.604,5.61
				C275.63,177.442,277.001,177.321,277.414,177.07z"/>
			<path style="fill:#ED2B3A;" d="M330.423,184.615c1.545-1.207,3.778-3.066,6.304-5.527c3.257-3.174,5.15-7.386,6.003-9.661
				C336.614,172.767,332.321,180.573,330.423,184.615z"/>
			<path style="fill:#FF2E2E;" d="M271.51,116.52c-0.14-0.2-0.28-0.38-0.41-0.56c-2.97,3.74-16.92,27.25-26.12,43.08
				c0.44,3.17,0.83,6.28,1.15,8.95c0.32,2.66,0.57,4.87,0.72,6.22c1.45,0.28,2.96,0.7,4.49,1.25c5.69,1.99,11.77,5.57,16.57,9.4
				c1.06-0.94,3.95-2.78,10.26-2.78c2.28,0,4.16,0.67,5.71,1.62c2.58-7.99,8.18-10.56,13.05-11.14
				C294.98,167.48,279.77,128.07,271.51,116.52z M261.06,175.8c-0.11,0.26-0.32,0.46-0.61,0.57c-0.16,0.06-0.37,0.09-0.6,0.09
				c-1.25,0-3.3-0.84-4.54-1.4l-0.68-0.31l0.31-0.69c0.28-0.61,0.54-1.18,0.79-1.71c3.32-7.03,4.13-6.91,4.63-6.84
				c0.17,0.02,0.49,0.12,0.72,0.53c0.15,0.28,0.26,0.79,0.33,1.44C261.71,170.11,261.41,174.98,261.06,175.8z M278.84,177.61
				c-0.15,0.44-0.55,0.77-1.21,0.98c-0.47,0.16-1.16,0.26-1.86,0.26c-0.79,0-1.58-0.13-2.08-0.49l-0.34-0.24l0.03-0.41
				c0.43-7.91,1.18-8,1.78-8.08c0.4-0.05,0.81,0.15,1.18,0.6C277.39,171.52,279.2,176.52,278.84,177.61z"/>
			<path style="fill:#FFAD1D;" d="M126.971,178.111c-19.763,3.201-32.696,18.042-34.837,33.498c2.627-1.348,4.994-1.87,5.598-1.988
				C100.612,194.409,112.073,182.521,126.971,178.111z"/>
			<path style="fill:#FFAD1D;" d="M193.339,160.702c0.755-0.868,2.453-2.766,4.836-5.128c-13.989-9.763-28.935-9.972-31.891-9.499
				c-2.251,0.36-4.604,2.247-6.179,3.76C173.089,149.346,190.028,158.779,193.339,160.702z"/>
			<path style="fill:#FFDB43;" d="M267.29,199.64c-0.61,1.29-2.76,5.27-6.93,7.5c-2.27-0.27-4.72-0.42-7.37-0.39h-0.03
				c3.59-2.15,6.59-5.24,6.75-5.4l0.52-0.54l-0.54-0.52c-8.19-7.88-26.83-15.72-30.23-17.11c0.41-6-0.16-14.85-0.86-22.44
				c-0.76-8.17-1.67-14.88-1.69-15.01l-0.12-0.87l-0.85,0.26c-15.3,4.74-28.94,20.38-31.58,23.54
				c-11.14-7.41-31.2-11.08-32.06-11.23l-0.53-0.1l-0.26,0.47c-2.74,4.87-2.29,19.35-2.13,22.94c-1.39-0.68-2.83-1.29-4.3-1.82
				c-0.19-11.9,0.95-24.76,3.16-27.12l0.01,0.01c0-0.01,0.03-0.05,0.08-0.1c0.19-0.17,0.38-0.28,0.57-0.3
				c13.77-1.29,34.01,10.78,34.21,10.9l0.55,0.33l0.41-0.49c0.19-0.23,18.9-22.24,36.2-23.69c0.02-0.01,0.05-0.01,0.07-0.01
				c0.95,2.56,5.1,15.35,4.08,40.85l-0.03,0.6l0.58,0.16C235.17,180.11,254.41,185.41,267.29,199.64z"/>
			<path style="fill:#FAD021;" d="M99.318,209.278c0.019-0.007,0.04-0.012,0.059-0.019c0.532-0.19,1.078-0.359,1.632-0.517
				c0.147-0.042,0.295-0.083,0.443-0.122c0.429-0.114,0.864-0.218,1.304-0.312c4.024-16.575,19.862-28.558,37.864-28.558
				c17.096,0,32.282,10.729,37.208,26.176l1.612-0.411c-5.246-16.387-21.396-27.765-39.56-27.765
				C119.946,177.75,103.108,190.93,99.318,209.278z"/>
			<path style="fill:#FFAD1D;" d="M235.961,178.057c2.117-1.11,6.631-3.361,9.379-3.873c-1.367-12.269-3.969-31.534-5.407-33.193
				c-1.354-1.563-5.515-2.258-7.977-2.491C233.231,142.117,236.76,154.441,235.961,178.057z"/>
			<path style="fill:#C90049;" d="M298.813,172.417c2.927-0.086,5.26,0.445,7.11,1.284c0.41-1.178,1.158-3.102,2.31-5.327
				c-3.782-14.456-20.598-49.439-22.694-53.772c-4.35,0.17-10.403,0.479-13.009,0.77c8.719,11.91,24.73,53.841,25.953,57.062
				C298.592,172.429,298.705,172.42,298.813,172.417z"/>
			<path style="fill:#ED2B3A;" d="M343.06,157.75l-1.32-0.1l0.49,1c-2.61-0.83-7.54-1.86-11.8,0.17l-0.75,0.36l1.44,2.39
				c-1.3,0.44-3.65,1.4-5.15,2.9l-0.53,0.53l0.92,0.92c-1.56,0.59-4.28,1.83-5.94,3.85l-0.56,0.69l2.71,1.58
				c-0.69,0.58-1.64,1.59-2.71,3.32l-0.48,0.79l3.3,1.18c-0.56,0.65-1.35,1.63-2.07,2.77l-0.46,0.75l2.85,1.19
				c-0.62,0.77-1.48,2.02-1.96,3.47l-0.21,0.62l1.5,0.75c-0.17,0.68-0.27,1.83,0.13,3.46c-1.11-0.8-2.42-1.39-3.96-1.74
				c-1.21-0.28-2.35-0.36-3.41-0.3c-0.75,0.04-1.47,0.15-2.14,0.31c0.76-3.06,0.43-7.24-2.02-10.75c-0.82-1.17-2-2.43-3.67-3.45
				c1.35-3.98,7.64-19.74,22.76-20.16c5.16-0.14,9.65,1.06,13.26,2.62c1.25,0.54,2.4,1.12,3.43,1.71
				C345.59,158.19,344.31,157.85,343.06,157.75z"/>
			<path style="fill:#512323;" d="M402.711,214.422c9.067-14.996,2.093-35.644,1.997-35.919l-0.208-0.598l-26.928,4.531l-0.181,0.25
				c-4.561,6.32-9.338,10.025-13.821,12.121c3.338-3.208,7.597-9.046,6.041-17.075c-1.641-8.464-14.225-15-15.666-15.724
				c-1.066-1.063-10.139-9.656-23.966-9.258c-10.615,0.295-17.107,7.599-20.71,13.746c-4.779-16.341-22.411-52.615-22.595-52.992
				l-0.214-0.439l-0.488,0.019c-1.357,0.052-13.312,0.519-15.021,1.031c-1.641,0.492-16.764,26.118-26.31,42.529
				c-1.121-7.812-2.456-15.344-3.575-16.635c-2.065-2.383-7.933-2.946-9.732-3.064l-0.025-0.056l-0.519,0.029
				c-12.43,0.691-25.247,11.407-32.33,18.375l0.635-0.907c-13.12-9.185-28.188-10.571-33.049-9.793
				c-4.398,0.704-8.779,6.041-8.963,6.268l0.057,0.047c-3.521,4.246-3.654,21.044-3.568,27.493c-4.334-1.397-8.948-2.15-13.694-2.15
				c-0.45,0-0.897,0.016-1.344,0.028l0.012-0.193c-27.56-1.771-45.991,17.08-48.036,36.454c-2.588,1.651-5.126,4.159-6.231,7.916
				c-0.084,0.287-0.147,0.582-0.22,0.874c-7.584,4.653-10.691,9.111-10.691,15.341c0,8.016,8.744,15.519,24.062,21.958
				c0.305,0.269,0.613,0.534,0.929,0.787l0.245-0.305c29.718,12.127,82.958,20.367,144.928,20.939
				c2.252,0.021,4.524,0.03,6.797,0.03c19.079,0,37.855-0.757,55.646-2.191l0.055,0.099c0.059-0.033,0.123-0.076,0.187-0.119
				c28.434-2.303,54.332-6.34,74.855-11.815c29.804-7.963,46.217-18.399,46.217-29.385
				C427.29,228.745,418.786,221.059,402.711,214.422z M405.695,233.479l14.006-1l-7.656,12.166
				c-2.908-4.507-7.395-6.675-10.002-7.605C402.811,236.245,404.288,234.81,405.695,233.479z M400.471,236.549
				c-0.3-0.078-0.482-0.116-0.496-0.119l-0.005,0.023c-0.619-0.954-1.145-1.627-1.329-1.855c-0.302-0.628-1.867-3.459-5.735-4.259
				c-0.265-0.398-1.399-2.015-3.406-3.847c3.344-1.534,7.992-3.641,9.743-4.376l3.328,12.278
				C401.355,235.577,400.762,236.204,400.471,236.549z M405.055,232.021l-0.194,0.183c-0.388,0.366-0.733,0.693-1.059,1.004
				l-3.069-11.325c2.543,0.024,9.288,0.092,11.232,0.111l3.208,9.304L405.055,232.021z M411.936,220.494
				c-2.434-0.025-11.859-0.119-12.186-0.119c-0.134,0-0.332,0.002-3.692,1.494c2.387-1.845,4.3-3.932,5.827-6.167
				C405.672,217.253,409.027,218.855,411.936,220.494z M378.857,183.742l24.627-4.144c1.427,4.677,9.609,35.21-15.911,45.307
				c-4.87-3.632-13.034-6.949-24.514-2.436c-3.963,1.558-7.269,3.91-10.028,6.778c-6.751-6.354-19.933-11.364-32.839-12.81
				c-1.612-2.229-2.181-8.534-2.297-11.475c3.393-0.819,19.865-4.883,25.071-7.786c1.255,2.163,5.638,8.365,14.639,8.365
				c1.598,0,3.34-0.196,5.235-0.645C379.941,200.846,379.298,187.158,378.857,183.742z M310.07,216.066
				c-8.516,0.313-16.704,2.027-24.264,4.901c-0.216-0.359-0.775-1.229-1.761-2.383c0.625-2.257,3.5-10.587,12.05-11.673
				c8.847-1.12,13.517,4.432,14.548,5.84c-0.499,1.227-0.852,2.296-1.073,3.032l-0.032,0.106L310.07,216.066z M136.843,211.888
				l2.316,1.351c0.752,0.919,0.368,1.876,0.232,2.144l-2.031,2.031c-0.122-0.04-0.244-0.074-0.366-0.111
				C137.107,216.278,137.241,214.186,136.843,211.888z M131.995,215.98c-0.896-1.68-2.665-2.673-3.956-3.204
				c0.592-0.299,1.254-0.573,1.713-0.737l1.163-0.416l-0.905-0.84c-1.601-1.487-3.722-1.913-5.118-2.021l1.422-2.134l-0.885-0.332
				c-3.403-1.277-7.877,0.284-9.654,1.021c-0.151-0.416-0.272-0.72-0.372-0.958c2.505-1.31,8.247-3.671,14.188-1.651
				c6.502,2.211,6.211,9.789,5.94,12.227c-0.818-0.155-1.622-0.225-2.402-0.185c-0.394,0.019-0.772,0.063-1.155,0.1l0.382-0.191
				L131.995,215.98z M127.788,217.693c-3.053,0.986-5.615,2.727-7.698,5.25c-1.765-8.263-6.776-11.743-7.003-11.897l-0.708-0.479
				l-0.383,0.765c-3.258,6.518,2.535,18.938,3.468,20.854c-0.317,1.058-0.611,2.154-0.863,3.323
				c-0.653,3.023-0.923,6.033-0.944,8.915c-0.793-0.725-1.281-2.021-1.429-2.606l-0.443-1.748l-1.438,2.396
				c-1.126-1.402-1.89-3.956-2.114-4.962l-0.108-0.486l-0.49-0.089c-1.07-0.195-1.851-0.18-2.359-0.118
				c-0.845-2.165-0.858-5.277-0.858-5.311l0-0.694l-0.692-0.053c-1.502-0.118-2.964,0.456-3.878,0.919
				c-0.396-2.567,0.217-5.827,0.224-5.864l0.171-0.892h-0.907c-0.679,0-1.411-0.045-1.949-0.088c0.73-2.749,3.741-5.4,3.774-5.429
				l0.365-0.318l-0.139-0.463c-0.366-1.22-1.473-2.617-2.197-3.44c2.91-1.44,8.686-2.26,8.749-2.269l0.866-0.121l-0.251-0.837
				c-0.279-0.931-0.745-1.896-1.126-2.604c1.69,0.048,3.4,0.608,3.421,0.615l0.734,0.235l0.223-0.738
				c0.019-0.063,0.452-1.431,2.3-2.318c0.134,0.336,0.312,0.809,0.519,1.43l0.27,0.811l0.769-0.374
				c0.051-0.025,4.718-2.261,8.309-1.566l-1.964,2.947l1.562-0.142c0.03-0.003,2.417-0.201,4.4,0.9
				c-0.758,0.342-1.661,0.817-2.165,1.322l-0.956,0.958l1.319,0.304c0.03,0.007,2.692,0.638,4.078,2.32
				c-0.784,0.414-1.961,1.063-2.545,1.53L127.788,217.693z M118.868,224.607c-1.051,1.584-1.951,3.418-2.711,5.489
				c-1.572-3.572-4.884-12.104-3.183-17.21C114.468,214.238,117.823,217.945,118.868,224.607z M162.581,159.008
				c3.395,0.662,21.725,4.467,31.491,11.273l0.575,0.4l0.438-0.546c0.146-0.182,14.531-17.913,30.457-23.312
				c0.601,4.612,3.255,25.962,2.377,36.781l-0.045,0.551l0.514,0.206c0.211,0.084,20.739,8.351,29.697,16.486
				c-1.31,1.258-4.784,4.398-8.202,5.791l0.101,0.248c-11.663,0.868-19.06,5.953-23.451,10.592l2.008-6.615l-13.483-9.456
				l-20.253,0.693l-4.718,12.688l-3.843-9.318c2.068-1.67,3.22-4.214,3.273-4.333l0.489-1.101l-1.203,0.046
				c-4.281,0.165-7.712,3.426-8.27,3.986c-3.422-9.774-10.607-17.74-19.737-22.605l0.118-0.007
				C160.906,181.286,160.015,164.63,162.581,159.008z M209.237,220.863l2.501-9.268l14.923,0.301l-2.545,8.386l0.036,0.011
				c-1.726,2.298-2.646,4.165-2.965,4.873c-2.595,1.579-4.778,3.454-6.603,5.407v-7.037L209.237,220.863z M168.213,221.961
				l0.428,4.71l-3.697-4.651l-10.18-3.215l11.118-8.005l4.645,9.589L168.213,221.961z M169.832,239.775
				c-5.074-1.781-8.744-3.921-11.274-5.801l6.027-9.996l4.304,5.415L169.832,239.775z M153.475,218.399l-4.457-1.407l-2.571-1.966
				l13.865-2.062l-7.08,5.097L153.475,218.399z M149.131,190.625c1.303-0.27,5.321-0.893,8.213,0.946
				c1.549,0.985,2.553,2.565,3.003,4.685l-15.238,15.076c-0.177,0.06-0.352,0.112-0.522,0.137L149.131,190.625z M143.083,211.322
				c-0.48-0.159-0.839-0.378-1.004-0.494l-9.547-17.476c0.684-1.079,3.093-4.462,6.87-5.279c2.6-0.563,5.379,0.206,8.259,2.256
				L143.083,211.322z M146.092,212.469l15.311-15.148c1.084,0.269,4.349,1.279,6.063,3.99c1.196,1.893,1.417,4.277,0.662,7.086
				l-2.28,0.581l-2.882,2.075l-16.834,2.503c-0.133-0.075-0.233-0.157-0.261-0.252C145.794,213.053,145.979,212.65,146.092,212.469z
				 M184.183,227.191l-0.275,13.073l5.308,3.016c-4.463-0.143-9.883-0.744-15.683-2.337c-0.746-0.205-1.45-0.424-2.146-0.645
				l-1.542-16.962L184.183,227.191z M184.215,225.647l-13.44-3.613l11.844-8.042l11.238,3.602l-9.598,5.983L184.215,225.647z
				 M191.511,215.267l4.233-11.386l14.539,7.346l-2.415,8.951l-10.075-5.038l-2.267,1.413L191.511,215.267z M198.283,203.483
				l16.326-0.558l10.611,7.442l-13.867-0.28L198.283,203.483z M247.116,208.706c-8.893,3.765-11.797,9.825-12.589,12.04
				c-1.929,0.259-3.895,0.646-5.893,1.197c-1.831,0.506-3.516,1.167-5.081,1.931C225.989,219.721,232.791,210.813,247.116,208.706z
				 M185.645,204.013l-0.029-0.071l-3.785,0.964c0.759-0.704,2.948-2.546,5.64-3.141
				C187.044,202.45,186.425,203.302,185.645,204.013z M181.373,205.023l-0.486,0.124c-0.09-0.283-0.176-0.568-0.272-0.848
				L181.373,205.023z M181.331,206.584l0-0.002l3.394-0.865l3.504,8.497l-5.848-1.874l-10.599,7.197l-4.538-9.368l10.271-2.616
				l0.001,0.002L181.331,206.584z M169.763,207.981c0.618-2.892,0.278-5.409-1.036-7.481c-1.991-3.14-5.583-4.293-6.918-4.626
				c-0.543-2.499-1.774-4.372-3.666-5.572c-3.504-2.223-8.151-1.41-9.479-1.112c-3.29-2.382-6.517-3.251-9.592-2.579
				c-4.08,0.889-6.677,4.218-7.643,5.678c-1.691-0.99-6.235-3.021-11.162,0.077c-4.917,3.09-5.018,6.774-4.802,8.313
				c-1.59,0.634-5.464,2.665-5.916,7.414c-0.559-0.108-1.199-0.198-1.862-0.231l0.003-0.111c-0.062-0.002-1.356-0.03-3.312,0.26
				c4.115-15.571,19.163-26.76,36.241-26.76c16.416,0,30.995,10.262,35.752,25.047L169.763,207.981z M113.257,205.898
				c-1.013,0.527-1.698,1.177-2.138,1.753c0.678-3.878,4.144-5.334,5.144-5.675l2.59,1.347c-3.248,0.988-5.436,2.442-5.607,2.558
				L113.257,205.898z M130.075,203.29c-3.347-1.138-6.583-1.024-9.315-0.455l0.087-0.167l-3.865-2.01
				c-0.183-0.952-0.413-4.196,4.084-7.023c4.916-3.089,9.259-0.333,10.024,0.207l9.589,17.552c-0.235,0.505-0.568,0.566-0.756,0.554
				l-3.571-2.083C135.479,207.156,133.675,204.514,130.075,203.29z M140.343,216.551c1.43-0.2,2.456,0.861,2.768,1.243l0.298,2.687
				c-1.461-0.961-2.987-1.824-4.516-2.48L140.343,216.551z M141.059,215.022c0.086-0.536,0.067-1.16-0.174-1.788
				c0.341-0.162,0.669-0.425,0.935-0.82c0.599,0.308,1.489,0.637,2.541,0.584c-0.019,0.234-0.002,0.482,0.072,0.731
				c0.069,0.233,0.205,0.515,0.468,0.777c-0.357,0.46-0.834,1.102-1.224,1.72C143.094,215.708,142.2,215.125,141.059,215.022z
				 M145.51,216.196l2.089,1.598l-2.618,3.241l-0.378-3.402C144.807,217.219,145.15,216.696,145.51,216.196z M148.929,218.536
				l14.438,4.559l-6,9.952c-2.493-2.047-3.55-3.59-3.572-3.624l-0.074-0.095c-0.254-0.277-3.518-3.812-7.8-7.066L148.929,218.536z
				 M173.135,242.39c11.868,3.261,22.234,2.461,26.243,1.948c-5.295,6.99-15.498,12.658-29.519,8.938
				c-12.452-3.304-15.914-16.883-16.814-22.353C154.657,232.929,160.317,238.868,173.135,242.39z M192.307,243.311l-6.881-3.909
				l0.299-14.218l14.018,6.783l-0.152,10.831C198.174,242.995,195.629,243.269,192.307,243.311z M186.551,223.917l11.323-7.058
				l14.36,7.18l-11.76,6.615L186.551,223.917z M201.244,231.942l11.84-6.659V232h0.231c-4.16,4.97-6.118,10.063-6.686,11.727
				c-1.661-0.293-3.464-0.655-5.457-1.124l-0.078-0.018L201.244,231.942z M229.033,223.39c8.314-2.296,16.094-1.787,22.6-0.095
				c-4.379-0.658-9.362-0.584-14.679,0.986c-16.425,4.849-21.426,18.379-22.093,20.419c-1.789-0.082-4.019-0.289-6.734-0.717
				C209.272,240.726,214.785,227.325,229.033,223.39z M236.238,220.55c1.265-2.85,5.318-9.379,16.608-12.155l-0.034-0.138
				c0.067-0.001,0.129-0.006,0.196-0.007c0.206-0.002,0.408-0.003,0.612-0.003c20.981,0,29.391,11.216,30.766,13.29
				c-5.614,2.265-10.865,5.162-15.628,8.591C263.695,225.765,251.275,219.128,236.238,220.55z M283.125,201.172
				c0.245-2.14,1.938-10.084,13.553-10.255c3.697-0.048,6.425,1.322,8.19,4.089c2.464,3.863,2.252,9.283,1.141,12.07
				c-2.556-1.293-5.913-2.184-10.104-1.654c-3.359,0.427-5.923,1.854-7.866,3.628C287.636,207.162,286.467,203.769,283.125,201.172z
				 M286.742,210.382c-2.14,2.462-3.308,5.241-3.87,6.924c-2.54-2.598-6.833-5.941-13.451-8.164
				c1.403-1.427,5.018-5.357,6.713-9.476C285.684,201.714,286.65,209.209,286.742,210.382z M296.656,189.417
				c-2.877,0.042-5.198,0.545-7.082,1.319c-0.404-1.003-1.763-3.939-4.421-6.12c0.021-0.064,0.042-0.133,0.068-0.217
				c2.102-6.768,6.688-10.294,13.633-10.482c6.079-0.156,9.255,2.52,10.845,4.801c2.43,3.488,2.488,7.815,1.511,10.469
				c-2.744,1.142-4.653,3.095-5.618,4.272C303.542,190.767,300.502,189.376,296.656,189.417z M288.216,191.372
				c-4.584,2.482-6.004,6.695-6.44,8.874c-1.391-0.841-3.08-1.543-5.131-2.004c0.107-0.372,0.196-0.743,0.261-1.112
				c0.237-1.342-0.355-3.034-1.763-5.027c-1.389-1.969-3.511-4.139-6.052-6.276c0.975-0.768,3.562-2.243,9.077-2.243
				C284.972,183.583,287.752,190.137,288.216,191.372z M273.917,192.968c0.975,1.381,1.505,2.596,1.535,3.487
				c-1.293,0.448-5.007,1.718-7.028,2.215c-10.872-12.038-26.191-17.837-31.314-19.521c2.69-1.387,6.993-3.408,9.018-3.558
				C255.933,177.286,269.327,186.462,273.917,192.968z M268.705,200.145c1.75-0.423,4.681-1.396,6.385-1.978
				c-1.629,5.029-7.213,10.398-7.274,10.457l0.022,0.024c-1.597-0.466-3.319-0.864-5.172-1.174
				C266.331,204.893,268.182,201.299,268.705,200.145z M307.323,207.817c1.413-3.292,1.45-8.936-0.862-13.054
				c1.124-1.527,5.16-6.191,11.705-4.698c2.407,0.549,4.193,1.732,5.311,3.516c1.902,3.038,1.381,7.002,1.185,8.109
				c-4.284,1.14-7.625,1.935-7.709,1.955l-0.174,0.042l-0.137,0.115c-2.417,2.036-4.15,4.892-5.327,7.413
				C310.543,210.317,309.217,208.997,307.323,207.817z M316.449,206.058c0.152,2.541,0.609,7.358,1.921,10.188
				c-1.849-0.159-3.687-0.247-5.491-0.247c-0.61,0-1.213,0.028-1.82,0.043C311.713,213.908,313.392,209.304,316.449,206.058z
				 M377.506,185.018c0.342,4.236-0.325,14.941-15.012,18.419c-10.283,2.435-15.542-2.981-17.559-5.911
				c2.852,0.859,8.472,1.953,15.068,0.113l0.005,0.008c0.002-0.001,0.016-0.01,0.025-0.015
				C365.531,196.089,371.701,192.491,377.506,185.018z M368.139,178.018c2.244,11.573-8.784,18.271-8.896,18.337l0.02,0.033
				c-8.575,2.3-15.238-0.727-15.69-0.94l-0.394-0.187l-0.356,0.248c-2.427,1.685-10.183,4.019-16.576,5.755
				c0.199-1.523,0.341-4.418-0.802-7.12l2.401-0.283l-0.264,1.587l1.065-0.213c0.144-0.029,3.09-0.642,5.037-2.819
				c0.187,0.515,0.313,0.935,0.315,1.084v1.963l1.309-1.463c0.076-0.085,1.579-1.779,2.467-3.794
				c0.35,0.487,0.642,1.047,0.603,1.476l-0.188,2.063l1.465-1.465c0.083-0.083,1.776-1.794,2.763-4.105
				c0.39,0.492,0.707,1.012,0.707,1.325v2.291l1.354-1.848c0.101-0.136,2.135-2.925,2.962-5.149
				c0.547,0.416,1.138,1.016,1.186,1.638l0.215,2.787l1.209-2.52c0.13-0.271,1.047-2.231,1.228-4.001
				c0.544,0.325,1.152,0.81,1.396,1.446l0.567,1.475l0.784-1.372c0.079-0.139,1.75-3.112,1.304-6.179
				c0.424,0.111,0.886,0.365,1.089,0.934l0.855,2.395l0.581-2.476c0.087-0.368,2.01-8.852-1.38-13.748
				C360.551,167.698,367.071,172.513,368.139,178.018z M349.609,161.487c0.025,0.005,2.549,0.544,5.425,4.225
				c2.463,3.153,2.034,8.652,1.638,11.323c-0.813-0.518-1.794-0.599-2.385-0.53l-0.904,0.106l0.278,0.867
				c0.558,1.746,0.045,3.675-0.413,4.869c-1.019-1.051-2.432-1.533-2.511-1.559l-1.246-0.416l0.275,1.284
				c0.157,0.734-0.118,1.874-0.447,2.844c-0.762-0.913-1.81-1.46-1.984-1.547l-0.898-0.45l-0.175,0.99
				c-0.207,1.174-1.325,3.079-2.196,4.407c-0.514-0.824-1.225-1.511-1.43-1.702l-0.908-0.843l-0.326,1.195
				c-0.391,1.434-1.24,2.742-1.903,3.606c-0.507-1.024-1.351-1.831-1.487-1.958l-0.918-0.852l-0.318,1.21
				c-0.317,1.208-1.078,2.443-1.692,3.303c-0.187-0.509-0.392-0.994-0.52-1.288l-0.602-1.375l-0.739,1.307
				c-0.919,1.626-2.652,2.505-3.783,2.927l0.216-1.294l-4.723,0.555c-1.934-3.937-1.029-5.823-1.026-5.83l0.381-0.685l-1.593-0.796
				c0.76-1.757,2.073-3.089,2.088-3.104l0.788-0.792l-3.193-1.331c1.06-1.523,2.143-2.614,2.154-2.626l0.837-0.838l-3.722-1.329
				c1.518-2.212,2.593-2.651,2.592-2.651l1.572-0.524l-3.622-2.113c2.194-2.086,5.725-3.091,5.764-3.102l1.236-0.345l-1.594-1.595
				c1.909-1.508,4.817-2.299,4.85-2.308l0.962-0.257l-1.569-2.615c5.23-1.962,11.541,0.802,11.607,0.832l1.915,0.855l-1.044-2.087
				c2.598,0.555,5.035,1.933,5.063,1.949L349.609,161.487z M330.021,154.25c6.935-0.187,12.678,2.05,16.687,4.328
				c-1.118-0.39-2.393-0.729-3.649-0.825l-1.321-0.102l0.498,0.995c-2.609-0.821-7.545-1.859-11.808,0.178l-0.744,0.356l1.434,2.389
				c-1.3,0.445-3.646,1.401-5.146,2.901l-0.53,0.53l0.924,0.924c-1.559,0.583-4.286,1.825-5.943,3.851l-0.557,0.68l2.71,1.581
				c-0.697,0.581-1.646,1.589-2.712,3.321l-0.485,0.788l3.307,1.181c-0.566,0.653-1.354,1.632-2.068,2.776l-0.469,0.75l2.854,1.189
				c-0.615,0.77-1.476,2.016-1.961,3.471l-0.205,0.617l1.494,0.747c-0.165,0.683-0.27,1.831,0.13,3.466
				c-1.104-0.802-2.421-1.39-3.957-1.741c-2.069-0.472-3.921-0.387-5.548,0.011c0.76-3.066,0.424-7.241-2.023-10.754
				c-0.814-1.168-1.998-2.43-3.667-3.446C308.611,170.43,314.9,154.67,330.021,154.25z M285.539,114.602
				c2.096,4.333,18.913,39.316,22.694,53.772c-1.152,2.225-1.9,4.149-2.31,5.327c-1.85-0.84-4.183-1.371-7.11-1.284
				c-0.108,0.003-0.22,0.012-0.329,0.017c-1.223-3.221-17.234-45.152-25.953-57.062
				C275.136,115.081,281.189,114.773,285.539,114.602z M244.982,159.043c9.195-15.832,23.143-39.34,26.116-43.083
				c8.159,10.782,23.854,51.441,25.827,56.598c-4.866,0.586-10.463,3.149-13.049,11.145c-1.544-0.955-3.424-1.619-5.71-1.619
				c-6.306,0-9.192,1.836-10.258,2.775c-6.102-4.855-14.238-9.333-21.057-10.647c-0.302-2.716-1.003-8.833-1.874-15.171
				L244.982,159.043z M239.933,140.991c1.438,1.659,4.04,20.924,5.407,33.193c-2.748,0.512-7.263,2.763-9.379,3.873
				c0.8-23.616-2.73-35.94-4.005-39.557C234.418,138.733,238.579,139.428,239.933,140.991z M166.285,146.074
				c2.955-0.473,17.902-0.264,31.891,9.499c-2.384,2.362-4.081,4.26-4.836,5.128c-3.311-1.922-20.25-11.356-33.234-10.867
				C161.681,148.321,164.034,146.434,166.285,146.074z M158.237,151.798l0.011,0.009c0.003-0.004,0.036-0.044,0.084-0.1
				c0.184-0.169,0.374-0.275,0.572-0.294c13.77-1.293,34.007,10.774,34.209,10.896l0.549,0.33l0.412-0.49
				c0.189-0.225,18.943-22.303,36.262-23.697c0.95,2.56,5.102,15.349,4.081,40.852l-0.024,0.599l0.579,0.155
				c0.195,0.052,19.442,5.354,32.313,19.582c-0.609,1.288-2.755,5.268-6.922,7.505c-2.276-0.273-4.722-0.421-7.371-0.394
				c-0.01,0-0.019,0.001-0.028,0.001c3.591-2.151,6.59-5.238,6.743-5.397l0.521-0.541l-0.541-0.521
				c-8.188-7.878-26.827-15.722-30.232-17.116c0.853-12.466-2.511-37.194-2.545-37.446l-0.121-0.876l-0.845,0.262
				c-15.304,4.744-28.947,20.38-31.588,23.544c-11.139-7.411-31.194-11.078-32.057-11.233l-0.525-0.094l-0.262,0.465
				c-2.741,4.873-2.292,19.348-2.134,22.943c-1.394-0.679-2.826-1.291-4.296-1.824C154.886,167.016,156.031,154.156,158.237,151.798
				z M139.88,177.75c18.165,0,34.314,11.378,39.56,27.765l-1.612,0.411c-4.926-15.447-20.111-26.176-37.208-26.176
				c-18.002,0-33.84,11.983-37.864,28.558c-0.44,0.094-0.874,0.198-1.304,0.312c-0.149,0.04-0.296,0.08-0.443,0.122
				c-0.554,0.157-1.1,0.327-1.632,0.517c-0.019,0.007-0.04,0.012-0.059,0.019C103.108,190.93,119.946,177.75,139.88,177.75z
				 M126.971,178.111c-14.899,4.41-26.359,16.298-29.24,31.51c-0.604,0.118-2.97,0.64-5.598,1.988
				C94.276,196.153,107.208,181.312,126.971,178.111z M85.72,220.878c1.117-3.798,3.98-6.2,6.675-7.676
				c-1.649,1.393-3.055,3.031-4.205,4.906c-2.312,3.773-3.227,8.705-2.956,13.938C84.669,228.208,84.711,224.307,85.72,220.878z
				 M74.87,236.67c0-4.53,1.541-8.568,8.782-13.309c-1.187,7.84,1.411,16.929,4.862,23.009l0.176-0.1
				c1.527,3.475,3.52,6.726,5.911,9.488C82.017,250,74.87,243.498,74.87,236.67z M98.231,257.336
				c-10.507-9.411-14.954-28.337-8.761-38.444c2.128-3.47,5.208-6.071,9.154-7.732c0.38-0.162,0.768-0.314,1.164-0.457
				c0.832-0.301,1.697-0.558,2.585-0.774c0.376-0.091,0.755-0.178,1.14-0.253c0.833-0.16,1.571-0.258,2.195-0.321
				c0.254,0.43,0.742,1.293,1.116,2.209c-2.055,0.34-7.024,1.289-9.248,2.817l-0.742,0.511l0.636,0.638
				c0.503,0.503,1.782,1.931,2.316,3.096c-1.029,0.986-3.735,3.837-4.032,6.799l-0.074,0.738l0.738,0.082
				c0.049,0.005,0.982,0.108,2.039,0.151c-0.205,1.458-0.493,4.437,0.157,6.648l0.293,0.992l0.853-0.586
				c0.018-0.012,1.541-1.046,3.18-1.196c0.063,1.281,0.304,3.908,1.224,5.747l0.311,0.584l0.623-0.218
				c0.006-0.001,0.58-0.196,1.795-0.038c0.338,1.272,1.362,4.589,3.158,5.936l0.666,0.499l0.632-1.054
				c0.452,0.927,1.2,2.009,2.324,2.483c0.216,7.84,2.178,14.493,3.198,17.457C109.887,261.688,103.64,259.574,98.231,257.336z
				 M118.644,264.145c-1.031-2.804-5.316-15.636-2.578-28.321c2.458-11.384,8.063-17.133,17.137-17.576
				c6.31-0.313,14.818,7.476,18.069,10.711c0.221,2.372,2.495,21.597,18.202,25.764c3.21,0.852,6.23,1.233,9.05,1.233
				c10.75,0,18.568-5.552,22.804-11.781c10.93,2.518,16.736,2.167,18.802,1.876c-0.847,4.124-6.205,26.073-24.889,30.363
				C165.427,274.006,139.048,269.708,118.644,264.145z M223.85,278.091c-8.369-0.311-16.551-0.767-24.503-1.357
				c17.079-6.544,21.752-27.776,22.329-30.764c0.783,0.06,1.938,0.159,2.859,0.241C225.999,248.942,235.345,267.593,223.85,278.091z
				 M242.014,278.531c-5.434-0.062-10.81-0.183-16.111-0.364c11.531-12.266-0.131-32.83-0.253-33.042l-0.194-0.336l-0.387-0.035
				c-0.379-0.034-3.715-0.336-4.234-0.336l-0.189,0.024c-0.026,0.007-1.354,0.321-4.212,0.3c1.022-2.844,6.082-14.633,20.947-19.021
				c15.029-4.439,27.321,3.564,29.951,5.466c-5.254,3.982-9.868,8.617-13.672,13.75c-0.196,0.03-0.739,0.123-1.513,0.312
				c-0.011-0.875-0.154-1.79-0.314-2.616c-0.1-0.512-0.92-0.393-0.905,0.122c0.025,0.875,0.099,1.849,0.302,2.737
				c-1.898,0.542-4.598,1.553-7.134,3.346c-0.138-0.348-0.306-0.689-0.448-1.025l-0.771-1.824c-0.172-0.407-0.892-0.11-0.721,0.304
				c0.251,0.61,0.503,1.221,0.754,1.831c0.164,0.399,0.304,0.829,0.497,1.224c-1.597,1.24-3.087,2.815-4.219,4.804
				c-0.135-0.116-0.273-0.228-0.401-0.338c-0.376-0.324-0.751-0.648-1.127-0.972c-0.43-0.371-1.056,0.239-0.63,0.63
				c0.389,0.357,0.776,0.717,1.168,1.071c0.176,0.159,0.347,0.329,0.532,0.48c-0.216,0.445-0.42,0.903-0.599,1.387
				c-0.626,1.693-0.96,3.382-1.086,5.016c-0.756-0.34-1.855-0.153-2.579,0.064c-0.552,0.165-0.322,1.018,0.239,0.866
				c0.431-0.117,0.864-0.177,1.312-0.152c0.336,0.019,0.647,0.11,0.973,0.108c-0.089,3.075,0.593,5.896,1.653,8.088
				c-1.372,0.407-2.761,1.154-4.011,1.668c-0.525,0.216-0.318,1.075,0.241,0.874c0.911-0.328,1.826-0.647,2.731-0.992
				c0.504-0.192,1.044-0.364,1.554-0.584c0.59,1.003,1.259,1.82,1.961,2.417c-0.077,0.083-0.152,0.167-0.219,0.244
				c-0.364,0.414-0.701,0.857-1.01,1.313c-0.206,0.305,0.278,0.687,0.515,0.398c0.333-0.405,0.687-0.779,1.085-1.121
				c0.114-0.098,0.244-0.196,0.375-0.295c0.101,0.06,0.201,0.134,0.302,0.184l0.056-0.112
				C242.103,275.762,242.026,277.141,242.014,278.531z M239.537,256.927c2.502-6.77,9.601-9.336,12.801-10.169
				c-5.38,7.819-8.903,16.695-9.982,26.106C239.704,270.948,236.875,264.128,239.537,256.927z M248.815,278.573
				c-1.76-0.003-3.522-0.008-5.268-0.023c-0.011,0-0.022,0-0.034,0c0.286-33.138,31.929-61.049,69.367-61.049
				c6.785,0,14.022,1.198,20.617,3.204c-9.169-2.007-21.288-2.356-35.976,2.331C257.862,235.693,249.543,274.71,248.815,278.573z
				 M250.341,278.58c0.975-4.916,9.536-41.956,47.638-54.116c31.327-9.998,50.649,3.332,53.997,5.923
				c-0.598,0.686-1.161,1.404-1.703,2.138c-2.054-1.437-22.946-15.091-56.541-2.225c-32.375,12.399-39.504,44.877-40.164,48.27
				C252.493,278.575,251.418,278.58,250.341,278.58z M255.099,278.564c0.918-4.461,8.283-35.035,39.17-46.864
				c32.988-12.633,53.33,0.779,55.136,2.046c-1.039,1.534-1.971,3.149-2.801,4.827c-11.184-10.47-22.046-4.422-24.299-2.96
				c-15.952-9.2-27.554,3.559-29.2,5.521c-16.899,2.525-18.145,16.207-18.194,19.527c-1.613,0.229-5.565,1.132-8.373,4.587
				c-2.578,3.17-3.465,7.619-2.672,13.205C260.953,278.507,258.03,278.545,255.099,278.564z M321.504,236.896l-5.542,32.28
				c-1.562,1.99-4.417,1.542-5.301,1.342l-16.255-28.61C296.325,239.621,306.794,228.449,321.504,236.896z M305.634,276.413
				c-12.983,1.042-26.492,1.72-40.262,2.008c-0.777-5.234-0.004-9.348,2.317-12.214c2.786-3.441,6.996-4.025,7.851-4.11
				l30.351,13.453C305.97,275.931,305.815,276.219,305.634,276.413z M276.399,260.837c-0.045-2.615,0.566-15.645,16.708-18.178
				l16.272,28.638c-0.231,1.407-1.942,2.463-2.874,2.884L276.399,260.837z M307.361,276.271c0.062-0.263,0.083-0.547,0.038-0.854
				c0.977-0.487,2.789-1.598,3.353-3.348c1.257,0.227,3.728,0.401,5.593-1.134c0.257,0.549,0.663,1.159,1.292,1.604
				c0.559,0.395,1.202,0.604,1.922,0.626c-0.06,0.596-0.018,1.33,0.375,1.93C315.807,275.526,311.614,275.918,307.361,276.271z
				 M340.551,272.547c-6.036,0.871-12.274,1.656-18.687,2.347l0.022-0.309c-0.518-0.037-0.652-0.241-0.696-0.309
				c-0.244-0.369-0.147-1.074-0.035-1.5l19.953-15.202C340.355,263.178,340.266,268.44,340.551,272.547z M341.046,255.736
				l-20.843,15.88c-0.683,0.109-1.245,0.018-1.694-0.296c-0.754-0.529-1.015-1.522-1.08-1.828l5.59-32.557
				c1.651-1.112,12.102-7.408,22.907,3.056c-2.33,5.137-3.777,10.739-4.605,16.107L341.046,255.736z M363.443,268.614
				c-6.763,1.371-13.918,2.614-21.403,3.719c-0.934-13.825,2.37-40.921,21.567-48.468c15.816-6.217,24.726,2.956,27.305,6.268
				c-0.563-0.007-1.151,0.013-1.79,0.094c-1.355-0.641-8.615-3.852-14.36-1.938l-1.143,0.383l0.848,0.857
				c0.007,0.007,0.505,0.516,1.133,1.511c-1.62-0.13-4.268-0.046-6.936,1.289l-0.932,0.465l1.836,1.835
				c-1.724,0.594-4.732,2.02-6.24,5.035l-0.543,1.085h2.146c-1.088,0.851-2.179,2.145-2.659,4.068l-0.304,1.213l1.714-0.428
				c-0.997,1.04-1.967,2.442-2.41,4.215l-0.331,1.326l1.72-0.573c-0.884,1.155-1.862,2.662-2.373,4.192l-0.236,0.712l2.387,0.796
				c-0.97,0.861-2.188,2.24-2.188,3.729v0.75h2.739c-0.307,1.09-0.739,2.868-0.739,4.25v0.75h1.766
				C363.817,266.516,363.569,267.612,363.443,268.614z M385.123,263.371c-1.446,0.417-2.919,0.829-4.436,1.235
				c-4.928,1.314-10.174,2.543-15.685,3.688c0.243-1.476,0.711-3.058,0.717-3.077l0.289-0.966h-2.216
				c0.186-1.791,0.911-3.987,0.92-4.013l0.328-0.987h-3.105c0.507-1.111,1.919-2.25,2.482-2.626l1.271-0.852l-3.706-1.235
				c1.118-2.555,3.521-4.98,3.548-5.007l2.241-2.245l-4.534,1.511c1.329-2.703,4.067-4.11,4.1-4.126l6.004-3.029l-9.146,2.287
				c1.257-2.472,3.863-3.168,3.987-3.201l5.911-1.478h-8.744c2.079-2.729,5.758-3.506,5.8-3.515l1.369-0.278l-2.211-2.211
				c3.351-1.269,6.479-0.525,6.513-0.518l1.577,0.388l-0.726-1.451c-0.483-0.966-0.969-1.713-1.354-2.241
				c5.485-1.127,12.275,2.211,12.349,2.248l0.209,0.104l0.232-0.033c6.297-0.9,8.124,3.357,8.197,3.536l0.12,0.202
				c0.043,0.051,3.787,4.597,3.954,8.837l-2.128-2.127V244c0,0.042-0.009,3.723-0.635,6.555l-2.495-2.495l0.132,1.99
				c0.056,0.853,0.07,3.098-0.404,4.506l-2.922-1.063l-0.163,0.868c-0.006,0.033-0.553,2.872-1.953,4.629l-1.627-3.092l-0.526,1.763
				c-0.013,0.043-1.324,4.365-3.542,5.695L385.123,263.371z M387.993,262.522c0.65-0.943,1.155-1.973,1.504-2.806l0.894,1.698
				l0.711-0.586c1.696-1.397,2.575-3.99,2.935-5.336l2.552,0.928l0.313-0.549c0.622-1.089,0.817-2.751,0.866-4.044l1.561,1.561
				l0.384-1.151c0.657-1.972,0.898-4.708,0.986-6.478l1.763,1.762l0.274-1.375c0.543-2.716-0.513-5.634-1.696-7.872
				c3.167,1.024,10.912,4.471,12.125,13.877C406.938,255.841,398.49,259.335,387.993,262.522z M414.558,251.3
				c-0.32-1.967-0.905-3.687-1.666-5.184l8.305-13.196l4.423,5.554C424.81,242.878,421.041,247.203,414.558,251.3z M421.466,230.849
				l-4.746,0.339l-3.409-9.884c7.971,4.765,12.223,9.832,12.448,14.937L421.466,230.849z"/>
			<path style="fill:#512323;" d="M393.737,236.315c-0.098-0.532-0.398-0.954-0.869-1.219c-2.934-1.644-12.732,8.526-15.99,13.36
				c-3.943,5.852-4.241,9.95-4.252,10.122l-0.065,1.06l1.021-0.292c3.153-0.9,10.674-8.955,13.62-12.491
				C391.267,241.977,394.114,238.366,393.737,236.315z M374.378,257.289c0.39-1.597,1.361-4.459,3.744-7.995
				c4.141-6.144,12.077-12.916,13.847-12.916c0.063,0,0.117,0.009,0.163,0.026c0.083,0.046,0.113,0.089,0.131,0.182
				c0.278,1.518-3.629,6.207-6.214,9.309C382.381,250.296,377.17,255.478,374.378,257.289z"/>
			<path style="fill:#512323;" d="M327.923,186.612l-0.816,2.177l1.935-1.29c0.155-0.104,3.863-2.593,8.732-7.337
				c4.964-4.837,6.871-11.676,6.95-11.965l0.396-1.449l-1.396,0.555C333.778,171.255,328.157,185.986,327.923,186.612z
				 M336.727,179.088c-2.525,2.461-4.759,4.32-6.304,5.527c1.898-4.042,6.191-11.848,12.307-15.188
				C341.877,171.702,339.983,175.914,336.727,179.088z"/>
			<path style="fill:#512323;" d="M190.489,189.895l1.328,0.323l-0.441-1.294c-0.109-0.318-2.774-7.812-12.657-8.506l-1.848-0.13
				l1.237,1.379C178.353,181.94,184.169,188.358,190.489,189.895z M189.225,187.926c-3.45-1.329-6.661-4.021-8.473-5.727
				C185.657,183.179,188.132,186.114,189.225,187.926z"/>
			<path style="fill:#512323;" d="M204,188.575l1.037-0.589c7.687-4.368,6.43-14.172,6.373-14.588l-0.159-1.147l-0.982,0.614
				c-6.968,4.355-6.379,14.108-6.351,14.521L204,188.575z M210.004,174.899c0.048,2.47-0.374,7.884-4.592,11.051
				C205.503,183.462,206.164,178.071,210.004,174.899z"/>
			<path style="fill:#512323;" d="M231.312,203.111c4.164,0,6.173-1.415,6.297-1.506l0.985-0.72l-1.087-0.554
				c-9.168-4.67-14.596-0.263-14.822-0.073l-1.016,0.852l1.253,0.432C226.34,202.721,229.123,203.111,231.312,203.111z
				 M235.386,200.999c-1.721,0.575-5.125,1.147-10.409-0.377C226.775,199.79,230.338,198.876,235.386,200.999z"/>
			<path style="fill:#512323;" d="M259.851,176.462c0.231,0,0.436-0.028,0.603-0.093c0.282-0.109,0.499-0.313,0.611-0.574
				c0.434-1.011,0.796-8.366,0.014-9.758c-0.227-0.403-0.55-0.505-0.722-0.53c-0.532-0.076-1.431-0.208-5.414,8.557l-0.31,0.682
				l0.681,0.311C256.546,175.621,258.598,176.462,259.851,176.462z M259.949,167.612c0.202,1.911,0.025,6.163-0.206,7.362
				c-0.542-0.033-1.814-0.434-3.118-0.98C257.787,171.493,259.141,168.85,259.949,167.612z"/>
			<path style="fill:#512323;" d="M275.771,178.853c0.695,0,1.385-0.106,1.861-0.261c0.652-0.212,1.058-0.542,1.204-0.979
				c0.363-1.091-1.447-6.096-2.501-7.381c-0.369-0.451-0.771-0.654-1.179-0.601c-0.6,0.075-1.346,0.168-1.781,8.078l-0.022,0.412
				l0.336,0.24C274.188,178.716,274.983,178.853,275.771,178.853z M275.509,171.665c0.773,1.379,1.879,4.58,1.905,5.405
				c-0.413,0.251-1.784,0.372-2.51,0.205C275.036,175.161,275.27,172.863,275.509,171.665z"/>
			<path style="fill:#512323;" d="M255.835,240.767c0.195-0.658,0.055-1.508-0.028-2.18c-0.069-0.557-0.893-0.595-0.898,0
				c-0.006,0.724-0.036,1.594,0.248,2.269C255.288,241.166,255.753,241.044,255.835,240.767z"/>
			<path style="fill:#512323;" d="M246.255,242.334c0.066-0.577-0.044-1.175-0.106-1.75c-0.067-0.614-1.03-0.632-0.977,0
				c0.052,0.614,0.058,1.272,0.246,1.863C245.572,242.928,246.201,242.798,246.255,242.334z"/>
			<path style="fill:#512323;" d="M251.193,232.667c0.004-0.455-0.08-0.906-0.142-1.356c-0.061-0.44-0.84-0.34-0.783,0.106
				c0.058,0.45,0.096,0.907,0.219,1.346C250.596,233.152,251.189,233.075,251.193,232.667z"/>
			<path style="fill:#512323;" d="M238.886,239.794c0.204,0.329,0.801,0.22,0.772-0.209c-0.053-0.782-0.558-1.54-1.024-2.145
				c-0.328-0.425-1.062-0.032-0.742,0.434C238.308,238.48,238.504,239.181,238.886,239.794z"/>
			<path style="fill:#512323;" d="M237.171,249.155c0.296,0.122,0.539-0.274,0.397-0.516c-0.32-0.544-0.839-0.909-1.313-1.312
				c-0.452-0.384-1.109,0.258-0.657,0.657C236.095,248.424,236.551,248.899,237.171,249.155z"/>
			<path style="fill:#512323;" d="M230.367,244.906c-0.441-0.233-0.811,0.4-0.39,0.668c0.572,0.363,0.978,0.865,1.495,1.286
				c0.333,0.27,0.805-0.06,0.601-0.464C231.737,245.727,231.01,245.246,230.367,244.906z"/>
			<path style="fill:#512323;" d="M234.542,267.059c-0.531-0.315-1.17,0.026-1.54,0.443c-0.343,0.386,0.091,1.018,0.568,0.736
				c0.345-0.204,0.758-0.259,1.056-0.529C234.827,267.528,234.762,267.19,234.542,267.059z"/>
			<path style="fill:#512323;" d="M237.5,277.125c-0.326-0.016-0.544,0.141-0.818,0.307c-0.513,0.31-0.058,1.087,0.469,0.803
				c0.278-0.15,0.521-0.257,0.672-0.545C237.959,277.431,237.79,277.139,237.5,277.125z"/>
			<path style="fill:#512323;" d="M264.75,219.423c-1.171,0-1.173,1.82,0,1.82C265.921,221.243,265.923,219.423,264.75,219.423z"/>
			<path style="fill:#512323;" d="M270.667,223.521c0.885,0,0.886-1.375,0-1.375C269.782,222.146,269.78,223.521,270.667,223.521z"
				/>
			<path style="fill:#512323;" d="M266.25,225.589c-0.744,0-0.745,1.156,0,1.156C266.994,226.745,266.995,225.589,266.25,225.589z"
				/>
			<path style="fill:#512323;" d="M258.083,218.327c-1.081,0-1.083,1.68,0,1.68C259.164,220.006,259.166,218.327,258.083,218.327z"
				/>
			<path style="fill:#512323;" d="M254.333,218.794c-0.694,0-0.695,1.078,0,1.078C255.027,219.872,255.028,218.794,254.333,218.794z
				"/>
			<path style="fill:#512323;" d="M270.667,227.1c-0.729,0-0.73,1.133,0,1.133C271.396,228.233,271.397,227.1,270.667,227.1z"/>
			<path style="fill:#FF6161;" d="M374.76,228.29l-1.14,0.38l0.85,0.86c0,0.01,0.5,0.51,1.13,1.51c-1.62-0.13-4.27-0.05-6.93,1.29
				l-0.94,0.46l1.84,1.84c-1.72,0.59-4.73,2.02-6.24,5.03l-0.54,1.09h2.14c-1.09,0.85-2.18,2.15-2.66,4.07l-0.3,1.21l1.71-0.43
				c-0.99,1.04-1.96,2.44-2.41,4.22l-0.33,1.32l1.72-0.57c-0.88,1.16-1.86,2.66-2.37,4.19l-0.24,0.71l2.39,0.8
				c-0.97,0.86-2.19,2.24-2.19,3.73v0.75h2.74c-0.31,1.09-0.74,2.87-0.74,4.25v0.75h1.77c-0.2,0.77-0.45,1.86-0.58,2.86
				c-3.95,0.81-8.03,1.56-12.24,2.27c-0.63-5.8-0.62-11.67,0.04-17.47c0.24-2.1,0.58-4.25,1.62-6.09c0.81-1.43,2.02-2.66,2.44-4.25
				c0.25-0.98,0.17-2.03,0.46-3.01c0.42-1.46,1.59-2.56,2.78-3.51c0.41-0.33,0.87-0.71,0.94-1.24c0.05-0.37-0.11-0.74-0.07-1.11
				c0.06-0.48,0.44-0.85,0.8-1.18c2.62-2.35,5.53-4.84,9.05-5.01c-1.13-0.43-2.5-1.41-1.98-2.5c0.13-0.27,0.37-0.48,0.62-0.66
				c1.25-0.88,2.85-1.09,4.38-1.16c6.02-0.25,12.11,1.44,17.15,4.73c0.01,0.01,0.02,0.01,0.02,0.02c0.61,0.64,1.1,1.22,1.46,1.69
				c-0.56,0-1.15,0.02-1.79,0.1C387.77,229.59,380.51,226.38,374.76,228.29z"/>
			<path style="fill:#FF6161;" d="M406.94,254.54c-0.06,0.33-0.14,0.66-0.22,0.99c-5.23,2.45-11.49,4.79-18.73,6.99
				c0.65-0.94,1.16-1.97,1.51-2.8l0.89,1.7l0.71-0.59c1.7-1.4,2.58-3.99,2.94-5.34l2.55,0.93l0.31-0.55
				c0.62-1.09,0.82-2.75,0.87-4.04l1.56,1.56l0.38-1.15c0.66-1.97,0.9-4.71,0.99-6.48l1.76,1.76l0.28-1.37
				c0.54-2.72-0.52-5.64-1.7-7.87c0.9,0.29,2.17,0.78,3.55,1.54C406.81,244.4,407.94,249.58,406.94,254.54z"/>
			<path style="fill:#FF6161;" d="M113.67,246.19c0.22,7.84,2.18,14.5,3.2,17.46c-0.19-0.05-0.39-0.11-0.58-0.17
				c-0.01,0-0.03,0-0.04-0.01c-5.38-1.92-10.39-5.09-13.74-9.68c-1.38-1.9-2.45-3.99-3.51-6.07c-1.07-2.09-2.14-4.19-3.21-6.28
				c-0.5-0.96-1-1.95-1.15-3.02c-0.18-1.19,0.08-2.44-0.26-3.59c-0.42-1.39-1.67-2.46-1.94-3.89c-0.25-1.31,0.36-2.62,0.46-3.94
				c0.1-1.42-0.38-2.8-0.59-4.2c-0.53-3.48,0.65-7.12,2.9-9.83c1.05-0.69,2.19-1.3,3.41-1.81c0.38-0.16,0.77-0.31,1.17-0.46
				c0.83-0.3,1.69-0.56,2.58-0.77c0.38-0.09,0.76-0.18,1.14-0.25c0.83-0.16,1.57-0.26,2.2-0.32c0.25,0.42,0.74,1.29,1.11,2.2
				c-2.05,0.34-7.02,1.29-9.24,2.82l-0.75,0.51l0.64,0.64c0.5,0.5,1.78,1.93,2.32,3.1c-1.03,0.98-3.74,3.83-4.04,6.8l-0.07,0.73
				l0.74,0.09c0.05,0,0.98,0.1,2.04,0.15c-0.21,1.45-0.5,4.43,0.15,6.64l0.3,1l0.85-0.59c0.02-0.01,1.54-1.05,3.18-1.2
				c0.06,1.29,0.3,3.91,1.22,5.75l0.31,0.59l0.63-0.22c0,0,0.58-0.2,1.79-0.04c0.34,1.27,1.36,4.59,3.16,5.94l0.67,0.5l0.63-1.06
				C111.8,244.64,112.55,245.72,113.67,246.19z"/>
			<path style="fill:#FF6161;" d="M121.12,205.88c-2.21,0.24-4.27,0.99-5.34,1.44c-0.16-0.42-0.28-0.72-0.38-0.96
				c0.09-0.05,0.19-0.1,0.29-0.15c0.01,0,0.02,0,0.02,0c0.19-0.04,0.38-0.08,0.57-0.11C117.87,205.82,119.5,205.75,121.12,205.88z"
				/>
			<path style="fill:#FF6161;" d="M133.79,216.74c-0.22,0-0.44,0-0.66,0.01c-0.39,0.02-0.77,0.06-1.15,0.1l0.38-0.19l-0.36-0.68
				c-0.9-1.68-2.67-2.67-3.96-3.2c0.59-0.3,1.25-0.58,1.71-0.74l1.17-0.42l-0.91-0.84c-1.6-1.48-3.72-1.91-5.12-2.02l1.19-1.79
				c0.91,0.32,1.8,0.72,2.65,1.18c1.8,0.98,3.5,2.34,4.31,4.23c0.56,1.3,0.64,2.76,0.74,4.17
				C133.78,216.61,133.79,216.68,133.79,216.74z"/>
			<path style="fill:#FF6161;" d="M321.04,185.51l-0.21,0.62l1.5,0.75c-0.17,0.68-0.27,1.83,0.13,3.46
				c-1.11-0.8-2.42-1.39-3.96-1.74c-1.21-0.28-2.35-0.36-3.41-0.3c-0.55-2.59-0.64-5.28-0.24-7.9c0.16-1.04,0.4-2.08,0.41-3.13
				c0-0.87-0.14-1.74-0.1-2.6c0.07-1.22,0.53-2.42,1.29-3.38c0.55-0.67,1.24-1.22,1.72-1.95c0.42-0.63,0.65-1.36,0.92-2.07
				c1.39-3.67,3.89-6.99,7.27-8.98c3.22-1.89,7.07-2.49,10.8-2.3c2.06,0.1,4.1,0.43,6.12,0.88c1.25,0.54,2.4,1.12,3.43,1.71
				c-1.12-0.39-2.4-0.73-3.65-0.83l-1.32-0.1l0.49,1c-2.61-0.83-7.54-1.86-11.8,0.17l-0.75,0.36l1.44,2.39
				c-1.3,0.44-3.65,1.4-5.15,2.9l-0.53,0.53l0.92,0.92c-1.56,0.59-4.28,1.83-5.94,3.85l-0.56,0.69l2.71,1.58
				c-0.69,0.58-1.64,1.59-2.71,3.32l-0.48,0.79l3.3,1.18c-0.56,0.65-1.35,1.63-2.07,2.77l-0.46,0.75l2.85,1.19
				C322.38,182.81,321.52,184.06,321.04,185.51z"/>
			<path style="fill:#FF6161;" d="M360.9,181.9c-0.17,2.03-1.79,3.65-2.29,5.62c-0.25,1.01-0.21,2.1-0.71,3.01
				c-0.86,1.57-2.92,1.97-4.31,3.1c-0.76,0.61-1.31,1.45-1.97,2.18c-0.44,0.49-0.92,0.92-1.44,1.3c-3.83-0.39-6.35-1.54-6.61-1.66
				l-0.39-0.19l-0.36,0.25c-2.42,1.68-10.18,4.02-16.57,5.75c0.2-1.52,0.34-4.41-0.81-7.12l2.41-0.28l-0.27,1.59l1.07-0.21
				c0.14-0.03,3.09-0.65,5.03-2.82c0.19,0.51,0.32,0.93,0.32,1.08v1.96l1.31-1.46c0.07-0.08,1.58-1.78,2.47-3.79
				c0.34,0.48,0.64,1.04,0.6,1.47l-0.19,2.07l1.47-1.47c0.08-0.08,1.77-1.79,2.76-4.1c0.39,0.49,0.7,1.01,0.7,1.32v2.29l1.36-1.85
				c0.1-0.13,2.13-2.92,2.96-5.15c0.55,0.42,1.14,1.02,1.19,1.64l0.21,2.79l1.21-2.52c0.13-0.27,1.05-2.23,1.23-4
				c0.54,0.32,1.15,0.81,1.39,1.44l0.57,1.48l0.79-1.37c0.08-0.14,1.75-3.11,1.3-6.18c0.42,0.11,0.89,0.36,1.09,0.93l0.85,2.4
				l0.59-2.48c0.08-0.37,2.01-8.85-1.38-13.75c0.37,0.23,0.76,0.48,1.16,0.75c1.95,2.2,3.07,5.13,3.03,8.07
				c-0.02,1.53-0.33,3.05-0.17,4.57C360.61,179.68,360.99,180.78,360.9,181.9z"/>
			<path style="fill:#C90049;" d="M271.51,116.52c1.67,7.01,2.82,14.18,2.6,21.38c-0.23,7.5-2.02,15.06-5.98,21.44
				c-1.86,2.99-4.18,5.69-6.72,8.14c0.3,2.63,0,7.5-0.35,8.32c-0.11,0.26-0.32,0.46-0.61,0.57c-0.16,0.06-0.37,0.09-0.6,0.09
				c-1.25,0-3.3-0.84-4.54-1.4l-0.68-0.31l0.31-0.69c0.28-0.61,0.54-1.18,0.79-1.71c-1.42,1.1-2.89,2.13-4.39,3.11
				c5.69,1.99,11.77,5.57,16.57,9.4c1.06-0.94,3.95-2.78,10.26-2.78c2.28,0,4.16,0.67,5.71,1.62c2.58-7.99,8.18-10.56,13.05-11.14
				C294.98,167.48,279.77,128.07,271.51,116.52z M278.84,177.61c-0.15,0.44-0.55,0.77-1.21,0.98c-0.47,0.16-1.16,0.26-1.86,0.26
				c-0.79,0-1.58-0.13-2.08-0.49l-0.34-0.24l0.03-0.41c0.43-7.91,1.18-8,1.78-8.08c0.4-0.05,0.81,0.15,1.18,0.6
				C277.39,171.52,279.2,176.52,278.84,177.61z"/>
			<path style="fill:#FFAD1D;" d="M187.11,207.56c2.4-1.06,4.75-2.26,7.01-3.59l-4.03,10.82L187.11,207.56z"/>
			<path style="fill:#FFAD1D;" d="M258.08,200.85c-8.95-8.14-29.48-16.4-29.69-16.49l-0.52-0.2l0.05-0.55
				c0.41-5.09,0.04-12.52-0.52-19.44c-0.84,2.2-1.8,4.35-2.84,6.44c-5.91,11.87-14.56,22.45-25.39,30.1
				c-0.63,0.45-1.27,0.88-1.91,1.31l17.8-0.61l13.48,9.45l-2.01,6.62c4.39-4.64,11.79-9.72,23.45-10.59l-0.1-0.25
				C253.3,205.25,256.78,202.11,258.08,200.85z M237.61,201.61c-0.13,0.09-2.13,1.5-6.3,1.5c-2.19,0-4.97-0.39-8.39-1.57l-1.25-0.43
				l1.01-0.85c0.23-0.19,5.66-4.6,14.83,0.07l1.08,0.56L237.61,201.61z"/>
			<path style="fill:#FFAD1D;" d="M267.29,199.64c-0.61,1.29-2.76,5.27-6.93,7.5c-2.27-0.27-4.72-0.42-7.37-0.39h-0.03
				c3.59-2.15,6.59-5.24,6.75-5.4l0.52-0.54l-0.54-0.52c-8.19-7.88-26.83-15.72-30.23-17.11c0.41-6-0.16-14.85-0.86-22.44
				c2.32-7.27,3.25-14.93,1.67-22.28c0.02-0.01,0.05-0.01,0.07-0.01c0.95,2.56,5.1,15.35,4.08,40.85l-0.03,0.6l0.58,0.16
				C235.17,180.11,254.41,185.41,267.29,199.64z"/>
			<g>
				<path style="fill:#EA7618;" d="M275.54,262.1c-0.86,0.08-5.07,0.67-7.85,4.11c-2.32,2.86-3.1,6.98-2.32,12.21
					c0.37-0.01,0.74-0.02,1.1-0.03v-0.01c-0.68-2.77-0.85-5.89,0.69-8.29c1.52-2.37,4.46-3.54,7.28-3.59s5.57,0.85,8.21,1.84
					c6.17,2.31,12.13,5.14,17.82,8.46c1.73-0.12,3.45-0.25,5.16-0.39c0.19-0.19,0.34-0.48,0.26-0.86L275.54,262.1z"/>
				<path style="fill:#EA7618;" d="M316.38,262.09c-0.42,1.38-0.87,2.79-1.81,3.88c-0.94,1.09-2.51,1.77-3.84,1.23
					c-0.83-0.33-1.43-1.06-1.99-1.75c-1.1-1.38-2.2-2.75-3.3-4.12l5.22,9.19c0.89,0.2,3.74,0.65,5.3-1.34l2.22-12.94
					C317.58,258.19,316.98,260.14,316.38,262.09z"/>
				<path style="fill:#EA7618;" d="M312.86,237.78c2.98,0.15,6.34,0.99,7.9,3.44l0.74-4.32c-14.71-8.45-25.18,2.72-27.09,5.01
					l1.27,2.24C299.68,239.35,306.53,237.47,312.86,237.78z"/>
				<path style="fill:#EA7618;" d="M309.06,270.737v-0.007l-2.45-4.31c0.001,0.004,0.002,0.009,0.003,0.013l-0.843-1.483
					c0.459,1.401,0.824,2.839,1.092,4.289c-0.047,0.299-0.125,0.594-0.242,0.881c-0.15,0.38-0.37,0.74-0.7,0.98
					c-0.769,0.573-1.79,0.361-2.769,0.338c-3.216-1.547-6.437-3.093-9.651-4.648c-4.55-2.19-9.69-5.14-10.37-10.15
					c-0.41-3.01,1.06-6.09,3.37-8.09c2.23-1.93,5.15-2.92,8.09-3.28l-1.48-2.61c-16.15,2.53-16.76,15.56-16.71,18.18l27.878,12.355
					c0.014,0.008,0.028,0.017,0.042,0.025c0.01,0,0.02,0.01,0.03,0.01c0.379,0.21,0.769,0.389,1.178,0.519l0.972,0.431
					c0.167-0.075,0.363-0.176,0.566-0.29c0.001,0,0.003,0,0.004,0c0.5-0.08,0.98-0.29,1.33-0.65c0.24-0.25,0.41-0.56,0.51-0.89
					c0.233-0.322,0.408-0.673,0.47-1.05L309.06,270.737z"/>
				<path style="fill:#EA7618;" d="M323.02,236.94l-0.67,3.91c4.38-3.18,10.53-3.82,15.43-1.47c2.41,1.16,4.44,2.93,6.54,4.61
					c0.48-1.36,1.01-2.69,1.61-4C335.12,229.53,324.67,235.82,323.02,236.94z"/>
				<path style="fill:#EA7618;" d="M321.19,274.28c0.04,0.06,0.18,0.27,0.7,0.3l-0.03,0.31c0.55-0.06,1.1-0.12,1.65-0.18
					c1.51-2.68,4.2-4.89,6.69-6.88c3.71-2.96,7.31-6.06,10.79-9.31c0.04-0.31,0.08-0.63,0.12-0.95l-19.95,15.21
					C321.04,273.2,320.95,273.91,321.19,274.28z"/>
				<path style="fill:#EA7618;" d="M326.7,265.48c-1.91,1.5-4.11,3-6.53,2.8c-0.4-0.03-0.82-0.13-1.08-0.43
					c-0.32-0.36-0.3-0.88-0.27-1.36c0.21-2.88,0.41-5.76,0.61-8.65l-2,11.65c0.06,0.31,0.33,1.3,1.08,1.83
					c0.45,0.31,1.01,0.41,1.69,0.3l20.85-15.88l0.27,0.36c0.28-1.79,0.62-3.6,1.05-5.42C337.63,256.09,332.38,261.05,326.7,265.48z"
					/>
			</g>
			<path style="fill:#FACF21;" d="M280.525,270.789c-1.477-0.433-2.992-0.853-4.528-0.764c-0.544,0.032-1.124,0.148-1.504,0.538
				c-0.617,0.634-0.422,1.752,0.186,2.394c0.609,0.642,1.499,0.921,2.354,1.146c2.456,0.646,4.969,1.052,7.488,1.369
				c0.956,0.12,1.952,0.224,2.861-0.095c0.471-0.165,0.958-0.546,0.914-1.043c-0.012-0.136-0.065-0.266-0.13-0.387
				c-0.474-0.884-1.517-1.269-2.473-1.575C283.977,271.823,282.254,271.295,280.525,270.789z"/>
			<path style="fill:#FACF21;" d="M298.117,262.453c0.6,0.091,1.147-0.475,1.235-1.075c0.088-0.6-0.164-1.198-0.467-1.724
				c-0.406-0.704-0.911-1.345-1.436-1.966c-1.27-1.504-2.661-2.906-4.156-4.188c-0.635-0.544-1.321-1.083-2.139-1.258
				c-0.818-0.175-1.797,0.127-2.143,0.888c-0.403,0.888,0.188,1.895,0.801,2.654c2.113,2.616,4.792,4.743,7.706,6.42
				C297.708,262.312,297.902,262.421,298.117,262.453z"/>
			<path style="fill:#FACF21;" d="M307.24,256.201c0.171,0.2,0.358,0.402,0.606,0.491c0.718,0.257,1.366-0.554,1.571-1.289
				c0.687-2.463-0.491-5.004-1.332-7.418c-0.372-1.066-0.687-2.167-1.276-3.131c-0.589-0.964-1.512-1.795-2.629-1.963
				c-1.117-0.168-2.387,0.518-2.598,1.628c-0.154,0.813,0.251,1.615,0.619,2.356C303.78,250.049,304.937,253.506,307.24,256.201z"/>
			<path style="fill:#FACF21;" d="M330.084,244.405c-0.656-0.771-1.958-0.634-2.735,0.015c-0.777,0.648-1.16,1.642-1.512,2.591
				c-0.62,1.672-1.24,3.345-1.861,5.017c-0.679,1.83-1.369,3.762-1.059,5.69c0.026,0.16,0.064,0.33,0.181,0.441
				c0.246,0.235,0.651,0.078,0.938-0.105c1.805-1.152,3.137-2.935,4.08-4.857c0.943-1.923,1.526-3.998,2.104-6.059
				C330.478,246.221,330.701,245.13,330.084,244.405z"/>
			<path style="fill:#E2B851;" d="M348.21,235.63c-0.57,0.95-1.11,1.94-1.61,2.94c-11.18-10.47-22.04-4.42-24.3-2.96
				c-15.95-9.2-27.55,3.56-29.2,5.52c-16.9,2.53-18.14,16.21-18.19,19.53c-1.61,0.23-5.57,1.13-8.37,4.59
				c-2.58,3.17-3.47,7.62-2.68,13.2c-1.24,0.03-2.48,0.05-3.72,0.06c0.04-6,0.67-12.41,5.03-16.37c1.85-1.68,4.3-2.81,5.55-4.98
				c0.7-1.2,0.95-2.6,1.34-3.93c1.19-4.01,3.85-7.56,7.35-9.85c2.99-1.94,6.49-2.95,9.66-4.59c3.48-1.8,6.53-4.35,9.99-6.2
				c6.08-3.24,13.37-4.16,20.06-2.52c1.5,0.37,2.98,0.86,4.52,0.98c2.07,0.16,4.12-0.35,6.17-0.61
				C336.3,229.63,343.09,231.57,348.21,235.63z"/>
			<path style="fill:#D6E264;" d="M387.57,224.9c-4.87-3.63-13.03-6.94-24.51-2.43c-3.96,1.56-7.27,3.91-10.03,6.78
				c-2.21-2.08-5.11-4.02-8.47-5.74c2.69-0.54,5.35-1.18,7.99-1.91c10.01-2.78,19.96-7.09,27.05-14.69
				c6.12-6.55,9.68-15.98,8.11-24.66l15.77-2.65C404.91,184.27,413.09,214.81,387.57,224.9z"/>
			<path style="fill:#D6E264;" d="M220.13,246.05c-0.85,4.13-6.2,26.08-24.89,30.37c-29.81-2.41-56.19-6.71-76.6-12.27
				c-0.64-1.74-2.52-7.31-3.21-14.3c12.64,7.93,28.13,11.37,42.92,9.16c4.78-0.71,9.46-1.97,13.99-3.64
				c2.16,0.41,4.22,0.59,6.18,0.59c10.75,0,18.57-5.55,22.81-11.78C212.26,246.7,218.06,246.34,220.13,246.05z"/>
			<path style="fill:#E2B851;" d="M169.76,207.98c0.62-2.89,0.28-5.41-1.03-7.48c-1.99-3.14-5.59-4.29-6.92-4.63
				c-0.54-2.5-1.78-4.37-3.67-5.57c-3.5-2.22-8.15-1.41-9.48-1.11c-3.29-2.38-6.51-3.25-9.59-2.58c-4.08,0.89-6.67,4.22-7.64,5.68
				c-1.69-0.99-6.24-3.02-11.16,0.08c-4.92,3.09-5.02,6.77-4.8,8.31c-1.59,0.63-5.47,2.66-5.92,7.41c-0.56-0.1-1.2-0.2-1.86-0.23
				v-0.11c-0.04,0-0.71-0.02-1.79,0.08c0.7-3.03,2.68-5.76,5.38-7.3c0.44-0.25,0.9-0.49,1.22-0.88c0.29-0.36,0.43-0.83,0.57-1.28
				c2.05-6.32,8.55-10.91,15.2-10.72c0.5,0.01,1,0.05,1.49-0.06c0.47-0.1,0.9-0.33,1.32-0.56c2.22-1.2,4.48-2.4,6.93-3.01
				c2.45-0.61,5.15-0.6,7.4,0.55c0.88,0.46,1.69,1.08,2.62,1.4c2.45,0.83,5.17-0.54,7.7,0.02c2.37,0.53,4.04,2.64,5.31,4.72
				c0.32,0.53,0.65,1.08,1.18,1.41c0.42,0.27,0.93,0.35,1.41,0.5c3.24,0.96,5.02,4.35,6.44,7.42c1.09,2.33,2.17,4.74,2.22,7.3
				L169.76,207.98z"/>
			<path style="fill:#EA7618;" d="M135.21,201.38l5.47,10.01c-0.24,0.51-0.57,0.57-0.76,0.56l-3.57-2.09
				c-0.08-0.26-0.17-0.51-0.27-0.77c0.57-0.01,1.09-0.2,1.36-0.68c0.41-0.71,0.01-1.58-0.35-2.31
				C136.33,204.59,135.7,203,135.21,201.38z"/>
			<path style="fill:#EA7618;" d="M145.85,198.62l-2.77,12.7c-0.48-0.16-0.84-0.38-1-0.49l-3.51-6.43c0.75,0.95,1.63,1.79,2.73,2.27
				c0.2,0.09,0.43,0.17,0.64,0.09c0.21-0.08,0.33-0.3,0.44-0.5C143.64,203.76,144.8,201.21,145.85,198.62z"/>
			<path style="fill:#EA7618;" d="M149.65,215.01c-0.07,0.13-0.05,0.3-0.03,0.45c0.1,0.65,0.28,1.28,0.54,1.89l-1.14-0.36
				l-2.57-1.96l4.31-0.64c-0.26,0.11-0.52,0.23-0.78,0.36C149.86,214.81,149.72,214.88,149.65,215.01z"/>
			<path style="fill:#EA7618;" d="M150.17,209.44c-0.48,0.95-0.87,2.25-0.08,2.95c0.28,0.26,0.66,0.36,1.05,0.42l-5.01,0.75
				c-0.13-0.08-0.23-0.16-0.26-0.26c-0.08-0.25,0.11-0.65,0.22-0.83l5.17-5.12C150.88,208.04,150.52,208.74,150.17,209.44z"/>
			<path style="fill:#EA7618;" d="M154.57,201.86c-0.07,0.11-0.14,0.21-0.21,0.32l-9.25,9.15c-0.18,0.06-0.35,0.11-0.52,0.14
				l1.53-7.02c-0.03,0.84-0.05,1.68-0.08,2.53c-0.02,0.34-0.02,0.7,0.11,1.02c0.14,0.32,0.46,0.58,0.8,0.53
				c0.23-0.03,0.42-0.19,0.6-0.35C149.89,206.07,152.23,203.97,154.57,201.86z"/>
			<path style="fill:#EA7618;" d="M131.09,193.84l0.93,1.7c-1.21-0.89-2.6-1.51-4.08-1.74c-2.65-0.43-5.54,0.49-7.29,2.53
				c-0.39,0.45-0.72,0.95-0.93,1.5c-0.67,1.7-0.08,3.76,1.28,4.96c-0.08,0.01-0.16,0.02-0.24,0.04l0.09-0.16l-3.87-2.01
				c-0.18-0.95-0.41-4.2,4.09-7.03C125.98,190.55,130.32,193.3,131.09,193.84z"/>
			<path style="fill:#EA7618;" d="M147.66,190.33l-1.05,4.79c0-0.63-0.09-1.24-0.34-1.81c-0.25-0.6-0.67-1.12-1.07-1.63
				c-0.45-0.55-0.9-1.11-1.49-1.5c-0.92-0.6-2.1-0.72-3.17-0.48c-1.07,0.23-2.04,0.79-2.92,1.46c-1.07,0.81-2.02,1.81-2.63,3.02
				c-0.39,0.77-0.62,1.63-0.65,2.49l-1.81-3.32c0.69-1.08,3.09-4.46,6.87-5.28C142,187.51,144.78,188.28,147.66,190.33z"/>
			<path style="fill:#EA7618;" d="M158.19,198.39c0.38-1.08,0.41-2.3-0.15-3.28c-0.37-0.67-0.99-1.18-1.66-1.56
				c-1.7-0.98-3.86-1.13-5.68-0.4c-0.86,0.34-1.7,0.79-2.42,1.37l0.85-3.89c1.3-0.27,5.32-0.9,8.21,0.94
				c1.55,0.99,2.56,2.57,3.01,4.69L158.19,198.39z"/>
			<path style="fill:#EA7618;" d="M168.13,208.4l-2.28,0.58l-2.09,1.5c0.06-0.65,0.31-1.28,0.51-1.9c0.51-1.54,0.69-3.18,0.53-4.79
				c-0.12-1.26-0.49-2.57-1.44-3.4c-1.12-0.98-2.81-1.05-4.21-0.57c-0.15,0.05-0.3,0.11-0.45,0.17l2.7-2.67
				c1.09,0.27,4.35,1.28,6.07,3.99C168.66,203.2,168.88,205.59,168.13,208.4z"/>
			<path style="fill:#FACF21;" d="M130.18,203.33c-0.03-0.01-0.07-0.03-0.11-0.04c-1.3-0.45-2.58-0.7-3.83-0.81
				c-0.93-0.85-1.89-1.69-2.29-2.87c-0.13-0.38-0.19-0.81,0-1.16c0.18-0.33,0.55-0.53,0.92-0.56c0.37-0.03,0.74,0.09,1.07,0.27
				c0.39,0.22,0.73,0.51,1.07,0.8c1.22,1.06,2.48,2.19,3.03,3.71C130.11,202.87,130.17,203.11,130.18,203.33z"/>
			<path style="fill:#FACF21;" d="M137.712,194.617c-0.342,0.394-0.381,0.975-0.269,1.484c0.113,0.509,0.356,0.979,0.526,1.472
				c0.198,0.573,0.297,1.177,0.497,1.749s0.524,1.133,1.045,1.444c0.123,0.073,0.27,0.133,0.406,0.09
				c0.184-0.058,0.264-0.269,0.313-0.455c0.459-1.727,0.404-3.588-0.156-5.285c-0.151-0.457-0.409-0.964-0.882-1.054
				c-0.173-0.033-0.351-0.002-0.522,0.04C138.312,194.19,137.953,194.338,137.712,194.617z"/>
			<path style="fill:#FACF21;" d="M151.596,196.959c-0.094-0.192-0.268-0.34-0.468-0.417c-0.376-0.143-0.814-0.029-1.139,0.209
				c-0.325,0.238-0.553,0.583-0.747,0.936c-0.58,1.057-0.905,2.231-1.224,3.393c-0.073,0.266-0.147,0.54-0.113,0.814
				c0.034,0.274,0.204,0.55,0.471,0.622c0.371,0.101,0.717-0.211,0.969-0.502c1.053-1.217,1.994-2.602,2.296-4.182
				C151.696,197.541,151.727,197.226,151.596,196.959z"/>
			<path style="fill:#FACF21;" d="M155.359,207.57c0.861-0.345,1.722-0.691,2.583-1.036c0.491-0.197,0.992-0.4,1.395-0.743
				c0.403-0.343,0.699-0.857,0.643-1.383c-0.013-0.123-0.045-0.246-0.109-0.352c-0.097-0.163-0.262-0.279-0.44-0.344
				c-0.563-0.206-1.178,0.058-1.717,0.32c-1.355,0.659-2.729,1.357-3.782,2.435c-0.171,0.175-0.342,0.38-0.355,0.625
				c-0.02,0.369,0.344,0.667,0.711,0.712C154.655,207.848,155.016,207.707,155.359,207.57z"/>
			<path style="fill:#90C453;" d="M253.71,236.59c-2.9,0.47-5.59,1.82-8.21,3.15c-2.67,1.34-5.44,2.78-7.16,5.22
				c-0.57,0.8-1.01,1.69-1.65,2.44c-0.05,0.06-0.09,0.11-0.15,0.16c0.38,0.32,0.77,0.64,1.03,1.08c0.14,0.24-0.1,0.64-0.4,0.52
				c-0.5-0.21-0.9-0.57-1.3-0.93c-1.01,0.94-2.16,1.77-2.62,3.05c-0.52,1.45,0.01,3.11-0.4,4.6c-0.37,1.3-1.4,2.28-2.31,3.3
				c1.04,6.27,0.55,13.47-4.64,18.99c5.3,0.18,10.68,0.3,16.11,0.36c0.02-1.39,0.09-2.77,0.21-4.14l-0.06,0.11
				c-0.1-0.05-0.2-0.12-0.3-0.18c-0.13,0.1-0.26,0.2-0.37,0.29c-0.4,0.35-0.75,0.72-1.09,1.13c-0.23,0.28-0.72-0.1-0.51-0.4
				c0.31-0.46,0.64-0.9,1.01-1.32c0.07-0.07,0.14-0.16,0.22-0.24c-0.71-0.6-1.37-1.41-1.96-2.42c-0.51,0.22-1.05,0.4-1.56,0.59
				c-0.9,0.34-1.82,0.66-2.73,0.99c-0.56,0.2-0.76-0.66-0.24-0.87c1.25-0.52,2.64-1.27,4.01-1.67c-1.06-2.19-1.74-5.01-1.65-8.09
				c-0.33,0-0.64-0.09-0.97-0.11c-0.45-0.02-0.88,0.04-1.32,0.15c-0.56,0.16-0.79-0.7-0.23-0.86c0.72-0.22,1.82-0.41,2.57-0.07
				c0.13-1.63,0.46-3.32,1.09-5.01c0.18-0.49,0.38-0.94,0.6-1.39c-0.19-0.15-0.36-0.32-0.53-0.48c-0.4-0.35-0.78-0.71-1.17-1.07
				c-0.43-0.39,0.2-1,0.63-0.63c0.37,0.32,0.75,0.65,1.13,0.97c0.12,0.11,0.26,0.22,0.4,0.34c1.13-1.99,2.62-3.56,4.21-4.8
				c-0.19-0.4-0.33-0.83-0.49-1.23c-0.25-0.61-0.5-1.22-0.76-1.83c-0.17-0.41,0.55-0.71,0.73-0.3l0.77,1.82
				c0.14,0.34,0.31,0.68,0.44,1.03c2.54-1.8,5.24-2.81,7.14-3.35c-0.21-0.89-0.28-1.86-0.3-2.74c-0.02-0.51,0.8-0.63,0.9-0.12
				c0.16,0.83,0.3,1.74,0.32,2.62c0.77-0.19,1.31-0.29,1.51-0.32c2.04-2.75,4.32-5.36,6.8-7.8
				C258.28,236.44,255.97,236.22,253.71,236.59z M236.68,277.43c0.28-0.16,0.49-0.32,0.82-0.31c0.29,0.02,0.46,0.31,0.32,0.57
				c-0.15,0.29-0.39,0.39-0.67,0.54C236.62,278.52,236.17,277.74,236.68,277.43z M234.54,267.06c0.22,0.13,0.29,0.47,0.09,0.65
				c-0.3,0.27-0.71,0.32-1.06,0.53c-0.48,0.28-0.91-0.35-0.57-0.74C233.37,267.08,234.01,266.74,234.54,267.06z M246.25,242.33
				c-0.05,0.47-0.68,0.6-0.83,0.12c-0.19-0.59-0.2-1.25-0.25-1.87c-0.05-0.63,0.91-0.61,0.98,0
				C246.21,241.16,246.32,241.76,246.25,242.33z M255.16,240.86c-0.29-0.68-0.26-1.55-0.25-2.27c0-0.6,0.83-0.56,0.9,0
				c0.08,0.67,0.22,1.52,0.03,2.18C255.75,241.04,255.29,241.17,255.16,240.86z"/>
			<path style="fill:#DADE57;" d="M252.34,246.76c-0.82,1.19-1.6,2.41-2.33,3.66c-0.02,0-0.04,0.01-0.06,0.01
				c-1.35,0.25-2.75,0.86-3.39,2.07c-0.45,0.83-0.5,1.87-1.12,2.58c-0.36,0.41-0.87,0.65-1.29,1c-0.87,0.74-1.29,1.97-1.05,3.08
				c0.16,0.72,0.57,1.43,0.39,2.14c-0.17,0.68-0.82,1.12-1.2,1.72c-0.62,0.96-0.46,2.27,0.1,3.27c0.24,0.43,0.54,0.81,0.87,1.16
				c-0.39,1.78-0.69,3.59-0.9,5.41c-2.66-1.91-5.48-8.73-2.82-15.93C242.04,250.16,249.14,247.59,252.34,246.76z"/>
			<path style="fill:#90C453;" d="M274.53,226.02c-4.08-2.07-8.52-3.48-13.07-3.93c-2.59-0.26-5.22-0.19-7.79,0.23
				c6.86,2.05,12.18,5.31,15.09,7.81c1.95-1.41,3.99-2.73,6.1-3.94C274.75,226.13,274.64,226.08,274.53,226.02z M266.25,226.74
				c-0.75,0-0.74-1.15,0-1.15C267,225.59,266.99,226.74,266.25,226.74z M270.67,228.23c-0.73,0-0.73-1.13,0-1.13
				C271.4,227.1,271.4,228.23,270.67,228.23z"/>
			<path style="fill:#931FA0;" d="M309.57,215.78l-0.03,0.11l0.53,0.18c-3.53,0.12-7,0.5-10.39,1.09c0.87-0.94,1.57-2.01,2.02-3.22
				c0.81-2.16,0.74-4.56,0.18-6.81c5.14,1.14,7.98,4.56,8.76,5.62C310.14,213.98,309.79,215.05,309.57,215.78z"/>
			<path style="fill:#931FA0;" d="M324.66,201.69c-4.28,1.14-7.62,1.94-7.71,1.96l-0.17,0.04l-0.14,0.11
				c-2.42,2.04-4.15,4.89-5.33,7.41c-0.77-0.89-2.09-2.21-3.99-3.39c0.46-1.07,0.78-2.38,0.91-3.81c0.87-0.05,1.73-0.21,2.57-0.43
				c3.45-0.92,6.72-3.13,8.11-6.42c0.93-2.23,0.78-4.94-0.38-7c2.22,0.57,3.89,1.73,4.95,3.42
				C325.38,196.62,324.86,200.58,324.66,201.69z"/>
			<path style="fill:#BA36B1;" d="M285.04,205.46c1.4,2.24,1.66,4.35,1.7,4.92c-2.14,2.46-3.31,5.24-3.87,6.93
				c-2.54-2.6-6.83-5.95-13.45-8.17c0.53-0.54,1.37-1.43,2.31-2.55c2.53,1.31,5.36,2.04,8.21,2.09c1.35,0.03,2.77-0.12,3.86-0.92
				C284.52,207.23,285.02,206.33,285.04,205.46z"/>
			<path style="fill:#BA36B1;" d="M304.87,195.01c2.46,3.86,2.25,9.28,1.14,12.07c-2.56-1.3-5.91-2.19-10.1-1.66
				c-3.36,0.43-5.93,1.86-7.87,3.63c-0.22-1.05-0.68-2.55-1.61-4.12c4.09,1.41,8.92,0.93,12.12-1.96c3.16-2.85,3.94-8.14,1.67-11.57
				C302.18,192.01,303.72,193.22,304.87,195.01z"/>
			<path style="fill:#BA36B1;" d="M311.21,189.19c-2.75,1.14-4.65,3.09-5.62,4.27c-1.39-1.82-3.24-3.05-5.48-3.64
				c3.57-0.7,6.44-4.13,6.8-7.82c0.25-2.46-0.47-4.9-1.8-7c2.23,0.96,3.68,2.41,4.59,3.72C312.13,182.2,312.19,186.53,311.21,189.19
				z"/>
			<path style="fill:#931FA0;" d="M288.22,191.37c-4.59,2.48-6.01,6.7-6.44,8.88c-1.31-0.8-2.89-1.47-4.8-1.93
				c1.06-0.23,2.09-0.58,3.07-1.09c0.86-0.44,1.66-1.01,2.3-1.73c1.46-1.67,1.9-4.04,1.6-6.23c-0.23-1.68-0.86-3.26-1.64-4.76
				C286.15,186.37,287.86,190.43,288.22,191.37z"/>
			<path style="fill:#DD45DA;" d="M292.549,210.877c-3.214,0-3.568,5.246-0.474,5.246
				C295.289,216.123,295.644,210.877,292.549,210.877z"/>
			<path style="fill:#DD45DA;" d="M313.551,194.143c-0.325-0.429-0.944-0.916-1.518-0.916c-0.65,0-1.179,0.068-1.687,0.521
				c-0.466,0.415-0.742,1.012-0.797,1.63c-0.058,0.655,0.127,1.33,0.525,1.855c0.325,0.429,0.944,0.916,1.518,0.916
				c0.65,0,1.179-0.068,1.687-0.521c0.466-0.415,0.742-1.012,0.797-1.63C314.135,195.342,313.949,194.668,313.551,194.143z"/>
			<path style="fill:#DD45DA;" d="M274.107,184.699c-1.026,0-1.834,0.601-1.929,1.681c-0.077,0.876,0.558,2.171,1.59,2.171
				c1.026,0,1.834-0.601,1.929-1.681C275.773,185.994,275.139,184.699,274.107,184.699z"/>
			<path style="fill:#FF99CC;" d="M290.996,194.284c-3.33,0-3.701,5.432-0.493,5.432
				C293.834,199.716,294.205,194.284,290.996,194.284z"/>
			<path style="fill:#FF99CC;" d="M276.885,202.196c-0.827,0-1.472,0.486-1.547,1.356c-0.061,0.704,0.446,1.753,1.278,1.753
				c0.827,0,1.472-0.486,1.547-1.355C278.223,203.245,277.716,202.196,276.885,202.196z"/>
			<path style="fill:#FF99CC;" d="M294.208,177.321c-4.386,0-4.918,7.107-0.665,7.107
				C297.928,184.429,298.46,177.321,294.208,177.321z"/>
		</g>
	</g>
</g>
</svg>
