<?xml version="1.0" encoding="utf-8"?>
<!-- Generator: Adobe Illustrator 27.5.0, SVG Export Plug-In . SVG Version: 6.00 Build 0)  -->
<svg version="1.1" id="Capa_1" xmlns="http://www.w3.org/2000/svg" xmlns:xlink="http://www.w3.org/1999/xlink" x="0px" y="0px"
	 viewBox="0 0 2122 2122" style="enable-background:new 0 0 2122 2122;" xml:space="preserve">
<g>
	<path style="fill:#65817C;" d="M985.616,1858.935c123.613-16.11,247.118-49.191,352.431-115.924
		c45.605-28.901,87.97-64.821,123.388-106.397c-24.163-3.532-47.162-15.844-62.261-35.031c-7.255,30.511-25.718,58.124-53.25,72.826
		c-10.994,5.873-23.013,9.637-35.196,12.209c-38.226,8.012-80.053,3.818-112.865-17.327c-23.121-14.862-37.332-36.655-44.67-61.237
		c-11.885,31.486-28.616,61.698-56.555,81.732c-29.371,21.089-70.007,28.209-102.551,12.48
		c-32.541-15.728-52.602-56.58-39.822-90.422c-18.085,49.408-58.424,94.943-110.645,101.035
		c-52.251,6.09-108.533-43.722-94.862-94.511c-21.876,30.702-46.295,60.86-78.889,79.81c-32.57,18.953-75.045,24.853-107.803,6.173
		c-32.758-18.652-48.893-65.839-27.208-96.674c-31.973,21.71-65.841,44.099-104.338,47.294c-7.501,0.616-15.194,0.178-22.753-1.165
		c6.076,57.257,18.08,117.858,40.107,173.537C623.035,1871.281,806.503,1882.244,985.616,1858.935z"/>
	<path style="fill:#51736C;" d="M1685.82,1551.284c-38.036,17.082-84.738,6.957-117.496-18.843
		c4.738,41.447-21.36,84.465-60.29,99.41c-14.808,5.684-30.945,7.05-46.599,4.763c-35.418,41.576-77.783,77.496-123.388,106.397
		c-105.313,66.733-228.818,99.814-352.431,115.924c-179.113,23.308-362.581,12.346-537.741-31.593
		c3.547,8.96,7.335,17.812,11.425,26.475c0,0,592.886,319.457,1220.971-59.559c0,0,50.031-112.623,43.973-277.447
		C1715.092,1531.688,1701.715,1544.144,1685.82,1551.284z"/>
	<path style="fill:#F18642;" d="M534.669,1415.486c43.613,2.466,82.409-48.891,123.235-33.352
		c32.648,12.453,39.255,59.585,70.47,75.342c34.68,17.488,72.823-13.077,109.805-24.989c99.22-31.997,206.645,74.641,303.887,37.036
		c63.946-24.716,98.005-104.823,165.279-117.927c44.346-8.663,91.342,15.269,134.524,2.002
		c43.072-13.183,68.141-61.345,67.303-106.368c-0.867-45.047-22.309-87.091-46.755-124.911
		c-49.462-76.453-113.786-143.052-187.856-195.897c-281.691-78.782-596.082,15.757-795.12,237.912
		c-34.763,38.797-62.485,87.715-83.276,135.255c-1.596,3.656-5.359,17.354-9.474,31.622c18.029,1.055,35.491,5.657,50.84,15.323
		C471.807,1368.11,494.223,1413.214,534.669,1415.486z"/>
	<path style="fill:#DE6C45;" d="M1884.314,1346.1c-20.925-44.453-81.001-49.598-130.109-48.407
		c-71.174-124.694-205.995-244.085-331.693-311.685c-47.676-25.637-97.298-45.428-147.951-59.586
		c74.07,52.845,138.394,119.444,187.856,195.897c24.446,37.82,45.888,79.863,46.755,124.911
		c0.838,45.023-24.231,93.184-67.303,106.368c-43.182,13.267-90.178-10.665-134.524-2.002
		c-67.274,13.103-101.332,93.21-165.279,117.927c-97.242,37.605-204.667-69.033-303.887-37.036
		c-36.982,11.912-75.125,42.478-109.805,24.989c-31.215-15.756-37.822-62.889-70.47-75.342
		c-40.826-15.54-79.622,35.817-123.235,33.352c-40.445-2.272-62.862-47.376-97.137-68.952c-15.349-9.666-32.811-14.268-50.84-15.323
		c-5.118,17.949-10.801,36.765-13.374,37.657c-41.286,14.268-82.789,31.893-113.731,62.702
		c-19.14,19.03-34.166,46.536-26.261,72.309c8.122,26.558,38.443,41.123,66.192,40.231c27.749-0.894,53.549-13.673,78.321-26.18
		c-17.975,22.85-36.901,49.028-33.705,77.915c3.398,30.913,32.368,52.407,63.634,57.961c7.559,1.342,15.252,1.781,22.753,1.165
		c38.497-3.194,72.365-25.583,104.338-47.294c-21.685,30.836-5.549,78.022,27.208,96.674c32.758,18.68,75.233,12.78,107.803-6.173
		c32.594-18.95,57.013-49.108,78.889-79.81c-13.671,50.789,42.611,100.601,94.862,94.511c52.222-6.093,92.56-51.627,110.645-101.035
		c-12.779,33.842,7.281,74.694,39.822,90.422c32.543,15.729,73.179,8.608,102.551-12.48c27.939-20.034,44.67-50.246,56.555-81.732
		c7.337,24.582,21.549,46.375,44.67,61.237c32.811,21.145,74.638,25.34,112.865,17.327c12.183-2.572,24.202-6.336,35.196-12.209
		c27.532-14.702,45.995-42.315,53.25-72.826c15.099,19.186,38.097,31.498,62.261,35.031c15.654,2.287,31.791,0.921,46.599-4.763
		c38.93-14.945,65.028-57.964,60.29-99.41c32.757,25.8,79.459,35.925,117.496,18.843c15.895-7.14,29.272-19.596,38.423-34.473
		c12.748-20.721,17.248-46.171,8.438-68.784c36.682,13.13,79.269,15.973,113.352-2.923
		C1880.119,1426.208,1900.937,1381.348,1884.314,1346.1z"/>
	<path style="fill:#BF453C;" d="M1064.425,1106.673c-6.131-34.804,1.535-69.469-3.43-103.657
		c-0.911-6.258-10.392-6.767-13.145-1.717c-16.568,30.397-11.367,74.219-5.837,107.198c5.274,31.442,14.862,76.626,41.406,96.896
		c3.432,2.619,9.147-0.904,8.784-5.04c-1.313-14.989-8.117-26.93-13.369-40.923
		C1072.432,1142.376,1067.584,1124.607,1064.425,1106.673z"/>
	<path style="fill:#BF453C;" d="M851.573,1165.733c-2.539,3.803,1.659,8.77,5.829,7.581c32.948-9.398,61.471-45.554,80.894-72.022
		c21.298-29.026,44.541-67.542,46.399-104.416c0.346-6.899-9.289-8.945-12.614-3.415c-18.412,30.624-29.026,64.341-49.991,93.949
		c-11.237,15.868-24.082,30.826-37.737,44.66C873.368,1143.202,860.276,1152.69,851.573,1165.733z"/>
	<path style="fill:#BF453C;" d="M732.766,1093.964c31.827-0.222,68.385-22.979,94.908-39.028
		c31.174-18.86,61.552-41.099,84.808-69.35c3.888-4.724-1.398-13.71-7.176-9.301c-27.406,20.909-53.63,42.984-83.245,60.828
		c-14.239,8.577-28.925,16.217-43.909,23.398c-15.659,7.508-34.249,12.673-48.161,23.206
		C725.931,1086.792,726.82,1094.006,732.766,1093.964z"/>
	<path style="fill:#BF453C;" d="M1178.193,1096.191c23.835,25.688,54.614,47.328,89.715,53.045c5.05,0.821,8.265-5.515,3.586-8.506
		c-27.929-17.847-55.956-34.539-78.704-59.135c-10.923-11.81-20.324-24.833-28.321-38.784c-7.51-13.101-11.917-27.795-21.172-39.686
		c-4.046-5.199-12.17-0.575-12.275,5.084C1130.427,1039.699,1157.781,1074.191,1178.193,1096.191z"/>
	<path style="fill:#BF453C;" d="M1285.869,1049.35c28.097,18.521,57.415,31.415,89.834,40.066c5.347,1.427,9.354-6.955,3.912-9.277
		c-28.219-12.044-56.115-26.409-81.813-43.203c-25.934-16.945-46.609-40.653-72.231-57.42c-4.833-3.162-10.26,2.967-7.639,7.639
		C1232.466,1013.061,1261.436,1033.243,1285.869,1049.35z"/>
	<path style="fill:#BF453C;" d="M1653.544,1438.524c-10.314-19.818-41.081-2.073-30.073,17.581
		c7.411,13.228,14.911,26.407,22.387,39.598c10.553,18.617,38.253,2.163,28.558-16.692
		C1667.476,1465.508,1660.556,1451.993,1653.544,1438.524z"/>
	<path style="fill:#BF453C;" d="M1466.951,1497.701c-9.345-7.135-23.306,4.697-19.742,15.174
		c3.486,10.239,10.521,18.768,15.788,28.17c5.349,9.562,9.018,19.986,14.806,29.267c6.066,9.727,25.384,6.906,23.688-6.416
		C1498.636,1541.474,1485.189,1511.625,1466.951,1497.701z"/>
	<path style="fill:#BF453C;" d="M1269.404,1561.177c4.638,11.481,8.563,23.106,11.966,35.006
		c3.135,10.957,4.346,23.242,11.24,32.516c5.408,7.274,16.098,6.531,19.174-2.505c7.347-21.567-6.295-52.799-14.156-72.801
		C1290.795,1536.008,1262.361,1543.744,1269.404,1561.177z"/>
	<path style="fill:#BF453C;" d="M1784.266,1345.901c-12.548-5.698-25.169-14.027-39.15-9.089c-3.666,1.296-4.726,4.667-3.286,8.078
		c5.861,13.869,21.391,17.776,34.256,23.296c12.534,5.376,26.697,14.322,40.59,11.118c4.58-1.055,6.388-6.583,4.246-10.439
		C1813.939,1356.286,1796.755,1351.572,1784.266,1345.901z"/>
	<path style="fill:#BF453C;" d="M1053.808,1561.235c-24.918,6.556-28.137,52.041-27.983,72.818c0.137,18.407,29.172,18.395,28.585,0
		c-0.402-12.604,0.782-24.665,4.363-36.792c2.921-9.898,8.612-19.866,5.337-30.176
		C1062.729,1562.736,1058.335,1560.047,1053.808,1561.235z"/>
	<path style="fill:#BF453C;" d="M867.558,1558.344c-18.984,19.635-29.761,42.392-35.61,69.084
		c-1.174,5.367,0.779,11.006,5.642,13.863c3.391,1.995,5.708,2.097,9.459,1.237c3.769-0.862,7.949-4.616,8.575-8.575
		c3.678-23.298,12.324-46.022,23.23-66.896C882.525,1560.027,873.441,1552.261,867.558,1558.344z"/>
	<path style="fill:#BF453C;" d="M676.886,1557.494c-27.279,7.766-47.625,43.096-58.797,67.071
		c-7.452,15.988,16.317,30.013,23.815,13.92c5.79-12.429,12.523-24.49,20.69-35.53c7.905-10.692,19.118-19.742,24.706-31.915
		C690.493,1564.083,685.198,1555.128,676.886,1557.494z"/>
	<path style="fill:#BF453C;" d="M505.293,1514.105c-30.889,7.216-56.438,32.336-74.395,57.401
		c-10.119,14.122,12.943,27.023,23.094,13.498c16.98-22.619,38.943-37.596,60.107-55.769
		C521.346,1523.014,513.503,1512.188,505.293,1514.105z"/>
	<path style="fill:#BF453C;" d="M381.712,1419.611c-13.832-3.888-29.796,3.902-41.986,10.173
		c-14.173,7.291-28.984,16.561-39.42,28.758c-2.653,3.099-4.76,7.696-3.136,11.856c7.428,19.001,25.469,1.459,35.133-5.652
		c8.438-6.21,17.464-11.379,26.748-16.188c8.809-4.56,19.668-8.014,26.17-15.657
		C389.025,1428.434,387.814,1421.326,381.712,1419.611z"/>
	<path style="fill:#F18642;" d="M1699.988,1300.751c-22.667,7.647-51.739,34.728-45.498,61.123c0.341,1.445,2.37,1.62,3.094,0.405
		c5.856-9.849,8.543-21.096,15.135-30.658c7.539-10.931,18.058-18.928,29.747-24.994
		C1705.666,1304.965,1703.459,1299.579,1699.988,1300.751z"/>
	<path style="fill:#F18642;" d="M1605.209,1385.903c-30.68-0.233-76.419,16.699-85.981,49.365c-0.648,2.217,1.976,4.328,3.978,3.057
		c12.853-8.166,22.814-19.993,36.061-27.854c14.494-8.605,30.633-12.909,47.179-15.428
		C1611.739,1394.237,1610.304,1385.94,1605.209,1385.903z"/>
	<path style="fill:#F18642;" d="M1457.413,1446.977c-22.019-5.369-46.572-8.631-68.36-0.346
		c-13.99,5.318-31.094,17.125-31.325,33.481c-0.022,1.657,1.905,2.193,3.033,1.257c13.408-11.118,21.727-22.263,39.796-26.916
		c18.246-4.697,37.413-1.688,55.89-0.331C1460.553,1454.424,1461.362,1447.939,1457.413,1446.977z"/>
	<path style="fill:#F18642;" d="M1288.291,1498.025c-33.82-18.843-95.011-15.428-115.366,22.702
		c-1.303,2.443,1.291,4.935,3.705,3.703c16.66-8.504,30.536-19.555,49.395-23.65c19.939-4.331,39.973-1.622,59.201,4.511
		C1289.526,1506.665,1292.215,1500.212,1288.291,1498.025z"/>
	<path style="fill:#F18642;" d="M1107.287,1528.989c-34.772-22.021-93.671-26.378-125.344,4.105
		c-1.547,1.488,0.051,4.058,2.058,3.535c20.521-5.35,38.317-12.88,60.088-13.484c21.242-0.592,40.733,5.094,60.2,12.958
		C1108.52,1537.81,1110.854,1531.248,1107.287,1528.989z"/>
	<path style="fill:#F18642;" d="M921.887,1521.861c-35.41-18.782-104.395-27.854-135.425,4.341c-1.379,1.43-0.512,4.607,1.795,4.331
		c21.179-2.526,39.649-12.958,61.581-14.297c23.99-1.467,46.989,3.866,69.508,11.654
		C922.876,1529.114,925.178,1523.606,921.887,1521.861z"/>
	<path style="fill:#F18642;" d="M581.073,1515.162c-1.788,1.971-0.083,5.837,2.797,4.807c21.676-7.734,39.756-18.066,63.605-18.422
		c25.379-0.378,48.341,9.009,69.919,21.567c2.458,1.432,5.196-1.969,3.074-3.985
		C685.916,1486.293,615.931,1476.692,581.073,1515.162z"/>
	<path style="fill:#F18642;" d="M438.16,1455.436c-4.28,1.077-3.481,8.048,1.057,7.81c36.529-1.922,67.513,5.466,97.978,26.273
		c2.743,1.873,5.739-2.243,3.486-4.516C514.457,1458.558,474.667,1446.234,438.16,1455.436z"/>
	<path style="fill:#F5A480;" d="M569.648,1356.585c21.671-6.073,44.132-15.535,56.238-34.504c3.949-6.188,6.658-13.635,5.22-20.831
		c-1.301-6.522-5.756-11.873-9.11-17.618c-13.62-23.335-8.836-52.923-0.356-78.577c8.48-25.654,20.385-51.091,19.871-78.107
		c-0.256-13.525-6.027-29.372-19.25-32.237c-7.82-1.693-15.756,1.817-22.806,5.598c-56.748,30.426-99.71,85.51-115.401,147.961
		C470.793,1301.05,507.176,1374.093,569.648,1356.585z"/>
	<path style="fill:#F5A480;" d="M735.568,1399.392c24.604,11.897,55.983,8.122,77.062-9.27c8.656-7.142,15.715-16.577,18.548-27.435
		c2.831-10.858,1.021-23.174-6.088-31.858c-8.546-10.439-22.76-14.076-33.737-21.922c-15.323-10.955-24.738-30.37-42.609-36.326
		c-30.477-10.156-61.759,24.962-59.856,53.912C690.705,1354.154,710.613,1387.323,735.568,1399.392z"/>
	<path style="fill:#F5A480;" d="M1366.417,1245.536c-12.436,6.239-26.602,8.09-39.547,13.193
		c-16.185,6.38-31.537,22.031-25.069,40.69c3.752,10.818,13.272,18.852,23.759,23.452c42.916,18.818,112.882,20.545,140.285-24.417
		c21.072-34.575,17.347-82.472-8.816-113.374c-10.504-12.404-28.711-22.409-42.434-13.695c-12.081,7.669-12.86,24.512-17.262,38.127
		C1392.334,1224.968,1380.938,1238.249,1366.417,1245.536z"/>
	<path style="fill:#BF453C;" d="M988.92,955.039c38.848,24.889,106.526,22.933,143.639-4.575c1.915-1.417,0.874-4.672-1.696-4.019
		c-23.33,5.924-44.865,13.491-69.376,14c-24.629,0.512-46.173-6.818-69.698-12.209C987.665,947.29,985.324,952.737,988.92,955.039z"
		/>
	<path style="fill:#BF453C;" d="M1634.585,1191.331c22.458,24.867,41.001,52.517,57.937,81.338c1.496,2.545,6.131,0.84,4.948-2.088
		c-22.643-56.01-69.861-123.418-127.447-147.739c-3.566-1.508-7.554,2.536-4.409,5.713
		C1587.535,1150.712,1613.515,1168.001,1634.585,1191.331z"/>
	<path style="fill:#BF453C;" d="M1588.292,1186.393c-3.456-1.722-7.023,2.507-4.204,5.447c20.36,21.237,43.057,38.777,60.818,62.672
		c3.111,4.188,10.197,0.314,7.159-4.185C1635.51,1225.83,1615.157,1199.777,1588.292,1186.393z"/>
	<path style="fill:#BF453C;" d="M433.933,1423.952c-6.345-18.341-21.439-36.017-37.727-46.1c-2.887-1.788-5.574,2.146-3.483,4.516
		c6.327,7.182,13.006,14.178,19.186,21.525c6.163,7.327,10.947,15.557,16.792,23.104
		C430.628,1429.484,434.913,1426.78,433.933,1423.952z"/>
	<path style="fill:#E6CECC;" d="M956.291,558.803c44.706,35.237,72.103,91.469,72.297,148.392
		c0.2,58.428-27.822,108.441-68.602,148.073c149.69,6.253,248.835-198.263,154.573-313.605
		c-27.028-33.069-67.959-51.269-100.042-79.461c-45.613-40.085-71.805-101.34-69.272-162.01
		c2.534-60.672,33.739-119.53,82.539-155.671c-51.264-11.44-104.263,12.848-145.294,45.637
		c-41.927,33.508-76.865,77.834-90.908,129.637c-14.042,51.8-4.707,111.369,31.315,151.157
		C858.776,510.579,914.311,525.712,956.291,558.803z"/>
	<path style="fill:#E6CECC;" d="M1121.411,855.767c112.886-7.598,212.821-96.87,240.302-204.713
		c3.791-14.877,6.327-30.514,3.172-45.54c-6.757-32.185-37.003-53.291-54.373-81.218c-27.413-44.075-17.734-107.505,21.576-141.398
		c-34.952,0.934-70.192,13.525-95.113,38.051c-24.921,24.526-38.236,61.493-30.855,95.669c4.594,21.279,16.473,40.163,24.543,60.38
		c20.054,50.238,15.598,108.436-6.329,157.888C1202.001,785.253,1163.925,822.315,1121.411,855.767z"/>
</g>
</svg>
