<?xml version="1.0" encoding="utf-8"?>
<!-- Generator: Adobe Illustrator 27.5.0, SVG Export Plug-In . SVG Version: 6.00 Build 0)  -->
<svg version="1.1" xmlns="http://www.w3.org/2000/svg" xmlns:xlink="http://www.w3.org/1999/xlink" x="0px" y="0px"
	 viewBox="0 0 500 500" style="enable-background:new 0 0 500 500;" xml:space="preserve">
<g id="BACKGROUND">
	<rect style="fill:#D9FFEB;" width="500" height="500"/>
</g>
<g id="OBJECTS">
	<ellipse style="fill:#E1EFF7;" cx="249.97" cy="417.133" rx="143.07" ry="28.334"/>
	<path style="opacity:0.5;fill:#FFFFFF;" d="M425.992,194.624c-11.333-37.046-16.083-27.886-45.368-53.53
		c-9.117-7.983-5.587-55.488-43.778-64.975c-27.706-6.883-45.31,40.606-73.802,40.786c-12.115,0.077-22.936-7.177-33.98-12.334
		c-11.044-5.157-25.063-7.959-34.465-0.049c-10.217,8.595-9.534,23.811-15.384,35.023c-8.494,16.279-25.713,16.931-41.393,12.597
		c-11.293-3.121-22.75-7.744-34.303-5.906c-14.466,2.302-26.291,15.245-29.344,30.066c-3.29,15.975,2.498,32.407,9.506,47.042
		c3.42,7.141,7.184,14.209,10.442,21.447c3.419,7.595,6.28,15.377,7.599,23.629c3.291,20.575-3.333,42.359,2.824,62.216
		c6.456,20.819,27.87,35.497,48.9,33.518c14.838-1.396,28-9.896,41.372-16.7c10.744-5.467,23.332-10.475,35.532-8.658
		c13.162,1.96,23.754,12.391,34.54,19.629c26.927,18.069,61.827,22.784,92.33,12.475c14.008-4.735,28.015-13.593,33.11-27.909
		c6.044-16.982-1.463-38.522,9.619-52.518c4.77-6.024,12.033-9.161,18.341-13.409C443.755,259.914,433.419,218.902,425.992,194.624z
		"/>
	<g>
		<g>
			<path style="fill:#A6D3F0;" d="M349.213,377.46c-1.094,0-2.185-0.044-3.275-0.133c-16.425-1.343-29.985-6.207-43.963-15.772
				c-5.805-3.972-7.291-11.898-3.319-17.703c3.972-5.805,11.898-7.291,17.704-3.319c10.26,7.021,19.727,10.432,31.655,11.407
				c8.372,0.684,16.389-5.744,20.622-12.419c6.005-9.473,7.737-21.847,8.574-31.569c1.556-18.073,0.769-36.299-2.338-54.171
				c-1.307-7.517-3.212-16.096-7.43-22.732c-3.552-5.587-8.782-9.309-13.651-9.713c-2.408-0.201-5.372,0.281-9.333,1.514
				c-8.255,2.569-16.134,6.848-22.783,12.374c-5.41,4.496-13.439,3.755-17.936-1.655c-4.496-5.41-3.755-13.44,1.655-17.936
				c9.193-7.639,20.083-13.554,31.496-17.106c4.525-1.408,11.418-3.206,19.006-2.577c12.836,1.064,25.188,9.077,33.043,21.434
				c6.621,10.417,9.29,22.038,11.028,32.033c3.483,20.033,4.364,40.462,2.621,60.72c-1.086,12.608-3.481,28.892-12.439,43.023
				c-4.654,7.341-10.949,13.499-18.206,17.808C364.744,375.242,356.948,377.46,349.213,377.46z"/>
		</g>
		<path style="fill:#A6D3F0;" d="M313.004,403.929c-8.714,17.238-33.845,26.957-69.114,26.957c-35.27,0-60.4-9.72-69.115-26.957
			c-33.446-66.155-3.409-204.863,0-212.565c3.412-7.702,2.219-23.257,2.219-23.257c-1.247-1.062-1.907-2.172-1.907-3.315
			c-0.7-3.935,0-14.117,0-14.117c0-7.799,30.805-14.12,68.803-14.12s68.803,6.321,68.803,14.12c0,0,0.7,10.182,0,14.117
			c0,1.143-0.66,2.252-1.907,3.315c0,0-1.193,15.555,2.219,23.257C316.413,199.065,346.45,337.774,313.004,403.929z"/>
		
			<path style="fill:none;stroke:#EDF6FF;stroke-width:1.3189;stroke-linecap:round;stroke-linejoin:round;stroke-miterlimit:10;" d="
			M175.087,150.673c0-7.798,30.804-14.12,68.802-14.12c37.998,0,68.802,6.322,68.802,14.12"/>
		<g>
			<path style="fill:#49662E;" d="M214.464,148.243c-2.162-19.433-7.55-39.52-21.185-53.535
				c-7.63-7.844-17.483-13.336-27.919-16.627c-10.436-3.291-21.457-4.45-32.4-4.38c8.297,3.107,12.336,11.961,14.442,20.567
				c2.225,9.087,3.427,19.145,8.066,27.595C166.647,142.227,191.347,156.623,214.464,148.243z"/>
			<path style="fill:#2B3B1D;" d="M204.818,142.476c-0.206-0.757-0.182-1.42-0.51-2.144c-0.323-0.712-0.803-1.372-1.218-2.032
				c-0.84-1.334-1.7-2.656-2.577-3.965c-1.756-2.619-3.617-5.16-5.538-7.659c-3.856-5.015-7.983-9.805-12.255-14.468
				c-8.477-9.252-17.546-17.932-26.424-26.793c-0.432-0.431-1.025,0.293-0.607,0.722c8.798,9.01,17.395,18.221,25.43,27.925
				c3.893,4.701,7.647,9.528,11.206,14.488c1.837,2.559,3.613,5.165,5.35,7.792c0.87,1.315,1.721,2.643,2.552,3.982
				c0.405,0.653,0.762,1.415,1.261,2.002c0.473,0.555,1.107,0.854,1.626,1.355C203.963,144.501,205.074,143.418,204.818,142.476z"/>
		</g>
		<g>
			<path style="fill:#537732;" d="M214.494,150.431c8.721-17.5,15.087-37.299,11.23-56.469c-2.158-10.728-7.458-20.685-14.442-29.11
				c-6.984-8.424-15.616-15.375-24.848-21.25c5.286,7.11,3.878,16.739,0.982,25.112c-3.059,8.841-7.502,17.944-8.187,27.56
				C177.58,119.448,190.527,144.937,214.494,150.431z"/>
			<path style="fill:#2B3B1D;" d="M209.517,140.355c0.238-0.747,0.617-1.292,0.734-2.078c0.115-0.773,0.07-1.588,0.078-2.368
				c0.018-1.576,0.012-3.153-0.016-4.729c-0.055-3.152-0.241-6.297-0.5-9.438c-0.52-6.304-1.391-12.567-2.452-18.802
				c-2.105-12.37-5.018-24.581-7.673-36.84c-0.129-0.596-1.02-0.31-0.901,0.277c2.507,12.342,4.735,24.742,6.224,37.252
				c0.721,6.061,1.258,12.152,1.559,18.249c0.155,3.146,0.235,6.298,0.27,9.448c0.017,1.577,0.013,3.154-0.015,4.73
				c-0.014,0.769-0.128,1.602-0.026,2.366c0.096,0.723,0.467,1.318,0.632,2.02C207.701,141.593,209.221,141.285,209.517,140.355z"/>
		</g>
		<path style="fill:#EFE371;" d="M304.973,167.156c0,0-1.089,15.087,2.026,22.557c3.113,7.47,30.54,142.005,0,206.169
			c-7.957,16.719-30.905,26.146-63.11,26.146c-32.205,0-55.153-9.427-63.11-26.146c-30.54-64.164-3.112-198.698,0-206.169
			c3.116-7.47,2.026-22.557,2.026-22.557H304.973z"/>
		<path style="fill:#FBF8A9;" d="M182.739,161.9c1.19-2.494,3.267-4.639,3.681-7.371c0.15-0.992,0.071-2.026,0.383-2.979
			c1.2-3.662,7.133-3.98,8.238-7.672c0.511-1.707-0.249-3.549-0.014-5.315c0.502-3.782,5.019-5.525,7.029-8.768
			c1.295-2.089,1.577-4.864,3.476-6.424c1.901-1.562,4.784-1.342,6.778-2.783c1.902-1.375,2.645-4.015,4.669-5.205
			c0.938-0.551,2.042-0.721,3.102-0.967c2.902-0.673,5.735-2.06,7.595-4.388c1.304-1.632,2.091-3.668,3.605-5.108
			c1.975-1.878,4.821-2.422,7.35-3.439c2.458-0.989,5.192-2.497,7.567-1.323c1.281,0.633,2.108,1.929,3.314,2.693
			c2.237,1.417,5.333,0.769,7.571,2.183c2.25,1.421,2.937,4.467,5.006,6.141c2.397,1.939,6.051,1.588,8.497,3.465
			c2.217,1.701,2.879,4.786,4.815,6.801c2.85,2.966,7.903,3.091,10.462,6.311c1.755,2.208,1.879,5.346,3.471,7.675
			c1.105,1.618,2.817,2.701,4.219,4.069c1.62,1.582,2.816,3.538,3.982,5.479c3.731,6.21,7.453,12.926,7.22,20.167
			c-0.045,1.384-0.284,2.867-1.247,3.862c-1.865,1.925-5.028,0.957-7.707,0.881c-4.426-0.126-8.48,2.583-12.893,2.942
			c-3.404,0.277-6.747-0.86-10.134-1.292c-4.218-0.539-8.488,0.019-12.721,0.428c-15.384,1.488-30.883,1.015-46.331,0.541
			c-7.171-0.22-14.37-0.439-21.476-1.508C187.155,170.229,179.22,169.273,182.739,161.9z"/>
		<g>
			
				<rect x="271.937" y="31.17" transform="matrix(0.8968 0.4425 -0.4425 0.8968 73.9257 -117.4047)" style="fill:#BBFFE1;" width="33.276" height="137.117"/>
			<g>
				<defs>
					
						<rect id="SVGID_1_" x="271.937" y="31.17" transform="matrix(0.8968 0.4425 -0.4425 0.8968 73.9257 -117.4047)" width="33.276" height="137.117"/>
				</defs>
				<clipPath id="SVGID_00000159444667091879540510000007272677326495588742_">
					<use xlink:href="#SVGID_1_"  style="overflow:visible;"/>
				</clipPath>
				
					<rect x="267.228" y="54.411" transform="matrix(0.7108 0.7034 -0.7034 0.7108 137.6007 -208.953)" style="clip-path:url(#SVGID_00000159444667091879540510000007272677326495588742_);fill:#65A384;" width="111.312" height="16.865"/>
				
					<rect x="249.496" y="72.327" transform="matrix(0.7108 0.7034 -0.7034 0.7108 145.0748 -191.2973)" style="clip-path:url(#SVGID_00000159444667091879540510000007272677326495588742_);fill:#65A384;" width="111.312" height="16.865"/>
				
					<rect x="249.496" y="72.327" transform="matrix(0.7108 0.7034 -0.7034 0.7108 145.0748 -191.2973)" style="clip-path:url(#SVGID_00000159444667091879540510000007272677326495588742_);fill:#65A384;" width="111.312" height="16.865"/>
				
					<rect x="231.764" y="90.243" transform="matrix(0.7108 0.7034 -0.7034 0.7108 152.5487 -173.6415)" style="clip-path:url(#SVGID_00000159444667091879540510000007272677326495588742_);fill:#65A384;" width="111.312" height="16.865"/>
				
					<rect x="231.764" y="90.243" transform="matrix(0.7108 0.7034 -0.7034 0.7108 152.5487 -173.6415)" style="clip-path:url(#SVGID_00000159444667091879540510000007272677326495588742_);fill:#65A384;" width="111.312" height="16.865"/>
				
					<rect x="214.032" y="108.159" transform="matrix(0.7108 0.7034 -0.7034 0.7108 160.0228 -155.9858)" style="clip-path:url(#SVGID_00000159444667091879540510000007272677326495588742_);fill:#65A384;" width="111.312" height="16.865"/>
				
					<rect x="214.032" y="108.159" transform="matrix(0.7108 0.7034 -0.7034 0.7108 160.0228 -155.9858)" style="clip-path:url(#SVGID_00000159444667091879540510000007272677326495588742_);fill:#65A384;" width="111.312" height="16.865"/>
				
					<rect x="196.3" y="126.076" transform="matrix(0.7108 0.7034 -0.7034 0.7108 167.4968 -138.3301)" style="clip-path:url(#SVGID_00000159444667091879540510000007272677326495588742_);fill:#65A384;" width="111.312" height="16.865"/>
			</g>
		</g>
		<path style="fill:#FBF8A9;" d="M242.861,153.477c2.825-0.974,6.275,0.567,7.435,3.32c0.852-2.424,1.75-4.925,3.508-6.799
			c1.758-1.874,4.627-2.962,6.964-1.894c2.096,0.957,3.16,3.266,4.052,5.391c1.254-2.626,3.281-4.876,5.763-6.396
			c1.674-1.025,3.738-1.727,5.593-1.085c2.651,0.918,3.705,4.032,4.409,6.748c1.064-2.038,3.027-4.435,5.142-3.534
			c0.597,0.255,1.06,0.748,1.444,1.272c1.818,2.48,2.166,5.721,2.267,8.795c0.107,3.237-0.123,6.818-2.381,9.14
			c-2.139,2.199-5.469,2.622-8.529,2.844c-8.324,0.602-16.688,0.643-25.017,0.122c-2.672-0.167-5.459-0.43-7.725-1.857
			C241.404,166.782,235.218,156.112,242.861,153.477z"/>
		<path style="fill:#A6D3F0;" d="M312.692,164.791c0,7.799-30.805,14.12-68.803,14.12s-68.803-6.321-68.803-14.12
			c-0.7-3.935,0-14.117,0-14.117c0,7.796,30.805,14.117,68.803,14.117s68.803-6.321,68.803-14.117
			C312.692,150.674,313.393,160.856,312.692,164.791z"/>
		
			<path style="fill:none;stroke:#EDF6FF;stroke-width:1.3189;stroke-linecap:round;stroke-linejoin:round;stroke-miterlimit:10;" d="
			M312.691,150.673c0,7.798-30.804,14.12-68.802,14.12c-37.998,0-68.802-6.322-68.802-14.12"/>
		<g>
			<path style="fill:#FFFFE2;" d="M217.963,207.427c-0.919-1.982-2.559-3.569-4.66-4.237c-3.998-1.271-6.912,1.541-8.873,4.682
				c-0.802-2.204-1.681-4.476-4.596-3.923c-3.42,0.649-4.623,5.191-4.214,8.129c0.191,1.371,2.232,0.934,2.304-0.312
				c0.064-1.097,0.952-6.73,3.163-5.003c0.636,0.497,0.802,1.559,0.998,2.281c0.253,0.93,0.527,1.797,1.022,2.631
				c0.501,0.846,1.892,0.937,2.37,0c1.254-2.462,3.578-6.993,7.089-5.612c1.428,0.562,2.295,1.964,2.674,3.391
				c0.361,1.361,0.083,2.867,1.2,3.899c0.471,0.436,1.156,0.436,1.629,0C219.649,211.901,218.741,209.105,217.963,207.427z"/>
			<path style="fill:#FFFFE2;" d="M274.974,231.261c-1.554-3.532-5.027-5.473-8.651-6.303c0.677-1.717,1.009-3.869-0.499-4.852
				c-0.998-0.65-2.235-0.198-3.269,0.129c-1.595,0.503-3.121,1.191-4.583,2.001c-1.025,0.568-0.124,2.055,0.909,1.556
				c1.263-0.611,3.34-1.752,4.802-1.702c0.444-0.29,0.709-0.197,0.795,0.278c-0.089,0.33-0.194,0.655-0.315,0.974
				c-0.273,0.703-0.657,1.315-1.073,1.939c-0.643,0.966,0.244,1.947,1.187,2.068c2.552,0.329,5.252,1.351,6.979,3.333
				c0.867,0.994,1.622,2.387,1.467,3.75c-0.185,1.624-1.389,1.896-2.685,2.431c-0.764,0.315-1.111,1.194-0.49,1.856
				c1.618,1.721,4.221,0.593,5.331-1.159C276.083,235.662,275.845,233.239,274.974,231.261z"/>
			<path style="fill:#FFFFE2;" d="M238.788,248.33c-1.451-0.596-2.984-0.45-4.313,0.376c-0.393,0.244-1.253,0.74-1.755,1.165
				c0-0.007,0-0.015-0.001-0.022c0.102-0.409,0.041-1.163,0.031-1.585c-0.079-3.218-2.457-5.232-5.647-4.254
				c-3.185,0.977-5.362,4.106-6.363,7.129c-0.44,1.329,1.614,1.865,2.081,0.574c0.812-2.248,2.749-5.129,5.35-5.496
				c3.318-0.468,1.198,4.279,2.261,5.969c1.368,2.175,3.718,0.206,5.109-0.75c1.123-0.772,2.338-0.766,3.193,0.427
				c0.999,1.393,0.266,3.098,0.14,4.617c-0.123,1.475,2.033,1.933,2.713,0.735C243.293,254.212,242.069,249.678,238.788,248.33z"/>
			<path style="fill:#FFFFE2;" d="M200.637,270.173c-2.185-0.303-4.258,0.634-5.573,2.223c-0.376-0.595-0.843-1.119-1.433-1.507
				c-1.828-1.204-4.033-0.531-5.56,0.853c-2.821,2.557-3.245,7.161-0.943,10.182c0.766,1.005,2.495,0.058,1.736-1.015
				c-1.369-1.935-1.443-4.556-0.093-6.543c0.745-1.096,2.457-2.527,3.731-1.38c0.845,0.761,1.004,2.311,1.193,3.36
				c0.288,1.593,2.546,1.066,2.66-0.36c0.165-2.062,2.488-3.499,4.418-2.825c2.231,0.779,2.204,2.943,3.242,4.679
				c0.432,0.722,1.659,0.831,2.062,0C207.708,274.477,203.84,270.617,200.637,270.173z"/>
			<path style="fill:#FFFFE2;" d="M250.437,295.064c-2.347-1.731-5.547-2.23-8.279-1.28c-0.269-2.54-1.134-5.68-3.391-5.748
				c-2.832-0.086-4.977,4.005-5.513,6.289c-0.274,1.165,1.484,1.658,1.798,0.496c0.24-0.887,0.582-1.721,1.105-2.481
				c0.376-0.547,1.553-2.104,2.305-2.068c1.202,0.057,0.952,4.962,0.835,5.907c-0.133,1.074,1.37,1.898,2.223,1.276
				c1.822-1.328,4.15-1.508,6.18-0.501c1.622,0.804,3.726,3.3,1.849,4.921c-1.445,1.247,0.449,3.715,2.048,2.654
				C255.19,302.146,253.296,297.173,250.437,295.064z"/>
			<path style="fill:#FFFFE2;" d="M297.632,279.556c-0.66-1.551-1.946-2.76-3.512-3.378c-0.716-0.283-1.496-0.458-2.271-0.456
				c-0.344,0.001-1.048,0.194-1.662,0.265c0.841-2.436,0.988-5.272-1.501-6.789c-2.882-1.757-6.519,1.397-8.283,3.484
				c-0.833,0.985,0.525,2.4,1.437,1.437c0.935-0.987,3.54-3.505,5.119-2.948c2.094,0.74,0.294,3.872-0.286,4.988
				c-0.339,0.653-0.253,1.394,0.25,1.934c1.914,2.058,4.508,0.002,6.589,1.423c1.027,0.702,1.517,1.862,1.187,3.074
				c-0.303,1.115-1.264,1.796-1.527,2.943c-0.191,0.83,0.371,1.455,1.172,1.538C297.893,287.439,298.645,281.937,297.632,279.556z"
				/>
			<path style="fill:#FFFFE2;" d="M270.642,337.511c-0.392-2.15-1.375-4.521-3.356-5.665c-2.122-1.226-4.606-0.546-6.64,0.503
				c-1.808,0.932-3.584,2.052-5.313,3.198c-0.79-2.013-2.653-3.616-4.931-3.631c-3.124-0.021-4.576,2.523-6.49,4.469
				c-0.859-2.381-1.493-5.279-4.356-5.36c-3.529-0.1-4.852,3.374-5.419,6.252c-0.248,1.256,1.624,1.803,1.939,0.535
				c0.262-1.055,0.506-2.211,1.13-3.124c0.592-0.866,2.054-1.763,2.904-0.711c0.52,0.642,0.479,2.107,0.712,2.889
				c0.287,0.966,0.719,1.875,1.217,2.748c0.392,0.687,1.4,0.996,2.084,0.546c1.775-1.167,2.831-2.944,4.442-4.268
				c0.789-0.648,1.677-1.087,2.653-0.549c1.052,0.58,1.423,1.677,1.031,2.771c-0.521,1.453,1.294,2.646,2.519,1.937
				c1.834-1.061,3.611-2.228,5.407-3.35c1.275-0.796,3.205-2.328,4.828-1.999c1.561,0.316,1.861,2.592,1.93,3.877
				c0.1,1.849-0.788,3.644-0.433,5.431c0.275,1.383,1.96,1.508,2.871,0.758C271.224,343.241,271.033,339.655,270.642,337.511z"/>
			<path style="fill:#FFFFE2;" d="M208.604,360.581c-1.543-0.52-3.482,0.228-5.093,0.269c-1.436,0.036-4.059,0.219-4.473-1.574
				c-0.335-1.453,0.447-3.224,0.838-4.595l1.686-5.908c0.387-1.357-1.41-2.451-2.4-1.397c-0.658,0.7-1.735,0.093-2.098-0.649
				c-0.711-1.452,0.568-3.169,1.493-4.17c1.087-1.176-0.605-2.883-1.763-1.763c-2.041,1.975-3.822,5.368-1.779,7.976
				c0.752,0.96,1.876,1.579,3.031,1.721c-0.549,1.804-1.099,3.609-1.574,5.429c-0.505,1.936-0.79,4.177,0.489,5.887
				c1.297,1.734,3.618,2.007,5.629,2.087c2.167,0.087,5.2,0.028,6.621-1.822C209.637,361.518,209.154,360.766,208.604,360.581z"/>
			<path style="fill:#FFFFE2;" d="M252.112,379.862c-1.225-0.515-2.602-0.123-3.896-0.07c-1.451,0.059-2.847-0.028-4.166-0.686
				c-2.043-1.019-3.553-4.066-0.934-5.487c1.208-0.655,0.147-2.349-1.057-1.809c-3.309,1.486-3.4,5.921-1.177,8.373
				c1.326,1.463,3.199,2.21,5.125,2.454c2.02,0.255,4.938,0.278,6.53-1.165C253.134,380.932,252.729,380.121,252.112,379.862z"/>
			<path style="fill:#FFFFE2;" d="M301.173,230.79c-1.481-2.673-5.985-2.447-6.151,0.972c-0.072,1.491,2.193,1.465,2.304,0
				c0.072-0.941,1.387-0.28,1.639,0.085c0.431,0.624,0.366,1.607,0.212,2.305c-0.157,0.717-0.482,1.383-0.87,2.002
				c-0.414,0.66-0.996,1.146-1.105,1.939c-0.075,0.549,0.211,1.056,0.818,1.074c1.706,0.05,2.875-2.039,3.36-3.454
				C301.919,234.143,301.997,232.278,301.173,230.79z"/>
			<path style="fill:#FFFFE2;" d="M255.871,196.28c-0.485-1.378-1.54-2.544-2.951-3.002c-3.892-1.262-5.216,3.455-6.086,6.239
				c-0.433,1.386,1.699,1.951,2.161,0.596c0.428-1.255,1.4-5.541,3.444-4.375c2.085,1.189,0.471,3.952,1.69,5.535
				c0.312,0.405,0.746,0.467,1.151,0.148C256.65,200.344,256.386,197.744,255.871,196.28z"/>
			<path style="fill:#FFFFE2;" d="M296.476,354.743c-0.246-1.617-0.565-3.699-2.346-4.221c-0.441-0.129-0.97,0.084-1.195,0.486
				c-0.917,1.643,0.334,3.85,0.423,5.628c0.042,0.842-0.176,6.27-1.99,5.075c-0.836-0.551-2.247-0.038-2.431,0.989
				c-0.539,3.011-1.232,7.58-4.916,8.199c-1.698,0.285-2.306-1.071-3.784-1.313c-1.084-0.177-2.14,0.602-2.038,1.739
				c0.085,0.947,1.167,1.343,1.788,0.675c-0.466,0.507-0.901,0.081-0.109,0.837c0.246,0.235,0.541,0.449,0.833,0.619
				c0.669,0.391,1.444,0.596,2.212,0.664c1.537,0.135,3.142-0.299,4.443-1.12c2.716-1.713,3.789-4.743,4.436-7.75
				c2.338-0.016,4.152-2.624,4.588-4.978C296.73,358.434,296.757,356.592,296.476,354.743z"/>
			<path style="fill:#FFFFE2;" d="M225.468,396.071c-2.134-0.719-4.153,1.834-6.413,0.762c-2.83-1.341-0.556-5.24,0.522-6.972
				c0.619-0.995-0.912-2.244-1.662-1.282c-2.209,2.835-4.744,7.187-1.32,10.236c1.363,1.214,3.349,1.508,5.095,1.198
				c1.56-0.277,3.975-1.158,4.385-2.874C226.189,396.664,225.926,396.225,225.468,396.071z"/>
			<path style="fill:#FFFFE2;" d="M302.991,323.132c-0.542-1.473-1.605-2.688-3.027-3.362c-0.974-0.461-1.832,0.947-0.856,1.465
				c1.083,0.575,1.858,1.514,2.167,2.712c0.249,0.966-0.035,2.043,0.371,2.946c0.124,0.276,0.534,0.347,0.774,0.203
				C303.688,326.333,303.424,324.309,302.991,323.132z"/>
			<path style="fill:#FFFFE2;" d="M274.294,397.476c-0.22-0.508-0.942-0.389-1.194,0c-1.177,1.819-0.905,4.779-2.989,5.929
				c-2.383,1.315-3.674-1.904-4.259-3.619c-0.418-1.226-2.309-0.734-1.959,0.54c0.801,2.918,2.639,6.556,6.3,5.737
				C273.807,405.255,275.709,400.744,274.294,397.476z"/>
			<path style="fill:#FFFFE2;" d="M219.543,141.071c-0.716-1.302-1.766-2.617-3.406-2.427c-1.322,0.153-2.236,1.127-2.991,2.206
				c-0.842-1.371-1.988-2.495-3.469-0.873c-1.608,1.76-1.617,4.816-1.332,7.015c0.161,1.235,1.873,1.295,1.969,0
				c0.094-1.268,0.024-2.611,0.353-3.849c0-0.002,0.29-0.985,0.324-1.407c0.236,0.497,0.964,1.888,1.037,2.033
				c0.428,0.85,1.579,0.682,2.045,0c0.37-0.54,1.333-2.514,2.025-2.697c0.75-0.198,0.952,0.732,1.415,1.204
				c0.295,0.301,0.765,0.43,1.171,0.31c0.092-0.027,0.185-0.055,0.278-0.083C219.574,142.32,219.85,141.629,219.543,141.071z"/>
			<path style="fill:#FFFFE2;" d="M233.047,114.432c-2.616,1.313-3.496,4.644-2.951,7.313c0.205,1.005,1.903,0.796,1.811-0.245
				c-0.139-1.576,0.242-3.355,1.424-4.492c0.557-0.536,1.237-0.833,1.938-0.381c0.534,0.344,0.735,1.054,1.118,1.541
				c0.501,0.637,1.614,0.251,1.784-0.471C238.797,115.031,235.138,113.382,233.047,114.432z"/>
			<path style="fill:#FFFFE2;" d="M243.238,137.017c-0.682-0.506-1.442-0.67-2.186-0.581c-0.251-1.118-0.904-2.086-2.206-2.248
				c-1.797-0.224-3.284,1.661-4.131,3.001c-0.763,1.206,1.113,2.273,1.899,1.11c0.34-0.502,0.867-1.278,1.434-1.554
				c0.888-0.432,0.693,0.53,0.599,1.187c-0.165,1.151,1.16,2.256,2.126,1.238c1.058-1.113,1.22,0.602,1.474,1.249
				c0.269,0.683,1.101,1.021,1.681,0.444C245.047,139.749,244.397,137.876,243.238,137.017z"/>
			<path style="fill:#FFFFE2;" d="M278.776,147.553c-1.437-1.831-3.691-2.117-5.871-1.775c-3.226,0.507-6.221,2.332-8.195,4.926
				c-1.716-2.251-4.607-3.577-7.489-3.209c-3.711,0.475-5.981,3.599-7.379,6.864c-2.605-2.401-6.553-2.496-9.369,0.172
				c-0.59,0.559,0.201,1.646,0.888,1.152c2.691-1.935,6.314-1.117,7.786,1.86c0.527,1.065,1.968,0.631,2.316-0.303
				c1.015-2.723,2.396-6.546,5.708-7.087c2.715-0.444,5.398,1.488,5.956,4.123c0.254,1.2,2.254,1.566,2.776,0.363
				c1.186-2.738,3.45-4.873,6.431-5.477c1.457-0.295,3.131-0.4,3.899,1.067c0.849,1.623,1.009,3.52,1.835,5.146
				c0.801,1.577,3.098,0.729,3.162-0.856C281.32,152.29,280.149,149.304,278.776,147.553z"/>
			<path style="fill:#FFFFE2;" d="M296.669,153.042c-0.124-0.515-0.429-0.962-0.85-1.276c-0.452-0.337-1.2-0.332-1.586-0.69
				c-0.302-0.281-0.417-0.861-0.674-1.198c-0.349-0.458-0.809-0.77-1.396-0.821c-1.184-0.103-1.989,0.845-2.575,1.737
				c-0.399,0.607,0.545,1.359,1.02,0.787c0.194-0.234,0.604-0.845,0.945-0.844c0.442,0.001,0.383,0.582,0.473,0.896
				c0.216,0.76,0.68,1.327,1.399,1.662c0.114,0.053,0.883,0.237,0.911,0.301c-0.014-0.033-0.075,0.134-0.103,0.204
				c-0.139,0.352-0.503,0.496-0.491,0.982c0.008,0.319,0.134,0.553,0.34,0.787c0.356,0.404,0.966,0.404,1.411,0.182
				C296.482,155.259,296.923,154.099,296.669,153.042z"/>
			<path style="fill:#FFFFE2;" d="M227.511,151.763c-2.273,0.569-3.096,2.991-2.532,5.076c0.315,1.164,2.053,0.672,1.798-0.496
				c-0.204-0.936-0.012-2.196,1.061-2.501c0.931-0.264,1.238,0.695,1.539,1.376c0.271,0.612,1.144,0.479,1.45,0
				C232.133,153.181,229.377,151.296,227.511,151.763z"/>
			<path style="fill:#FFFFE2;" d="M255.888,120.262c-0.104-1.524-1.202-3.136-2.844-3.198c-1.749-0.066-3.165,1.66-3.799,3.104
				c-0.467,1.065,1.066,2.012,1.592,0.93c0.351-0.723,0.942-1.688,1.764-1.954c1.056-0.341,1.108,1.191,1.23,1.853
				c0.112,0.608,0.463,1.302,1.202,1.156C255.85,121.992,255.933,120.921,255.888,120.262z"/>
		</g>
		<g>
			<path style="fill:#C9BB3C;" d="M240.48,229.29c-0.104-0.371-0.292-0.693-0.563-0.966c-0.148-0.114-0.295-0.228-0.443-0.342
				c-0.341-0.198-0.71-0.298-1.105-0.299c-0.301-0.011-0.583,0.051-0.843,0.189c-0.271,0.088-0.506,0.239-0.704,0.453
				c-0.213,0.198-0.364,0.433-0.453,0.704c-0.137,0.261-0.2,0.542-0.189,0.843c0.026,0.194,0.052,0.388,0.078,0.582
				c0.104,0.371,0.292,0.693,0.563,0.966c0.148,0.114,0.295,0.228,0.443,0.342c0.341,0.198,0.71,0.298,1.105,0.299
				c0.301,0.011,0.583-0.051,0.843-0.188c0.271-0.088,0.506-0.239,0.704-0.453c0.213-0.198,0.364-0.433,0.453-0.704
				c0.137-0.261,0.2-0.542,0.188-0.843C240.532,229.678,240.506,229.484,240.48,229.29z"/>
			<path style="fill:#C9BB3C;" d="M237.081,222.343c-0.042-0.064-0.085-0.128-0.127-0.192c-0.204-0.31-0.514-0.513-0.895-0.513
				s-0.691,0.204-0.895,0.513l-0.127,0.192c-0.23,0.348-0.205,0.845,0,1.195c0.211,0.36,0.605,0.586,1.022,0.586
				c0.417,0,0.811-0.226,1.022-0.586C237.286,223.187,237.311,222.691,237.081,222.343z"/>
			<path style="fill:#C9BB3C;" d="M284.678,204.401c-0.056-0.132-0.111-0.264-0.167-0.395c-0.104-0.193-0.246-0.348-0.426-0.464
				c-0.16-0.146-0.347-0.245-0.563-0.296l-0.118-0.049c-0.302-0.081-0.604-0.081-0.907,0c-0.289,0.081-0.54,0.227-0.753,0.439
				c-0.089,0.115-0.178,0.23-0.267,0.345c-0.154,0.266-0.232,0.553-0.233,0.861c-0.009,0.235,0.04,0.454,0.147,0.657
				c0.069,0.211,0.186,0.394,0.353,0.549c0.213,0.211,0.464,0.357,0.753,0.438c0.302,0.081,0.604,0.081,0.907,0l0.118-0.048
				c0.132-0.056,0.263-0.111,0.395-0.167c0.193-0.104,0.348-0.246,0.464-0.426c0.103-0.103,0.173-0.225,0.213-0.365
				c0.104-0.197,0.151-0.41,0.143-0.638C284.717,204.695,284.698,204.548,284.678,204.401z"/>
			<path style="fill:#C9BB3C;" d="M288.388,201.915c-1.564,0-1.566,2.43,0,2.43C289.951,204.345,289.954,201.915,288.388,201.915z"
				/>
			<path style="fill:#C9BB3C;" d="M287.19,208.68c-1.227,0-1.229,1.906,0,1.906C288.416,210.586,288.418,208.68,287.19,208.68z"/>
			<path style="fill:#C9BB3C;" d="M190.093,239.641c-0.082-0.291-0.229-0.544-0.442-0.758c-0.116-0.09-0.232-0.179-0.348-0.269
				c-0.268-0.155-0.557-0.234-0.867-0.234c-0.237-0.009-0.457,0.04-0.662,0.148c-0.213,0.069-0.397,0.188-0.553,0.355
				c-0.167,0.156-0.286,0.34-0.355,0.553c-0.107,0.205-0.157,0.425-0.148,0.662c0.021,0.152,0.041,0.304,0.061,0.457
				c0.082,0.291,0.229,0.544,0.442,0.758c0.116,0.09,0.232,0.179,0.348,0.269c0.268,0.155,0.557,0.234,0.867,0.234
				c0.236,0.009,0.457-0.04,0.662-0.148c0.213-0.069,0.397-0.188,0.553-0.355c0.167-0.156,0.286-0.34,0.355-0.553
				c0.108-0.205,0.157-0.425,0.148-0.662C190.134,239.945,190.114,239.793,190.093,239.641z"/>
			<path style="fill:#C9BB3C;" d="M194.598,235.571c-1.2,0-1.202,1.864,0,1.864C195.798,237.436,195.8,235.571,194.598,235.571z"/>
			<path style="fill:#C9BB3C;" d="M193.4,242.302c-1.348,0-1.35,2.095,0,2.095C194.748,244.397,194.75,242.302,193.4,242.302z"/>
			<path style="fill:#C9BB3C;" d="M211.371,185.53c-1.725,0-1.728,2.681,0,2.681C213.096,188.211,213.099,185.53,211.371,185.53z"/>
			<path style="fill:#C9BB3C;" d="M271.527,288.559c-0.023-0.08-0.063-0.15-0.122-0.209c-0.042-0.071-0.099-0.128-0.17-0.17
				c-0.059-0.059-0.129-0.099-0.209-0.122c-0.113-0.059-0.234-0.087-0.365-0.082l-0.245,0.011c-0.377,0.017-0.719,0.191-0.913,0.524
				c-0.096,0.165-0.144,0.343-0.145,0.534c-0.005,0.146,0.025,0.281,0.091,0.408c0.043,0.131,0.116,0.245,0.219,0.34
				c0.132,0.131,0.288,0.222,0.467,0.272c0.187,0.05,0.375,0.05,0.562,0c0.179-0.05,0.335-0.141,0.467-0.272
				c0.055-0.067,0.111-0.134,0.166-0.201c0.104-0.126,0.199-0.258,0.243-0.418c0.011-0.084,0.023-0.168,0.034-0.252
				C271.613,288.794,271.586,288.672,271.527,288.559z"/>
			<path style="fill:#C9BB3C;" d="M280.515,288.994c-1.388,0-1.391,2.158,0,2.158C281.903,291.152,281.905,288.994,280.515,288.994z
				"/>
			<path style="fill:#C9BB3C;" d="M277.434,299.193c-1.038,0-1.04,1.613,0,1.613C278.472,300.806,278.474,299.193,277.434,299.193z"
				/>
			<path style="fill:#C9BB3C;" d="M202.24,306.379c-0.083-0.297-0.233-0.555-0.451-0.774c-0.113-0.109-0.237-0.206-0.372-0.29
				c-0.276-0.16-0.574-0.241-0.894-0.242c-0.035-0.003-0.07-0.006-0.105-0.009c-0.245-0.009-0.474,0.042-0.686,0.153
				c-0.221,0.072-0.412,0.194-0.573,0.368c-0.174,0.161-0.296,0.352-0.368,0.573c-0.112,0.212-0.163,0.441-0.153,0.686
				c0.021,0.158,0.043,0.316,0.064,0.473c0.085,0.302,0.237,0.564,0.458,0.786c0.12,0.093,0.24,0.186,0.36,0.278
				c0.278,0.161,0.577,0.242,0.899,0.243c0.035-0.003,0.07-0.006,0.105-0.009c0.32-0.001,0.618-0.082,0.894-0.242
				c0.135-0.084,0.259-0.181,0.372-0.29c0.171-0.159,0.292-0.347,0.363-0.564c0.11-0.209,0.16-0.434,0.151-0.675
				C202.281,306.69,202.26,306.535,202.24,306.379z"/>
			<path style="fill:#C9BB3C;" d="M241.682,359.265c-0.036-0.043-0.074-0.084-0.111-0.126c-0.073-0.056-0.146-0.112-0.218-0.169
				l-0.258-0.109c-0.228-0.074-0.488-0.036-0.703,0.054c-0.177,0.075-0.314,0.18-0.431,0.332c-0.141,0.182-0.242,0.417-0.232,0.654
				c0.017,0.376,0.203,0.737,0.534,0.931c0.21,0.123,0.45,0.16,0.688,0.128c0.222-0.03,0.467-0.122,0.62-0.297
				c0.187-0.214,0.394-0.46,0.38-0.763C241.941,359.653,241.846,359.458,241.682,359.265z"/>
			<path style="fill:#C9BB3C;" d="M257.411,354.856c-0.058-0.037-0.115-0.073-0.173-0.11c-0.303-0.193-0.721-0.178-1.026,0
				c-0.309,0.181-0.503,0.519-0.503,0.877c0,0.358,0.194,0.697,0.503,0.877c0.304,0.178,0.722,0.193,1.026,0
				c0.057-0.037,0.115-0.073,0.173-0.11c0.267-0.17,0.44-0.445,0.44-0.767C257.851,355.3,257.678,355.026,257.411,354.856z"/>
			<path style="fill:#C9BB3C;" d="M254.596,351.283c-0.072-0.257-0.202-0.481-0.391-0.67c-0.102-0.079-0.205-0.158-0.307-0.238
				c-0.237-0.137-0.492-0.206-0.767-0.207c-0.209-0.008-0.404,0.036-0.585,0.131c-0.188,0.061-0.351,0.166-0.489,0.314
				c-0.148,0.138-0.253,0.3-0.314,0.489c-0.095,0.181-0.139,0.376-0.131,0.585c0.018,0.135,0.036,0.269,0.054,0.404
				c0.072,0.257,0.202,0.481,0.391,0.67c0.103,0.079,0.205,0.158,0.307,0.237c0.237,0.137,0.492,0.207,0.767,0.207
				c0.209,0.008,0.404-0.036,0.585-0.131c0.188-0.061,0.351-0.166,0.489-0.314c0.148-0.138,0.253-0.301,0.314-0.489
				c0.095-0.181,0.139-0.376,0.131-0.585C254.632,351.552,254.614,351.417,254.596,351.283z"/>
			<path style="fill:#C9BB3C;" d="M232.593,315.435c-1.941,0-1.944,3.017,0,3.017C234.534,318.452,234.537,315.435,232.593,315.435z
				"/>
			<path style="fill:#C9BB3C;" d="M198.007,380.143c-0.084-0.298-0.234-0.557-0.452-0.776c-0.119-0.092-0.237-0.183-0.356-0.275
				c-0.275-0.159-0.571-0.239-0.888-0.24c-0.242-0.009-0.468,0.041-0.678,0.151c-0.218,0.071-0.407,0.192-0.566,0.364
				c-0.172,0.159-0.293,0.348-0.364,0.566c-0.11,0.21-0.161,0.436-0.152,0.678c0.021,0.156,0.042,0.312,0.063,0.468
				c0.084,0.298,0.234,0.557,0.452,0.776c0.119,0.092,0.237,0.184,0.356,0.275c0.274,0.159,0.57,0.239,0.888,0.24
				c0.242,0.009,0.468-0.041,0.678-0.152c0.218-0.071,0.407-0.192,0.566-0.364c0.172-0.159,0.293-0.348,0.364-0.566
				c0.11-0.21,0.161-0.436,0.151-0.678C198.049,380.455,198.028,380.299,198.007,380.143z"/>
			<path style="fill:#C9BB3C;" d="M207.606,385.938c-1.294,0-1.296,2.011,0,2.011C208.9,387.949,208.902,385.938,207.606,385.938z"
				/>
			<path style="fill:#C9BB3C;" d="M213.082,374.96c-1.766,0-1.769,2.744,0,2.744C214.848,377.704,214.851,374.96,213.082,374.96z"/>
			<path style="fill:#C9BB3C;" d="M241.237,409.381c-0.089-0.316-0.248-0.59-0.48-0.823c-0.126-0.097-0.252-0.194-0.377-0.291
				c-0.291-0.169-0.604-0.254-0.941-0.255c-0.257-0.01-0.496,0.044-0.718,0.161c-0.231,0.075-0.431,0.204-0.6,0.385
				c-0.182,0.169-0.31,0.369-0.386,0.6c-0.117,0.222-0.17,0.462-0.16,0.718l0.066,0.496c0.089,0.316,0.248,0.59,0.48,0.823
				c0.126,0.097,0.251,0.194,0.377,0.291c0.291,0.169,0.604,0.254,0.941,0.255c0.257,0.01,0.496-0.044,0.718-0.16
				c0.231-0.075,0.431-0.204,0.6-0.385c0.182-0.169,0.31-0.369,0.385-0.6c0.117-0.222,0.17-0.462,0.161-0.718
				C241.281,409.712,241.259,409.547,241.237,409.381z"/>
			<path style="fill:#C9BB3C;" d="M294.786,391.635c-0.079-0.282-0.222-0.527-0.428-0.735l-0.337-0.26
				c-0.26-0.151-0.54-0.227-0.841-0.227c-0.229-0.009-0.443,0.039-0.642,0.143c-0.206,0.067-0.385,0.182-0.536,0.344
				c-0.162,0.151-0.277,0.33-0.344,0.536c-0.104,0.198-0.152,0.412-0.143,0.642c0.02,0.148,0.04,0.295,0.059,0.443
				c0.079,0.282,0.222,0.527,0.428,0.735c0.112,0.087,0.225,0.174,0.337,0.26c0.26,0.151,0.54,0.227,0.84,0.227
				c0.229,0.009,0.443-0.039,0.642-0.143c0.207-0.067,0.385-0.182,0.536-0.344c0.162-0.151,0.277-0.329,0.344-0.536
				c0.104-0.198,0.152-0.412,0.143-0.642C294.825,391.93,294.806,391.782,294.786,391.635z"/>
			<path style="fill:#C9BB3C;" d="M288.435,335.617c-0.138-0.148-0.3-0.253-0.489-0.314c-0.181-0.095-0.376-0.139-0.585-0.131
				c-0.134,0.018-0.269,0.036-0.404,0.054c-0.257,0.072-0.481,0.202-0.67,0.391c-0.42,0.421-0.555,1.016-0.391,1.583
				c0.051,0.121,0.102,0.242,0.153,0.363c0.096,0.177,0.226,0.319,0.391,0.426c0.095,0.094,0.207,0.159,0.335,0.195
				c0.181,0.095,0.376,0.139,0.585,0.131c0.135-0.018,0.269-0.036,0.404-0.054c0.121-0.051,0.242-0.102,0.363-0.153
				c0.177-0.095,0.319-0.226,0.426-0.391c0.134-0.147,0.225-0.319,0.272-0.517C288.99,336.633,288.854,336.039,288.435,335.617z"/>
			<path style="fill:#C9BB3C;" d="M306.529,299.379c-1.9,0-1.904,2.954,0,2.954C308.43,302.332,308.433,299.379,306.529,299.379z"/>
			<path style="fill:#C9BB3C;" d="M257.002,263.947c-0.081-0.289-0.228-0.54-0.439-0.753l-0.346-0.267
				c-0.266-0.154-0.553-0.232-0.862-0.233c-0.235-0.009-0.454,0.04-0.658,0.147c-0.212,0.069-0.395,0.186-0.549,0.353
				c-0.166,0.155-0.284,0.338-0.353,0.549c-0.107,0.203-0.156,0.423-0.147,0.658c0.02,0.151,0.041,0.303,0.061,0.454
				c0.081,0.289,0.228,0.54,0.439,0.753c0.115,0.089,0.23,0.178,0.346,0.267c0.266,0.154,0.553,0.232,0.862,0.233
				c0.235,0.009,0.454-0.04,0.658-0.147c0.212-0.069,0.395-0.186,0.549-0.353c0.167-0.155,0.284-0.338,0.353-0.549
				c0.107-0.203,0.156-0.423,0.147-0.658C257.043,264.25,257.023,264.098,257.002,263.947z"/>
			<path style="fill:#C9BB3C;" d="M230.282,274.953c-0.072-0.255-0.201-0.477-0.388-0.665l-0.305-0.236
				c-0.235-0.137-0.489-0.205-0.761-0.206c-0.208-0.008-0.401,0.035-0.581,0.13c-0.187,0.061-0.349,0.165-0.485,0.312
				c-0.147,0.137-0.251,0.298-0.312,0.485c-0.094,0.18-0.138,0.373-0.13,0.581c0.018,0.134,0.036,0.267,0.054,0.401
				c0.072,0.256,0.201,0.477,0.388,0.666c0.102,0.079,0.204,0.157,0.305,0.236c0.235,0.136,0.489,0.205,0.761,0.206
				c0.208,0.008,0.401-0.035,0.581-0.13c0.187-0.061,0.349-0.165,0.485-0.312c0.147-0.137,0.251-0.298,0.312-0.485
				c0.094-0.18,0.138-0.374,0.13-0.581C230.318,275.221,230.3,275.087,230.282,274.953z"/>
			<path style="fill:#C9BB3C;" d="M183.409,327.286c0-0.01,0-0.019,0-0.029c0-0.07-0.009-0.138-0.027-0.207
				c-0.009-0.201-0.069-0.389-0.18-0.562c-0.079-0.102-0.158-0.204-0.237-0.306c-0.102-0.079-0.204-0.158-0.306-0.237
				c-0.009-0.007-0.019-0.014-0.028-0.02c-0.021-0.015-0.041-0.03-0.062-0.045c-0.264-0.153-0.55-0.23-0.856-0.232
				c-0.306,0.001-0.591,0.078-0.856,0.232c-0.039,0.018-0.076,0.038-0.114,0.057c-0.198,0.107-0.356,0.252-0.476,0.437
				c-0.15,0.164-0.251,0.356-0.304,0.577c-0.071,0.225-0.081,0.451-0.03,0.677c0.01,0.226,0.077,0.436,0.201,0.631
				c0.089,0.114,0.177,0.229,0.265,0.343c0.212,0.21,0.461,0.356,0.749,0.436c0.15,0.02,0.301,0.04,0.451,0.061
				c0.306-0.001,0.592-0.078,0.856-0.232c0.038-0.019,0.076-0.038,0.113-0.059c0.514-0.291,0.846-0.875,0.84-1.464
				C183.41,327.325,183.409,327.306,183.409,327.286z"/>
			<path style="fill:#C9BB3C;" d="M306.14,249.737c-0.039-0.138-0.109-0.259-0.21-0.361c-0.073-0.123-0.17-0.221-0.293-0.293
				c-0.158-0.144-0.343-0.242-0.556-0.292l-0.434-0.058c-0.145,0.019-0.29,0.039-0.434,0.058c-0.13,0.055-0.26,0.11-0.39,0.165
				c-0.19,0.103-0.343,0.243-0.458,0.421c-0.145,0.158-0.242,0.343-0.292,0.556c-0.01,0.06-0.02,0.121-0.03,0.181
				c-0.017,0.125-0.034,0.25-0.05,0.375c-0.007,0.194,0.033,0.376,0.122,0.544c0.033,0.12,0.094,0.223,0.181,0.311
				c0.1,0.154,0.232,0.275,0.396,0.364c0.044,0.023,0.088,0.046,0.132,0.07c0.13,0.055,0.26,0.11,0.39,0.165
				c0.217,0.068,0.434,0.078,0.652,0.029c0.147-0.001,0.285-0.038,0.412-0.112c0.139-0.039,0.259-0.109,0.361-0.21
				c0.178-0.115,0.318-0.268,0.421-0.458c0.055-0.13,0.11-0.26,0.165-0.39c0.02-0.145,0.039-0.29,0.058-0.434
				C306.289,250.142,306.242,249.932,306.14,249.737z"/>
			<path style="fill:#C9BB3C;" d="M286.689,240.688c-0.044-0.073-0.087-0.146-0.131-0.219c-0.102-0.171-0.254-0.296-0.436-0.373
				c-0.169-0.072-0.416-0.12-0.593-0.046c-0.067,0.028-0.134,0.056-0.2,0.084c-0.096,0.04-0.192,0.081-0.288,0.121
				c-0.14,0.076-0.253,0.179-0.338,0.31c-0.075,0.075-0.126,0.164-0.155,0.266c-0.055,0.094-0.082,0.195-0.082,0.304
				c-0.036,0.16-0.029,0.32,0.022,0.48c0.04,0.096,0.081,0.192,0.121,0.288c0.133,0.227,0.337,0.392,0.576,0.493
				c0.094,0.055,0.195,0.082,0.304,0.082c0.107,0.029,0.214,0.029,0.32,0c0.16-0.007,0.31-0.055,0.448-0.143
				c0.081-0.063,0.162-0.126,0.244-0.188C286.876,241.773,286.963,241.146,286.689,240.688z"/>
			<path style="fill:#C9BB3C;" d="M304.803,216.23c-0.075-0.268-0.211-0.501-0.407-0.698c-0.107-0.082-0.213-0.165-0.32-0.247
				c-0.247-0.143-0.513-0.215-0.798-0.216c-0.218-0.008-0.421,0.037-0.609,0.136c-0.196,0.064-0.366,0.173-0.509,0.327
				c-0.154,0.143-0.263,0.313-0.327,0.509c-0.099,0.189-0.145,0.392-0.136,0.609c0.019,0.14,0.038,0.28,0.057,0.42
				c0.075,0.268,0.211,0.501,0.407,0.698c0.107,0.082,0.214,0.165,0.32,0.247c0.247,0.143,0.513,0.215,0.798,0.216
				c0.218,0.008,0.421-0.037,0.609-0.136c0.196-0.064,0.366-0.173,0.509-0.327c0.154-0.143,0.263-0.313,0.327-0.509
				c0.099-0.189,0.144-0.392,0.136-0.609C304.84,216.51,304.821,216.37,304.803,216.23z"/>
			<path style="fill:#C9BB3C;" d="M266.736,182.165c-0.396-0.396-0.988-0.553-1.529-0.404c-0.266,0.075-0.497,0.209-0.693,0.404
				c-0.195,0.196-0.329,0.427-0.404,0.693c-0.009,0.042-0.017,0.084-0.026,0.126c-0.071,0.264-0.071,0.528,0,0.792
				c0.071,0.252,0.199,0.471,0.383,0.657c0.186,0.185,0.405,0.312,0.658,0.383c0.264,0.071,0.528,0.071,0.792,0
				c0.042-0.009,0.084-0.018,0.126-0.026c0.266-0.075,0.497-0.209,0.693-0.404c0.195-0.196,0.329-0.427,0.404-0.693
				C267.289,183.153,267.132,182.562,266.736,182.165z"/>
			<path style="fill:#C9BB3C;" d="M240.295,183.466c-1.739,0-1.742,2.702,0,2.702C242.034,186.168,242.037,183.466,240.295,183.466z
				"/>
			<path style="fill:#C9BB3C;" d="M215.986,154.661c-0.048-0.113-0.095-0.225-0.143-0.338c-0.089-0.165-0.21-0.297-0.364-0.397
				c-0.088-0.088-0.192-0.148-0.312-0.182c-0.169-0.089-0.35-0.129-0.545-0.122c-0.041-0.004-0.082-0.007-0.124-0.011
				c-0.179-0.007-0.346,0.031-0.501,0.112c-0.161,0.052-0.301,0.142-0.419,0.269c-0.068,0.088-0.136,0.176-0.204,0.263
				c-0.118,0.203-0.177,0.422-0.178,0.657c0.004,0.041,0.007,0.082,0.011,0.124l0.05,0.376c0.048,0.113,0.095,0.225,0.143,0.338
				c0.089,0.165,0.21,0.297,0.364,0.397c0.088,0.088,0.192,0.148,0.312,0.182c0.11,0.064,0.229,0.096,0.357,0.096
				c0.125,0.034,0.251,0.034,0.376,0c0.128,0,0.247-0.033,0.357-0.096c0.175-0.057,0.327-0.154,0.455-0.292
				c0.074-0.095,0.147-0.191,0.221-0.286c0.048-0.113,0.095-0.225,0.143-0.338l0.05-0.376L215.986,154.661z"/>
			<path style="fill:#C9BB3C;" d="M201.444,150.759c-1.321,0-1.323,2.053,0,2.053C202.765,152.811,202.767,150.759,201.444,150.759z
				"/>
			<path style="fill:#C9BB3C;" d="M214.28,126.983c-1.523,0-1.526,2.367,0,2.367C215.804,129.35,215.806,126.983,214.28,126.983z"/>
			<path style="fill:#C9BB3C;" d="M228.339,142.672c-0.069-0.245-0.193-0.458-0.372-0.638c-0.097-0.075-0.195-0.151-0.292-0.226
				c-0.226-0.131-0.469-0.197-0.73-0.197c-0.199-0.007-0.385,0.034-0.557,0.124c-0.179,0.058-0.334,0.158-0.465,0.299
				c-0.141,0.131-0.241,0.286-0.299,0.465c-0.09,0.172-0.132,0.358-0.124,0.557c0.017,0.128,0.034,0.256,0.052,0.384
				c0.069,0.245,0.193,0.457,0.372,0.638c0.098,0.075,0.195,0.151,0.292,0.226c0.225,0.131,0.469,0.197,0.73,0.197
				c0.199,0.007,0.385-0.034,0.557-0.125c0.179-0.058,0.334-0.158,0.465-0.299c0.141-0.131,0.241-0.286,0.299-0.465
				c0.09-0.172,0.132-0.358,0.124-0.557C228.374,142.928,228.356,142.8,228.339,142.672z"/>
			<path style="fill:#C9BB3C;" d="M224.892,139.55c-0.768,0-0.77,1.194,0,1.194C225.66,140.744,225.661,139.55,224.892,139.55z"/>
			<path style="fill:#C9BB3C;" d="M244.403,126.641c-1.523,0-1.526,2.367,0,2.367C245.926,129.008,245.928,126.641,244.403,126.641z
				"/>
			<path style="fill:#C9BB3C;" d="M249.879,132.334c-1.024,0-1.026,1.592,0,1.592C250.904,133.926,250.905,132.334,249.879,132.334z
				"/>
			<path style="fill:#C9BB3C;" d="M244.164,110.055c-0.056-0.199-0.156-0.371-0.302-0.518c-0.079-0.061-0.158-0.122-0.237-0.183
				c-0.183-0.106-0.38-0.16-0.592-0.16c-0.161-0.006-0.312,0.028-0.452,0.101c-0.145,0.047-0.271,0.128-0.377,0.243
				c-0.114,0.106-0.195,0.232-0.243,0.378c-0.073,0.14-0.107,0.291-0.101,0.452c0.014,0.104,0.028,0.208,0.042,0.312
				c0.056,0.199,0.156,0.371,0.302,0.518c0.079,0.061,0.158,0.122,0.237,0.183c0.183,0.106,0.38,0.16,0.592,0.16
				c0.161,0.006,0.312-0.027,0.452-0.101c0.145-0.047,0.271-0.128,0.378-0.243c0.114-0.106,0.195-0.232,0.243-0.378
				c0.073-0.14,0.107-0.29,0.101-0.452C244.192,110.263,244.178,110.159,244.164,110.055z"/>
			<path style="fill:#C9BB3C;" d="M252.275,110.088c-1.24,0-1.242,1.927,0,1.927C253.515,112.015,253.517,110.088,252.275,110.088z"
				/>
			<path style="fill:#C9BB3C;" d="M292.324,144.311c-1.469,0-1.472,2.283,0,2.283C293.793,146.594,293.796,144.311,292.324,144.311z
				"/>
			<path style="fill:#C9BB3C;" d="M270.759,155.314c-1.847,0-1.85,2.87,0,2.87C272.606,158.183,272.609,155.314,270.759,155.314z"/>
			<path style="fill:#C9BB3C;" d="M258.608,154.363c-1.307,0-1.31,2.032,0,2.032C259.915,156.395,259.917,154.363,258.608,154.363z"
				/>
			<path style="fill:#C9BB3C;" d="M239.715,160.886c-0.056-0.199-0.156-0.371-0.302-0.518c-0.079-0.061-0.158-0.122-0.238-0.184
				c-0.183-0.106-0.38-0.16-0.592-0.16c-0.162-0.006-0.312,0.028-0.452,0.101c-0.145,0.047-0.271,0.128-0.378,0.243
				c-0.114,0.106-0.195,0.232-0.243,0.378c-0.073,0.14-0.107,0.29-0.101,0.452c0.014,0.104,0.028,0.208,0.042,0.312
				c0.056,0.199,0.156,0.371,0.302,0.518c0.079,0.061,0.158,0.122,0.237,0.183c0.183,0.106,0.38,0.16,0.592,0.16
				c0.161,0.006,0.312-0.028,0.452-0.101c0.145-0.047,0.271-0.128,0.378-0.242c0.114-0.106,0.195-0.232,0.242-0.378
				c0.073-0.14,0.107-0.29,0.101-0.452C239.743,161.094,239.729,160.99,239.715,160.886z"/>
			<path style="fill:#C9BB3C;" d="M186.389,201.801c-0.085-0.302-0.237-0.564-0.458-0.786c-0.12-0.093-0.24-0.186-0.36-0.278
				c-0.278-0.161-0.577-0.242-0.899-0.243c-0.245-0.009-0.474,0.042-0.686,0.153c-0.221,0.072-0.412,0.195-0.573,0.368
				c-0.174,0.161-0.296,0.352-0.368,0.573c-0.111,0.212-0.163,0.441-0.153,0.686c0.021,0.158,0.042,0.316,0.064,0.473
				c0.085,0.302,0.237,0.564,0.458,0.786c0.12,0.093,0.24,0.186,0.36,0.278c0.278,0.161,0.577,0.242,0.899,0.243
				c0.245,0.009,0.474-0.042,0.686-0.153c0.221-0.072,0.412-0.194,0.573-0.368c0.174-0.161,0.296-0.352,0.368-0.573
				c0.111-0.212,0.163-0.441,0.153-0.686C186.431,202.116,186.41,201.958,186.389,201.801z"/>
			<path style="fill:#C9BB3C;" d="M190.833,178.673c-1.739,0-1.742,2.702,0,2.702C192.572,181.376,192.575,178.673,190.833,178.673z
				"/>
			<path style="fill:#C9BB3C;" d="M195.968,179.051c-1.254,0-1.256,1.948,0,1.948C197.221,180.999,197.223,179.051,195.968,179.051z
				"/>
			<path style="fill:#C9BB3C;" d="M193.571,182.529c-1.402,0-1.404,2.179,0,2.179C194.973,184.708,194.976,182.529,193.571,182.529z
				"/>
		</g>
		<g>
			<path style="opacity:0.7;fill:#EDF6FF;" d="M318.069,296.475c-0.154-21.097-2.091-42.092-5.868-62.849
				c-2.122-11.661-4.688-23.252-8.212-34.574c-0.994-3.194-5.717-1.881-4.999,1.378c2.233,10.144,4.432,20.306,6.138,30.553
				c1.691,10.154,2.856,20.355,3.818,30.6c1.942,20.686,2.127,41.464,0.814,62.193c-0.361,5.706-0.851,11.403-1.467,17.087
				c-0.319,2.938-0.579,5.885-0.848,8.829c-0.262,2.873-0.517,5.936-0.163,8.801c0.13,1.049,0.643,1.973,1.73,2.272
				c0.94,0.259,2.225-0.15,2.661-1.083c2.21-4.728,2.859-10.191,3.615-15.312c0.789-5.35,1.243-10.768,1.675-16.157
				C317.807,317.659,318.146,307.063,318.069,296.475z"/>
			<path style="fill:#EDF6FF;" d="M307.3,370.455c-4.92,0-4.928,7.646,0,7.646C312.219,378.101,312.228,370.455,307.3,370.455z"/>
			<path style="opacity:0.7;fill:#EDF6FF;" d="M395.742,249.725c-1.786-8.179-4.233-16.2-7.293-23.991
				c-0.522-1.33-2.69-0.764-2.171,0.599c10.268,26.965,13.068,56.685,7.615,85.04c-0.752,3.91-1.65,7.791-2.697,11.632
				c-1.046,3.838-2.732,7.91-2.604,11.935c0.024,0.747,1.06,1.334,1.609,0.667c2.279-2.77,3.238-6.462,4.119-9.88
				c0.895-3.474,1.673-6.978,2.329-10.504c1.338-7.19,2.195-14.477,2.554-21.781C399.924,278.781,398.875,264.073,395.742,249.725z"
				/>
			<path style="opacity:0.7;fill:#EDF6FF;" d="M385.857,343.512c-2.426,0-2.43,3.771,0,3.771
				C388.283,347.282,388.287,343.512,385.857,343.512z"/>
			<path style="fill:#EDF6FF;" d="M237.592,172.228c-8.913-0.54-17.811-1.072-26.679-2.161c-8.939-1.098-17.859-2.82-26.583-5.05
				c-1.145-0.293-1.618,1.431-0.487,1.768c17.231,5.123,35.778,7.993,53.75,6.125C238.023,172.864,238.037,172.255,237.592,172.228z
				"/>
			<path style="fill:#EDF6FF;" d="M307.985,159.571c-4.219,1.191-8.392,2.383-12.574,3.7c-4.186,1.318-8.445,2.401-12.751,3.246
				c-8.685,1.704-17.603,2.361-26.446,2.371c-1.294,0.001-1.265,1.898,0,1.99c9.018,0.655,17.984-0.029,26.862-1.704
				c4.413-0.833,8.778-1.916,13.068-3.246c4.382-1.358,8.257-3.189,12.164-5.591C308.706,160.092,308.452,159.439,307.985,159.571z"
				/>
			<path style="fill:#EDF6FF;" d="M257.494,175.25c-2.207-0.083-4.448,0.352-6.673,0.326c-0.674-0.008-0.675,1.057,0,1.047
				c2.166-0.031,4.702,0.005,6.757-0.756C257.903,175.747,257.862,175.264,257.494,175.25z"/>
			<path style="fill:#EDF6FF;" d="M307.856,164.317c-0.954-0.041-1.82,0.607-2.645,1.035c-1.063,0.552-2.148,1.057-3.254,1.517
				c-0.88,0.366-0.525,1.814,0.404,1.464c1.116-0.42,2.219-0.875,3.3-1.378c0.936-0.436,2.162-0.864,2.67-1.81
				C308.532,164.768,308.279,164.335,307.856,164.317z"/>
			<path style="fill:#EDF6FF;" d="M276.757,421.879c-2.742,0.06-5.514,0.793-8.217,1.232c-2.93,0.476-5.871,0.879-8.821,1.202
				c-5.725,0.627-11.484,0.963-17.243,0.966c-11.498,0.007-22.922-1.523-33.981-4.691c-6.357-1.821-12.533-4.133-18.465-7.062
				c-0.844-0.417-1.588,0.85-0.74,1.266c20.994,10.297,44.991,12.925,68.097,10.963c3.169-0.269,6.329-0.631,9.479-1.072
				c3.286-0.461,6.9-0.757,10.004-1.981C277.28,422.54,277.265,421.868,276.757,421.879z"/>
		</g>
	</g>
</g>
</svg>
