<?xml version="1.0" encoding="utf-8"?>
<!-- Generator: Adobe Illustrator 27.5.0, SVG Export Plug-In . SVG Version: 6.00 Build 0)  -->
<svg version="1.1" xmlns="http://www.w3.org/2000/svg" xmlns:xlink="http://www.w3.org/1999/xlink" x="0px" y="0px"
	 viewBox="0 0 500 500" style="enable-background:new 0 0 500 500;" xml:space="preserve">
<g id="BACKGROUND">
	<rect transform="matrix(-1.836970e-16 1 -1 -1.836970e-16 500 5.684342e-14)" style="fill:#FFF8DC;" width="500" height="500"/>
</g>
<g id="OBJECTS">
	<g>
		<g>
			<text transform="matrix(1 0 0 1 156.4957 447.1423)" style="fill:#A8731D; font-family:'Caveat-Regular'; font-size:33.0186px;">POKE BOWL</text>
		</g>
	</g>
	<g>
		<ellipse style="fill:#FFECB8;" cx="250" cy="379.899" rx="131.667" ry="19.251"/>
		<g>
			<g>
				<g>
					<polygon style="fill:#DDC55F;" points="111.029,73.994 260.075,310.772 261.433,308.718 115.283,68.868 					"/>
					<polygon style="fill:#F2DE7C;" points="119.937,69.37 262.929,308.87 261.433,308.718 115.283,68.868 					"/>
					<polygon style="fill:#EAD065;" points="261.433,308.718 262.929,308.87 261.828,310.537 260.075,310.772 					"/>
				</g>
				<g>
					<polygon style="fill:#DDC55F;" points="171.298,52.516 278.606,310.903 280.289,309.105 176.35,48.175 					"/>
					<polygon style="fill:#F2DE7C;" points="180.854,49.449 281.739,309.505 280.289,309.105 176.35,48.175 					"/>
					<polygon style="fill:#EAD065;" points="280.289,309.105 281.739,309.505 280.373,310.964 278.606,310.903 					"/>
				</g>
				<g>
					<g>
						<path style="fill:#1C0C0C;" d="M394,249.052c0,15.464-23,123.538-144,123.538c-122.333,0-144-108.074-144-123.538
							c0-15.464,65.391-28,144-28S394,233.588,394,249.052z"/>
						<path style="fill:#2B1919;" d="M343.111,227.756c-25.236-4.18-57.841-6.705-93.111-6.705c-78.609,0-144,12.536-144,28
							c0,10.002,9.077,58.743,48.584,91.929c13.212,3.56,28.109,5.61,44.916,5.61C311.809,346.59,339.686,253.496,343.111,227.756z"
							/>
						<ellipse style="fill:#FFECB8;" cx="250" cy="249.052" rx="142.333" ry="28"/>
						<path style="fill:#FCFCFC;" d="M250,220.724c-79.529,0-144,12.683-144,28.328c0,15.645,64.471,28.328,144,28.328
							c79.529,0,144-12.683,144-28.328C394,233.407,329.529,220.724,250,220.724z M250,272.885
							c-76.636,0-138.762-11.268-138.762-25.167c0-13.899,62.126-25.167,138.762-25.167s138.762,11.268,138.762,25.167
							C388.762,261.617,326.636,272.885,250,272.885z"/>
					</g>
					<path style="fill:#1C0C0C;" d="M323.125,364.802c-4.033-2.689-0.19-8.946-0.016-9.224c-10.674,4.718-39.369,8.944-73.109,8.944
						s-62.435-4.226-73.109-8.944c0.174,0.278,4.017,6.535-0.016,9.224c-4.125,2.75-4.443,7.788-4.443,7.788
						c0,5.983,34.729,12.795,77.568,12.795s77.568-6.812,77.568-12.795C327.568,372.59,327.25,367.552,323.125,364.802z"/>
					<g>
						<path style="fill:#2B1919;" d="M323.125,364.802c-1.553-1.035-1.936-2.602-1.81-4.153
							c-2.916,5.146-33.719,11.942-71.315,11.942s-68.398-6.796-71.315-11.942c0.125,1.551-0.257,3.118-1.81,4.153
							c-4.125,2.75-4.443,7.788-4.443,7.788c0,5.983,34.729,12.795,77.568,12.795s77.568-6.812,77.568-12.795
							C327.568,372.59,327.25,367.552,323.125,364.802z"/>
					</g>
				</g>
				<g>
					<defs>
						<path id="SVGID_1_" d="M394,249.052c0,1.796-2.526,3.552-4.168,5.253c-12.498,12.953-70.351,22.747-139.832,22.747
							c-78.609,0-142.333-15.682-142.87-27.531c0,0-14.63,0.845-5.796-22.883c10.775-28.943,64.886-74.177,144-65.97
							c59.868,6.21,129.604,41.692,150.417,64.167C402.119,231.711,394,245.428,394,249.052z"/>
					</defs>
					<clipPath id="SVGID_00000074411541192991464260000013784353723477926278_">
						<use xlink:href="#SVGID_1_"  style="overflow:visible;"/>
					</clipPath>
					<g style="clip-path:url(#SVGID_00000074411541192991464260000013784353723477926278_);">
						<g>
							<g>
								
									<ellipse transform="matrix(0.3685 -0.9296 0.9296 0.3685 -133.096 284.2889)" style="fill:#141C00;" cx="142.704" cy="240.111" rx="26.349" ry="38.542"/>
								
									<ellipse transform="matrix(0.3876 -0.9218 0.9218 0.3876 -132.0251 278.5836)" style="fill:#354F00;" cx="143.653" cy="238.656" rx="26.221" ry="38.045"/>
								
									<ellipse transform="matrix(0.3876 -0.9218 0.9218 0.3876 -132.025 278.5847)" style="fill:#9FC146;" cx="143.653" cy="238.656" rx="25.414" ry="36.874"/>
								
									<ellipse transform="matrix(0.3876 -0.9218 0.9218 0.3876 -132.0251 278.584)" style="fill:#FBFFCC;" cx="143.653" cy="238.656" rx="22.86" ry="33.167"/>
							</g>
							<g>
								<path style="fill:#C8CE45;" d="M135.386,234.681c0.904-0.614,0.538-1.551-0.576-3.473c-1.114-1.922-2.016-3.652-3.253-2.03
									c-1.237,1.623-3.748,2.098-2.892,3.7C129.521,234.48,133.751,235.792,135.386,234.681z"/>
								<path style="fill:#C8CE45;" d="M138.693,238.708c0.278-0.028-1.79-1.786-3.811-1.767c-2.021,0.02-3.966-0.155-3.975,1.456
									c-0.01,1.611,0.913,4.63,2.231,4.874C134.454,243.516,137.295,238.85,138.693,238.708z"/>
								<path style="fill:#C8CE45;" d="M143.324,236.852c-2.826-0.132-4.906,0.462-5.885-1.794
									c-0.979-2.255-0.364-1.746-0.775-3.932c-0.411-2.186-0.966-3.534,1.165-2.33c2.13,1.203,2.413,2.618,5.219,4.201
									C145.852,234.579,145.906,236.972,143.324,236.852z"/>
								<path style="fill:#C8CE45;" d="M147.588,232.527c-2.434,0.109-3.122,0.797-5.137-0.804s-3.536-2.447-3.588-3.401
									c-0.052-0.954,1.637-0.479,4.687-0.046c3.05,0.433,3.143-0.534,5.154,1.057
									C150.715,230.925,150.219,232.409,147.588,232.527z"/>
								<path style="fill:#C8CE45;" d="M154.797,234.889c-3.949-1.124-5.574-1.631-6.722-0.782
									c-1.148,0.849-3.589,1.116-0.204,2.701c3.385,1.585,1.641,1.731,5.441,3.691c3.8,1.96,7.229,0.188,5.306-2.177
									C156.695,235.956,156.616,235.407,154.797,234.889z"/>
								<path style="fill:#C8CE45;" d="M150.468,239.238c-1.197-0.781-2.076-1.515-3.605-1.667
									c-1.529-0.152-2.445-0.492-3.768,0.887c-1.323,1.379-3.08,1.53-1.537,3.027c1.543,1.496,1.811,2.46,4.938,2.494
									C149.622,244.013,151.277,239.765,150.468,239.238z"/>
								<path style="fill:#C8CE45;" d="M153.619,241.368c-1.049-0.282-1.834-1.107-2.311,0.022
									c-0.476,1.129-2.034,1.724-1.755,2.881c0.279,1.157,2.521,3.197,4.443,3.307c1.922,0.11,5.269-2.304,3.614-3.706
									C155.957,242.47,153.619,241.368,153.619,241.368z"/>
								<path style="fill:#C8CE45;" d="M148.652,245.118c-0.471-0.06,0.005-0.966-2.397,0.023c-2.402,0.99-3.743,0.68-3.528,1.902
									c0.215,1.222,0.486,3.216,3.577,3.766s6.07-2.7,4.932-3.462C150.097,246.585,148.652,245.118,148.652,245.118z"/>
								<path style="fill:#C8CE45;" d="M143.283,244.726c-0.987,0.907-0.472,1.737-3.431,1.766
									c-2.959,0.029-4.378-1.117-4.378-1.117s0.58-3.479,2.115-3.851s3.341,0.641,4.457,1.339
									C143.161,243.56,144.172,243.908,143.283,244.726z"/>
								<path style="fill:#C8CE45;" d="M130.883,235.466c-1.03-0.526-1.947-1.512-3.488-1.569c-1.541-0.057-1.747,0.589-1.293,1.873
									c0.454,1.284,1.286,2.307,2.189,2.298c0.902-0.009,1.316-0.478,2.257-1.092C131.49,236.362,131.689,235.877,130.883,235.466
									z"/>
							</g>
						</g>
						<g>
							<g>
								
									<ellipse transform="matrix(0.3685 -0.9296 0.9296 0.3685 -112.2531 295.7023)" style="fill:#141C00;" cx="161.527" cy="230.476" rx="26.349" ry="38.542"/>
								
									<ellipse transform="matrix(0.3876 -0.9218 0.9218 0.3876 -111.616 290.035)" style="fill:#354F00;" cx="162.475" cy="229.021" rx="26.221" ry="38.045"/>
								
									<ellipse transform="matrix(0.3876 -0.9218 0.9218 0.3876 -111.6158 290.0359)" style="fill:#9FC146;" cx="162.475" cy="229.021" rx="25.414" ry="36.874"/>
								
									<ellipse transform="matrix(0.3876 -0.9218 0.9218 0.3876 -111.6159 290.0354)" style="fill:#FBFFCC;" cx="162.475" cy="229.021" rx="22.86" ry="33.167"/>
							</g>
							<g>
								<path style="fill:#C8CE45;" d="M154.208,225.046c0.904-0.614,0.538-1.551-0.576-3.473c-1.114-1.922-2.016-3.652-3.253-2.03
									c-1.237,1.622-3.748,2.098-2.892,3.7C148.344,224.846,152.574,226.157,154.208,225.046z"/>
								<path style="fill:#C8CE45;" d="M157.515,229.073c0.278-0.028-1.79-1.786-3.811-1.767c-2.021,0.02-3.966-0.155-3.976,1.456
									c-0.01,1.611,0.913,4.63,2.231,4.875C153.277,233.881,156.117,229.215,157.515,229.073z"/>
								<path style="fill:#C8CE45;" d="M162.146,227.217c-2.826-0.132-4.906,0.462-5.885-1.794
									c-0.979-2.255-0.364-1.746-0.775-3.932s-0.966-3.534,1.165-2.331c2.13,1.203,2.413,2.618,5.218,4.201
									C164.674,224.945,164.728,227.337,162.146,227.217z"/>
								<path style="fill:#C8CE45;" d="M166.411,222.892c-2.434,0.109-3.122,0.798-5.137-0.803s-3.536-2.447-3.588-3.401
									c-0.052-0.954,1.637-0.479,4.687-0.045c3.05,0.433,3.143-0.534,5.154,1.057C169.538,221.29,169.042,222.774,166.411,222.892
									z"/>
								<path style="fill:#C8CE45;" d="M173.62,225.255c-3.949-1.124-5.574-1.631-6.723-0.782c-1.148,0.849-3.589,1.116-0.204,2.701
									c3.385,1.585,1.641,1.731,5.441,3.691c3.8,1.96,7.229,0.188,5.306-2.177C175.518,226.321,175.438,225.772,173.62,225.255z"
									/>
								<path style="fill:#C8CE45;" d="M169.291,229.603c-1.197-0.781-2.076-1.516-3.605-1.667
									c-1.529-0.152-2.446-0.492-3.769,0.887c-1.323,1.379-3.08,1.53-1.537,3.027c1.543,1.496,1.811,2.46,4.938,2.494
									C168.444,234.378,170.1,230.13,169.291,229.603z"/>
								<path style="fill:#C8CE45;" d="M172.442,231.733c-1.049-0.282-1.834-1.107-2.311,0.022s-2.034,1.724-1.755,2.881
									c0.279,1.157,2.521,3.197,4.443,3.307s5.269-2.304,3.614-3.706C174.779,232.835,172.442,231.733,172.442,231.733z"/>
								<path style="fill:#C8CE45;" d="M167.474,235.483c-0.471-0.06,0.005-0.966-2.397,0.023c-2.402,0.99-3.743,0.681-3.528,1.902
									c0.215,1.222,0.486,3.216,3.577,3.766c3.091,0.55,6.07-2.7,4.932-3.462C168.919,236.951,167.474,235.483,167.474,235.483z"
									/>
								<path style="fill:#C8CE45;" d="M162.106,235.091c-0.987,0.907-0.472,1.737-3.431,1.766
									c-2.959,0.029-4.378-1.117-4.378-1.117s0.58-3.479,2.115-3.851c1.534-0.372,3.341,0.641,4.457,1.339
									C161.983,233.926,162.995,234.273,162.106,235.091z"/>
								<path style="fill:#C8CE45;" d="M149.706,225.831c-1.03-0.526-1.947-1.511-3.488-1.569c-1.541-0.057-1.747,0.589-1.293,1.873
									c0.454,1.284,1.286,2.307,2.189,2.298c0.902-0.009,1.316-0.478,2.257-1.092
									C150.313,226.727,150.512,226.242,149.706,225.831z"/>
							</g>
						</g>
						<g>
							<g>
								
									<ellipse transform="matrix(0.3685 -0.9296 0.9296 0.3685 -100.7503 311.4671)" style="fill:#141C00;" cx="178.882" cy="229.891" rx="26.349" ry="38.541"/>
								
									<ellipse transform="matrix(0.3876 -0.9218 0.9218 0.3876 -100.4486 305.6756)" style="fill:#354F00;" cx="179.831" cy="228.437" rx="26.221" ry="38.045"/>
								
									<ellipse transform="matrix(0.3876 -0.9218 0.9218 0.3876 -100.4483 305.6765)" style="fill:#9FC146;" cx="179.831" cy="228.437" rx="25.414" ry="36.874"/>
								
									<ellipse transform="matrix(0.3876 -0.9218 0.9218 0.3876 -100.4484 305.6763)" style="fill:#FBFFCC;" cx="179.831" cy="228.437" rx="22.86" ry="33.167"/>
							</g>
							<g>
								<path style="fill:#C8CE45;" d="M171.564,224.462c0.904-0.614,0.538-1.551-0.576-3.473c-1.114-1.922-2.016-3.652-3.253-2.03
									c-1.237,1.622-3.748,2.098-2.892,3.7C165.699,224.261,169.929,225.573,171.564,224.462z"/>
								<path style="fill:#C8CE45;" d="M174.87,228.488c0.278-0.028-1.79-1.786-3.811-1.767c-2.021,0.02-3.966-0.155-3.975,1.456
									c-0.01,1.611,0.913,4.63,2.231,4.874C170.632,233.297,173.472,228.631,174.87,228.488z"/>
								<path style="fill:#C8CE45;" d="M179.501,226.633c-2.826-0.132-4.906,0.462-5.885-1.794
									c-0.979-2.255-0.364-1.746-0.775-3.932c-0.411-2.186-0.966-3.534,1.165-2.33c2.131,1.203,2.413,2.618,5.219,4.201
									C182.029,224.36,182.083,226.753,179.501,226.633z"/>
								<path style="fill:#C8CE45;" d="M183.766,222.308c-2.434,0.109-3.122,0.797-5.137-0.804
									c-2.015-1.601-3.536-2.447-3.588-3.401c-0.052-0.954,1.637-0.479,4.687-0.045c3.05,0.433,3.143-0.534,5.154,1.057
									C186.893,220.706,186.397,222.19,183.766,222.308z"/>
								<path style="fill:#C8CE45;" d="M190.975,224.67c-3.949-1.124-5.574-1.631-6.722-0.782c-1.148,0.849-3.589,1.116-0.204,2.701
									c3.385,1.585,1.641,1.731,5.441,3.691c3.8,1.96,7.229,0.188,5.306-2.177C192.873,225.737,192.793,225.188,190.975,224.67z"
									/>
								<path style="fill:#C8CE45;" d="M186.646,229.018c-1.197-0.781-2.076-1.515-3.605-1.667
									c-1.529-0.152-2.446-0.492-3.769,0.887c-1.323,1.379-3.08,1.53-1.537,3.027c1.543,1.496,1.811,2.46,4.938,2.494
									C185.8,233.794,187.455,229.546,186.646,229.018z"/>
								<path style="fill:#C8CE45;" d="M189.797,231.149c-1.049-0.282-1.834-1.107-2.311,0.022
									c-0.477,1.129-2.034,1.724-1.755,2.881c0.279,1.157,2.521,3.197,4.443,3.307c1.922,0.11,5.269-2.305,3.614-3.706
									C192.134,232.251,189.797,231.149,189.797,231.149z"/>
								<path style="fill:#C8CE45;" d="M184.829,234.899c-0.471-0.06,0.005-0.966-2.397,0.023c-2.402,0.99-3.743,0.681-3.528,1.902
									c0.215,1.222,0.486,3.216,3.577,3.766c3.091,0.55,6.07-2.7,4.932-3.462C186.275,236.366,184.829,234.899,184.829,234.899z"
									/>
								<path style="fill:#C8CE45;" d="M179.461,234.507c-0.987,0.907-0.472,1.737-3.431,1.766
									c-2.959,0.029-4.378-1.117-4.378-1.117s0.58-3.479,2.115-3.851c1.534-0.372,3.341,0.641,4.457,1.339
									C179.339,233.341,180.35,233.689,179.461,234.507z"/>
								<path style="fill:#C8CE45;" d="M167.061,225.247c-1.03-0.526-1.947-1.512-3.488-1.569c-1.541-0.057-1.747,0.589-1.293,1.873
									c0.454,1.284,1.286,2.307,2.189,2.298c0.902-0.009,1.316-0.478,2.257-1.092
									C167.668,226.143,167.867,225.658,167.061,225.247z"/>
							</g>
						</g>
						<g>
							<g>
								
									<ellipse transform="matrix(0.3685 -0.9296 0.9296 0.3685 -90.6898 329.1181)" style="fill:#141C00;" cx="196.904" cy="231.312" rx="26.349" ry="38.542"/>
								
									<ellipse transform="matrix(0.3876 -0.9218 0.9218 0.3876 -90.7206 323.1591)" style="fill:#354F00;" cx="197.853" cy="229.857" rx="26.221" ry="38.045"/>
								
									<ellipse transform="matrix(0.3876 -0.9218 0.9218 0.3876 -90.7203 323.1599)" style="fill:#9FC146;" cx="197.853" cy="229.857" rx="25.414" ry="36.874"/>
								
									<ellipse transform="matrix(0.3876 -0.9218 0.9218 0.3876 -90.7204 323.1596)" style="fill:#FBFFCC;" cx="197.853" cy="229.857" rx="22.86" ry="33.167"/>
							</g>
							<g>
								<path style="fill:#C8CE45;" d="M189.586,225.882c0.904-0.614,0.538-1.551-0.576-3.473c-1.114-1.922-2.016-3.652-3.253-2.03
									c-1.237,1.623-3.748,2.098-2.892,3.7C183.721,225.682,187.951,226.993,189.586,225.882z"/>
								<path style="fill:#C8CE45;" d="M192.893,229.909c0.278-0.028-1.791-1.786-3.812-1.767c-2.021,0.02-3.966-0.155-3.975,1.456
									c-0.01,1.611,0.913,4.63,2.231,4.874C188.654,234.717,191.495,230.051,192.893,229.909z"/>
								<path style="fill:#C8CE45;" d="M197.524,228.053c-2.826-0.132-4.906,0.462-5.885-1.794
									c-0.979-2.255-0.364-1.746-0.775-3.932c-0.411-2.186-0.966-3.534,1.165-2.331c2.13,1.203,2.413,2.618,5.218,4.201
									C200.052,225.781,200.106,228.174,197.524,228.053z"/>
								<path style="fill:#C8CE45;" d="M201.788,223.728c-2.434,0.109-3.122,0.797-5.137-0.804
									c-2.015-1.601-3.536-2.447-3.588-3.401c-0.052-0.954,1.637-0.479,4.687-0.046c3.05,0.433,3.143-0.534,5.154,1.057
									C204.915,222.126,204.419,223.611,201.788,223.728z"/>
								<path style="fill:#C8CE45;" d="M208.997,226.091c-3.949-1.124-5.574-1.631-6.722-0.782
									c-1.149,0.849-3.589,1.115-0.204,2.701c3.385,1.585,1.641,1.731,5.441,3.691c3.8,1.96,7.229,0.188,5.306-2.177
									C210.895,227.157,210.816,226.608,208.997,226.091z"/>
								<path style="fill:#C8CE45;" d="M204.668,230.439c-1.197-0.781-2.076-1.516-3.605-1.667
									c-1.529-0.151-2.446-0.492-3.768,0.887c-1.323,1.379-3.08,1.53-1.537,3.027c1.543,1.496,1.811,2.46,4.938,2.494
									C203.822,235.214,205.477,230.967,204.668,230.439z"/>
								<path style="fill:#C8CE45;" d="M207.819,232.569c-1.049-0.282-1.834-1.107-2.311,0.022
									c-0.476,1.129-2.034,1.724-1.755,2.881c0.279,1.157,2.521,3.197,4.443,3.307c1.922,0.11,5.269-2.305,3.614-3.706
									C210.157,233.671,207.819,232.569,207.819,232.569z"/>
								<path style="fill:#C8CE45;" d="M202.852,236.319c-0.471-0.06,0.005-0.966-2.397,0.023c-2.402,0.99-3.743,0.681-3.528,1.903
									c0.215,1.222,0.486,3.216,3.577,3.766c3.091,0.55,6.07-2.7,4.932-3.462C204.297,237.787,202.852,236.319,202.852,236.319z"
									/>
								<path style="fill:#C8CE45;" d="M197.483,235.927c-0.987,0.907-0.472,1.737-3.431,1.766
									c-2.959,0.029-4.378-1.117-4.378-1.117s0.58-3.479,2.115-3.851c1.534-0.372,3.341,0.641,4.457,1.339
									C197.361,234.762,198.372,235.109,197.483,235.927z"/>
								<path style="fill:#C8CE45;" d="M185.083,226.667c-1.03-0.526-1.947-1.512-3.488-1.569c-1.541-0.057-1.747,0.589-1.293,1.873
									c0.454,1.284,1.286,2.307,2.189,2.298c0.902-0.009,1.316-0.478,2.257-1.092C185.69,227.563,185.889,227.078,185.083,226.667
									z"/>
							</g>
						</g>
						<g>
							<path style="fill:#FFFFFF;" d="M279.184,196.424c0,0-14.745-8.4-23.181-8.336c-8.436,0.064-11.412,1.677-16.034,0
								c-4.622-1.677-7.122-3.417-14.167-2.645c-7.044,0.772-8.977-4.094-14.592-0.189c-5.615,3.906-5.637,3.642-9.774,5.858
								c-4.136,2.216-10.75,1.452-12.367,5.796c-1.617,4.343-7.449,7.839-10.248,13.2c-2.799,5.36-1.304,8.665-6.341,10.665
								c-5.038,2-39.148-5.888-50.148,17.612c-2.445,5.224,0.687,10.879-0.167,13.333c-0.853,2.455,35.689-1.699,35.689-1.699
								s29.115,7.561,36.714,7.709c7.6,0.147,37.975-0.275,39.827,0.133c1.852,0.408,23.407,2.38,25.883,2.277
								s22.68-27.47,20.172-32.387C277.944,222.834,279.184,196.424,279.184,196.424z"/>
							<path style="fill:#FBFFCC;" d="M262.182,199.337c0,0-5.258-2.893-11.192-1.339c-5.933,1.554-6.019,2.046-11.289,2.175
								c-5.27,0.129-7.27,2.379-3.895,2.754s8.789-0.045,3.895,2.415c-4.895,2.46-11.145,0.923-10.02,4.129
								s-2.811,4.956-4.906,6.581c-2.094,1.625,6.396,1.879,9.125,0.288c2.729-1.59-3.47-3.288,3.155-4.913
								s14.492-0.654,13.933-3.952c-0.558-3.298,4.194,4.331,5.653,4.077C258.103,211.298,262.182,199.337,262.182,199.337z"/>
							<path style="fill:#FBFFCC;" d="M178.572,229.995c-1.298-0.89-1.79-2.552-1.211-4.015c0.536-1.354,1.453-2.889,2.992-3.735
								c3.167-1.74,5.003,0.48,7.835-3.63c2.832-4.11,1.409-3.367,5.683-5.488c4.274-2.122,7.488-3.909,9.131-3.078
								c1.643,0.831,5.457-1.841,0,4.498c-5.457,6.34-9.871,2.582-6.739,4.833c3.132,2.251,4.895,1.796,6.326,2.836
								c1.431,1.04,0.633,4.018,0.413,4.54c-0.22,0.522,8.893,1.18,9.268,1.59c0.375,0.409-2.407,6.652-5.329,7.343
								c-2.921,0.691-12.916,0.72-17.195,0.094C186.714,235.34,181.409,231.941,178.572,229.995z"/>
							<path style="fill:#FBFFCC;" d="M159.065,241.655c-0.218-1.763-1.239-3.995,2.16-6.424c3.4-2.429,4.019-1.616,6.839-3.804
								c2.82-2.188,4.113-4.482,4.774-3.304c0.661,1.178,0.766,4.304-1.632,6.134c-2.398,1.83-2.915,2.85-2.35,4.77
								c0.565,1.92,1.783,5.673,0.2,5.906C167.472,245.166,159.065,241.655,159.065,241.655z"/>
							<path style="fill:#FBFFCC;" d="M137.482,251.155c-0.218-1.763-1.24-3.995,2.16-6.424c3.4-2.429,4.019-1.616,6.839-3.804
								c2.82-2.188,4.113-4.482,4.774-3.304c0.661,1.178,0.766,4.304-1.632,6.134c-2.398,1.83-2.915,2.85-2.35,4.77
								c0.565,1.92,1.783,5.673,0.2,5.906C145.889,254.666,137.482,251.155,137.482,251.155z"/>
							<path style="fill:#FBFFCC;" d="M226.743,191.568c-2.975,0.629-7.72-2.451-12.098,0.623
								c-4.379,3.073-9.493,1.265-14.842,3.786c-5.349,2.521-8.469,2.995-9.899,7.43c-1.43,4.435-7.56,8.902-4.229,10.532
								s2.666-2.913,6.121-5.314c3.455-2.4,8.402-2.836,13.037-3.966c4.635-1.13,4.203-1.872,8.007-4.196
								c3.804-2.324,4.867-3.762,8.189-2.324c3.322,1.438,4.466-3.017,9.475-4.204S232.324,190.388,226.743,191.568z"/>
							<path style="fill:#FBFFCC;" d="M146.153,227.987c-1.845,1.14-5.709,0.601-7.939,3.519c-2.23,2.919-6.053,3.21-9.056,6.063
								c-3.003,2.854-4.979,3.942-4.932,6.877c0.047,2.935-3.037,7.117-0.445,7.188c2.592,0.071,1.122-2.379,2.887-4.668
								c1.765-2.289,4.97-3.833,7.811-5.696c2.84-1.863,2.384-2.179,4.399-4.515c2.015-2.336,2.4-3.444,4.944-3.481
								c2.543-0.037,2.301-2.909,5.378-4.903C152.276,226.379,149.613,225.848,146.153,227.987z"/>
						</g>
						<g>
							<g>
								<g>
									<path style="opacity:0.53;fill:#E5D1B1;" d="M219.833,172.3c-4.054-0.476-8.359-0.728-12.824-0.76
										c-24.149-0.178-44.84,11.709-44.945,25.931c-0.146,19.852,21.378,31.346,45.527,31.524
										c4.277,0.031,8.379-0.516,12.242-1.526V172.3z"/>
									<path style="fill:#F4E49F;" d="M247.98,191.35c-0.138,18.74-18.873,30.434-43.022,30.257
										c-24.149-0.178-44.579-10.521-44.433-30.373c0.105-14.222,19.732-20.996,43.881-20.819
										C228.555,170.593,248.085,177.128,247.98,191.35z"/>
									
										<ellipse transform="matrix(0.0074 -1 1 0.0074 11.7283 393.8714)" style="fill:#FFFFFF;" cx="204.255" cy="191.028" rx="25.752" ry="43.727"/>
								</g>
								<g>
									<path style="fill:#FF9B01;" d="M235.551,185.704c-0.059,7.989-9.257,14.397-20.544,14.314
										c-11.288-0.083-20.39-6.626-20.331-14.615c0.059-7.989,9.257-14.397,20.544-14.314
										C226.507,171.172,235.61,177.716,235.551,185.704z"/>
									<path style="fill:#FFC303;" d="M233.479,182.211c-0.046,6.193-7.256,8.601-16.716,8.532
										c-9.46-0.07-17.586-2.59-17.54-8.784c0.046-6.193,7.751-11.158,17.21-11.088
										C225.893,170.94,233.524,176.018,233.479,182.211z"/>
									<path style="fill:#FFDC78;" d="M229.839,179.269c-0.023,3.129-4.26,5.635-9.464,5.597
										c-5.204-0.038,3.275-3.344,3.298-6.473c0.023-3.129-8.418-4.897-3.214-4.859
										C225.662,173.572,229.862,176.14,229.839,179.269z"/>
								</g>
							</g>
						</g>
						<g>
							<g>
								<g>
									<ellipse style="fill:#AF0E31;" cx="289.694" cy="227.393" rx="34.613" ry="30.82"/>
									<ellipse style="fill:#DB2A50;" cx="290.306" cy="227.393" rx="34.001" ry="30.82"/>
									<ellipse style="fill:#FFFDFA;" cx="290.306" cy="227.393" rx="32.611" ry="29.559"/>
									<ellipse style="fill:#FFF6E9;" cx="290.306" cy="227.393" rx="32.611" ry="29.559"/>
								</g>
							</g>
							<path style="fill:#FFFDFA;" d="M286.966,201c-3.5-0.25-8,0.75-12,4.5s-6.125,0.875-8.25,4s-6.873,5.659-5.061,10.267
								c1.811,4.608-0.712,3.233,1.112,8.983s0.824,6.011,5.574,10.943c4.75,4.932,8.013,1.934,12.944,8.058
								c4.931,6.124,9.556,9.999,14.931,7.124s8.25-3.553,11.625-5.339c3.375-1.786,1-5.4,5.5-9.843c4.5-4.443,4.125-4.568,5-9.943
								s4.375-4.966,0.75-9.983c-3.625-5.017-4.75-5.392-6.75-8.517s-1.5-3.75-7.5-5s-5.125-2.125-8.875-3.5
								S286.966,201,286.966,201z"/>
						</g>
						<g>
							<g>
								<g>
									<ellipse style="fill:#AF0E31;" cx="311.177" cy="231.113" rx="34.613" ry="30.82"/>
									<ellipse style="fill:#DB2A50;" cx="311.789" cy="231.113" rx="34.001" ry="30.82"/>
									<ellipse style="fill:#FFFDFA;" cx="311.789" cy="231.113" rx="32.611" ry="29.559"/>
									<ellipse style="fill:#FFF6E9;" cx="311.789" cy="231.113" rx="32.611" ry="29.559"/>
								</g>
							</g>
							<path style="fill:#FFFDFA;" d="M308.449,204.721c-3.5-0.25-8,0.75-12,4.5s-6.125,0.875-8.25,4s-6.873,5.659-5.061,10.267
								c1.811,4.608-0.712,3.233,1.112,8.983s0.824,6.011,5.574,10.943c4.75,4.932,8.013,1.934,12.944,8.058
								c4.931,6.124,9.556,9.999,14.931,7.124s8.25-3.553,11.625-5.339c3.375-1.786,1-5.4,5.5-9.843c4.5-4.443,4.125-4.568,5-9.943
								s4.375-4.966,0.75-9.983s-4.75-5.392-6.75-8.517s-1.5-3.75-7.5-5s-5.125-2.125-8.875-3.5S308.449,204.721,308.449,204.721z"
								/>
						</g>
						<g>
							<g>
								<g>
									<ellipse style="fill:#AF0E31;" cx="334.086" cy="233.387" rx="34.613" ry="30.82"/>
									<ellipse style="fill:#DB2A50;" cx="334.697" cy="233.387" rx="34.001" ry="30.82"/>
									<ellipse style="fill:#FFFDFA;" cx="334.697" cy="233.387" rx="32.611" ry="29.559"/>
									<ellipse style="fill:#FFF6E9;" cx="334.697" cy="233.387" rx="32.611" ry="29.559"/>
								</g>
							</g>
							<path style="fill:#FFFDFA;" d="M331.358,206.994c-3.5-0.25-8,0.75-12,4.5s-6.125,0.875-8.25,4s-6.873,5.659-5.061,10.267
								c1.811,4.608-0.712,3.233,1.112,8.983c1.824,5.75,0.824,6.011,5.574,10.943c4.75,4.932,8.013,1.934,12.944,8.058
								c4.931,6.124,9.556,9.999,14.931,7.124s8.25-3.553,11.625-5.339s1-5.4,5.5-9.843c4.5-4.443,4.125-4.568,5-9.943
								s4.375-4.966,0.75-9.983c-3.625-5.017-4.75-5.392-6.75-8.517s-1.5-3.75-7.5-5s-5.125-2.125-8.875-3.5
								S331.358,206.994,331.358,206.994z"/>
						</g>
						<g>
							<g>
								<g>
									<ellipse style="fill:#AF0E31;" cx="353.777" cy="239.71" rx="34.613" ry="30.82"/>
									<ellipse style="fill:#DB2A50;" cx="354.388" cy="239.71" rx="34.001" ry="30.82"/>
									<ellipse style="fill:#FFFDFA;" cx="354.388" cy="239.71" rx="32.611" ry="29.559"/>
									<ellipse style="fill:#FFF6E9;" cx="354.388" cy="239.71" rx="32.611" ry="29.559"/>
								</g>
							</g>
							<path style="fill:#FFFDFA;" d="M351.049,213.318c-3.5-0.25-8,0.75-12,4.5s-6.125,0.875-8.25,4s-6.873,5.659-5.061,10.267
								c1.811,4.608-0.712,3.233,1.112,8.983s0.824,6.011,5.574,10.943c4.75,4.932,8.013,1.934,12.944,8.058
								c4.931,6.124,9.556,9.999,14.931,7.124s8.25-3.553,11.625-5.339s1-5.4,5.5-9.843c4.5-4.443,4.125-4.568,5-9.943
								s4.375-4.966,0.75-9.983c-3.625-5.017-4.75-5.392-6.75-8.517s-1.5-3.75-7.5-5s-5.125-2.125-8.875-3.5
								S351.049,213.318,351.049,213.318z"/>
						</g>
						<g>
							
								<ellipse transform="matrix(0.4295 -0.903 0.903 0.4295 -155.5602 250.3653)" style="fill:#7E9B07;" cx="120.385" cy="248.309" rx="8.667" ry="17.62"/>
							<path style="fill:#8DAF22;" d="M110.862,238.058c-1.044,0.382-1.82,0.983-2.217,1.818c-1.51,3.174,5.216,4.196,12.179,7.509
								c6.964,3.312,11.529,7.661,13.039,4.486c0.495-1.041,0.342-2.308-0.32-3.656c-2.225-2.61-5.599-5.169-9.723-7.13
								C119.165,238.87,114.518,237.874,110.862,238.058z"/>
							<path style="fill:#C9D839;" d="M106.311,241.874c-0.537,1.13-1.448,1.82-2.034,1.541c-0.586-0.279-0.625-1.42-0.087-2.55
								c0.537-1.13,1.448-1.82,2.034-1.542C106.809,239.602,106.848,240.744,106.311,241.874z"/>
						</g>
						<g>
							<g>
								<g>
									<ellipse style="fill:#707C00;" cx="152.635" cy="266.099" rx="17.62" ry="8.667"/>
								</g>
								<g>
									<path style="fill:#707C00;" d="M139.632,260.931c-0.778,0.793-1.221,1.669-1.221,2.594c0,3.515,6.512,1.549,14.224,1.549
										c7.711,0,13.702,1.966,13.702-1.549c0-1.153-0.683-2.231-1.859-3.164c-3.13-1.401-7.277-2.263-11.843-2.263
										C147.478,258.099,142.854,259.195,139.632,260.931z"/>
								</g>
								<path style="fill:#707C00;" d="M137.161,266.333c0,1.251-0.526,2.266-1.174,2.266c-0.649,0-1.174-1.014-1.174-2.266
									c0-1.251,0.526-2.266,1.174-2.266C136.635,264.067,137.161,265.082,137.161,266.333z"/>
							</g>
						</g>
						<g>
							<ellipse style="fill:#7E9B07;" cx="136.919" cy="257.284" rx="17.62" ry="8.667"/>
							<path style="fill:#8DAF22;" d="M123.916,252.117c-0.778,0.793-1.221,1.669-1.221,2.594c0,3.515,6.512,1.549,14.224,1.549
								c7.711,0,13.702,1.966,13.702-1.549c0-1.153-0.683-2.231-1.859-3.164c-3.13-1.401-7.277-2.263-11.843-2.263
								C131.762,249.284,127.138,250.38,123.916,252.117z"/>
							<ellipse style="fill:#C9D839;" cx="120.27" cy="257.518" rx="1.174" ry="2.266"/>
						</g>
						<g>
							<ellipse style="fill:#7E9B07;" cx="158.158" cy="250.131" rx="17.62" ry="8.667"/>
							<path style="fill:#8DAF22;" d="M145.155,244.964c-0.778,0.793-1.221,1.669-1.221,2.594c0,3.515,6.512,1.549,14.224,1.549
								c7.711,0,13.702,1.966,13.702-1.549c0-1.153-0.683-2.231-1.859-3.164c-3.13-1.401-7.277-2.263-11.843-2.263
								C153.002,242.131,148.378,243.227,145.155,244.964z"/>
							<ellipse style="fill:#C9D839;" cx="141.51" cy="250.365" rx="1.174" ry="2.266"/>
						</g>
						<g>
							<ellipse style="fill:#788C02;" cx="167.185" cy="264.869" rx="17.62" ry="8.667"/>
							<path style="fill:#8DAF22;" d="M154.182,259.702c-0.778,0.793-1.221,1.669-1.221,2.594c0,3.515,6.512,1.549,14.224,1.549
								c7.711,0,13.702,1.966,13.702-1.549c0-1.153-0.683-2.231-1.859-3.164c-3.13-1.401-7.277-2.263-11.843-2.263
								C162.029,256.869,157.404,257.965,154.182,259.702z"/>
							<ellipse style="fill:#C9D839;" cx="150.537" cy="265.103" rx="1.174" ry="2.266"/>
						</g>
						<g>
							<ellipse style="fill:#788C02;" cx="194.336" cy="267.833" rx="17.62" ry="8.667"/>
							<path style="fill:#8DAF22;" d="M181.333,262.666c-0.778,0.793-1.221,1.669-1.221,2.594c0,3.515,6.512,1.549,14.224,1.549
								c7.711,0,13.702,1.966,13.702-1.549c0-1.153-0.683-2.231-1.859-3.164c-3.13-1.401-7.277-2.263-11.843-2.263
								C189.179,259.833,184.555,260.929,181.333,262.666z"/>
							<path style="fill:#C9D839;" d="M178.862,268.067c0,1.251-0.526,2.266-1.174,2.266c-0.649,0-1.174-1.014-1.174-2.266
								c0-1.251,0.526-2.266,1.174-2.266C178.336,265.802,178.862,266.816,178.862,268.067z"/>
						</g>
						<g>
							<g>
								
									<ellipse transform="matrix(0.4826 -0.8758 0.8758 0.4826 -51.1454 323.765)" style="fill:#FFFFFF;" cx="248.467" cy="205.173" rx="19.713" ry="16.132"/>
								<path style="fill:#A300BA;" d="M234.046,218.697c-5.459-7.638-3.525-19.9,4.331-27.376
									c4.171-3.968,9.402-5.982,14.354-5.523c4.098,0.38,7.689,2.436,10.111,5.788c0.015,0.021,0.031,0.043,0.045,0.064
									c5.459,7.639,3.525,19.9-4.331,27.375c-4.17,3.969-9.402,5.982-14.353,5.524c-4.098-0.379-7.689-2.435-10.111-5.788
									C234.076,218.739,234.061,218.717,234.046,218.697z M262.074,192.231c-0.015-0.021-0.028-0.04-0.043-0.06
									c-2.251-3.116-5.587-5.025-9.393-5.378c-4.664-0.432-9.611,1.482-13.573,5.252c-7.507,7.145-9.385,18.822-4.207,26.069
									c0.015,0.021,0.028,0.04,0.043,0.06c2.251,3.116,5.587,5.026,9.393,5.378c4.664,0.431,9.611-1.483,13.572-5.253l0,0
									C265.375,211.156,267.254,199.479,262.074,192.231z"/>
							</g>
							<g>
								<path style="fill:#A300BA;" d="M236.289,216.592c-4.61-6.45-2.976-16.804,3.658-23.117c3.522-3.351,7.94-5.051,12.12-4.664
									c3.461,0.321,6.493,2.056,8.539,4.888c0.013,0.017,0.026,0.036,0.038,0.053c4.61,6.451,2.977,16.805-3.658,23.117l0,0
									c-3.521,3.351-7.938,5.051-12.119,4.665c-3.461-0.321-6.494-2.057-8.54-4.889
									C236.315,216.628,236.301,216.61,236.289,216.592z M259.958,194.244c-0.013-0.017-0.024-0.033-0.037-0.051
									c-1.9-2.631-4.717-4.244-7.931-4.541c-3.939-0.365-8.116,1.252-11.461,4.434c-6.34,6.033-7.926,15.894-3.553,22.014
									c0.012,0.018,0.024,0.033,0.037,0.051c1.901,2.632,4.718,4.244,7.932,4.541c3.939,0.365,8.116-1.251,11.46-4.435l0,0
									C262.745,210.225,264.331,200.365,259.958,194.244z"/>
							</g>
							<g>
								<path style="fill:#D654D3;" d="M238.552,214.456c-3.75-5.248-2.426-13.67,2.968-18.801c2.865-2.727,6.46-4.11,9.866-3.795
									c2.822,0.261,5.296,1.677,6.965,3.987c0.01,0.014,0.021,0.029,0.031,0.044c3.75,5.247,2.425,13.669-2.968,18.801l0,0
									c-2.865,2.727-6.461,4.11-9.866,3.794c-2.822-0.261-5.296-1.677-6.964-3.986
									C238.573,214.485,238.563,214.471,238.552,214.456z M257.695,196.381c-0.01-0.014-0.019-0.027-0.029-0.04
									c-1.523-2.109-3.781-3.402-6.358-3.64c-3.162-0.292-6.517,1.007-9.205,3.565c-5.1,4.853-6.379,12.78-2.864,17.699
									c0.01,0.014,0.019,0.027,0.029,0.04c1.523,2.108,3.78,3.401,6.357,3.64c3.162,0.292,6.518-1.006,9.206-3.565
									C259.93,209.226,261.209,201.299,257.695,196.381z"/>
							</g>
							<g>
								<path style="fill:#D654D3;" d="M240.998,212.145c-2.821-3.948-1.829-10.28,2.223-14.136
									c2.156-2.051,4.863-3.091,7.429-2.853c2.132,0.197,4.001,1.267,5.261,3.011c0.008,0.011,0.016,0.022,0.024,0.033
									c2.822,3.949,1.83,10.281-2.223,14.136l0,0c-2.155,2.051-4.862,3.092-7.428,2.854c-2.133-0.198-4.002-1.267-5.263-3.012
									C241.014,212.167,241.006,212.156,240.998,212.145z M255.248,198.691c-0.007-0.01-0.015-0.02-0.022-0.03
									c-1.115-1.544-2.768-2.491-4.654-2.665c-2.323-0.215-4.79,0.741-6.769,2.624c-3.758,3.577-4.704,9.415-2.119,13.034
									c0.007,0.01,0.015,0.02,0.022,0.03c1.116,1.544,2.769,2.491,4.655,2.665c2.323,0.215,4.79-0.741,6.768-2.624l0,0
									C256.889,208.148,257.835,202.311,255.248,198.691z"/>
							</g>
							<g>
								<path style="fill:#D654D3;" d="M242.872,210.377c-2.111-2.954-1.374-7.686,1.652-10.564
									c1.612-1.533,3.639-2.311,5.562-2.133c1.604,0.148,3.009,0.952,3.957,2.265c0.006,0.008,0.012,0.017,0.018,0.025
									c2.111,2.954,1.374,7.686-1.652,10.564c-1.612,1.534-3.639,2.311-5.562,2.133c-1.604-0.148-3.009-0.952-3.957-2.265
									C242.884,210.393,242.878,210.385,242.872,210.377z M253.374,200.461c-0.005-0.007-0.01-0.014-0.016-0.022
									c-0.803-1.112-1.992-1.793-3.35-1.919c-1.68-0.156-3.467,0.539-4.902,1.904c-2.731,2.6-3.422,6.837-1.547,9.461
									c0.005,0.007,0.01,0.014,0.016,0.022c0.803,1.112,1.992,1.793,3.35,1.919c1.68,0.156,3.467-0.539,4.902-1.904
									C254.559,207.322,255.249,203.085,253.374,200.461z"/>
							</g>
							<g>
								<path style="fill:#D654D3;" d="M245.218,208.162c-1.221-1.708-0.802-4.437,0.938-6.091c0.93-0.886,2.105-1.335,3.223-1.231
									c0.943,0.087,1.768,0.56,2.326,1.33c0.003,0.005,0.007,0.01,0.01,0.014c1.22,1.708,0.801,4.435-0.938,6.091
									c-0.931,0.886-2.106,1.335-3.224,1.232c-0.943-0.087-1.768-0.56-2.326-1.33
									C245.225,208.171,245.222,208.167,245.218,208.162z M251.028,202.675c-0.002-0.003-0.005-0.007-0.008-0.011
									c-0.412-0.57-1.022-0.92-1.719-0.984c-0.875-0.081-1.809,0.284-2.564,1.002c-1.446,1.375-1.818,3.61-0.833,4.988
									c0.002,0.003,0.005,0.007,0.008,0.011c0.412,0.57,1.022,0.919,1.719,0.984c0.875,0.081,1.809-0.285,2.563-1.002l0,0
									C251.641,206.287,252.013,204.053,251.028,202.675z"/>
							</g>
						</g>
						<g>
							<g>
								<path style="fill:#AF1225;" d="M201.999,238.601c0,0-5.796,15.486-8.792,17.471c-2.997,1.984-24.485-9.28-24.485-9.28
									s4.772-10.786,6.899-13.029c2.127-2.244,15.719-3.443,17.994-3.986C195.89,229.234,201.787,236.73,201.999,238.601z"/>
								<path style="fill:#A30D26;" d="M195.383,230.689c0,0-5.796,15.486-8.792,17.471c-0.867,0.574-3.282,0.039-6.275-1.012
									l-1.414,4.603c6.002,2.728,12.725,5.367,14.306,4.32c2.997-1.984,8.792-17.471,8.792-17.471
									c-0.171-1.508-4.039-6.672-6.723-8.33C195.333,230.43,195.369,230.571,195.383,230.689z"/>
								<path style="fill:#CD262D;" d="M168.859,246.417c0,0,4.939-1.417,12.116-2.008c7.177-0.591,8.699,0.068,8.699,0.068
									s3.597,7.942,3.664,10.533c0.066,2.591-2.02,2.832-6.745,3.863c-4.725,1.03-12.02,3.255-13.057,1.327
									C172.5,258.271,167.937,247.856,168.859,246.417z"/>
							</g>
							<g>
								<ellipse style="fill:#788C02;" cx="183.373" cy="254.369" rx="17.62" ry="8.667"/>
								<path style="fill:#8DAF22;" d="M170.37,249.202c-0.778,0.793-1.221,1.669-1.221,2.594c0,3.515,6.512,1.549,14.224,1.549
									c7.711,0,13.702,1.966,13.702-1.549c0-1.153-0.683-2.231-1.859-3.164c-3.13-1.401-7.277-2.263-11.843-2.263
									C178.217,246.369,173.592,247.465,170.37,249.202z"/>
								<ellipse style="fill:#C9D839;" cx="166.725" cy="254.603" rx="1.174" ry="2.266"/>
							</g>
							<g>
								<path style="fill:#B20F22;" d="M214.203,264.776c0,0-16.505-0.992-19.282-3.274c-2.777-2.282,1.681-26.131,1.681-26.131
									s11.711,1.394,14.481,2.768c2.769,1.374,7.908,14.015,9.094,16.03C221.363,256.185,215.929,264.024,214.203,264.776z"/>
								<path style="fill:#AF1225;" d="M219.823,256.128c0,0-16.505-0.992-19.283-3.274c-0.803-0.66-1.001-3.126-0.876-6.296h-4.815
									c-0.845,6.539-1.393,13.74,0.072,14.944c2.777,2.282,19.282,3.274,19.282,3.274c1.392-0.607,5.192-5.82,5.989-8.873
									C220.056,256.004,219.932,256.081,219.823,256.128z"/>
								<path style="fill:#CD262D;" d="M197,235.392c0,0,2.805,4.305,5.478,10.992c2.672,6.687,2.49,8.336,2.49,8.336
									s-6.535,5.771-8.993,6.595s-3.3-1.099-5.673-5.313c-2.373-4.214-6.642-10.534-5.102-12.091
									C186.738,242.354,195.354,234.934,197,235.392z"/>
							</g>
							<g>
								<path style="fill:#BF1925;" d="M238.54,232.97c0,0,14.127,8.593,15.516,11.908c1.388,3.315-13.701,22.314-13.701,22.314
									s-9.701-6.707-11.507-9.216c-1.806-2.509-0.439-16.086-0.546-18.422C228.195,237.218,236.663,232.829,238.54,232.97z"/>
								<path style="fill:#CD262D;" d="M254.056,244.878c-1.388-3.315-15.516-11.908-15.516-11.908
									c-1.616-0.122-8.115,3.115-9.822,5.508l22.367,13.714C253.132,248.864,254.521,245.989,254.056,244.878z"/>
								<path style="fill:#BF1925;" d="M228.718,238.478c-0.276,0.386-0.431,0.751-0.416,1.076
									c0.107,2.336-1.26,15.913,0.546,18.422c1.806,2.509,11.507,9.216,11.507,9.216s6.667-8.397,10.73-15L228.718,238.478z"/>
								<path style="fill:#B20F22;" d="M240.013,266.988c0,0-0.467-5.117,0.296-12.278c0.763-7.16,1.696-8.533,1.696-8.533
									s8.475-2.047,11.033-1.627c2.558,0.42,2.404,2.514,2.531,7.348c0.128,4.834,0.947,12.417-1.142,13.074
									C252.339,265.631,241.254,268.163,240.013,266.988z"/>
							</g>
							<g>
								<path style="fill:#CD262D;" d="M230.154,270.536c0,0-12.314,11.035-15.89,11.404c-3.575,0.369-17.392-19.574-17.392-19.574
									s9.228-7.344,12.153-8.346c2.924-1.002,15.524,4.236,17.791,4.81C229.083,259.404,230.833,268.78,230.154,270.536z"/>
								<path style="fill:#AF1225;" d="M227.959,260.459c0,0-12.314,11.035-15.89,11.404c-1.034,0.107-2.926-1.487-5.091-3.806
									l-3.387,3.423c4.054,5.2,8.787,10.655,10.673,10.46c3.575-0.369,15.89-11.404,15.89-11.404
									c0.547-1.416-0.486-7.784-2.095-10.498C228.035,260.206,228.002,260.348,227.959,260.459z"/>
								<path style="fill:#BF1925;" d="M197.166,262.098c0,0,5.033,1.034,11.666,3.838c6.633,2.804,7.676,4.093,7.676,4.093
									s-0.494,8.704-1.637,11.031c-1.143,2.327-3.103,1.573-7.767,0.296c-4.664-1.277-12.159-2.688-12.184-4.877
									C194.897,274.289,195.683,262.946,197.166,262.098z"/>
							</g>
							<g>
								<path style="fill:#BF1925;" d="M220.026,234.77c0,0-15.553,5.614-19.006,4.616c-3.453-0.998-8.787-24.666-8.787-24.666
									s11.309-3.349,14.395-3.182c3.087,0.167,12.804,9.747,14.691,11.129C223.206,224.048,221.313,233.396,220.026,234.77z"/>
								<path style="fill:#AF1225;" d="M221.768,224.605c0,0-15.553,5.614-19.006,4.616c-0.999-0.289-2.155-2.476-3.293-5.437
									l-4.423,1.904c1.809,6.34,4.153,13.172,5.974,13.698c3.453,0.998,19.006-4.616,19.006-4.616
									c1.038-1.108,2.467-7.398,1.993-10.518C221.934,224.398,221.85,224.518,221.768,224.605z"/>
								<path style="fill:#CD262D;" d="M192.607,214.581c0,0,4.279,2.846,9.377,7.931c5.098,5.085,5.582,6.672,5.582,6.672
									s-3.721,7.884-5.653,9.613c-1.931,1.729-3.466,0.295-7.311-2.637c-3.845-2.932-10.265-7.05-9.467-9.089
									C185.933,225.032,190.913,214.811,192.607,214.581z"/>
							</g>
							<g>
								<path style="fill:#BF1925;" d="M209.115,256.389c0,0-2.899-16.279-1.331-19.513c1.568-3.234,25.798-4.482,25.798-4.482
									s1.386,11.712,0.698,14.726c-0.688,3.014-11.775,10.968-13.456,12.594C219.143,261.339,210.25,257.89,209.115,256.389z"/>
								<path style="fill:#CD262D;" d="M233.656,232.785c0,0-3.529,3.735-9.404,7.898c-5.876,4.163-7.521,4.372-7.521,4.372
									s-7.14-5.003-8.517-7.199c-1.377-2.196,0.296-3.466,3.837-6.759c3.541-3.293,8.687-8.923,10.561-7.791
									C224.485,224.438,233.715,231.077,233.656,232.785z"/>
							</g>
							<g>
								<path style="fill:#CD262D;" d="M251.198,226.091c0,0-12.315,11.035-15.89,11.404c-3.575,0.369-17.392-19.574-17.392-19.574
									s9.228-7.344,12.153-8.346c2.924-1.002,15.524,4.236,17.791,4.81S251.877,224.336,251.198,226.091z"/>
								<path style="fill:#AF1225;" d="M249.003,216.014c0,0-12.314,11.035-15.89,11.404c-1.034,0.107-2.926-1.487-5.091-3.805
									l-3.387,3.423c4.054,5.2,8.787,10.654,10.673,10.46c3.575-0.369,15.89-11.404,15.89-11.404
									c0.547-1.416-0.486-7.784-2.095-10.498C249.079,215.761,249.046,215.903,249.003,216.014z"/>
								<path style="fill:#BF1925;" d="M218.21,217.653c0,0,5.033,1.034,11.666,3.838c6.633,2.804,7.676,4.093,7.676,4.093
									s-0.494,8.704-1.637,11.031c-1.142,2.327-3.103,1.573-7.766,0.296c-4.664-1.277-12.159-2.688-12.184-4.877
									S216.727,218.501,218.21,217.653z"/>
							</g>
						</g>
						<g>
							<path style="fill:#AF1225;" d="M251.4,258.911c0,0-5.796,15.486-8.792,17.471c-2.997,1.984-24.485-9.28-24.485-9.28
								s4.772-10.786,6.899-13.029c2.127-2.244,15.719-3.443,17.994-3.986C245.291,249.544,251.188,257.041,251.4,258.911z"/>
							<path style="fill:#A30D26;" d="M244.784,251c0,0-5.796,15.486-8.792,17.471c-0.867,0.574-3.282,0.038-6.275-1.012
								l-1.414,4.603c6.002,2.728,12.725,5.367,14.306,4.32c2.997-1.984,8.792-17.471,8.792-17.471
								c-0.171-1.509-4.039-6.672-6.723-8.331C244.734,250.741,244.771,250.882,244.784,251z"/>
							<path style="fill:#CD262D;" d="M218.26,266.727c0,0,4.939-1.417,12.116-2.008c7.177-0.591,8.699,0.068,8.699,0.068
								s3.597,7.942,3.664,10.533c0.066,2.591-2.02,2.832-6.744,3.863c-4.725,1.03-12.02,3.255-13.057,1.327
								C221.901,278.581,217.339,268.167,218.26,266.727z"/>
						</g>
						<g>
							<path style="fill:#BF1925;" d="M272.276,234.352c0,0-10.33,12.912-13.796,13.864c-3.466,0.952-20.377-16.444-20.377-16.444
								s7.894-8.763,10.613-10.233s16.01,1.623,18.34,1.816C269.387,223.549,272.656,232.509,272.276,234.352z"/>
							<path style="fill:#AF1225;" d="M268.452,224.774c0,0-10.33,12.912-13.796,13.864c-1.003,0.275-3.131-0.986-5.648-2.916
								l-2.777,3.934c4.854,4.462,10.421,9.063,12.249,8.56c3.466-0.952,13.796-13.864,13.796-13.864
								c0.307-1.487-1.76-7.598-3.795-10.01C268.485,224.512,268.476,224.658,268.452,224.774z"/>
							<path style="fill:#DB313E;" d="M238.349,231.459c0,0,5.135,0.191,12.139,1.865c7.004,1.673,8.245,2.774,8.245,2.774
								s0.945,8.667,0.201,11.15c-0.744,2.483-2.801,2.062-7.612,1.57c-4.811-0.492-12.436-0.65-12.82-2.805
								S237.025,232.54,238.349,231.459z"/>
						</g>
						<g>
							<g>
								<path style="fill:#8DAF22;" d="M319.299,258.436c0,0-15.989-18.347-40.228-22.142c-24.239-3.795-44.565,8.567-49.227,23.795
									c-3.272,10.685-1.174,20.972,4.523,23.518c5.697,2.547,8.559-6.742,30.395-14.068c21.835-7.327,36.107-5.561,44.794-5.22
									C318.242,264.659,322.126,263.786,319.299,258.436z"/>
								<path style="fill:#BBD649;" d="M319.299,258.436c0,0-15.989-18.347-40.228-22.142c-24.239-3.795-43.386,8.526-48.049,23.754
									c-3.272,10.685-1.16,20.283,4.537,22.829c5.697,2.547,7.368-6.011,29.203-13.338c21.835-7.327,36.107-5.561,44.794-5.22
									C318.242,264.659,322.126,263.786,319.299,258.436z"/>
								<path style="fill:#E2F270;" d="M279.661,239.65c-22.207-3.948-39.546,7.576-43.607,22.068
									c-2.638,9.415-1.065,17.99,3.342,21.203c3.905-1.638,8.906-7.858,25.366-13.381c21.835-7.327,36.107-5.561,44.794-5.22
									c3.502,0.137,6.207,0.07,8.023-0.401c-0.052-0.703-0.325-1.549-0.853-2.573C316.726,261.344,301.868,243.598,279.661,239.65
									z"/>
								<path style="fill:#F6FFC0;" d="M316.017,264.202c-4.597-4.815-16.83-16.085-33.206-19.237
									c-21.006-4.043-37.274,7.011-40.977,21.075c-1.551,5.889-1.444,11.447-0.057,15.51c3.803-2.577,9.612-7.524,22.984-12.011
									c21.835-7.327,36.107-5.561,44.794-5.22C312.165,264.421,314.331,264.409,316.017,264.202z"/>
							</g>
							<g>
								<path style="fill:#8DAF22;" d="M344.74,257.088c0,0-16.145-18.209-40.415-21.798s-44.49,8.947-49.022,24.214
									c-3.18,10.712-0.995,20.981,4.724,23.479c5.719,2.498,8.502-6.814,30.273-14.327c21.772-7.513,36.058-5.869,44.747-5.603
									C343.736,263.319,347.612,262.413,344.74,257.088z"/>
								<path style="fill:#BBD649;" d="M344.74,257.088c0,0-16.145-18.209-40.415-21.798s-43.312,8.896-47.844,24.163
									c-3.18,10.712-0.987,20.292,4.731,22.79c5.719,2.498,7.316-6.074,29.088-13.587c21.772-7.513,36.058-5.869,44.747-5.603
									C343.736,263.319,347.612,262.413,344.74,257.088z"/>
								<path style="fill:#E2F270;" d="M304.943,238.64c-22.24-3.758-39.48,7.913-43.417,22.439
									c-2.558,9.437-0.911,17.998,3.523,21.173c3.891-1.672,8.839-7.934,25.251-13.597c21.772-7.513,36.058-5.869,44.747-5.603
									c3.503,0.107,6.208,0.017,8.019-0.47c-0.058-0.703-0.338-1.546-0.875-2.566C342.191,260.018,327.183,242.398,304.943,238.64
									z"/>
								<path style="fill:#F6FFC0;" d="M341.508,262.881c-4.638-4.776-16.967-15.941-33.369-18.953
									c-21.039-3.864-37.213,7.329-40.795,21.424c-1.5,5.902-1.346,11.459,0.076,15.51c3.781-2.609,9.547-7.605,22.881-12.207
									c21.772-7.513,36.058-5.869,44.747-5.603C337.657,263.133,339.823,263.102,341.508,262.881z"/>
							</g>
							<g>
								<path style="fill:#8DAF22;" d="M371.172,252.949c0,0-16.145-18.21-40.415-21.798c-24.271-3.588-44.49,8.947-49.022,24.214
									c-3.18,10.712-0.995,20.981,4.724,23.479c5.719,2.498,8.502-6.814,30.273-14.327c21.772-7.513,36.058-5.869,44.747-5.603
									C370.169,259.18,374.045,258.274,371.172,252.949z"/>
								<path style="fill:#BBD649;" d="M371.172,252.949c0,0-16.145-18.21-40.415-21.798c-24.271-3.588-43.312,8.896-47.844,24.163
									c-3.18,10.712-0.987,20.292,4.731,22.789c5.719,2.498,7.316-6.074,29.088-13.587c21.772-7.513,36.058-5.869,44.747-5.603
									C370.169,259.18,374.045,258.274,371.172,252.949z"/>
								<path style="fill:#E2F270;" d="M331.375,234.501c-22.24-3.758-39.48,7.913-43.417,22.439
									c-2.558,9.437-0.911,17.998,3.523,21.173c3.891-1.672,8.839-7.934,25.251-13.597c21.772-7.513,36.058-5.869,44.747-5.603
									c3.503,0.107,6.208,0.017,8.019-0.47c-0.058-0.703-0.338-1.546-0.875-2.566
									C368.624,255.879,353.615,238.259,331.375,234.501z"/>
								<path style="fill:#F6FFC0;" d="M367.94,258.742c-4.638-4.776-16.967-15.941-33.369-18.953
									c-21.039-3.864-37.213,7.329-40.796,21.424c-1.5,5.903-1.346,11.459,0.075,15.51c3.781-2.609,9.547-7.605,22.881-12.206
									c21.772-7.513,36.058-5.869,44.747-5.603C364.09,258.994,366.256,258.963,367.94,258.742z"/>
							</g>
						</g>
						<g>
							<g>
								<path style="fill:#F9662B;" d="M327.457,256.578c0,0,10.62-25.136,30.714-29.482c-0.839,1.266-8.073,5.275-13.725,9.629
									C338.794,241.077,330.225,255.706,327.457,256.578z"/>
								<path style="fill:#F9662B;" d="M337.023,263.067c0,0,10.62-25.136,30.714-29.482c-0.839,1.266-8.073,5.275-13.725,9.628
									C348.36,247.566,339.791,262.196,337.023,263.067z"/>
								<path style="fill:#F9662B;" d="M392.072,246.741c0,0-17.981,20.525-38.423,18.336c1.194-0.938,9.322-2.471,16.055-4.828
									C376.438,257.894,389.171,246.698,392.072,246.741z"/>
								<path style="fill:#DD3400;" d="M390.196,244.082c0,0-17.981,20.525-38.423,18.336c1.194-0.938,9.322-2.471,16.055-4.827
									C374.563,255.234,387.295,244.039,390.196,244.082z"/>
								<path style="fill:#DD3400;" d="M347.797,254.758c0,0-17.981,20.525-38.423,18.336c1.194-0.938,9.322-2.471,16.055-4.828
									C332.163,265.911,344.895,254.715,347.797,254.758z"/>
								<path style="fill:#DD3400;" d="M370.661,263.566c0,0-24.622,11.763-42.541,1.684c1.467-0.391,9.54,1.408,16.657,1.901
									C351.894,267.643,368.012,262.382,370.661,263.566z"/>
								<path style="fill:#DD3400;" d="M355.116,269.151c0,0-24.622,11.763-42.541,1.684c1.467-0.391,9.54,1.408,16.657,1.901
									C336.349,273.228,352.467,267.966,355.116,269.151z"/>
								<path style="fill:#F9662B;" d="M334.869,238.835c0,0,33.845-6.279,52.711,14.119c-1.921-0.042-11.269-5.559-19.848-8.958
									C359.153,240.597,337.753,241.441,334.869,238.835z"/>
								<path style="fill:#FF8415;" d="M342.034,237.113c0,0,33.845-6.279,52.711,14.119c-1.921-0.042-11.269-5.559-19.848-8.958
									C366.318,238.875,344.918,239.719,342.034,237.113z"/>
								<path style="fill:#FF8415;" d="M338.084,241.89c0,0,33.845-6.279,52.711,14.119c-1.921-0.042-11.269-5.559-19.848-8.958
									C362.368,243.652,340.968,244.495,338.084,241.89z"/>
								<path style="fill:#F44B0F;" d="M326.316,250.99c0,0,31.216-14.508,54.566,0.551c-1.871,0.438-12.298-2.578-21.453-3.734
									C350.275,246.65,329.758,252.796,326.316,250.99z"/>
								<path style="fill:#F44B0F;" d="M327.384,276.636l6.272-1.978c-20.687-5.256-42.243,4.747-42.243,4.747
									c3.442,1.806,23.958-4.34,33.113-3.183C325.468,276.341,326.425,276.484,327.384,276.636z"/>
								<path style="fill:#F44B0F;" d="M325.129,258.434c0,0,31.216-14.508,54.567,0.551c-1.871,0.438-12.298-2.578-21.453-3.734
									C349.088,254.094,328.571,260.24,325.129,258.434z"/>
								<path style="fill:#F44B0F;" d="M319.411,266.767c0,0,31.216-14.508,54.567,0.551c-1.871,0.438-12.298-2.578-21.453-3.734
									C343.369,262.428,322.853,268.573,319.411,266.767z"/>
								<path style="fill:#F44B0F;" d="M315.403,273.689c0,0,31.216-14.508,54.567,0.551c-1.871,0.438-12.298-2.578-21.453-3.734
									C339.361,269.35,318.844,275.495,315.403,273.689z"/>
								<path style="fill:#FF8415;" d="M354.345,265.483c0,0,18.171-20.357,38.592-17.978c-1.203,0.927-9.344,2.384-16.099,4.678
									C370.082,254.476,357.246,265.552,354.345,265.483z"/>
								<path style="fill:#FF8415;" d="M393.989,243.609c-13.949,4.624-25.341,16.639-25.341,16.639
									c2.901,0.07,15.737-11.007,22.492-13.3c1.518-0.516,3.106-0.987,4.67-1.421C395.479,244.234,395.063,243.63,393.989,243.609
									z"/>
								<path style="fill:#FF8415;" d="M349.15,263.159c0,0,18.172-20.357,38.592-17.978c-1.203,0.927-9.344,2.384-16.099,4.678
									C364.888,252.152,352.051,263.228,349.15,263.159z"/>
								<path style="fill:#FF8415;" d="M338.218,263.259c0,0,18.171-20.357,38.592-17.978c-1.203,0.927-9.344,2.384-16.099,4.678
									C353.955,252.253,341.118,263.329,338.218,263.259z"/>
								<path style="fill:#F44B0F;" d="M345.424,267.242c0,0,10.219-25.302,30.241-29.967c-0.819,1.279-7.988,5.403-13.57,9.846
									C356.513,251.563,348.177,266.327,345.424,267.242z"/>
								<path style="fill:#F44B0F;" d="M346.884,270.273c0,0,10.219-25.302,30.241-29.967c-0.819,1.279-7.988,5.403-13.57,9.846
									C357.973,254.594,349.637,269.358,346.884,270.273z"/>
								<path style="fill:#F9662B;" d="M324.672,257.933c0,0,29.316-18.04,54.26-5.8c-1.807,0.653-12.514-1.13-21.742-1.213
									C347.963,250.836,328.3,259.326,324.672,257.933z"/>
								<path style="fill:#F44B0F;" d="M318.323,258.75c0,0,33.454-8.105,53.399,11.24c-1.921,0.063-11.554-4.939-20.304-7.868
									C342.667,259.192,321.343,261.195,318.323,258.75z"/>
								<path style="fill:#FF8415;" d="M300.977,274.006c0,0,23.267-12.018,41.494-1.312c-1.408,0.392-9.43-1.569-16.425-2.158
									C319.05,269.948,303.65,275.27,300.977,274.006z"/>
								<path style="fill:#FF8415;" d="M337.07,231.518c0,0,25.756,16.783,24.641,42.655c-1.204-1.228-3.623-10.875-6.921-18.578
									C351.492,247.892,337.231,235.119,337.07,231.518z"/>
								<path style="fill:#FF8415;" d="M331.077,228.284c0,0,30.694-1.713,45.106,19.802c-1.697-0.277-9.356-6.622-16.573-10.88
									C352.393,232.948,333.338,231.092,331.077,228.284z"/>
								<path style="fill:#FF8415;" d="M370.638,263.43c0,0-28.892,10.503-48.903-5.933c1.705-0.225,10.87,3.638,19.009,5.631
									C348.884,265.12,367.663,261.395,370.638,263.43z"/>
								<path style="fill:#FF8415;" d="M338.854,267.154c0,0-28.892,10.503-48.903-5.934c1.705-0.225,10.87,3.638,19.009,5.631
									C317.099,268.845,335.879,265.119,338.854,267.154z"/>
								<path style="fill:#FF8415;" d="M340.98,273.503c0,0-28.892,10.503-48.903-5.933c1.705-0.225,10.87,3.638,19.009,5.631
									C319.225,275.194,338.005,271.468,340.98,273.503z"/>
								<path style="fill:#FF8415;" d="M333.75,247.95c0,0,18.171-20.357,38.592-17.978c-1.203,0.927-9.344,2.384-16.099,4.678
									C349.487,236.944,336.651,248.02,333.75,247.95z"/>
								<path style="fill:#DD3400;" d="M339.674,223.858c0,0,27.281,0.59,38.738,17.66c-1.486-0.312-7.883-5.555-14.015-9.201
									C358.265,228.671,341.505,226.108,339.674,223.858z"/>
								<path style="fill:#FF8415;" d="M321.124,245.399c0,0,27.055,3.56,36.582,21.778c-1.443-0.473-7.23-6.381-12.929-10.674
									C339.08,252.21,322.7,247.835,321.124,245.399z"/>
								<path style="fill:#F9662B;" d="M342.928,238.78c0,0,27.054,3.56,36.582,21.778c-1.443-0.473-7.23-6.381-12.929-10.674
									C360.884,245.592,344.504,241.217,342.928,238.78z"/>
							</g>
							<g>
								<path style="fill:#F9662B;" d="M342.103,241.805c0,0,4.007,26.992-10.894,41.157c0.058-1.518,4.15-8.705,6.712-15.363
									C340.484,260.941,340.192,243.989,342.103,241.805z"/>
								<path style="fill:#F9662B;" d="M335.117,231.52c0,0,4.007,26.992-10.893,41.157c0.058-1.518,4.15-8.705,6.712-15.363
									C333.498,250.656,333.206,233.703,335.117,231.52z"/>
								<path style="fill:#F9662B;" d="M296.596,274.099c0,0,4.679-26.884,23.276-35.648c-0.532,1.422-6.675,6.96-11.2,12.475
									C304.146,256.442,299.096,272.626,296.596,274.099z"/>
								<path style="fill:#DD3400;" d="M300.818,276.832c0,0,4.679-26.884,23.276-35.648c-0.532,1.422-6.675,6.96-11.2,12.475
									C308.368,259.174,303.318,275.359,300.818,276.832z"/>
								<path style="fill:#DD3400;" d="M323.951,255.204c0,0,4.679-26.884,23.276-35.648c-0.532,1.422-6.675,6.96-11.201,12.475
									C331.501,237.546,326.451,253.731,323.951,255.204z"/>
								<path style="fill:#DD3400;" d="M306.129,248.592c0,0,14.909-22.855,35.455-23.568c-1.05,1.097-8.88,3.76-15.215,7.042
									C320.035,235.347,309.007,248.225,306.129,248.592z"/>
								<path style="fill:#DD3400;" d="M349.476,269.496c0,0,14.909-22.855,35.455-23.568c-1.05,1.097-8.88,3.76-15.215,7.042
									C363.382,256.251,352.354,269.129,349.476,269.496z"/>
								<path style="fill:#F9662B;" d="M349.562,251.094c0,0-25.638,22.969-52.362,15.363c1.662-0.964,12.516-1.115,21.611-2.675
									C327.906,262.222,345.743,250.368,349.562,251.094z"/>
								<path style="fill:#F9662B;" d="M331.164,267.939c0,0-25.638,22.969-52.362,15.363c1.662-0.964,12.516-1.115,21.611-2.675
									C309.508,279.068,327.346,267.214,331.164,267.939z"/>
								<path style="fill:#F9662B;" d="M340.04,257.977c0,0-25.638,22.969-52.362,15.363c1.662-0.964,12.516-1.115,21.611-2.675
									C318.384,269.105,336.222,257.251,340.04,257.977z"/>
								<path style="fill:#F44B0F;" d="M350.543,236.264c0,0-19.112,28.629-46.888,27.916c1.37-1.347,11.844-4.196,20.264-7.971
									C332.34,252.434,346.664,236.512,350.543,236.264z"/>
								<path style="fill:#FF8415;" d="M322.736,237.352c0,0-4.929,26.839-23.606,35.43c0.545-1.417,6.74-6.897,11.316-12.37
									C315.021,254.939,320.222,238.802,322.736,237.352z"/>
								<path style="fill:#F44B0F;" d="M321.496,238.32c0,0,4.435,26.925-10.238,41.325c0.034-1.518,4.011-8.77,6.467-15.468
									C320.182,257.479,319.621,240.534,321.496,238.32z"/>
								<path style="fill:#F9662B;" d="M348.336,229.479c0,0-15.652,30.658-43.323,33.18c1.204-1.498,11.276-5.545,19.2-10.274
									C332.137,247.656,344.512,230.177,348.336,229.479z"/>
								<path style="fill:#FF8415;" d="M308.386,251.842c0,0,19.211-24,44.851-20.372c-1.339,1.079-11.176,2.548-19.164,5.08
									C326.086,239.081,311.986,252.032,308.386,251.842z"/>
								<path style="fill:#FF8415;" d="M309.331,258.563c0,0,19.211-24,44.851-20.372c-1.339,1.079-11.176,2.548-19.164,5.08
									C327.031,245.803,312.93,258.753,309.331,258.563z"/>
								<path style="fill:#F44B0F;" d="M353.333,225.479c0,0-24.355,24.325-51.452,18.179c1.608-1.053,12.437-1.792,21.434-3.842
									C332.313,237.764,349.481,224.961,353.333,225.479z"/>
								<path style="fill:#FF8415;" d="M351.489,258.488c0,0-30.728-0.935-43.234-23.61c1.667,0.422,8.752,7.402,15.575,12.266
									C330.654,252.007,349.478,255.496,351.489,258.488z"/>
								<path style="fill:#FF8415;" d="M306.219,248.697c0,0,19.211-24,44.851-20.372c-1.339,1.079-11.176,2.548-19.163,5.08
									C323.919,235.936,309.819,248.887,306.219,248.697z"/>
								<path style="fill:#FF8415;" d="M345.776,242.727c0,0-4.929,26.839-23.606,35.43c0.545-1.417,6.74-6.897,11.316-12.37
									S343.262,244.177,345.776,242.727z"/>
								<path style="fill:#FF8415;" d="M357.886,238.338c0,0-24.958,11.033-42.572,0.432c1.478-0.347,9.495,1.688,16.594,2.39
									C339.008,241.862,355.273,237.077,357.886,238.338z"/>
								<path style="fill:#F9662B;" d="M342.707,255.333c0,0-24.958,11.033-42.572,0.432c1.478-0.347,9.495,1.688,16.594,2.39
									C323.829,258.857,340.095,254.072,342.707,255.333z"/>
							</g>
						</g>
					</g>
					<g style="clip-path:url(#SVGID_00000074411541192991464260000013784353723477926278_);">
						<g>
							
								<ellipse transform="matrix(0.9019 -0.432 0.432 0.9019 -59.7364 139.9229)" style="fill:#FFFFFF;" cx="278.137" cy="201.456" rx="16.132" ry="19.713"/>
							<path style="fill:#A300BA;" d="M280.756,221.052c-9.389,0-18.24-8.702-19.756-19.44c-0.804-5.701,0.6-11.128,3.852-14.89
								c2.691-3.113,6.452-4.84,10.588-4.861c0.026,0,0.053,0,0.078,0c9.389,0,18.24,8.702,19.755,19.44
								c0.805,5.7-0.599,11.127-3.851,14.89c-2.691,3.114-6.451,4.84-10.588,4.862C280.808,221.052,280.781,221.052,280.756,221.052
								z M275.519,182.86c-0.025,0-0.049,0-0.073,0c-3.844,0.02-7.337,1.624-9.837,4.516c-3.064,3.543-4.382,8.681-3.618,14.096
								c1.448,10.262,9.857,18.579,18.765,18.579c0.025,0,0.049,0,0.073,0c3.844-0.02,7.338-1.624,9.837-4.516
								c3.063-3.544,4.381-8.682,3.617-14.096l0,0C292.835,191.178,284.427,182.86,275.519,182.86z"/>
						</g>
						<g>
							<path style="fill:#A300BA;" d="M280.348,218.003c-7.928,0.001-15.402-7.348-16.682-16.416
								c-0.679-4.814,0.507-9.396,3.252-12.573c2.273-2.629,5.448-4.087,8.941-4.105c0.021,0,0.044,0,0.065,0
								c7.929,0,15.403,7.348,16.682,16.416l0,0c0.68,4.813-0.506,9.395-3.251,12.573c-2.273,2.629-5.449,4.088-8.942,4.106
								C280.392,218.003,280.369,218.003,280.348,218.003z M275.926,185.753c-0.021,0-0.041,0-0.063,0
								c-3.245,0.017-6.195,1.371-8.306,3.813c-2.587,2.992-3.7,7.331-3.056,11.903c1.223,8.666,8.323,15.689,15.845,15.69
								c0.021,0,0.041,0,0.063-0.001c3.246-0.017,6.196-1.371,8.307-3.814c2.587-2.993,3.7-7.331,3.055-11.902l0,0
								C290.549,192.777,283.448,185.753,275.926,185.753z"/>
						</g>
						<g>
							<path style="fill:#D654D3;" d="M279.925,214.92c-6.45,0-12.532-5.974-13.571-13.346c-0.553-3.916,0.412-7.646,2.649-10.233
								c1.853-2.145,4.443-3.334,7.293-3.349c0.018,0,0.035,0,0.054,0c6.449,0,12.531,5.974,13.571,13.346l0,0
								c0.553,3.917-0.413,7.646-2.649,10.233c-1.854,2.145-4.443,3.333-7.292,3.348C279.961,214.92,279.943,214.92,279.925,214.92z
								 M276.349,188.836c-0.017,0-0.033,0-0.05,0.001c-2.602,0.013-4.966,1.099-6.658,3.056c-2.076,2.402-2.97,5.888-2.451,9.563
								c0.983,6.971,6.689,12.62,12.735,12.62c0.017,0,0.033,0,0.05-0.001c2.601-0.013,4.965-1.099,6.657-3.056
								c2.076-2.402,2.971-5.888,2.452-9.563C288.1,194.486,282.394,188.836,276.349,188.836z"/>
						</g>
						<g>
							<path style="fill:#D654D3;" d="M279.467,211.586c-4.853,0-9.427-4.489-10.209-10.028c-0.415-2.946,0.313-5.754,1.998-7.703
								c1.4-1.62,3.356-2.519,5.509-2.53c0.014,0,0.027,0,0.041,0c4.854,0,9.429,4.489,10.209,10.028l0,0
								c0.416,2.946-0.311,5.753-1.996,7.703c-1.401,1.621-3.357,2.519-5.511,2.53C279.494,211.586,279.48,211.586,279.467,211.586z
								 M276.806,192.17c-0.012,0-0.024,0.001-0.037,0.001c-1.904,0.01-3.636,0.804-4.874,2.237
								c-1.525,1.765-2.182,4.328-1.801,7.033c0.726,5.138,4.925,9.301,9.373,9.302c0.012,0,0.024-0.001,0.037-0.001
								c1.905-0.01,3.637-0.804,4.875-2.238c1.525-1.765,2.182-4.328,1.8-7.032l0,0C285.454,196.334,281.255,192.17,276.806,192.17z
								"/>
						</g>
						<g>
							<path style="fill:#D654D3;" d="M279.118,209.033c-3.631,0-7.052-3.351-7.635-7.486c-0.311-2.203,0.235-4.305,1.498-5.766
								c1.053-1.219,2.525-1.895,4.144-1.903c0.01,0,0.021,0,0.03,0c3.631,0,7.052,3.351,7.635,7.486
								c0.311,2.203-0.235,4.305-1.498,5.766c-1.053,1.219-2.524,1.895-4.144,1.903
								C279.139,209.033,279.128,209.033,279.118,209.033z M277.156,194.723c-0.009,0-0.018,0-0.027,0
								c-1.371,0.007-2.617,0.579-3.509,1.61c-1.103,1.276-1.577,3.134-1.301,5.095c0.527,3.734,3.573,6.759,6.798,6.759
								c0.009,0,0.018,0,0.027,0c1.371-0.007,2.617-0.579,3.509-1.61c1.104-1.276,1.577-3.134,1.301-5.095
								C283.427,197.749,280.381,194.723,277.156,194.723z"/>
						</g>
						<g>
							<path style="fill:#D654D3;" d="M278.68,205.837c-2.1,0-4.076-1.927-4.41-4.305c-0.18-1.272,0.138-2.489,0.872-3.338
								c0.619-0.716,1.483-1.113,2.435-1.119c0.006,0,0.012,0,0.018,0c2.099,0,4.074,1.927,4.41,4.304
								c0.18,1.272-0.139,2.489-0.872,3.339c-0.619,0.716-1.483,1.113-2.435,1.119C278.691,205.837,278.685,205.837,278.68,205.837z
								 M277.594,197.92c-0.004,0-0.009,0-0.014,0c-0.703,0.003-1.343,0.297-1.8,0.826c-0.574,0.665-0.82,1.637-0.675,2.668
								c0.278,1.976,1.88,3.578,3.574,3.578c0.004,0,0.009,0,0.014,0c0.703-0.003,1.342-0.297,1.8-0.826
								c0.574-0.665,0.82-1.638,0.675-2.668l0,0C280.889,199.521,279.287,197.92,277.594,197.92z"/>
						</g>
					</g>
					<g style="clip-path:url(#SVGID_00000074411541192991464260000013784353723477926278_);">
						<g>
							
								<ellipse transform="matrix(0.4826 -0.8758 0.8758 0.4826 -40.5547 381.8683)" style="fill:#FFFFFF;" cx="302.939" cy="225.26" rx="19.713" ry="16.132"/>
							<path style="fill:#A300BA;" d="M288.518,238.784c-5.459-7.639-3.525-19.9,4.331-27.376c4.171-3.968,9.402-5.982,14.354-5.523
								c4.098,0.38,7.689,2.436,10.111,5.788c0.015,0.021,0.031,0.043,0.046,0.064c5.458,7.639,3.525,19.9-4.331,27.375
								c-4.17,3.969-9.401,5.982-14.353,5.524c-4.098-0.379-7.689-2.435-10.112-5.788
								C288.548,238.826,288.533,238.805,288.518,238.784z M316.547,212.318c-0.015-0.021-0.028-0.04-0.043-0.06
								c-2.251-3.116-5.587-5.025-9.393-5.378c-4.664-0.432-9.611,1.482-13.572,5.252c-7.507,7.145-9.385,18.822-4.207,26.069
								c0.015,0.021,0.028,0.04,0.043,0.06c2.251,3.116,5.587,5.026,9.393,5.378c4.664,0.431,9.611-1.483,13.572-5.253l0,0
								C319.847,231.243,321.726,219.566,316.547,212.318z"/>
						</g>
						<g>
							<path style="fill:#A300BA;" d="M290.761,236.68c-4.61-6.45-2.976-16.804,3.658-23.117c3.522-3.351,7.94-5.051,12.121-4.664
								c3.461,0.321,6.493,2.056,8.539,4.888c0.013,0.017,0.026,0.036,0.038,0.053c4.61,6.451,2.977,16.805-3.658,23.117l0,0
								c-3.521,3.351-7.939,5.051-12.12,4.665c-3.461-0.321-6.494-2.057-8.54-4.889C290.787,236.715,290.774,236.697,290.761,236.68
								z M314.43,214.331c-0.013-0.017-0.024-0.033-0.037-0.051c-1.9-2.631-4.717-4.244-7.931-4.541
								c-3.939-0.365-8.116,1.251-11.461,4.434c-6.34,6.033-7.926,15.893-3.553,22.014c0.012,0.018,0.024,0.033,0.037,0.05
								c1.901,2.632,4.718,4.244,7.932,4.541c3.939,0.365,8.116-1.251,11.46-4.435l0,0
								C317.217,230.313,318.803,220.452,314.43,214.331z"/>
						</g>
						<g>
							<path style="fill:#D654D3;" d="M293.024,234.543c-3.75-5.248-2.426-13.67,2.968-18.801c2.865-2.727,6.46-4.11,9.865-3.795
								c2.823,0.261,5.296,1.677,6.965,3.987c0.01,0.014,0.02,0.029,0.031,0.044c3.75,5.247,2.425,13.669-2.968,18.801l0,0
								c-2.865,2.727-6.462,4.11-9.866,3.794c-2.823-0.261-5.296-1.677-6.964-3.986
								C293.045,234.572,293.035,234.558,293.024,234.543z M312.167,216.468c-0.01-0.014-0.019-0.027-0.029-0.04
								c-1.523-2.109-3.781-3.401-6.358-3.64c-3.162-0.292-6.517,1.007-9.205,3.565c-5.1,4.853-6.379,12.78-2.864,17.699
								c0.01,0.014,0.019,0.027,0.029,0.04c1.523,2.108,3.78,3.401,6.357,3.64c3.162,0.292,6.518-1.006,9.206-3.565
								C314.402,229.314,315.681,221.387,312.167,216.468z"/>
						</g>
						<g>
							<path style="fill:#D654D3;" d="M295.47,232.232c-2.821-3.948-1.829-10.28,2.223-14.136c2.156-2.051,4.863-3.091,7.429-2.853
								c2.132,0.197,4,1.267,5.261,3.011c0.008,0.011,0.016,0.022,0.024,0.033c2.822,3.949,1.83,10.281-2.223,14.136l0,0
								c-2.155,2.051-4.862,3.092-7.428,2.854c-2.133-0.198-4.002-1.267-5.263-3.012
								C295.486,232.254,295.478,232.243,295.47,232.232z M309.72,218.778c-0.007-0.01-0.015-0.02-0.022-0.03
								c-1.115-1.544-2.768-2.491-4.654-2.665c-2.323-0.215-4.79,0.741-6.769,2.624c-3.758,3.577-4.704,9.415-2.118,13.034
								c0.007,0.01,0.015,0.02,0.022,0.03c1.116,1.544,2.769,2.491,4.655,2.665c2.323,0.215,4.79-0.741,6.768-2.624l0,0
								C311.361,228.236,312.307,222.398,309.72,218.778z"/>
						</g>
						<g>
							<path style="fill:#D654D3;" d="M297.345,230.464c-2.111-2.954-1.374-7.686,1.652-10.564c1.612-1.534,3.639-2.311,5.562-2.133
								c1.604,0.148,3.009,0.952,3.957,2.265c0.006,0.008,0.012,0.017,0.018,0.025c2.111,2.954,1.374,7.686-1.652,10.564
								c-1.612,1.533-3.639,2.311-5.562,2.133c-1.604-0.148-3.009-0.952-3.957-2.265
								C297.357,230.481,297.35,230.472,297.345,230.464z M307.846,220.548c-0.005-0.007-0.01-0.014-0.016-0.022
								c-0.803-1.112-1.992-1.793-3.35-1.919c-1.68-0.156-3.467,0.539-4.902,1.904c-2.731,2.6-3.422,6.837-1.547,9.461
								c0.005,0.007,0.01,0.014,0.016,0.022c0.803,1.112,1.992,1.793,3.35,1.919c1.68,0.156,3.467-0.539,4.902-1.904
								C309.031,227.409,309.721,223.172,307.846,220.548z"/>
						</g>
						<g>
							<path style="fill:#D654D3;" d="M299.69,228.249c-1.221-1.708-0.802-4.437,0.938-6.091c0.93-0.886,2.105-1.335,3.223-1.231
								c0.943,0.087,1.768,0.56,2.326,1.33c0.003,0.005,0.007,0.009,0.01,0.014c1.22,1.708,0.801,4.435-0.938,6.091
								c-0.931,0.886-2.106,1.335-3.224,1.232c-0.943-0.087-1.768-0.56-2.326-1.33C299.697,228.258,299.694,228.254,299.69,228.249z
								 M305.5,222.762c-0.002-0.003-0.005-0.007-0.008-0.011c-0.412-0.57-1.022-0.92-1.719-0.984
								c-0.874-0.081-1.809,0.284-2.563,1.002c-1.446,1.375-1.818,3.609-0.833,4.988c0.002,0.003,0.005,0.007,0.008,0.011
								c0.412,0.57,1.022,0.919,1.719,0.984c0.875,0.081,1.809-0.285,2.563-1.002l0,0C306.113,226.374,306.485,224.14,305.5,222.762
								z"/>
						</g>
					</g>
					<g style="clip-path:url(#SVGID_00000074411541192991464260000013784353723477926278_);">
						<g>
							<g>
								<path style="fill:#637C14;" d="M327.773,213.984c1.441,7.708-2.652,12.985-2.652,12.985s1.877-0.3,3.911-5.404
									c0.788-2.654,0.989-5.047,0.893-7.093L327.773,213.984z"/>
								<path style="fill:#819B16;" d="M329.353,214.342c-0.056,2.293-0.519,5.014-1.824,8.032
									c-3.855,8.915-16.073,3.563-17.201,2.053c-1.036,3.043-1.111,3.359-1.111,3.359s11.174,5.651,16.743,0.829
									c3.533-3.059,4.703-8.93,4.259-14.075L329.353,214.342z"/>
							</g>
							<g>
								<path style="fill:#819B16;" d="M267.119,212.612c-0.137-0.745-0.288-1.494-0.452-2.244
									c-5.134,2.452-12.481-0.943-13.343-2.098c-1.036,3.043-1.111,3.359-1.111,3.359s9.26,4.682,15.122,1.881
									C267.25,213.215,267.175,212.917,267.119,212.612z"/>
							</g>
							<g>
								<path style="fill:#819B16;" d="M218.786,257.612c-0.136-0.745-0.288-1.494-0.452-2.244
									c-5.134,2.452-12.481-0.943-13.343-2.098c-1.036,3.043-1.111,3.359-1.111,3.359s9.26,4.682,15.122,1.881
									C218.917,258.215,218.842,257.917,218.786,257.612z"/>
							</g>
							<g>
								<path style="fill:#819B16;" d="M182.452,214.158c-0.136-0.745-0.288-1.494-0.452-2.244
									c-5.134,2.452-12.481-0.943-13.343-2.098c-1.036,3.043-1.111,3.359-1.111,3.359s9.26,4.681,15.122,1.881
									C182.584,214.761,182.508,214.463,182.452,214.158z"/>
							</g>
							<g>
								<path style="fill:#819B16;" d="M222.781,215.677c-0.5,1.313-1.854,2.799-3.313,3.844c-7.897,5.655-15.105-5.05-15.293-6.925
									c-2.455,2.074-2.682,2.306-2.682,2.306s6.665,10.6,13.923,9.336c3.603-0.628,6.856-3.478,9.189-6.91
									C224.285,217.03,223.113,215.962,222.781,215.677z"/>
							</g>
							<path style="fill:#637C14;" d="M251.784,223.593c0,0,12.796,2.225,12.574,9.836c-0.222,7.61-10.061,8.86-10.061,8.86
								l3.061,3.049c0,0,7.71-1.76,9.407-8.951c1.697-7.191-2.099-11.548-10.836-14.843
								C253.712,222.904,251.784,223.593,251.784,223.593z"/>
							<path style="fill:#A1B725;" d="M247.403,225.423c-0.74-0.434-1.477-0.881-2.19-1.359c-1.173,1.523-2.736,2.642-4.813,2.706
								c-6.817,0.207-8.459-8.524-8.459-8.524l-2.563,2.899c0,0,1.985,6.8,8.506,7.934
								C242.09,229.811,245.116,228.548,247.403,225.423z"/>
							<path style="fill:#637C14;" d="M186.002,229.439c-0.74-0.434-1.477-0.881-2.19-1.359c-1.173,1.523-2.736,2.642-4.813,2.706
								c-6.817,0.207-8.459-8.524-8.459-8.524l-2.563,2.899c0,0,1.985,6.8,8.505,7.934
								C180.689,233.827,183.715,232.564,186.002,229.439z"/>
							<path style="fill:#637C14;" d="M291.738,202.452c0.801,0.309,1.599,0.631,2.381,0.987c0.911-1.692,2.273-3.05,4.313-3.447
								c6.694-1.305,9.724,7.046,9.724,7.046l2.062-3.275c0,0-3.057-6.391-9.675-6.456
								C296.272,197.265,293.49,198.999,291.738,202.452z"/>
							<path style="fill:#637C14;" d="M261.809,222.465c0.801,0.309,1.6,0.631,2.381,0.987c0.912-1.692,2.274-3.05,4.313-3.447
								c6.694-1.305,9.724,7.046,9.724,7.046l2.062-3.275c0,0-3.057-6.391-9.675-6.456
								C266.343,217.278,263.561,219.012,261.809,222.465z"/>
							<path style="fill:#637C14;" d="M207.469,199.354c7.141,2.321,5.727,12.027,5.727,12.027l3.758-2.132
								c0,0,0.37-7.9-6.104-11.461c-0.695-0.382-1.372-0.68-2.039-0.924L207.469,199.354z"/>
							<path style="fill:#637C14;" d="M267.342,244.521c0.841,7.461-8.58,10.19-8.58,10.19l3.495,2.539
								c0,0,7.345-2.931,7.909-10.298c0.061-0.79,0.052-1.53-0.002-2.239L267.342,244.521z"/>
							<path style="fill:#A1B725;" d="M225.269,251.165c0,0,6.372-11.317,13.471-8.565s4.989,12.443,4.989,12.443l3.897-1.866
								c0,0,0.917-7.855-5.294-11.856c-6.211-4.002-11.585-1.879-17.61,5.254C225.264,249.118,225.269,251.165,225.269,251.165z"/>
							<path style="fill:#819B16;" d="M237.285,208.432c0,0,4.623,0.501,6.702,6.329c2.068,0.16,3.429-1.167,3.429-1.167
								s-1.262-4.89-7.22-6.877C238.691,206.764,237.285,208.432,237.285,208.432z"/>
							<path style="fill:#819B16;" d="M205.931,234.977c0,0-2.678,3.802-8.783,2.797c-1.142,1.732-0.641,3.565-0.641,3.565
								s4.889,1.265,9.514-2.984C206.71,237.015,205.931,234.977,205.931,234.977z"/>
							<path style="fill:#819B16;" d="M303.983,210.716c0,0,4.623,0.501,6.702,6.329c2.068,0.16,3.429-1.167,3.429-1.167
								s-1.262-4.89-7.22-6.877C305.389,209.048,303.983,210.716,303.983,210.716z"/>
							<path style="fill:#819B16;" d="M294.096,234.693c0,0-0.844,4.573-6.811,6.211c-0.314,2.051,0.908,3.507,0.908,3.507
								s4.97-0.894,7.397-6.687C295.655,236.22,294.096,234.693,294.096,234.693z"/>
							<path style="fill:#637C14;" d="M284.59,223.979c0,0-1.803,6.826-6.668,9.1c1.951,1.568,2.54,1.68,2.54,1.68
								s5.511-3.228,6.797-8.894C286.399,224.984,284.59,223.979,284.59,223.979z"/>
							<path style="fill:#637C14;" d="M227.43,197.348c0,0,7.031-0.639,10.831,3.157c0.807-2.369,0.711-2.962,0.711-2.962
								s-4.917-4.076-10.682-3.348C227.757,195.305,227.43,197.348,227.43,197.348z"/>
							<path style="fill:#A1B725;" d="M259.473,197.213c0,0-7.051-0.35-10.283-4.639c-1.13,2.233-1.118,2.833-1.118,2.833
								s4.299,4.723,10.109,4.808C258.865,199.191,259.473,197.213,259.473,197.213z"/>
							<path style="fill:#A1B725;" d="M320.644,243.884c0,0-1.803,6.826-6.668,9.1c1.951,1.568,2.54,1.68,2.54,1.68
								s5.511-3.228,6.797-8.894C322.453,244.889,320.644,243.884,320.644,243.884z"/>
							<path style="fill:#A1B725;" d="M297.241,211.47c0,0-10.562-0.224-15.542-5.671c-1.617,2.927-1.578,3.703-1.578,3.703
								s6.592,5.974,15.288,5.896C296.397,214.05,297.241,211.47,297.241,211.47z"/>
							<path style="fill:#637C14;" d="M191.158,243.431c0,0-10.562-0.224-15.542-5.671c-1.617,2.927-1.578,3.703-1.578,3.703
								s6.592,5.974,15.288,5.896C190.314,246.011,191.158,243.431,191.158,243.431z"/>
						</g>
						<path style="fill:#FBFFCC;" d="M196.75,218.31c0,0.465-0.933,0.842-2.083,0.842s-2.083-0.377-2.083-0.842
							c0-0.465,0.933-0.842,2.083-0.842S196.75,217.845,196.75,218.31z"/>
						<path style="fill:#FBFFCC;" d="M182.613,237.404c0,0.465-0.933,0.842-2.083,0.842s-2.083-0.377-2.083-0.842
							s0.933-0.842,2.083-0.842S182.613,236.939,182.613,237.404z"/>
						<path style="fill:#FBFFCC;" d="M197.008,251.367c-0.329-0.329,0.064-1.255,0.878-2.069c0.813-0.814,1.74-1.206,2.069-0.878
							c0.329,0.329-0.064,1.255-0.878,2.069S197.337,251.696,197.008,251.367z"/>
						<path style="fill:#FBFFCC;" d="M179.057,254.928c-0.329-0.329,0.064-1.255,0.878-2.069c0.814-0.814,1.74-1.206,2.069-0.878
							c0.329,0.329-0.064,1.255-0.878,2.069S179.386,255.257,179.057,254.928z"/>
						<path style="fill:#FBFFCC;" d="M192.856,232.45c-0.329-0.329,0.064-1.255,0.878-2.069c0.814-0.814,1.74-1.207,2.069-0.878
							c0.329,0.329-0.064,1.255-0.878,2.069C194.111,232.386,193.185,232.779,192.856,232.45z"/>
						<path style="fill:#FBFFCC;" d="M203.927,226.693c-0.329-0.329,0.064-1.255,0.878-2.069c0.814-0.814,1.74-1.206,2.069-0.878
							c0.329,0.329-0.064,1.255-0.878,2.069C205.182,226.629,204.256,227.022,203.927,226.693z"/>
						<path style="fill:#FBFFCC;" d="M200.065,268.563c-0.062-0.461,0.812-0.959,1.952-1.113c1.14-0.154,2.115,0.095,2.177,0.556
							c0.062,0.461-0.812,0.959-1.952,1.113C201.102,269.272,200.128,269.023,200.065,268.563z"/>
						<path style="fill:#FBFFCC;" d="M212.941,261.563c-0.062-0.461,0.812-0.959,1.952-1.113c1.14-0.154,2.115,0.095,2.177,0.556
							c0.062,0.461-0.812,0.959-1.952,1.113C213.978,262.272,213.003,262.023,212.941,261.563z"/>
						<path style="fill:#FBFFCC;" d="M228.697,231.382c-0.329-0.329,0.064-1.255,0.878-2.069c0.814-0.814,1.74-1.207,2.069-0.878
							c0.329,0.329-0.064,1.255-0.878,2.069S229.026,231.711,228.697,231.382z"/>
						<path style="fill:#FBFFCC;" d="M208.002,217.114c0.079-0.458,1.062-0.671,2.196-0.476c1.134,0.196,1.989,0.726,1.91,1.184
							c-0.079,0.458-1.062,0.671-2.196,0.476C208.778,218.103,207.923,217.572,208.002,217.114z"/>
						<path style="fill:#FBFFCC;" d="M214.76,230.842c-0.329-0.329,0.064-1.255,0.878-2.069c0.814-0.814,1.74-1.207,2.069-0.878
							c0.329,0.329-0.064,1.255-0.878,2.069S215.089,231.171,214.76,230.842z"/>
						<path style="fill:#FBFFCC;" d="M206.385,256.171c-0.026-0.464,0.885-0.892,2.034-0.956c1.149-0.064,2.101,0.261,2.127,0.726
							c0.026,0.464-0.885,0.892-2.033,0.956C207.363,256.961,206.411,256.636,206.385,256.171z"/>
						<path style="fill:#FBFFCC;" d="M157.67,243.788c-0.026-0.464,0.885-0.893,2.033-0.956c1.149-0.064,2.101,0.261,2.127,0.726
							c0.026,0.464-0.885,0.892-2.033,0.956S157.696,244.252,157.67,243.788z"/>
						<path style="fill:#FBFFCC;" d="M241.385,265.921c-0.026-0.464,0.885-0.892,2.034-0.956c1.149-0.064,2.101,0.261,2.127,0.726
							c0.026,0.464-0.885,0.892-2.033,0.956C242.363,266.711,241.411,266.386,241.385,265.921z"/>
						<path style="fill:#FBFFCC;" d="M226.26,214.518c-0.026-0.464,0.885-0.893,2.034-0.956c1.149-0.064,2.101,0.261,2.127,0.726
							c0.026,0.464-0.885,0.892-2.033,0.956C227.238,215.307,226.286,214.982,226.26,214.518z"/>
						<path style="fill:#FBFFCC;" d="M245.594,227.895c-0.026-0.464,0.885-0.893,2.034-0.956c1.149-0.064,2.101,0.261,2.127,0.726
							c0.026,0.464-0.885,0.892-2.034,0.956C246.572,228.684,245.619,228.359,245.594,227.895z"/>
						<path style="fill:#FBFFCC;" d="M256.409,226.935c-0.329-0.329,0.064-1.255,0.878-2.069s1.74-1.207,2.069-0.878
							c0.329,0.329-0.064,1.255-0.878,2.069C257.664,226.871,256.737,227.264,256.409,226.935z"/>
						<path style="fill:#FBFFCC;" d="M252.329,247.584c-0.329-0.329,0.064-1.255,0.878-2.069s1.74-1.207,2.069-0.878
							c0.329,0.329-0.064,1.255-0.878,2.069C253.584,247.52,252.658,247.913,252.329,247.584z"/>
						
							<ellipse transform="matrix(0.7071 -0.7071 0.7071 0.7071 -125.6342 238.933)" style="fill:#FBFFCC;" cx="225.6" cy="271.12" rx="2.083" ry="0.842"/>
						<path style="fill:#FBFFCC;" d="M217.437,239.46c-0.38,0.269-1.226-0.274-1.891-1.213c-0.665-0.939-0.897-1.918-0.517-2.187
							c0.38-0.269,1.226,0.274,1.891,1.213S217.817,239.191,217.437,239.46z"/>
						<path style="fill:#FBFFCC;" d="M160.954,257.756c-0.38,0.269-1.226-0.274-1.891-1.213s-0.897-1.918-0.517-2.187
							c0.38-0.269,1.226,0.274,1.891,1.213S161.334,257.487,160.954,257.756z"/>
						<path style="fill:#FBFFCC;" d="M189.097,264.641c-0.38,0.269-1.226-0.274-1.891-1.213s-0.897-1.918-0.517-2.187
							s1.226,0.274,1.892,1.213S189.477,264.372,189.097,264.641z"/>
						<path style="fill:#FBFFCC;" d="M254.375,237.335c-0.38,0.269-1.226-0.274-1.891-1.213s-0.897-1.918-0.517-2.187
							c0.38-0.269,1.226,0.274,1.891,1.213C254.523,236.087,254.755,237.066,254.375,237.335z"/>
						<path style="fill:#FBFFCC;" d="M243.555,238.262c-0.38,0.269-1.226-0.274-1.891-1.213c-0.665-0.939-0.897-1.918-0.517-2.187
							c0.38-0.269,1.226,0.274,1.891,1.213S243.934,237.993,243.555,238.262z"/>
						<path style="fill:#FBFFCC;" d="M239.594,216.474c-0.38,0.269-1.226-0.274-1.891-1.213c-0.665-0.939-0.897-1.918-0.517-2.187
							c0.38-0.269,1.226,0.274,1.891,1.213C239.742,215.226,239.974,216.205,239.594,216.474z"/>
						<path style="fill:#FBFFCC;" d="M239.876,249.825c-0.38,0.269-1.226-0.274-1.892-1.213c-0.665-0.939-0.897-1.918-0.517-2.187
							c0.38-0.269,1.226,0.274,1.892,1.213S240.255,249.556,239.876,249.825z"/>
						<path style="fill:#FBFFCC;" d="M237.402,258.513c-0.379,0.269-1.226-0.274-1.891-1.213s-0.897-1.918-0.517-2.187
							c0.38-0.269,1.226,0.274,1.891,1.213C237.55,257.265,237.782,258.244,237.402,258.513z"/>
						<path style="fill:#FBFFCC;" d="M219.711,251.594c-0.38,0.269-1.226-0.274-1.891-1.213c-0.665-0.939-0.897-1.918-0.517-2.187
							c0.38-0.269,1.226,0.274,1.891,1.213C219.859,250.346,220.09,251.325,219.711,251.594z"/>
					</g>
				</g>
			</g>
			<path style="fill:#FCFCFC;" d="M387.072,251.65c-10.408,12.032-67.811,21.235-137.072,21.235
				c-66.156,0-121.489-8.397-135.388-19.635c-1.094-0.885-7.093-3.767-8.529-5.329c-0.097,0.422-0.083,0.704-0.083,1.13
				c0,15.645,64.471,28.328,144,28.328c79.238,0,143.519-12.591,143.989-28.157L387.072,251.65z"/>
		</g>
	</g>
</g>
</svg>
