<?xml version="1.0" encoding="utf-8"?>
<!-- Generator: Adobe Illustrator 27.5.0, SVG Export Plug-In . SVG Version: 6.00 Build 0)  -->
<svg version="1.1" id="Capa_1" xmlns="http://www.w3.org/2000/svg" xmlns:xlink="http://www.w3.org/1999/xlink" x="0px" y="0px"
	 viewBox="0 0 2122 2122" style="enable-background:new 0 0 2122 2122;" xml:space="preserve">
<path style="fill:#8BB9B8;" d="M1882.152,834.522v-0.044c0-3.683-0.606-7.337-1.817-10.972c-0.588-1.788-1.366-3.567-2.237-5.339
	c-0.244-0.496-0.522-0.989-0.788-1.484c-0.725-1.349-1.53-2.693-2.417-4.032c-0.311-0.469-0.608-0.94-0.939-1.409
	c-2.492-3.53-5.545-7.024-9.14-10.479c-0.443-0.425-0.913-0.848-1.372-1.272c-1.484-1.371-3.05-2.735-4.704-4.094
	c-0.487-0.4-0.959-0.801-1.461-1.199c-4.32-3.436-9.179-6.829-14.559-10.177c-0.606-0.378-1.238-0.753-1.858-1.129
	c-2.219-1.347-4.522-2.686-6.909-4.017c-0.65-0.363-1.288-0.727-1.951-1.088c-6.03-3.291-12.572-6.533-19.604-9.723
	c-0.822-0.373-1.667-0.743-2.503-1.114c-2.822-1.255-5.722-2.502-8.697-3.741c-0.897-0.373-1.78-0.747-2.69-1.12
	c-7.544-3.082-15.553-6.109-24.013-9.081c-1.225-0.431-2.479-0.857-3.723-1.286c-3.114-1.072-6.289-2.136-9.52-3.191
	c-1.378-0.451-2.745-0.904-4.144-1.351c-4.107-1.316-8.292-2.619-12.577-3.91c-1.055-0.317-2.134-0.631-3.199-0.947
	c-3.806-1.129-7.68-2.248-11.62-3.357c-0.757-0.213-1.472-0.433-2.235-0.646c4.353-11.946,6.777-24.57,6.799-37.379
	c0.117-38.211-22.682-76.521-57.917-91.288c-35.257-14.763-80.83-2.397-100.904,30.114c4.661-39.773-4.498-79.958-23.241-115.427
	c4.143-2.714,7.371-6.416,7.458-11.204c0.097-5.364-4.163-10.105-9.201-11.951c-4.063-1.485-8.489-1.385-12.787-0.634
	c-0.086-0.124-0.175-0.245-0.261-0.368c6.201-2.163,12.37-4.634,17.217-9.01c5.578-5.033,8.984-13.271,6.168-20.238
	c-3.152-7.8-12.958-11.118-21.235-9.608c-8.277,1.506-15.366,6.641-22.136,11.635c3.51-7.971,7.099-16.448,6-25.087
	c-1.101-8.643-8.87-17.067-17.442-15.512c-4.599,0.833-8.295,4.229-11.301,7.81c-2.341,2.792-4.407,5.804-6.218,8.964
	c-52.113-39.837-119.076-58.178-184.812-58.197c-74.846-0.048-151.788,26.383-207.934,74.426c-0.006,0.005-0.011,0.011-0.017,0.016
	c-8.992-22.055-24.008-41.796-44.032-54.594c-8.795-5.621-18.486-9.745-28.574-12.392c1.265-5.377,1.085-10.966-2.706-14.673
	c-3.837-3.746-10.209-3.897-15.006-1.5c-4.799,2.402-8.246,6.86-10.894,11.522c3.123-6.836,6.305-13.91,6.468-21.422
	c0.163-7.513-3.496-15.64-10.497-18.373c-7.839-3.055-16.977,1.802-21.559,8.862c-4.582,7.055-5.708,15.737-6.716,24.088
	c-3.396-8.024-7.099-16.448-14.141-21.574c-7.043-5.13-18.502-5.252-23.25,2.051c-2.548,3.917-2.614,8.935-2.068,13.579
	c1.433,12.226,6.639,23.952,14.637,33.301c-1.753,1.282-3.459,2.624-5.129,4.013c-1.638,0.002-3.159,0.245-4.266,1.385
	c-0.882,0.906-1.245,2.197-1.41,3.454c-0.011,0.083-0.004,0.166-0.014,0.25c-11.329,10.918-20.227,24.36-25.474,39.2
	c-27.228-14.704-63.189-6.957-85.717,14.256c-12.804,12.057-21.554,27.669-26.562,44.577c-0.002,0.001-0.004,0.001-0.006,0.003
	c-28.107,15.532-53.281,36.886-73.939,61.525c-57.379-41.778-149.53-21.33-183.856,40.779
	c-43.715-29.117-102.272-35.105-150.506-15.899c-0.019-0.887-0.053-1.774-0.167-2.664c-1.099-8.638-8.87-17.062-17.44-15.508
	c-4.601,0.833-8.297,4.229-11.301,7.81c-8.767,10.451-13.958,23.844-14.524,37.476c-4.2-0.497-5.81-7.055-10.036-7.118
	c-1.267-0.015-2.458,0.604-3.486,1.349c-4.704,3.391-6.987,9.432-6.974,15.23c0.009,4.036,1.024,7.971,2.466,11.759
	c-20.68,30.122-29.365,68.701-23.307,104.32c-2.885,1.146-5.689,2.301-8.442,3.462c-0.097,0.042-0.192,0.082-0.289,0.123
	c-2.575,1.087-5.086,2.182-7.545,3.281c-0.244,0.109-0.489,0.218-0.732,0.327c-7.639,3.437-14.701,6.936-21.174,10.49
	c-0.449,0.247-0.886,0.495-1.33,0.742c-1.619,0.903-3.199,1.81-4.742,2.72c-0.53,0.313-1.06,0.625-1.581,0.939
	c-1.514,0.911-2.983,1.827-4.419,2.745c-0.407,0.26-0.829,0.519-1.229,0.78c-1.802,1.173-3.547,2.349-5.22,3.533
	c-0.202,0.143-0.387,0.286-0.586,0.43c-1.422,1.016-2.796,2.037-4.123,3.061c-0.513,0.396-1.002,0.794-1.501,1.191
	c-0.99,0.788-1.955,1.579-2.888,2.373c-0.515,0.438-1.025,0.876-1.522,1.316c-0.906,0.8-1.774,1.603-2.621,2.407
	c-0.423,0.401-0.86,0.801-1.268,1.203c-1.188,1.171-2.329,2.346-3.392,3.527c-0.19,0.211-0.353,0.423-0.539,0.634
	c-0.875,0.993-1.712,1.991-2.497,2.99c-0.344,0.438-0.66,0.878-0.987,1.317c-0.59,0.793-1.158,1.589-1.692,2.385
	c-0.31,0.463-0.612,0.927-0.903,1.392c-0.514,0.821-0.991,1.645-1.444,2.47c-0.227,0.412-0.468,0.824-0.679,1.237
	c-0.628,1.228-1.208,2.459-1.7,3.695c-1.747,4.38-2.631,8.78-2.631,13.252c0,0.765,0.022,1.535,0.093,2.304
	c-6.59,42.499-9.99,86.046-9.99,130.411c0,217.389,81.856,415.639,216.435,565.612c77.082,85.861,171.42,155.907,277.588,204.652
	c47.437,21.793,97.228,39.333,148.901,52.117c65.415,16.205,133.812,24.799,204.233,24.799
	c467.897,0,847.183-379.283,847.183-847.18C1892.491,922.059,1888.951,877.747,1882.152,834.522z"/>
<path style="fill:#629895;" d="M1880.335,823.506c-0.588-1.788-1.366-3.567-2.237-5.339c-0.244-0.496-0.522-0.989-0.788-1.484
	c-0.725-1.349-1.53-2.693-2.417-4.032c-0.311-0.469-0.608-0.94-0.939-1.409c-2.492-3.53-5.545-7.024-9.14-10.479
	c-0.443-0.425-0.913-0.848-1.372-1.272c-1.484-1.371-3.05-2.735-4.704-4.094c-0.487-0.4-0.959-0.801-1.461-1.199
	c-4.32-3.436-9.179-6.829-14.559-10.177c-0.606-0.378-1.238-0.753-1.858-1.129c-2.219-1.347-4.522-2.686-6.909-4.017
	c-0.65-0.363-1.288-0.727-1.951-1.088c-6.03-3.291-12.572-6.533-19.604-9.723c-0.822-0.373-1.667-0.743-2.503-1.114
	c-2.822-1.255-5.722-2.502-8.697-3.741c-0.897-0.373-1.78-0.747-2.69-1.12c-7.544-3.082-15.553-6.109-24.013-9.081
	c-1.225-0.431-2.479-0.857-3.723-1.286c-3.114-1.072-6.289-2.136-9.52-3.191c-1.378-0.451-2.745-0.904-4.144-1.351
	c-4.107-1.316-8.292-2.619-12.577-3.91c-1.055-0.317-2.134-0.631-3.199-0.947c-3.806-1.129-7.68-2.248-11.62-3.357
	c-0.757-0.213-1.472-0.433-2.235-0.646c4.353-11.946,6.777-24.57,6.799-37.379c0.117-38.211-22.682-76.521-57.917-91.288
	c-35.257-14.763-80.83-2.397-100.904,30.114c4.661-39.773-4.498-79.958-23.241-115.427c4.143-2.714,7.371-6.416,7.458-11.204
	c0.097-5.364-4.163-10.105-9.201-11.951c-4.063-1.485-8.489-1.385-12.787-0.634c-0.086-0.124-0.175-0.245-0.261-0.368
	c6.201-2.163,12.37-4.634,17.217-9.01c5.578-5.033,8.984-13.271,6.168-20.238c-3.152-7.8-12.958-11.118-21.235-9.608
	c-8.277,1.506-15.366,6.641-22.136,11.635c3.51-7.971,7.099-16.448,6-25.087c-1.101-8.643-8.87-17.067-17.442-15.512
	c-4.599,0.833-8.295,4.229-11.301,7.81c-2.341,2.792-4.407,5.804-6.218,8.964c-52.113-39.837-119.076-58.178-184.812-58.197
	c-74.846-0.048-151.788,26.383-207.934,74.426c-0.006,0.005-0.011,0.011-0.017,0.016c-8.992-22.055-24.008-41.796-44.032-54.594
	c-8.795-5.621-18.486-9.745-28.574-12.392c1.265-5.377,1.085-10.966-2.706-14.673c-3.837-3.746-10.209-3.897-15.006-1.5
	c-4.799,2.402-8.246,6.86-10.894,11.522c3.123-6.836,6.305-13.91,6.468-21.422c0.163-7.513-3.496-15.64-10.497-18.373
	c-7.839-3.055-16.977,1.802-21.559,8.862c-4.582,7.055-5.708,15.737-6.716,24.088c-3.396-8.024-7.099-16.448-14.141-21.574
	c-7.043-5.13-18.502-5.252-23.25,2.051c-2.548,3.917-2.614,8.935-2.068,13.579c1.433,12.226,6.639,23.952,14.637,33.301
	c-1.753,1.282-3.459,2.624-5.129,4.013c-1.638,0.002-3.159,0.245-4.266,1.385c-0.882,0.906-1.245,2.197-1.41,3.454
	c-0.011,0.083-0.004,0.166-0.014,0.25c-11.329,10.918-20.227,24.36-25.474,39.2c-27.228-14.704-63.189-6.957-85.717,14.256
	c-12.804,12.057-21.554,27.669-26.562,44.577c-0.002,0.001-0.004,0.001-0.006,0.003c-28.107,15.532-53.281,36.886-73.939,61.525
	c-57.379-41.778-149.53-21.33-183.856,40.779c-43.715-29.117-102.272-35.105-150.506-15.899c-0.019-0.887-0.053-1.774-0.167-2.664
	c-1.099-8.638-8.87-17.062-17.44-15.508c-4.601,0.833-8.297,4.229-11.301,7.81c-8.767,10.451-13.958,23.844-14.524,37.476
	c-4.2-0.497-5.81-7.055-10.036-7.118c-1.267-0.015-2.458,0.604-3.486,1.349c-4.704,3.391-6.987,9.432-6.974,15.23
	c0.009,4.036,1.024,7.971,2.466,11.759c-20.68,30.122-29.365,68.701-23.307,104.32c-2.885,1.146-5.689,2.301-8.442,3.462
	c-0.097,0.042-0.192,0.082-0.289,0.123c-2.575,1.087-5.086,2.182-7.545,3.281c-0.244,0.109-0.489,0.218-0.732,0.327
	c-7.639,3.437-14.701,6.936-21.174,10.49c-0.449,0.247-0.886,0.495-1.33,0.742c-1.619,0.903-3.199,1.81-4.742,2.72
	c-0.53,0.313-1.06,0.625-1.581,0.939c-1.514,0.911-2.983,1.827-4.419,2.745c-0.407,0.26-0.829,0.519-1.229,0.78
	c-1.802,1.173-3.547,2.349-5.22,3.533c-0.202,0.143-0.387,0.286-0.586,0.43c-1.422,1.016-2.796,2.037-4.123,3.061
	c-0.513,0.396-1.002,0.794-1.501,1.191c-0.99,0.788-1.955,1.579-2.888,2.373c-0.515,0.438-1.025,0.876-1.522,1.316
	c-0.906,0.8-1.774,1.603-2.621,2.407c-0.423,0.401-0.86,0.801-1.268,1.203c-1.188,1.171-2.329,2.346-3.392,3.527
	c-0.19,0.211-0.353,0.423-0.539,0.634c-0.875,0.993-1.712,1.991-2.497,2.99c-0.344,0.438-0.66,0.878-0.987,1.317
	c-0.59,0.793-1.158,1.589-1.692,2.385c-0.31,0.463-0.612,0.927-0.903,1.392c-0.514,0.821-0.991,1.645-1.444,2.47
	c-0.227,0.412-0.468,0.824-0.679,1.237c-0.628,1.228-1.208,2.459-1.7,3.695c-1.747,4.38-2.631,8.78-2.631,13.252
	c0,0.765,0.022,1.535,0.093,2.304c1.025,14.762,11.761,29.086,31.042,42.66c1.71,1.207,3.502,2.407,5.345,3.603
	c0.604,0.392,1.24,0.782,1.859,1.172c1.274,0.806,2.566,1.609,3.9,2.409c0.756,0.454,1.532,0.905,2.307,1.357
	c1.276,0.743,2.575,1.483,3.902,2.222c0.822,0.457,1.647,0.914,2.488,1.37c1.401,0.757,2.841,1.513,4.296,2.266
	c0.799,0.414,1.584,0.828,2.399,1.24c1.911,0.965,3.875,1.926,5.874,2.883c0.391,0.187,0.762,0.377,1.156,0.563
	c2.383,1.129,4.838,2.25,7.343,3.366c0.85,0.379,1.733,0.754,2.597,1.132c1.719,0.751,3.451,1.5,5.225,2.244
	c1.039,0.437,2.1,0.871,3.159,1.305c1.679,0.689,3.379,1.376,5.104,2.06c1.104,0.437,2.212,0.874,3.335,1.309
	c1.798,0.697,3.629,1.39,5.474,2.081c1.076,0.402,2.141,0.807,3.233,1.208c2.288,0.84,4.623,1.674,6.981,2.505
	c0.674,0.237,1.326,0.478,2.005,0.715c3.037,1.058,6.137,2.108,9.287,3.151c0.948,0.314,1.926,0.624,2.884,0.937
	c2.273,0.741,4.561,1.481,6.89,2.216c1.213,0.382,2.446,0.761,3.674,1.141c2.144,0.663,4.308,1.324,6.498,1.981
	c1.297,0.389,2.599,0.777,3.911,1.164c2.272,0.669,4.573,1.334,6.893,1.996c1.215,0.347,2.422,0.695,3.65,1.04
	c2.845,0.8,5.733,1.592,8.647,2.381c0.73,0.198,1.444,0.398,2.179,0.595c3.724,0.999,7.504,1.989,11.338,2.969
	c0.689,0.177,1.395,0.35,2.087,0.525c3.134,0.795,6.297,1.586,9.501,2.37c1.167,0.285,2.351,0.568,3.528,0.852
	c2.825,0.682,5.671,1.36,8.549,2.032c1.247,0.291,2.497,0.581,3.754,0.87c2.976,0.685,5.982,1.366,9.013,2.042
	c1.111,0.247,2.214,0.496,3.332,0.742c3.723,0.821,7.485,1.633,11.288,2.438c0.417,0.089,0.825,0.178,1.243,0.266
	c8.784,1.851,17.787,3.661,26.988,5.432c0.783,0.15,1.576,0.299,2.362,0.449c3.788,0.724,7.608,1.44,11.464,2.149
	c0.97,0.179,1.944,0.356,2.918,0.533c3.844,0.7,7.721,1.393,11.63,2.079c0.846,0.149,1.687,0.298,2.536,0.445
	c4.639,0.807,9.315,1.607,14.044,2.394c0.044,0.007,0.089,0.014,0.133,0.022c10.094,1.68,20.392,3.312,30.883,4.897
	c0.246,0.037,0.493,0.073,0.739,0.11c4.84,0.73,9.724,1.448,14.646,2.157c0.623,0.09,1.248,0.179,1.872,0.268
	c4.775,0.685,9.586,1.359,14.437,2.023c0.449,0.062,0.895,0.123,1.344,0.185c7.389,1.008,14.889,1.986,22.446,2.948
	c2.235,0.284,4.495,0.561,6.744,0.841c5.578,0.695,11.196,1.379,16.862,2.049c1.335,0.157,2.633,0.326,3.973,0.482
	c0.944,0.11,1.921,0.211,2.867,0.32c8.469,0.979,16.998,1.94,25.654,2.862c0.113,0.012,0.228,0.023,0.341,0.036
	c9.375,0.998,18.862,1.961,28.447,2.889c0.716,0.069,1.442,0.135,2.159,0.204c9.097,0.875,18.279,1.72,27.555,2.53
	c1.017,0.089,2.047,0.172,3.066,0.26c9.286,0.801,18.642,1.576,28.1,2.31c0.093,0.008,0.184,0.016,0.277,0.023
	c0.206,0.016,0.419,0.029,0.625,0.045c11.099,0.861,22.323,1.672,33.646,2.441c1.334,0.091,2.677,0.178,4.015,0.267
	c10.471,0.699,21.035,1.357,31.686,1.975c1.636,0.094,3.272,0.189,4.912,0.282c10.702,0.607,21.491,1.17,32.363,1.694
	c1.357,0.064,2.707,0.134,4.066,0.197c11.797,0.556,23.684,1.065,35.669,1.519c0.612,0.023,1.226,0.045,1.839,0.068
	c11.897,0.445,23.887,0.84,35.957,1.184c1.282,0.037,2.569,0.069,3.852,0.105c11.475,0.317,23.024,0.589,34.643,0.813
	c1.438,0.027,2.876,0.055,4.315,0.081c11.796,0.216,23.662,0.383,35.595,0.5c1.057,0.01,2.11,0.023,3.169,0.033
	c12.911,0.117,25.891,0.182,38.948,0.182c11.5,0,22.936-0.054,34.324-0.145c3.777-0.031,7.518-0.086,11.282-0.126
	c7.592-0.081,15.177-0.168,22.714-0.289c4.463-0.071,8.894-0.163,13.336-0.249c6.79-0.131,13.568-0.268,20.309-0.43
	c4.662-0.113,9.301-0.237,13.938-0.365c6.521-0.179,13.018-0.371,19.49-0.58c4.649-0.15,9.287-0.304,13.91-0.469
	c6.416-0.229,12.794-0.478,19.159-0.736c4.566-0.185,9.137-0.366,13.675-0.566c6.534-0.287,13.014-0.602,19.49-0.92
	c4.236-0.207,8.495-0.403,12.706-0.624c7.633-0.4,15.192-0.835,22.738-1.275c2.953-0.173,5.944-0.328,8.882-0.506
	c10.213-0.622,20.335-1.284,30.378-1.98c3.858-0.267,7.651-0.561,11.483-0.839c6.365-0.462,12.728-0.924,19.019-1.417
	c4.347-0.34,8.639-0.701,12.951-1.054c5.704-0.469,11.401-0.939,17.042-1.431c4.404-0.385,8.768-0.783,13.133-1.181
	c5.5-0.503,10.975-1.015,16.41-1.54c4.301-0.416,8.582-0.838,12.841-1.268c5.472-0.552,10.897-1.12,16.298-1.695
	c4.056-0.432,8.113-0.863,12.128-1.307c5.737-0.636,11.403-1.292,17.056-1.954c3.553-0.416,7.134-0.823,10.654-1.249
	c6.839-0.827,13.581-1.683,20.289-2.548c2.227-0.287,4.499-0.562,6.712-0.853c9.007-1.186,17.895-2.405,26.652-3.657
	c1.308-0.187,2.573-0.384,3.876-0.573c7.43-1.076,14.788-2.169,22.03-3.292c0.555-0.086,1.134-0.166,1.687-0.253
	c2.503-0.39,4.935-0.795,7.414-1.19c1.321-0.21,2.635-0.422,3.95-0.634c2.717-0.438,5.478-0.867,8.167-1.312
	c6.963-1.152,13.826-2.326,20.594-3.523c2.21-0.39,4.355-0.795,6.543-1.19c4.704-0.849,9.392-1.7,13.997-2.57
	c2.689-0.508,5.323-1.027,7.978-1.542c3.999-0.776,7.98-1.555,11.901-2.346c2.779-0.562,5.523-1.129,8.262-1.698
	c3.725-0.773,7.415-1.554,11.065-2.341c2.714-0.586,5.417-1.173,8.088-1.768c3.602-0.799,7.144-1.609,10.669-2.424
	c2.578-0.595,5.171-1.187,7.707-1.79c3.661-0.87,7.238-1.755,10.811-2.639c2.26-0.56,4.565-1.113,6.789-1.678
	c5.517-1.404,10.935-2.823,16.227-4.262c1.95-0.531,3.811-1.074,5.731-1.61c3.46-0.965,6.921-1.929,10.28-2.909
	c2.341-0.684,4.603-1.378,6.893-2.069c2.839-0.855,5.673-1.711,8.434-2.578c2.308-0.724,4.563-1.456,6.817-2.188
	c2.637-0.856,5.245-1.716,7.806-2.583c2.175-0.736,4.325-1.475,6.445-2.22c2.576-0.904,5.093-1.815,7.587-2.728
	c1.948-0.715,3.904-1.428,5.8-2.148c2.701-1.026,5.306-2.063,7.901-3.1c1.553-0.621,3.147-1.238,4.661-1.863
	c4.041-1.669,7.969-3.351,11.732-5.049c45.133-20.4,70.19-42.919,70.214-66.602v-0.044
	C1882.152,830.794,1881.546,827.14,1880.335,823.506z"/>
<path style="fill:#2F6833;" d="M295.726,760.466c2.933,17.516,9.454,34.305,19.886,49.048
	c-36.631,4.097-66.205,34.392-76.429,69.929c1.71,1.207,3.502,2.407,5.345,3.603c0.604,0.392,1.24,0.782,1.859,1.172
	c1.274,0.806,2.566,1.609,3.9,2.409c0.756,0.454,1.532,0.905,2.307,1.357c1.276,0.743,2.575,1.483,3.902,2.222
	c0.822,0.457,1.647,0.914,2.488,1.37c1.401,0.757,2.841,1.513,4.296,2.266c0.799,0.414,1.584,0.828,2.399,1.24
	c1.911,0.965,3.875,1.926,5.874,2.883c0.391,0.187,0.762,0.377,1.156,0.563c2.383,1.129,4.838,2.25,7.343,3.366
	c0.85,0.379,1.733,0.754,2.597,1.132c1.719,0.751,3.451,1.5,5.225,2.244c1.039,0.437,2.1,0.871,3.159,1.305
	c1.679,0.689,3.379,1.376,5.104,2.06c1.104,0.437,2.212,0.874,3.335,1.309c1.798,0.697,3.629,1.39,5.474,2.081
	c1.076,0.402,2.141,0.807,3.233,1.208c2.288,0.84,4.623,1.674,6.981,2.505c0.674,0.237,1.326,0.478,2.005,0.715
	c3.037,1.058,6.137,2.108,9.287,3.151c0.948,0.314,1.926,0.624,2.884,0.937c2.273,0.741,4.561,1.481,6.89,2.216
	c1.213,0.382,2.446,0.761,3.674,1.141c2.144,0.663,4.308,1.324,6.498,1.981c1.297,0.389,2.599,0.777,3.911,1.164
	c2.272,0.669,4.573,1.334,6.893,1.996c1.215,0.347,2.422,0.695,3.65,1.04c2.845,0.8,5.733,1.592,8.647,2.381
	c0.73,0.198,1.444,0.398,2.179,0.595c3.724,0.999,7.504,1.989,11.338,2.969c0.689,0.177,1.395,0.35,2.087,0.525
	c3.134,0.795,6.297,1.586,9.501,2.37c1.167,0.285,2.351,0.568,3.528,0.852c2.825,0.682,5.671,1.36,8.549,2.032
	c1.247,0.291,2.497,0.581,3.754,0.87c2.976,0.685,5.982,1.366,9.013,2.042c1.111,0.247,2.214,0.496,3.332,0.742
	c3.723,0.821,7.485,1.633,11.288,2.438c0.417,0.089,0.825,0.178,1.243,0.266c8.784,1.851,17.787,3.661,26.988,5.432
	c0.783,0.15,1.576,0.299,2.362,0.449c3.788,0.724,7.608,1.44,11.464,2.149c0.97,0.179,1.944,0.356,2.918,0.533
	c3.844,0.7,7.721,1.393,11.63,2.079c0.846,0.149,1.687,0.298,2.536,0.445c4.639,0.807,9.315,1.607,14.044,2.394
	c0.044,0.007,0.089,0.014,0.133,0.022c10.094,1.68,20.392,3.312,30.883,4.897c0.246,0.037,0.493,0.073,0.739,0.11
	c4.84,0.73,9.724,1.448,14.646,2.157c0.623,0.09,1.248,0.179,1.872,0.268c4.775,0.685,9.586,1.359,14.437,2.023
	c0.449,0.062,0.895,0.123,1.344,0.185c7.389,1.008,14.889,1.986,22.446,2.948c2.235,0.284,4.495,0.561,6.744,0.841
	c5.578,0.695,11.196,1.379,16.862,2.049c1.335,0.157,2.633,0.326,3.973,0.482c0.944,0.11,1.921,0.211,2.867,0.32
	c8.469,0.979,16.998,1.94,25.654,2.862c0.113,0.012,0.228,0.023,0.341,0.036c9.375,0.998,18.862,1.961,28.447,2.889
	c0.716,0.069,1.442,0.135,2.159,0.204c9.097,0.875,18.279,1.72,27.555,2.53c1.017,0.089,2.047,0.172,3.066,0.26
	c9.286,0.801,18.642,1.576,28.1,2.31c0.093,0.008,0.184,0.016,0.277,0.023c0.206,0.016,0.419,0.029,0.625,0.045
	c11.099,0.861,22.323,1.672,33.646,2.441c1.334,0.091,2.677,0.178,4.015,0.267c10.471,0.699,21.035,1.357,31.686,1.975
	c1.636,0.094,3.272,0.189,4.912,0.282c10.702,0.607,21.491,1.17,32.363,1.694c1.357,0.064,2.707,0.134,4.066,0.197
	c11.797,0.556,23.684,1.065,35.669,1.519c0.612,0.023,1.226,0.045,1.839,0.068c11.897,0.445,23.887,0.84,35.957,1.184
	c1.282,0.037,2.569,0.069,3.852,0.105c11.475,0.317,23.024,0.589,34.643,0.813c1.438,0.027,2.876,0.055,4.315,0.081
	c11.796,0.216,23.662,0.383,35.595,0.5c1.057,0.01,2.11,0.023,3.169,0.033c12.911,0.117,25.891,0.182,38.948,0.182
	c11.5,0,22.936-0.054,34.324-0.145c3.777-0.031,7.518-0.086,11.282-0.126c7.592-0.081,15.177-0.168,22.714-0.289
	c4.463-0.071,8.894-0.163,13.336-0.249c6.79-0.131,13.568-0.268,20.309-0.43c4.662-0.113,9.301-0.237,13.938-0.365
	c6.521-0.179,13.018-0.371,19.49-0.58c4.649-0.15,9.287-0.304,13.91-0.469c6.416-0.229,12.794-0.478,19.159-0.736
	c4.566-0.185,9.137-0.366,13.675-0.566c6.534-0.287,13.014-0.602,19.49-0.92c4.236-0.207,8.495-0.403,12.706-0.624
	c7.633-0.4,15.192-0.835,22.738-1.275c2.953-0.173,5.944-0.328,8.882-0.506c10.213-0.622,20.335-1.284,30.378-1.98
	c3.858-0.267,7.651-0.561,11.483-0.839c6.365-0.462,12.728-0.924,19.019-1.417c4.347-0.34,8.639-0.701,12.951-1.054
	c5.704-0.469,11.401-0.939,17.042-1.431c4.404-0.385,8.768-0.783,13.133-1.181c5.5-0.503,10.975-1.015,16.41-1.54
	c4.301-0.416,8.582-0.838,12.841-1.268c5.472-0.552,10.897-1.12,16.298-1.695c4.056-0.432,8.113-0.863,12.128-1.307
	c5.737-0.636,11.403-1.292,17.056-1.954c3.553-0.416,7.134-0.823,10.654-1.249c6.839-0.827,13.581-1.683,20.289-2.548
	c2.227-0.287,4.499-0.562,6.712-0.853c9.007-1.186,17.895-2.405,26.652-3.657c1.308-0.187,2.573-0.384,3.876-0.573
	c7.43-1.076,14.788-2.169,22.03-3.292c0.555-0.086,1.134-0.166,1.687-0.253c2.503-0.39,4.935-0.795,7.414-1.19
	c1.321-0.21,2.635-0.422,3.95-0.634c2.717-0.438,5.478-0.867,8.167-1.312c6.963-1.152,13.826-2.326,20.594-3.523
	c2.21-0.39,4.355-0.795,6.543-1.19c4.704-0.849,9.392-1.7,13.997-2.57c2.689-0.508,5.323-1.027,7.978-1.542
	c3.999-0.776,7.98-1.555,11.901-2.346c2.779-0.562,5.523-1.129,8.262-1.698c3.725-0.773,7.415-1.554,11.065-2.341
	c2.714-0.586,5.417-1.173,8.088-1.768c3.602-0.799,7.144-1.609,10.669-2.424c2.578-0.595,5.171-1.187,7.707-1.79
	c3.661-0.87,7.238-1.755,10.811-2.639c2.26-0.56,4.565-1.113,6.789-1.678c5.517-1.404,10.935-2.823,16.227-4.262
	c1.95-0.531,3.811-1.074,5.731-1.61c3.46-0.965,6.921-1.929,10.28-2.909c2.341-0.684,4.603-1.378,6.893-2.069
	c2.839-0.855,5.673-1.711,8.434-2.578c2.308-0.724,4.563-1.456,6.817-2.188c2.637-0.856,5.245-1.716,7.806-2.583
	c2.175-0.736,4.325-1.475,6.445-2.22c2.576-0.904,5.093-1.815,7.587-2.728c1.948-0.715,3.904-1.428,5.8-2.148
	c2.701-1.026,5.306-2.063,7.901-3.1c1.553-0.621,3.147-1.238,4.661-1.863c4.041-1.669,7.969-3.351,11.732-5.049
	c1.956-3.771,3.656-7.684,5.055-11.757c11.922-34.772-2.144-76.687-32.604-97.228c-28.246-19.074-68.209-18.163-96.014,1.208
	c17.559-14.504,31.394-33.739,39.101-55.026c4.353-11.946,6.777-24.57,6.799-37.379c0.117-38.211-22.682-76.521-57.917-91.288
	c-35.257-14.763-80.83-2.397-100.904,30.114c4.661-39.773-4.498-79.958-23.241-115.427c4.143-2.714,7.371-6.416,7.458-11.204
	c0.097-5.364-4.163-10.105-9.201-11.951c-4.063-1.485-8.489-1.385-12.787-0.634c-0.086-0.124-0.175-0.245-0.261-0.368
	c6.201-2.163,12.37-4.634,17.217-9.01c5.578-5.033,8.984-13.271,6.168-20.238c-3.152-7.8-12.958-11.118-21.235-9.608
	c-8.277,1.506-15.366,6.641-22.136,11.635c3.51-7.971,7.099-16.448,6-25.087c-1.101-8.643-8.87-17.067-17.442-15.512
	c-4.599,0.833-8.295,4.229-11.301,7.81c-2.341,2.792-4.407,5.804-6.218,8.964c-52.113-39.837-119.076-58.178-184.812-58.197
	c-74.846-0.048-151.788,26.383-207.934,74.426c-0.006,0.005-0.011,0.011-0.017,0.016c-8.992-22.055-24.008-41.796-44.032-54.594
	c-8.795-5.621-18.486-9.745-28.574-12.392c1.265-5.377,1.085-10.966-2.706-14.673c-3.837-3.746-10.209-3.897-15.006-1.5
	c-4.799,2.402-8.246,6.86-10.894,11.522c3.123-6.836,6.305-13.91,6.468-21.422c0.163-7.513-3.496-15.64-10.497-18.373
	c-7.839-3.055-16.977,1.802-21.559,8.862c-4.582,7.055-5.708,15.737-6.716,24.088c-3.396-8.024-7.099-16.448-14.141-21.574
	c-7.043-5.13-18.502-5.252-23.25,2.051c-2.548,3.917-2.614,8.935-2.068,13.579c1.433,12.226,6.639,23.952,14.637,33.301
	c-1.753,1.282-3.459,2.624-5.129,4.013c-1.638,0.002-3.159,0.245-4.266,1.385c-0.882,0.906-1.245,2.197-1.41,3.454
	c-0.011,0.083-0.004,0.166-0.014,0.25c-11.329,10.918-20.227,24.36-25.474,39.2c-27.228-14.704-63.189-6.957-85.717,14.256
	c-12.804,12.057-21.554,27.669-26.562,44.577c-0.002,0.001-0.004,0.001-0.006,0.003c-28.107,15.532-53.281,36.886-73.939,61.525
	c-57.379-41.778-149.53-21.33-183.856,40.779c-43.715-29.117-102.272-35.105-150.506-15.899c-0.019-0.887-0.053-1.774-0.167-2.664
	c-1.099-8.638-8.87-17.062-17.44-15.508c-4.601,0.833-8.297,4.229-11.301,7.81c-8.767,10.451-13.958,23.844-14.524,37.476
	c-4.2-0.497-5.81-7.055-10.036-7.118c-1.267-0.015-2.458,0.604-3.486,1.349c-4.704,3.391-6.987,9.432-6.974,15.23
	c0.009,4.036,1.024,7.971,2.466,11.759c-20.68,30.122-29.365,68.701-23.307,104.32"/>
<path style="fill:#ACD6D3;" d="M1811.938,901.123c-3.764,1.699-7.692,3.38-11.732,5.049c-1.513,0.625-3.109,1.242-4.661,1.863
	c-2.595,1.038-5.201,2.074-7.901,3.1c-1.896,0.72-3.853,1.433-5.8,2.148c-2.494,0.914-5.01,1.825-7.587,2.728
	c-2.12,0.744-4.27,1.483-6.445,2.22c-2.561,0.867-5.17,1.727-7.806,2.583c-2.254,0.732-4.508,1.464-6.817,2.188
	c-2.761,0.867-5.595,1.723-8.434,2.578c-2.291,0.691-4.552,1.385-6.893,2.069c-3.359,0.979-6.819,1.944-10.28,2.909
	c-1.92,0.535-3.78,1.079-5.731,1.61c-5.292,1.439-10.709,2.858-16.227,4.262c-2.225,0.566-4.529,1.118-6.789,1.678
	c-3.573,0.885-7.15,1.769-10.811,2.639c-2.536,0.603-5.129,1.195-7.707,1.79c-3.524,0.814-7.067,1.624-10.669,2.424
	c-2.672,0.594-5.374,1.182-8.088,1.768c-3.65,0.787-7.34,1.568-11.065,2.341c-2.74,0.569-5.482,1.137-8.262,1.698
	c-3.92,0.791-7.902,1.57-11.901,2.346c-2.655,0.515-5.289,1.034-7.978,1.542c-4.604,0.87-9.293,1.721-13.997,2.57
	c-2.188,0.395-4.333,0.8-6.543,1.19c-6.768,1.196-13.631,2.37-20.594,3.523c-2.689,0.445-5.45,0.873-8.167,1.312
	c-1.315,0.212-2.629,0.424-3.95,0.634c-12.928,81.401-36.24,161.183-68.846,236.815c-30.112,69.818-68.188,136.21-113.576,197.198
	c-135.859,182.485-330.475,315.62-545.607,391.678c65.415,16.205,133.812,24.799,204.233,24.799
	c467.897,0,847.183-379.283,847.183-847.18c0-45.135-3.54-89.447-10.339-132.672
	C1882.128,858.205,1857.071,880.724,1811.938,901.123z"/>
<path style="fill:#ACD6D3;" d="M589.397,1550.155c-72.687-48.93-135.659-111.445-185.154-183.78
	c-23.179-33.876-43.5-69.769-60.745-107.016c-19.14-41.34-30.558-84.512-46.144-127.031c-3.659-9.983-21.605-9.598-20.156,2.729
	c10.275,87.362,56.721,176.643,105.915,248.116c51.724,75.152,116.896,139.698,192.043,191.347c4.217,2.894,9.971,2.236,14.241,0
	c5.963-3.123,6.453-5.501,6.987-12.18C596.788,1557.264,593.333,1552.805,589.397,1550.155z"/>
<path style="fill:#ACD6D3;" d="M709.255,1647.227c-22.122-11.966-37.476-30.422-57.272-45.155c-7.486-5.574-13.99,4.77-11.252,11.25
	c8.716,20.624,29.471,36.531,47.722,48.546c8.502,5.593,37.866,26.373,47.393,12.034
	C744.799,1660.43,717.011,1651.422,709.255,1647.227z"/>
<path style="fill:#71A452;" d="M1561.179,959.695c-3.355-23.873-22.636-45.924-46.646-48.161
	c29.272-39.844,27.805-99.44-3.401-137.769c-31.206-38.358-89.238-51.912-134.207-31.347c4.098-44.78-20.609-89.471-57.52-115.157
	c-36.911-25.662-84.231-33.695-128.853-28.224c-105.072,12.852-195.384,103.907-207.376,209.076
	c-31.369-39.518-87.096-56.214-135.627-42.382c-48.509,13.856-87.282,55.142-101.791,103.464
	c-43.756-21.33-102.792-2.071-125.52,40.989c-8.641,16.322-12.272,36.049-6.241,53.515c1.747,5.029,4.239,9.686,7.335,13.925
	c9.391,1.096,18.9,2.157,28.521,3.182c0.113,0.012,0.228,0.023,0.341,0.036c9.375,0.998,18.862,1.961,28.447,2.889
	c0.716,0.069,1.442,0.135,2.159,0.204c9.097,0.875,18.279,1.72,27.555,2.53c1.017,0.089,2.047,0.172,3.066,0.26
	c9.286,0.801,18.642,1.576,28.1,2.31c0.093,0.008,0.184,0.016,0.277,0.023c0.206,0.016,0.419,0.029,0.625,0.045
	c11.099,0.861,22.323,1.672,33.646,2.441c1.334,0.091,2.677,0.178,4.015,0.267c10.471,0.699,21.035,1.357,31.686,1.975
	c1.636,0.094,3.272,0.189,4.912,0.282c10.702,0.607,21.491,1.17,32.363,1.694c1.357,0.064,2.707,0.134,4.066,0.197
	c11.797,0.556,23.684,1.065,35.669,1.519c0.612,0.023,1.226,0.045,1.839,0.068c11.897,0.445,23.887,0.84,35.957,1.184
	c1.282,0.037,2.569,0.069,3.852,0.105c11.475,0.317,23.024,0.589,34.643,0.813c1.438,0.027,2.876,0.055,4.315,0.081
	c11.796,0.216,23.662,0.383,35.595,0.5c1.057,0.01,2.11,0.023,3.169,0.033c12.911,0.117,25.891,0.182,38.948,0.182
	c11.5,0,22.936-0.054,34.324-0.145c3.777-0.031,7.518-0.086,11.282-0.126c7.592-0.081,15.177-0.168,22.714-0.289
	c4.463-0.071,8.894-0.163,13.336-0.249c6.79-0.131,13.568-0.268,20.309-0.43c4.662-0.113,9.301-0.237,13.938-0.365
	c6.521-0.179,13.018-0.371,19.49-0.58c4.649-0.15,9.287-0.304,13.91-0.469c6.416-0.229,12.794-0.478,19.159-0.736
	c4.566-0.185,9.137-0.366,13.675-0.566c6.534-0.287,13.014-0.602,19.49-0.92c4.236-0.207,8.495-0.403,12.706-0.624
	c7.633-0.4,15.192-0.835,22.738-1.275c2.953-0.173,5.944-0.328,8.882-0.506c10.213-0.622,20.335-1.284,30.378-1.98
	c3.858-0.267,7.651-0.561,11.483-0.839c6.365-0.462,12.728-0.924,19.019-1.417c4.347-0.34,8.639-0.701,12.951-1.054
	c5.704-0.469,11.401-0.939,17.042-1.431c4.404-0.385,8.768-0.783,13.133-1.181c5.5-0.503,10.975-1.015,16.41-1.54
	c4.301-0.416,8.582-0.838,12.841-1.268c5.472-0.552,10.897-1.12,16.298-1.695c4.056-0.432,8.113-0.863,12.128-1.307
	c5.737-0.636,11.403-1.292,17.056-1.954c3.553-0.416,7.134-0.823,10.654-1.249c6.839-0.827,13.581-1.683,20.289-2.548
	c2.227-0.287,4.499-0.562,6.712-0.853c9.007-1.186,17.895-2.405,26.652-3.657c1.308-0.187,2.573-0.384,3.876-0.573
	c7.43-1.076,14.788-2.169,22.03-3.292c0.555-0.086,1.134-0.166,1.687-0.253C1561.598,963.282,1561.434,961.489,1561.179,959.695z"/>
<path style="fill:#71A452;" d="M706.442,688.485c-15.488-17.048-45.449-17.847-61.827-1.652
	c-15.457-23.386-45.98-35.702-73.342-29.603c-27.359,6.105-49.752,30.231-53.803,57.973c-29.101-14.913-66.041-13.193-93.63,4.361
	c-27.586,17.549-44.797,50.285-43.62,82.962c3.985,110.494,146.433,85.296,198.528,26.416
	c43.367,16.322,97.81-12.429,108.777-57.452c0.947-3.898,1.651-7.961,3.785-11.352c2.629-4.175,7.065-6.792,10.855-9.949
	C719.857,735.438,721.93,705.537,706.442,688.485z"/>
<path style="fill:#EC3824;" d="M995.49,624.049c26.75-13.112,40.901-45.192,26.25-73.532
	c-11.253-21.768-36.619-29.305-57.288-21.699c-1.98-6.446-5.449-12.544-10.395-17.862c-13.018-13.998-33.025-17.028-51.03-13.135
	c-18.049,3.897-36.2,14.962-46.736,30.265c-7.057,10.252-9.541,22.473-7.198,33.908c-22.565,8.413-37.306,38.895-30.286,61.737
	c4.734,15.401,17.574,26.407,33.795,27.484c5.892,0.391,11.717-0.657,17.26-2.648c-0.236,2.179-0.338,4.37-0.242,6.531
	c0.426,9.566,3.496,17.958,9.112,25.454c0.46,0.748,1.014,1.483,1.697,2.19c0.507,0.607,1.082,1.125,1.706,1.563
	c21.39,20.022,57.381,14.634,80.749,1.049C984.546,672.755,1000.857,648.508,995.49,624.049z M896.897,666.273
	c-4.409-5.271-4.887-13.052-3.048-19.396c2.828-9.753,4.541-17.125,0.181-26.811c-3.153-7.001-13.421-7.167-18.288-2.358
	c-9.369,9.257-28.718,17.154-34.477-0.166c-2.643-7.947,0.276-16.322,4.502-23.128c3.33-5.364,9.949-12.95,17.091-11.323
	c11.917,2.708,18.58-10.612,11.33-19.464c-6.093-7.435-2.012-18.782,3.391-25.233c7.389-8.819,18.604-14.884,29.652-17.657
	c9.317-2.338,20.338-2.109,28,4.365c5.442,4.599,10.562,13.661,7.376,20.853c-5.995,13.525,11.622,24.453,20.107,11.752
	c10.173-15.221,32.653-9.578,39.423,5.525c8.595,19.181-6,38.051-24.619,42.67c-7.442,1.847-10.531,10.7-6.957,17.106
	c9.893,17.734-6.636,35.298-21.291,43.279C934.807,674.166,909.905,679.779,896.897,666.273z"/>
<path style="fill:#EC3824;" d="M1450.85,824.943c-11.253-21.768-36.619-29.305-57.289-21.699
	c-1.98-6.446-5.449-12.545-10.394-17.862c-13.018-13.998-33.025-17.028-51.03-13.136c-18.049,3.898-36.2,14.958-46.736,30.265
	c-7.057,10.253-9.542,22.474-7.198,33.908c-22.565,8.413-37.305,38.896-30.285,61.737c4.733,15.401,17.573,26.407,33.795,27.484
	c5.89,0.391,11.715-0.656,17.257-2.648c-0.236,2.178-0.338,4.369-0.242,6.531c0.426,9.565,3.498,17.953,9.112,25.453
	c0.46,0.748,1.014,1.482,1.697,2.191c0.507,0.607,1.082,1.125,1.706,1.563c21.393,20.023,57.383,14.634,80.753,1.044
	c21.66-12.593,37.974-36.841,32.605-61.299C1451.347,885.358,1465.499,853.283,1450.85,824.943z M1406.628,880.329
	c-7.442,1.846-10.531,10.699-6.96,17.106c9.893,17.734-6.633,35.298-21.289,43.279c-14.465,7.878-39.364,13.486-52.375-0.014
	c-4.41-5.276-4.887-13.052-3.045-19.396c2.826-9.754,4.541-17.125,0.18-26.811c-3.154-7.006-13.422-7.167-18.287-2.358
	c-9.369,9.252-28.719,17.155-34.48-0.166c-2.641-7.947,0.278-16.322,4.502-23.128c3.333-5.364,9.951-12.95,17.094-11.323
	c11.917,2.709,18.577-10.611,11.328-19.464c-6.093-7.435-2.01-18.782,3.391-25.232c7.389-8.819,18.607-14.884,29.654-17.657
	c9.316-2.339,20.339-2.11,28,4.365c5.439,4.599,10.56,13.661,7.374,20.853c-5.995,13.525,11.622,24.453,20.11,11.751
	c10.173-15.22,32.653-9.583,39.422,5.525C1439.841,856.841,1425.247,875.71,1406.628,880.329z"/>
<path style="fill:#EC3824;" d="M1256.307,694.653c-1.759-7.698-5.091-15.074-10.007-21.252
	c-11.293-14.197-30.706-20.955-48.65-18.285c-17.944,2.665-34.059,14.139-43.791,29.447c-10.677,16.794-13.742,38.923-5.408,56.999
	c17.213,37.335,70.526,33.14,94.672,5.477C1255.413,732.958,1260.468,712.875,1256.307,694.653z"/>
<path style="fill:#EC3824;" d="M1180.21,838.804c-1.155-5.057-3.345-9.905-6.575-13.968c-7.42-9.331-20.178-13.769-31.968-12.015
	c-11.79,1.754-22.38,9.291-28.775,19.352c-7.016,11.035-9.03,25.578-3.554,37.452c11.311,24.536,46.344,21.778,62.209,3.601
	C1179.625,863.973,1182.945,850.775,1180.21,838.804z"/>
<path style="fill:#EC3824;" d="M1675.651,876.305c-1.157-5.062-3.347-9.905-6.577-13.968c-7.42-9.331-20.178-13.769-31.968-12.015
	c-11.791,1.754-22.38,9.291-28.775,19.352c-7.016,11.035-9.031,25.578-3.554,37.452c11.313,24.536,46.343,21.778,62.212,3.601
	C1675.064,901.474,1678.384,888.276,1675.651,876.305z"/>
<path style="fill:#EC3824;" d="M1485.062,615.696c-1.157-5.057-3.347-9.905-6.578-13.968c-7.42-9.33-20.175-13.768-31.968-12.015
	c-11.791,1.754-22.378,9.291-28.775,19.352c-7.016,11.035-9.03,25.579-3.554,37.452c11.313,24.536,46.344,21.778,62.212,3.6
	C1484.475,640.865,1487.795,627.667,1485.062,615.696z"/>
<path style="fill:#FFFCE6;" d="M1194.402,551.244c6.843,8.079,16.019,13.343,26.019,16.562c10.024,3.223,20.969,4.484,31.984,4.489
	c23.821-0.038,47.951-5.858,63.825-12.709c26.249-11.408,48.549-32.068,60.74-58.235c4.235-9.132,7.333-19.443,7.349-30.081
	c0.001-5.567-0.876-11.229-2.958-16.692c-3.574-9.346-10.116-16.818-17.454-22.521c-14.553-11.266-32.691-16.075-50.537-16.08
	c-5.428,0-10.844,0.445-16.155,1.305c-22.665,3.67-43.168,14.057-61.699,25.915c-14.442,9.268-28.874,20.163-39.328,35.118
	c-8.019,11.521-13.311,25.503-13.334,39.949c0,4.46,0.516,8.957,1.637,13.395C1186.412,539.295,1189.846,545.876,1194.402,551.244z
	 M1207.647,486.309c8.742-12.562,21.589-22.51,35.406-31.347c17.702-11.352,36.581-20.707,56.39-23.886
	c4.587-0.743,9.264-1.126,13.927-1.126c15.378-0.005,30.444,4.187,41.973,13.148c5.85,4.527,10.596,10.201,12.961,16.453
	c1.402,3.683,2.042,7.602,2.043,11.719c0.016,7.84-2.404,16.384-6.046,24.189c-10.566,22.769-30.376,41.231-53.633,51.309
	c-13.756,6.009-36.811,11.592-58.262,11.554c-13.25,0.018-25.863-2.117-35.378-6.929c-4.772-2.401-8.781-5.423-11.962-9.177
	c-3.177-3.763-5.579-8.274-7.028-13.98c-0.822-3.251-1.212-6.587-1.212-9.972C1196.803,507.333,1200.998,495.814,1207.647,486.309z"
	/>
<path style="fill:#FFFCE6;" d="M977.38,887.029c-5.51-10.304-13.041-19.498-21.712-27.116
	c-17.265-15.143-38.327-24.342-59.269-31.083c-14.11-4.524-29.136-8.259-44.701-8.269c-2.462,0-4.938,0.094-7.426,0.298
	c-9.162,0.748-18.369,3.086-26.787,7.173c-8.407,4.084-16.049,9.954-21.786,17.766c-6.589,8.928-9.573,18.856-9.545,28.605
	c0.008,10.115,3.044,19.959,7.759,29.192c7.101,13.853,18.023,26.512,29.671,37.133c11.67,10.611,24.037,19.133,34.446,24.448
	l3.172-6.225l-3.171,6.225c17.035,8.673,36.115,13.337,55.241,13.34c9.522,0,19.055-1.16,28.338-3.577
	c7.429-1.94,14.944-4.835,21.749-9.085c6.791-4.244,12.912-9.906,17.118-17.309c4.574-8.078,6.279-17.113,6.284-25.785
	c0-0.677-0.011-1.344-0.03-2.001C986.362,908.77,982.882,897.327,977.38,887.029z M968.327,941.644
	c-2.823,4.971-7.092,9.056-12.376,12.362c-5.27,3.301-11.516,5.76-17.863,7.411c-8.078,2.102-16.429,3.126-24.816,3.126
	c-16.844,0.004-33.828-4.137-48.898-11.818l0,0c-12.038-6.106-28.638-18.225-41.745-32.67c-6.57-7.216-12.288-15.014-16.274-22.821
	c-4-7.815-6.235-15.576-6.227-22.831c0.028-7.021,1.957-13.643,6.836-20.336c4.192-5.712,9.944-10.218,16.629-13.467
	c6.675-3.247,14.259-5.202,21.818-5.813c2.087-0.171,4.182-0.251,6.288-0.251c13.286-0.01,26.956,3.264,40.428,7.599
	c20.022,6.424,39.256,15.028,54.323,28.279c7.495,6.579,13.98,14.532,18.609,23.203c4.636,8.677,7.418,18.034,7.708,27.562
	c0.015,0.526,0.024,1.059,0.024,1.584C972.793,929.604,971.4,936.253,968.327,941.644z"/>
<path style="fill:#71A452;" d="M761.745,695.925c-4.229,0.005-6.607-6.31-10.811-5.871c-1.259,0.132-2.368,0.892-3.301,1.749
	c-4.266,3.932-5.812,10.198-5.111,15.956c0.701,5.759,3.384,11.094,6.495,15.99c18.492,29.096,54.872,28.59,83.023,14.382
	c6.621-3.342,13.618-9.057,12.867-16.438c-0.541-5.335-5.338-9.534-10.558-10.767c-5.223-1.228-10.724-0.02-15.747,1.866
	c6.777-3.244,13.754-6.64,18.692-12.302c4.94-5.661,7.342-14.251,3.717-20.833c-4.061-7.366-14.19-9.491-22.229-7.011
	c-8.041,2.479-14.465,8.423-20.594,14.187c2.536-8.331,5.091-17.174,2.972-25.622c-2.122-8.453-10.838-15.888-19.164-13.325
	c-4.468,1.374-7.734,5.189-10.29,9.101C764.244,668.407,760.682,682.322,761.745,695.925z"/>
<path style="fill:#71A452;" d="M1057.167,516.792c-4.166,6.134-7.508,14.529-3.272,20.614c3.065,4.404,9.296,5.749,14.461,4.292
	c5.162-1.462,9.383-5.189,12.86-9.277c-4.349,6.129-8.802,12.483-10.37,19.829c-1.572,7.347,0.497,16.02,6.862,20.015
	c7.125,4.477,17.013,1.417,22.838-4.658c5.824-6.071,8.557-14.387,11.118-22.402c1.827,8.521,3.885,17.491,9.842,23.849
	c5.953,6.358,17.186,8.629,23.22,2.348c3.237-3.372,4.244-8.292,4.579-12.955c0.979-13.603-2.663-27.498-10.189-38.875
	c3.69-2.061,8.837,2.309,12.299-0.117c1.038-0.726,1.637-1.929,2.036-3.133c1.822-5.506,0.132-11.737-3.276-16.434
	c-3.411-4.692-8.341-8.053-13.44-10.826C1106.446,472.602,1074.884,490.707,1057.167,516.792z"/>
<path style="fill:#71A452;" d="M401.833,685.192c6.972-2.529,14.599-7.376,14.733-14.792c0.098-5.364-4.165-10.1-9.203-11.947
	c-5.038-1.841-10.643-1.296-15.856-0.024c7.115-2.412,14.446-4.955,20.024-9.988c5.579-5.033,8.984-13.271,6.171-20.238
	c-3.155-7.8-12.96-11.118-21.238-9.613c-8.278,1.51-15.364,6.645-22.136,11.639c3.149-7.154,6.333-14.709,6.166-22.427
	c-0.019-0.887-0.053-1.774-0.167-2.664c-1.099-8.638-8.87-17.062-17.44-15.508c-4.601,0.833-8.297,4.229-11.301,7.81
	c-8.767,10.451-13.958,23.844-14.524,37.476c-4.2-0.497-5.81-7.055-10.036-7.118c-1.267-0.015-2.458,0.604-3.486,1.349
	c-4.704,3.391-6.987,9.432-6.974,15.23c0.009,4.036,1.024,7.971,2.466,11.759c0.631,1.658,1.317,3.296,2.08,4.889
	C336.011,692.12,372.194,695.944,401.833,685.192z"/>
<path style="fill:#71A452;" d="M1563.444,742.487c-4.2-0.497-5.808-7.05-10.036-7.113c-1.267-0.019-2.456,0.604-3.484,1.345
	c-4.704,3.391-6.986,9.433-6.974,15.236c0.012,5.798,2.039,11.415,4.546,16.648c14.897,31.089,51.079,34.913,80.721,24.16
	c6.97-2.529,14.597-7.371,14.733-14.786c0.095-5.364-4.165-10.105-9.203-11.951c-5.038-1.842-10.646-1.291-15.856-0.019
	c7.116-2.417,14.446-4.955,20.025-9.993c5.578-5.033,8.984-13.271,6.168-20.239c-3.152-7.8-12.958-11.118-21.235-9.608
	c-8.277,1.506-15.366,6.641-22.136,11.634c3.51-7.971,7.099-16.443,6-25.086c-1.101-8.643-8.87-17.067-17.442-15.513
	c-4.599,0.833-8.295,4.229-11.301,7.81C1569.2,715.462,1564.009,728.86,1563.444,742.487z"/>
<path style="fill:#71A452;" d="M1470.131,470.536c-1.267-0.019-2.456,0.604-3.484,1.345c-4.706,3.391-6.986,9.432-6.974,15.235
	c0.012,5.798,2.039,11.415,4.545,16.643c14.897,31.094,51.079,34.918,80.721,24.166c2.467-0.896,5.002-2.096,7.273-3.583
	c4.143-2.714,7.371-6.416,7.458-11.204c0.097-5.364-4.163-10.105-9.201-11.951c-4.063-1.485-8.489-1.385-12.787-0.634
	c-1.03,0.18-2.061,0.367-3.069,0.615c0.934-0.317,1.871-0.657,2.807-0.983c6.201-2.163,12.37-4.634,17.217-9.01
	c5.578-5.033,8.984-13.271,6.168-20.238c-3.152-7.8-12.958-11.118-21.235-9.608c-8.277,1.506-15.366,6.641-22.136,11.635
	c3.51-7.971,7.099-16.448,6-25.087c-1.101-8.643-8.87-17.067-17.442-15.512c-4.599,0.833-8.295,4.229-11.301,7.81
	c-2.341,2.792-4.407,5.804-6.218,8.964c-4.97,8.67-7.892,18.521-8.306,28.512C1475.968,477.153,1474.36,470.6,1470.131,470.536z"/>
<path style="fill:#71A452;" d="M932.867,438.639c4.229,3.971,9.705,6.348,15.232,8.112c32.841,10.49,60.446-13.213,72.953-42.158
	c0.839-1.941,1.549-4.053,2.052-6.195c1.265-5.377,1.085-10.966-2.706-14.673c-3.837-3.746-10.209-3.897-15.006-1.5
	c-4.799,2.402-8.246,6.86-10.894,11.522c3.123-6.836,6.305-13.91,6.468-21.422c0.163-7.513-3.496-15.64-10.497-18.373
	c-7.839-3.055-16.977,1.802-21.559,8.862c-4.582,7.055-5.708,15.737-6.716,24.088c-3.396-8.024-7.099-16.448-14.141-21.574
	c-7.043-5.13-18.502-5.252-23.25,2.051c-2.548,3.917-2.614,8.935-2.068,13.579c1.433,12.226,6.639,23.952,14.637,33.301
	c0.866,1.011,1.736,2.019,2.666,2.972c-2.023,1.697-5.072,1.038-7.795,1.041c-1.638,0.002-3.159,0.245-4.266,1.385
	c-0.882,0.906-1.245,2.197-1.41,3.454c-0.011,0.083-0.004,0.166-0.014,0.25C925.907,429.032,928.7,434.726,932.867,438.639z"/>
<path style="fill:#F16458;" d="M1203.722,673.518c-11.001-1.199-22.466,3.249-29.781,11.552c-3.654,4.146-6.263,9.106-8.458,14.173
	c-3.486,8.054-6.036,16.813-5.018,25.53c1.727,14.743,21.681,31.907,31.306,13.72c4.175-7.893,4.039-17.793,6.677-26.202
	c3.121-9.939,10.173-18.485,12.022-28.829c0.521-2.909,0.397-6.329-1.844-8.248C1207.291,674.073,1205.469,673.708,1203.722,673.518
	z"/>
<path style="fill:#F16458;" d="M1134.66,822.517c-8.623,4.57-14.312,13.54-16.719,22.996c-1.106,4.346-1.598,8.896-0.904,13.325
	c0.402,2.572,1.201,5.081,2.363,7.41c2.175,4.37,6.012,8.292,10.848,8.97c7.932,1.115,10.904-5.637,10.47-11.951
	c-0.643-9.374,0.811-18.334,4.146-27.128c0.904-2.383,1.924-4.775,2.131-7.318c0.208-2.543-0.565-5.33-2.623-6.836
	C1141.611,819.964,1137.686,820.919,1134.66,822.517z"/>
<path style="fill:#EC3824;" d="M520.328,787.788c-1.155-5.062-3.345-9.91-6.575-13.968c-7.423-9.33-20.178-13.769-31.968-12.015
	c-11.793,1.749-22.38,9.291-28.775,19.352c-7.018,11.035-9.031,25.573-3.554,37.452c11.311,24.531,46.344,21.778,62.209,3.601
	C519.74,812.958,523.063,799.759,520.328,787.788z"/>
<path style="fill:#F16458;" d="M474.778,771.501c-8.623,4.566-14.314,13.54-16.721,22.997c-1.104,4.341-1.595,8.891-0.901,13.32
	c0.402,2.572,1.201,5.082,2.36,7.416c2.178,4.37,6.015,8.287,10.85,8.969c7.932,1.111,10.904-5.637,10.47-11.956
	c-0.643-9.369,0.811-18.329,4.144-27.123c0.906-2.387,1.927-4.779,2.134-7.323c0.207-2.543-0.565-5.33-2.623-6.836
	C481.728,768.948,477.803,769.898,474.778,771.501z"/>
<path style="fill:#F16458;" d="M1422.39,643.194c6.753,9.364,18.699,5.681,21.118-4.326c1.325-5.486,1.43-10.48,3.707-15.835
	c2.585-6.066,6.334-11.712,7.069-18.417c0.198-1.807,0.115-3.8-1.04-5.203c-1.639-1.998-4.692-1.988-7.206-1.408
	c-9.886,2.285-17.447,10.461-22.255,19.391c-2.156,4-3.908,8.297-4.407,12.813C1418.877,634.726,1419.73,639.506,1422.39,643.194z"
	/>
<path style="fill:#F16458;" d="M1632.886,858.326c-3.32,0.39-6.258,2.334-8.779,4.531c-7.576,6.597-12.582,16.073-13.766,26.051
	c-0.56,4.712-0.251,9.671,1.9,13.9c3.773,7.425,15.953,11.561,19.854,2.031c1.771-4.331,1.154-10.485,2.18-15.128
	c1.361-6.159,3.369-12.161,5.676-18.022c1.147-2.919,2.38-6.173,1.223-9.082C1639.938,859.501,1636.207,857.937,1632.886,858.326z"
	/>
<path style="fill:#EBB228;" d="M713.672,648.412c2.933,0.667,6.475-0.887,7.162-4.068c0.295-1.359,0.651-2.704,1.087-4.024
	c0.207-0.629,0.431-1.247,0.673-1.866c0.003-0.007,0.003-0.008,0.006-0.015c-0.023,0.043-0.037,0.076-0.065,0.122l0.487-1.086
	c1.148-2.442,2.571-4.696,4.143-6.884l0.629-0.76c0.429-0.501,0.87-0.994,1.323-1.476c0.952-1.013,1.956-1.978,3.011-2.884
	l0.751-0.631c-0.029,0.016-0.045,0.03-0.076,0.046c0.048-0.026,0.093-0.067,0.141-0.095c0.25-0.198,0.357-0.259,0.336-0.228
	c0.384-0.273,0.76-0.58,1.133-0.832c1.206-0.819,2.461-1.559,3.749-2.237c2.699-1.422,3.739-5.408,2.087-7.966
	c-1.771-2.748-5.077-3.606-7.963-2.09c-11.376,5.978-19.968,17.243-22.68,29.813C708.965,644.217,710.488,647.686,713.672,648.412z"
	/>
<path style="fill:#EBB228;" d="M656.264,621.913c1.16,1.028,2.534,1.705,4.117,1.705c1.428,0,3.133-0.633,4.117-1.705
	c1.018-1.11,1.776-2.567,1.705-4.117c-0.066-1.491-0.553-3.094-1.705-4.117c-3.566-3.172-7.135-6.343-10.701-9.515
	c-1.159-1.028-2.533-1.705-4.117-1.705c-1.427,0-3.133,0.638-4.117,1.705c-1.018,1.111-1.776,2.568-1.705,4.117
	c0.066,1.491,0.553,3.094,1.705,4.117C649.129,615.569,652.697,618.741,656.264,621.913z"/>
<path style="fill:#EBB228;" d="M633.872,733.503c-15.386,5.047-27.761,18.792-30.229,34.953c-0.458,3.001,0.755,6.407,4.068,7.162
	c2.775,0.634,6.67-0.848,7.16-4.063c0.26-1.701,0.624-3.382,1.113-5.028c0.234-0.789,0.492-1.569,0.777-2.334l0.489-1.252
	c-0.541,1.369,0.034-0.039,0.134-0.248c0.694-1.491,1.483-2.933,2.36-4.321c0.48-0.76,1.004-1.486,1.513-2.227
	c0.06-0.088,0.048-0.074,0.08-0.122l0.812-0.989c1.064-1.257,2.204-2.446,3.412-3.561c0.604-0.56,1.238-1.082,1.861-1.613
	c0.098-0.084,0.075-0.069,0.126-0.114c0.049-0.033,0.023-0.011,0.113-0.076l1.094-0.779c1.352-0.93,2.765-1.774,4.226-2.519
	l1.206-0.589c0.142-0.066,0.714-0.292,0.778-0.323c0.664-0.25,1.325-0.505,2.002-0.725c2.889-0.95,5.067-4.068,4.066-7.162
	C640.101,734.687,636.97,732.49,633.872,733.503z"/>
<path style="fill:#EBB228;" d="M572.856,719.734c-2.843-1.505-6.256-0.682-7.964,2.09c-4.141,6.714-5.367,14.655-4.012,22.368
	c0.238,1.359,1.53,2.806,2.675,3.479c1.25,0.73,3.089,1.038,4.487,0.584c1.408-0.453,2.767-1.325,3.479-2.675
	c0.721-1.364,0.82-2.699,0.6-4.193c0.003,0.022,0.006,0.044,0.009,0.066c-0.014-0.115-0.008-0.23-0.021-0.345
	c-0.001-0.005,0-0.01,0-0.016l0-0.003c-0.202-1.816-0.196-3.635-0.02-5.451c0.293-1.749,0.755-3.453,1.387-5.11
	c0.447-0.966,0.911-1.921,1.471-2.83C576.544,725.104,575.591,721.177,572.856,719.734z"/>
<path style="fill:#EBB228;" d="M552.639,910.999c-10.282,6.748-21.632,9.778-33.846,9.101c-3.045-0.166-5.956,2.796-5.82,5.822
	c0.146,3.298,2.557,5.642,5.82,5.822c13.917,0.77,28.073-3.045,39.722-10.694c2.543-1.666,3.853-5.228,2.09-7.966
	C558.968,910.55,555.36,909.211,552.639,910.999z"/>
<path style="fill:#EBB228;" d="M448.507,908.843l0.339,0.261l-0.612-0.624c-0.056-0.091-0.108-0.184-0.16-0.278
	c-0.075-0.232-0.138-0.469-0.192-0.708c-0.006-0.184-0.006-0.368,0-0.552c0.042-0.178,0.089-0.356,0.144-0.531
	c0.113-0.196,0.213-0.398,0.344-0.584c0.888-1.04,1.475-2.41,1.475-3.768c0-1.428-0.636-3.133-1.705-4.117
	c-1.111-1.018-2.567-1.774-4.117-1.705c-1.544,0.073-3.003,0.594-4.117,1.705c-1.491,1.496-2.514,3.298-3.157,5.301
	c-0.329,1.023-0.443,2.139-0.543,3.196c-0.053,0.59-0.036,1.179,0.025,1.769c0.227,2.149,0.704,4.102,1.801,6.002
	c1.055,1.827,2.562,3.318,4.341,4.443c1.25,0.794,3.082,0.975,4.485,0.59c1.352-0.37,2.816-1.418,3.481-2.675
	C451.797,913.803,451.012,910.636,448.507,908.843z"/>
<path style="fill:#EBB228;" d="M448.71,642.561c1.238-0.07,2.468,0.012,3.698,0.14c1.39,0.257,2.749,0.629,4.072,1.126
	c1.318,0.61,2.567,1.335,3.753,2.169c1.215,1.001,2.355,2.074,3.342,3.307c0.872,1.086,2.787,1.705,4.117,1.705
	c1.428,0,3.133-0.639,4.117-1.705c1.018-1.111,1.773-2.568,1.705-4.117c-0.073-1.637-0.687-2.845-1.705-4.117
	c-5.401-6.743-14.5-10.651-23.099-10.154c-3.033,0.176-5.968,2.553-5.82,5.822C443.024,639.744,445.455,642.751,448.71,642.561z"/>
<path style="fill:#EBB228;" d="M1098.553,704.656c5.615-4.984-2.643-13.193-8.234-8.234c-18.407,16.336-29.747,39.284-32.282,63.673
	c-0.326,3.133,2.909,5.822,5.822,5.822c3.417,0,5.493-2.68,5.82-5.822C1071.9,738.751,1082.565,718.843,1098.553,704.656z"/>
<path style="fill:#EBB228;" d="M1056.997,873.016c-14.073-10.514-21.64-28.336-20.536-45.666c0.199-3.143-2.819-5.822-5.822-5.822
	c-3.318,0-5.623,2.675-5.822,5.822c-1.383,21.725,9.001,42.796,26.302,55.722c2.521,1.881,6.504,0.409,7.966-2.09
	C1060.824,878.01,1059.522,874.901,1056.997,873.016z"/>
<path style="fill:#EBB228;" d="M1157.189,932.037c-28.144-5.944-57.885-0.897-82.306,14.392c-6.337,3.966-0.5,14.047,5.875,10.056
	c21.737-13.608,48.199-18.529,73.337-13.218C1161.403,944.811,1164.529,933.586,1157.189,932.037z"/>
<path style="fill:#EBB228;" d="M1273.157,775.258c1.326-2.85,0.804-6.276-2.087-7.966c-2.519-1.476-6.633-0.775-7.966,2.085
	c-8.434,18.129-28.036,28.892-47.725,26.587c-3.128-0.37-5.822,2.938-5.822,5.822c0,3.449,2.685,5.452,5.822,5.818
	C1238.782,810.346,1263.228,796.602,1273.157,775.258z"/>
<path style="fill:#EBB228;" d="M1384.587,584.086c2.945-11.966,5.878-24.585,13.359-34.665c6.241-8.41,16.139-14.261,26.77-12.872
	c3.123,0.409,5.822-2.968,5.822-5.822c0-3.484-2.69-5.413-5.822-5.822c-13.471-1.759-26.782,5.886-34.953,16.19
	c-9.135,11.523-12.953,25.871-16.405,39.898C1371.568,588.266,1382.794,591.37,1384.587,584.086z"/>
<path style="fill:#EBB228;" d="M1461.878,702.117c-7.486-0.444-7.459,11.201,0,11.644c25.179,1.486,50.026-11.625,63.447-32.872
	c4.015-6.358-6.059-12.205-10.054-5.88C1503.943,692.948,1482.969,703.365,1461.878,702.117z"/>
<path style="fill:#EBB228;" d="M1637.108,666.229c2.953,1.93,5.445,4.112,8.059,7.118c1.279,1.471,1.739,2.095,2.882,3.844
	c1.094,1.671,2.078,3.411,2.95,5.208c1.299,2.68,2.505,6.343,3.208,9.929c0.592,3.021,0.777,7.103,0.429,10.986
	c-0.282,3.138,2.877,5.822,5.822,5.822c3.382,0,5.54-2.68,5.82-5.822c1.664-18.533-7.827-37.033-23.293-47.137
	c-2.631-1.725-6.434-0.531-7.964,2.085C1633.361,661.099,1634.469,664.505,1637.108,666.229z"/>
<path style="fill:#EBB228;" d="M1714.542,842.77c-1.717,0.238,0.692-0.024,1.138-0.039c0.757-0.029,1.515-0.019,2.272,0.02
	l1.022,0.078c-0.037-0.014-0.068-0.017-0.106-0.034c0.052,0.023,0.129,0.024,0.185,0.045c0.406,0.045,0.479,0.086,0.368,0.089
	c0.555,0.124,1.173,0.184,1.676,0.305c1.279,0.304,2.79,0.642,3.973,1.27c0.113,0.064,0.226,0.127,0.287,0.158l0.928,0.463
	c0.675,0.356,1.335,0.735,1.981,1.14c0.587,0.37,1.152,0.77,1.718,1.169c0.029,0.02,0.033,0.021,0.057,0.039
	c0.031,0.026,0.038,0.035,0.076,0.068l0.789,0.677c1.089,0.964,2.066,2.022,3.021,3.123c0.037,0.043,0.047,0.052,0.077,0.085
	c0.013,0.018,0.014,0.021,0.028,0.041l0.589,0.848c0.422,0.628,0.816,1.276,1.182,1.939c0.268,0.487,0.872,1.291,0.921,1.847
	c-0.285-0.692-0.346-0.838-0.185-0.434l0.224,0.58l0.4,1.179c0.926,2.899,4.085,5.062,7.162,4.068
	c2.901-0.94,5.057-4.054,4.066-7.162c-2.417-7.571-7.532-13.905-14.246-18.124c-6.842-4.292-14.76-5.779-22.699-4.668
	c-3.025,0.424-4.948,4.439-4.066,7.162C1708.455,842.02,1711.297,843.223,1714.542,842.77z"/>
<path style="fill:#EBB228;" d="M1478.57,875.243c0.775,26.831-11.605,52.56-32.748,69.013c-2.484,1.929-2.029,6.202,0,8.234
	c2.451,2.451,5.742,1.934,8.231,0c23.374-18.188,37.016-47.693,36.161-77.247C1489.997,867.769,1478.353,867.735,1478.57,875.243z"
	/>
<path style="fill:#EBB228;" d="M1236.419,525.421c2.448,1.437,6.721,0.819,7.964-2.085c7.683-17.954,22.852-31.571,41.332-36.886
	c7.187-2.071,4.132-13.306-3.096-11.23c-21.237,6.11-39.568,21.861-48.29,42.236
	C1233.094,520.344,1233.469,523.696,1236.419,525.421z"/>
</svg>
