<?xml version="1.0" encoding="utf-8"?>
<!-- Generator: Adobe Illustrator 27.5.0, SVG Export Plug-In . SVG Version: 6.00 Build 0)  -->
<svg version="1.1" id="Capa_1" xmlns="http://www.w3.org/2000/svg" xmlns:xlink="http://www.w3.org/1999/xlink" x="0px" y="0px"
	 viewBox="0 0 2122 2122" style="enable-background:new 0 0 2122 2122;" xml:space="preserve">
<g>
	<path style="fill:#A0D4CE;" d="M1991.563,1474.692c-20.287-38.744-57.069-75.735-109.322-109.946
		c-51.124-33.475-115.811-63.5-192.259-89.239c-0.234-0.091-0.482-0.021-0.653,0.141c-0.174,0.166-0.239,0.418-0.174,0.645
		l21.921,76.309c0.052,0.181,0.181,0.332,0.352,0.408c103.561,47.297,158.3,103.267,158.3,161.861
		c0,151.622-370.146,274.971-825.115,274.971s-825.115-123.349-825.115-274.971c0-32.548,16.962-64.427,50.415-94.744
		c32.397-29.36,79.366-56.514,139.608-80.707c0.184-0.076,0.322-0.227,0.378-0.418l18.156-61.325
		c0.07-0.232,0.003-0.479-0.172-0.645c-0.171-0.171-0.428-0.227-0.654-0.146c-98.318,33.49-175.86,73.514-230.47,118.962
		c-56.62,47.115-85.328,97.51-85.328,149.768c0,40.688,17.647,80.605,52.45,118.644c33.589,36.714,82.47,70.985,145.287,101.867
		c125.147,61.516,302.155,106.732,498.501,127.318c177.355-5.687,359.103-28.786,519.453-49.165
		c80.079-10.195,162.884-20.737,241.873-43.478c56.597-16.295,116.753-40.522,183.908-74.073
		c72.956-36.472,154.148-84.021,203.22-160.114c17.748-27.556,30.023-59.204,35.503-91.521
		C1991.65,1474.959,1991.628,1474.813,1991.563,1474.692z"/>
	<path style="fill:#B05117;" d="M1799.874,1458.121c-16.203-17.675-38.827-29.053-67.247-33.828
		c-0.212-0.035-0.441,0.036-0.588,0.207c-0.146,0.166-0.2,0.393-0.138,0.605l17.13,59.642
		c-360.183,206.706-716.87,195.695-952.703,150.02c-249.353-48.289-419.749-144.378-429.591-150.015l8.603-29.033
		c0.065-0.211,0.013-0.448-0.139-0.615c-0.149-0.166-0.378-0.232-0.599-0.202c-7.238,1.38-14.683,2.524-21.883,3.627
		c-22.669,3.471-46.108,7.062-66.769,18.632c-8.683,4.866-12.61,9.887-11.676,14.939c2.136,11.51,29.094,19.906,43.577,24.414
		c3.481,1.083,6.79,2.116,7.795,2.63c-4.277,8.25-13.718,13.62-22.853,18.813c-12.273,6.976-23.868,13.57-20.628,26.298
		c3.117,12.24,18.523,15.216,30.896,15.554c10.57,0.287,21.475,0.352,32.022,0.423c54.298,0.343,110.445,0.7,155.528,29.673
		c8.404,5.394,15.483,14.667,17.613,23.064c1.385,5.46-0.391,10.24-2.107,14.869c-1.935,5.214-3.936,10.603-1.318,16.793
		c5.262,12.426,26.412,22.027,43.228,27.89c19.795,6.9,40.922,9.741,61.357,12.492c8.155,1.098,16.587,2.231,24.784,3.607
		c33.468,5.616,71.404,11.978,106.997,3.843c12.313-2.815,24.323-7.359,35.941-11.751c11.85-4.483,24.104-9.117,36.637-11.892
		c52.056-11.534,104.04,8.624,154.329,28.111c15.395,5.964,31.314,12.134,46.933,17.267c43.119,14.164,88.735,21.372,134.251,21.372
		c17.775,0,35.538-1.104,53.124-3.315c21.798-2.74,49.879-7.837,73.736-23.009c5.958-3.788,11.618-8.195,17.088-12.452
		c5.86-4.563,11.92-9.278,18.329-13.221c36.546-22.475,81.802-19.846,125.565-17.302l6.959,0.403
		c45.331,2.544,96.104,0.862,129.053-31.073c7.347-7.122,13.457-15.533,19.368-23.668c5.427-7.47,11.04-15.196,17.581-21.87
		c24.326-24.828,59.224-33.788,92.971-42.451c19-4.881,38.644-9.923,56.51-17.74c23.537-10.3,48.147-30.846,46.636-57.622
		C1815.361,1477.845,1806.861,1465.736,1799.874,1458.121z"/>
	<g>
		<path style="fill:#FFEF9C;" d="M1589.8,925.519c-0.069-0.234-0.262-0.411-0.501-0.456c-0.239-0.043-0.486,0.048-0.633,0.247
			c-10.452,13.819-23.169,27.678-38.879,42.37c-32.179,29.96-68.205,55.253-107.088,75.168c-14.413,7.4-29.794,14.288-47.026,21.06
			c-0.29,0.113-0.456,0.418-0.395,0.725c19.606,98.822,54.053,193.506,102.383,281.425c1.271,2.312,2.553,4.624,3.837,6.941
			c1.305,2.357,2.612,4.715,3.911,7.076c0.086,0.156,0.237,0.272,0.414,0.312c0.05,0.016,0.1,0.021,0.151,0.021
			c0.126,0,0.251-0.035,0.36-0.111c53.994-36.351,101.602-78.581,141.505-125.515c7.803-9.162,15.355-18.556,22.445-27.92
			c0.124-0.161,0.161-0.372,0.106-0.564L1589.8,925.519z"/>
		<path style="fill:#FFEF9C;" d="M1365.438,1075.66c-0.046-0.171-0.159-0.317-0.315-0.4c-0.162-0.091-0.346-0.109-0.509-0.046
			c-25.473,8.419-52.384,15.587-82.268,21.916c-7.761,1.647-16.241,3.309-25.917,5.087c-0.174,0.03-0.327,0.136-0.423,0.282
			c-0.098,0.146-0.129,0.328-0.088,0.499c3.173,13.463,6.834,25.437,11.199,36.609c4.703,12.033,10.503,23.83,16.111,35.233
			c6.878,13.987,13.988,28.449,19.098,43.408c6.351,18.612,14.339,54.117-3.506,82.787c-8.248,13.252-23.334,22.984-39.372,25.412
			c-12.954,1.944-24.902-1.134-33.636-8.704c-20.443-17.71-17.895-48.672-12.096-79.487c7.843-41.706,14.909-86.368,13.522-130.401
			c-0.005-0.187-0.092-0.358-0.232-0.474c-0.14-0.121-0.33-0.166-0.509-0.146c-99.106,14.995-199.973,14.713-299.8-0.841
			c-0.202-0.05-0.408,0.03-0.557,0.181c-0.143,0.146-0.211,0.353-0.179,0.554c1.171,7.243,2.589,14.26,4.216,20.863
			c2.342,9.495,5.261,19.005,8.084,28.202c4,13.03,8.135,26.509,10.673,40.114c3.536,18.929,5.01,46.179-8.046,68.467
			c-11.084,18.929-36.269,33.798-59.224,25.93c-23.916-8.205-34.783-36.699-33.158-60.604c1.4-20.616,9.749-40.184,17.823-59.108
			c1.692-3.964,3.382-7.923,5.01-11.887c7.549-18.41,13.951-38.054,19.021-58.378c0.043-0.171,0.015-0.353-0.08-0.504
			c-0.096-0.146-0.247-0.252-0.421-0.287c-53.464-10.411-106.034-25.26-156.251-44.13c-75.836-28.486-147.7-73.917-202.356-127.928
			c-0.162-0.159-0.395-0.221-0.615-0.167c-0.218,0.055-0.392,0.225-0.455,0.441l-150.835,509.525
			c-0.102,0.332,0.083,0.685,0.415,0.796c101.103,33.339,206.169,56.776,312.279,69.66c64.788,7.868,130.036,11.807,195.075,11.807
			c41.743,0,83.401-1.622,124.793-4.871c143.736-11.283,271.305-41.807,379.171-90.725c0.217-0.101,0.36-0.312,0.375-0.549
			c0.405-6.327,1-12.749,1.574-18.964l0.464-5.031c7.492-82.954,3.706-166.919-11.252-249.565
			C1377.904,1126.273,1372.253,1101.184,1365.438,1075.66z"/>
	</g>
	<path style="fill:#EA9E39;" d="M1470.531,725.49c-48.281-27.436-113.175-49.798-187.668-64.669
		c-0.184-0.028-0.363,0.005-0.511,0.113c-0.146,0.111-0.24,0.274-0.257,0.456c-0.8,8.301-2.312,16.7-4.49,24.963
		c-0.088,0.337,0.108,0.685,0.446,0.783c34.289,9.918,68.97,24.805,106.032,45.511c26.602,14.866,55.803,33.783,72.763,61.909
		c-8.695-5.883-29.93-10.706-44.763-14.073c-4.959-1.126-8.877-2.015-11.192-2.695c-20.797-6.097-42.146-11.424-63.45-15.834
		c-29.384-6.079-59.991-10.595-90.971-13.421c-0.224-0.038-0.421,0.068-0.557,0.234c-20.15,24.538-45.438,40.185-73.129,45.249
		c-31.251,5.722-62.269,4.584-89.689-3.291c-24.706-7.074-45.376-19.236-61.436-36.15c-0.138-0.144-0.315-0.224-0.531-0.199
		c-39.028,3.758-69.454,8.578-98.104,15.562c24.026-18.531,49.465-34.836,75.657-48.496c0.305-0.158,0.431-0.523,0.29-0.836
		c-4.415-9.797-7.732-20.294-9.86-31.204c-2.846-14.398-3.432-30.058-1.74-46.544c0.018-0.189-0.046-0.376-0.177-0.511
		c-0.131-0.139-0.323-0.189-0.504-0.199c-21.969,1.312-43.363,3.156-63.592,5.485c-0.103,0.01-0.201,0.048-0.287,0.106
		c-2.212,1.488-4.42,3.022-6.578,4.559c-33.017,23.364-72.833,61.775-75.017,112.092c-1.954,45.237,27.947,82.402,45.944,100.527
		c49.453,49.891,123.81,80.163,209.375,85.24c9.611,0.569,19.202,0.836,28.787,0.836c68.419,0,135.947-13.617,199.751-27.826
		c61.319-13.68,120.833-28.434,174.821-58.282c22.384-12.361,42.643-27.063,60.215-43.698c0.173-0.164,0.24-0.41,0.179-0.64
		C1550.881,786.384,1519.845,753.513,1470.531,725.49z"/>
	<g>
		<path style="fill:#D67029;" d="M1711.963,1351.841c-0.23-0.106-0.499-0.065-0.687,0.096c-0.192,0.167-0.27,0.423-0.199,0.665
			l20.825,72.502c0.067,0.241,0.267,0.418,0.513,0.458c28.129,4.725,50.505,15.972,66.508,33.43
			c6.845,7.465,15.174,19.306,15.965,33.324c1.475,26.116-22.724,46.244-45.866,56.373c-17.768,7.772-37.362,12.804-56.311,17.67
			c-33.918,8.709-68.993,17.714-93.574,42.793c-6.605,6.745-12.246,14.512-17.701,22.022c-5.879,8.089-11.955,16.455-19.221,23.497
			c-32.591,31.592-83.037,33.264-128.087,30.711l-6.956-0.398c-43.967-2.564-89.425-5.199-126.313,17.488
			c-6.473,3.979-12.56,8.719-18.447,13.302c-5.447,4.241-11.08,8.628-16.986,12.381c-23.644,15.036-51.543,20.092-73.207,22.817
			c-62.435,7.858-127.034,1.637-186.811-18.007c-15.588-5.118-31.492-11.283-46.872-17.242
			c-50.469-19.554-102.657-39.772-155.072-28.167c-12.625,2.795-24.922,7.445-36.815,11.948
			c-11.578,4.377-23.548,8.906-35.771,11.696c-35.348,8.084-73.147,1.738-106.499-3.853c-8.217-1.38-16.659-2.514-24.824-3.617
			c-20.37-2.739-41.434-5.575-61.106-12.431c-23.421-8.165-38.502-17.816-42.461-27.174c-2.42-5.717-0.594-10.633,1.338-15.841
			c1.785-4.81,3.634-9.787,2.147-15.63c-2.548-10.043-10.959-19.211-18.166-23.84c-45.396-29.174-101.731-29.531-156.214-29.874
			c-10.542-0.07-21.442-0.136-31.997-0.423c-11.93-0.327-26.764-3.123-29.682-14.587c-2.996-11.771,8.182-18.128,20.016-24.857
			c9.449-5.37,19.221-10.926,23.573-19.755c0.083-0.171,0.088-0.458,0.012-0.635c-0.304-0.71-1.715-1.204-8.782-3.4
			c-13.21-4.115-40.699-12.673-42.69-23.417c-0.826-4.453,2.889-9.021,11.036-13.58c20.457-11.459,43.78-15.03,66.336-18.485
			c7.211-1.108,14.668-2.252,21.929-3.632c0.236-0.045,0.428-0.222,0.496-0.453l34.561-116.715c0.068-0.237-0.003-0.494-0.187-0.66
			c-0.181-0.161-0.448-0.212-0.672-0.121c-60.385,24.248-107.485,51.487-139.996,80.948c-33.735,30.574-50.838,62.77-50.838,95.701
			c0,73.917,86.051,143.346,242.302,195.498c156.028,52.082,363.469,80.762,584.103,80.762c220.635,0,428.076-28.68,584.104-80.762
			c156.251-52.152,242.301-121.581,242.301-195.498C1871.018,1455.733,1816.018,1399.36,1711.963,1351.841z"/>
		<path style="fill:#D67029;" d="M900.59,1036.306c-0.052,0.688-0.108,1.315-0.168,1.831c-2.571,21.548-6.377,42.502-11.311,62.276
			c-5.058,20.264-11.439,39.847-18.967,58.197c-1.624,3.959-3.312,7.913-5.002,11.877c-8.114,19.02-16.509,38.688-17.922,59.522
			c-1.66,24.399,9.495,53.497,34.024,61.914c23.574,8.089,49.412-7.117,60.756-26.494c13.257-22.636,11.779-50.214,8.203-69.359
			c-2.554-13.675-6.698-27.189-10.711-40.255c-2.816-9.182-5.729-18.671-8.061-28.136c-1.622-6.563-3.033-13.549-4.197-20.752
			c-2.886-17.831-3.931-35.9-3.108-53.706c0.034-0.743,0.096-1.72,0.169-2.889c0.177-2.841,0.416-6.679,0.521-11.005
			c44.063,4.991,89.784,7.522,135.914,7.522c51.991,0,103.284-3.206,152.472-9.53l0.613,1.826
			c3.661,10.92,7.446,22.213,9.141,33.795c1.622,11.099,2.599,22.532,2.989,34.954c1.383,43.907-5.671,88.488-13.5,130.118
			c-5.868,31.199-8.412,62.568,12.519,80.707c9.03,7.822,21.344,11.006,34.674,9.001c16.4-2.479,31.833-12.441,40.272-26.001
			c18.131-29.123,10.059-65.057,3.632-83.885c-5.135-15.045-12.265-29.542-19.161-43.564c-5.595-11.379-11.382-23.15-16.068-35.137
			c-4.339-11.107-7.985-23.024-11.144-36.427c-5.589-23.736-8.654-48.604-11.076-70.124c34.001-5.455,66.646-12.461,97.05-20.828
			l1.499,3.377c2.582,5.805,4.812,10.82,5.868,14.083c4.547,14.018,9.019,29.318,13.68,46.778
			c6.805,25.49,12.45,50.548,16.778,74.473c14.941,82.53,18.72,166.38,11.237,249.212l-0.461,5.037
			c-0.577,6.221-1.17,12.653-1.576,18.999c-0.79,12.295-1.191,28.403,2.74,43.952c5.233,20.706,21.095,43.338,44.73,47.231
			c2.644,0.438,5.286,0.625,7.891,0.625c8.223,0,16.068-1.864,22.389-3.662c17.368-4.931,40.792-15.086,53.76-35.48
			c11.255-17.7,13.66-42.431,6.604-67.842c-4.939-17.78-13.451-33.999-21.745-49.085c-1.297-2.362-2.607-4.719-3.914-7.076
			c-1.282-2.312-2.564-4.624-3.836-6.941c-48.264-87.798-82.666-182.361-102.247-281.052c-4.331-21.838-7.94-43.962-10.731-65.764
			c112.885-38.747,177.611-95.311,177.611-155.235c0-4.387-0.392-9.001-1.168-13.713c-0.556-3.367-1.201-6.352-1.969-9.122
			c-0.061-0.219-0.232-0.39-0.449-0.451c-0.227-0.063-0.453-0.007-0.617,0.154c-17.49,16.562-37.664,31.199-59.951,43.507
			c-53.838,29.766-113.253,44.491-174.48,58.151c-72.652,16.179-150.095,31.597-228.18,26.96
			c-85.247-5.057-159.307-35.193-208.533-84.857c-17.851-17.979-47.505-54.82-45.571-99.565
			c2.161-49.795,41.69-87.899,74.473-111.094c2.154-1.531,4.351-3.06,6.553-4.544c0.246-0.166,0.347-0.478,0.244-0.758
			c-0.1-0.277-0.378-0.439-0.678-0.416C718.74,671.142,572.501,744.605,559.2,830.44c-0.758,4.88-1.11,8.993-1.11,12.943
			C558.09,930.984,695.7,1008.482,900.59,1036.306z"/>
	</g>
	<g>
		<path style="fill:#FCCA68;" d="M926.5,1107.662c50.901,7.933,102.068,11.902,153.143,11.902c49.215,0,98.345-3.687,147.045-11.051
			c0.322-0.05,0.559-0.332,0.549-0.66c-0.394-12.472-1.376-23.953-3.005-35.1c-1.71-11.695-5.514-23.044-9.195-34.019l-0.778-2.327
			c-0.098-0.295-0.403-0.476-0.695-0.436c-49.29,6.361-100.713,9.588-152.832,9.588c-46.324,0-92.241-2.556-136.468-7.593
			c-0.187-0.013-0.36,0.036-0.496,0.154c-0.138,0.121-0.216,0.292-0.221,0.473c-0.096,4.586-0.353,8.674-0.536,11.658
			c-0.076,1.176-0.136,2.161-0.172,2.909c-0.826,17.896,0.224,36.054,3.123,53.968
			C926.006,1107.405,926.223,1107.621,926.5,1107.662z"/>
		<path style="fill:#FCCA68;" d="M1395.601,1065.074c0.096,0.05,0.204,0.078,0.311,0.078c0.08,0,0.158-0.016,0.237-0.045
			c17.268-6.785,32.69-13.69,47.139-21.11c38.986-19.972,75.114-45.332,107.378-75.375c15.765-14.743,28.533-28.658,39.029-42.537
			c0.123-0.161,0.161-0.37,0.106-0.566l-27.552-95.924c-0.131-0.456-0.819-0.604-1.12-0.239c-0.123,0.146-0.176,0.335-0.146,0.524
			c0.766,4.642,1.154,9.185,1.154,13.502c0,59.425-64.601,115.625-177.238,154.185c-0.29,0.098-0.469,0.388-0.431,0.69
			c2.803,22.004,6.44,44.335,10.812,66.376C1395.317,1064.82,1395.435,1064.981,1395.601,1065.074z"/>
		<path style="fill:#FCCA68;" d="M733.155,1057.013c50.283,18.893,102.923,33.762,156.457,44.191c0.043,0.005,0.083,0.01,0.123,0.01
			c0.289,0,0.552-0.197,0.625-0.488c4.949-19.828,8.764-40.834,11.341-62.438c0.083-0.68,0.151-1.549,0.218-2.491
			c0.026-0.34-0.218-0.642-0.556-0.688c-204.552-27.663-341.985-104.712-341.985-191.727c0-3.882,0.348-7.931,1.097-12.747
			c0.029-0.189-0.076-0.38-0.202-0.523c-0.123-0.139-0.346-0.217-0.534-0.217h-0.017c-0.28,0.008-0.522,0.194-0.6,0.461
			l-28.94,97.794c-0.067,0.229-0.005,0.476,0.164,0.642C585.128,982.927,657.153,1028.464,733.155,1057.013z"/>
		<path style="fill:#FCCA68;" d="M1256.545,1103.496c0.037,0,0.077-0.005,0.115-0.01c9.691-1.778,18.178-3.445,25.952-5.097
			c29.93-6.337,56.885-13.516,82.404-21.951c0.325-0.106,0.509-0.448,0.42-0.778c-4.664-17.481-9.144-32.805-13.695-46.844
			c-1.078-3.327-3.323-8.371-5.919-14.209l-1.723-3.881c-0.128-0.295-0.446-0.433-0.761-0.363
			c-30.691,8.467-63.683,15.546-98.055,21.042c-0.34,0.055-0.58,0.368-0.539,0.71c2.438,21.694,5.513,46.854,11.172,70.882
			C1255.984,1103.295,1256.249,1103.496,1256.545,1103.496z"/>
		<path style="fill:#FCCA68;" d="M1670.39,1206.3c-0.068-0.237-0.262-0.413-0.5-0.458c-0.247-0.03-0.484,0.045-0.632,0.247
			c-7.074,9.344-14.612,18.717-22.4,27.859c-39.828,46.843-87.348,88.997-141.243,125.283c-0.277,0.187-0.365,0.554-0.205,0.846
			c8.256,15.015,16.728,31.158,21.629,48.803c6.961,25.063,4.611,49.412-6.447,66.805c-12.749,20.052-35.871,30.065-53.024,34.936
			c-8.195,2.332-18.984,4.775-29.716,3.007c-23.061-3.803-38.562-25.98-43.691-46.274c-3.887-15.378-3.486-31.355-2.706-43.559
			c0.015-0.227-0.091-0.443-0.277-0.569c-0.183-0.126-0.425-0.141-0.633-0.06c-107.726,48.858-235.153,79.347-378.738,90.614
			c-211.128,16.566-429.534-9.883-631.642-76.536c-0.164-0.05-0.345-0.036-0.501,0.045c-0.154,0.08-0.269,0.216-0.317,0.388
			l-13.991,47.196c-0.085,0.282,0.035,0.589,0.292,0.74c1.715,1.002,174.527,100.849,430.39,150.412
			c95.765,18.546,191.045,27.844,284.788,27.844c53.355,0,106.224-3.012,158.38-9.046
			c179.739-20.793,351.636-77.725,510.905-169.211c0.257-0.146,0.38-0.453,0.297-0.735L1670.39,1206.3z"/>
	</g>
	<g>
		<path style="fill:#F9F2D7;" d="M490.358,1347.807c-3.078,17.755-6.092,36.437-0.126,53.442
			c3.765,10.734,10.898,20.001,19.004,27.975c25.499,25.084,79.483,49.397,115.431,32.922c18.365-8.412,18.511-23.81,10.381-39.298
			c-10.643-20.274-17.606-37.998-21.588-60.952c-14.33-82.625-19.573-166.828-15.607-250.592c1.01-21.336,2.378-43.867-7.381-62.868
			c-3.164-6.157-8.21-12.214-15.088-13.018c-4.078-0.476-8.15,1.007-11.721,3.032c-20.171,11.426-26.114,37.213-30.073,60.055
			C519.18,1181.604,504.769,1264.708,490.358,1347.807z"/>
		<path style="fill:#F9F2D7;" d="M597.853,1468.199c-32.737,0-69.655-19.417-89.07-38.517c-9.513-9.358-15.781-18.586-19.16-28.222
			c-6.171-17.589-2.838-36.804,0.101-53.764l43.231-249.303c4.025-23.225,10.026-48.969,30.391-60.506
			c4.389-2.483,8.457-3.533,12.113-3.11c8.072,0.942,13.23,8.777,15.587,13.363c9.575,18.646,8.537,40.424,7.532,61.48l-0.08,1.713
			c-3.962,83.663,1.284,167.931,15.597,250.451c3.637,20.964,9.872,38.568,21.525,60.765c5.138,9.787,6.503,18.39,4.055,25.562
			c-2.113,6.19-7.072,11.107-14.738,14.617C616.629,1466.537,607.416,1468.199,597.853,1468.199z M490.993,1347.918
			c-2.912,16.803-6.213,35.843-0.151,53.119c3.312,9.439,9.477,18.511,18.848,27.729c24.819,24.409,78.503,49.371,114.708,32.795
			c7.334-3.36,12.061-8.024,14.056-13.862c2.297-6.729,0.922-15.222-3.977-24.555c-11.718-22.318-17.992-40.034-21.651-61.138
			c-14.328-82.615-19.584-166.974-15.617-250.733l0.083-1.713c0.994-20.888,2.027-42.489-7.394-60.831
			c-2.239-4.357-7.11-11.799-14.589-12.673c-3.362-0.385-7.175,0.6-11.328,2.954c-19.876,11.257-25.779,36.669-29.756,59.604
			L490.993,1347.918z"/>
	</g>
	<path style="fill:#70B7AD;" d="M1991.563,1474.692c-0.132-0.246-0.416-0.388-0.674-0.337c-0.273,0.04-0.488,0.252-0.533,0.529
		c-5.453,32.141-17.665,63.622-35.317,91.037c-48.903,75.831-129.914,123.258-202.71,159.656
		c-67.084,33.516-127.17,57.718-183.692,73.987c-78.894,22.717-161.648,33.249-241.677,43.438
		c-160.326,20.374-342.039,43.474-519.332,49.156c-0.34,0.01-0.613,0.282-0.625,0.619c-0.013,0.343,0.238,0.63,0.577,0.665
		c82.041,8.588,167.18,12.945,253.055,12.945c253.456,0,491.752-37.475,670.993-105.523c87.194-33.098,155.662-71.656,203.5-114.59
		c49.606-44.527,74.761-91.849,74.761-140.656C2009.889,1521.757,2003.724,1497.892,1991.563,1474.692z"/>
	<g>
		<path style="fill:#F4BA73;" d="M1459.134,798.546c0.119,0.217,0.338,0.337,0.567,0.337c0.106,0,0.212-0.025,0.307-0.078
			c0.315-0.171,0.429-0.562,0.259-0.874c-16.682-30.634-47.556-50.759-75.556-66.406c-37.147-20.757-71.919-35.682-106.304-45.627
			c-0.161-0.05-0.342-0.025-0.496,0.058c-0.152,0.086-0.262,0.229-0.307,0.398c-6.042,22.941-17.002,44.524-31.692,62.415
			c-0.152,0.184-0.188,0.435-0.096,0.658c0.091,0.219,0.298,0.37,0.536,0.393c30.93,2.821,61.488,7.329,90.826,13.401
			c21.27,4.4,42.584,9.719,63.349,15.808c2.353,0.688,6.29,1.581,11.27,2.712C1428.095,785.442,1455.372,791.635,1459.134,798.546z"
			/>
		<path style="fill:#F4BA73;" d="M998.969,720.607c-0.073-0.162-0.21-0.287-0.375-0.345c-0.165-0.055-0.353-0.04-0.509,0.038
			c-27.136,14.151-53.468,31.135-78.259,50.485c-0.239,0.189-0.315,0.519-0.181,0.791c0.11,0.227,0.337,0.363,0.579,0.363
			c0.053,0,0.104-0.005,0.157-0.02c29.453-7.362,60.564-12.376,100.871-16.257c0.245-0.025,0.457-0.187,0.542-0.416
			c0.085-0.232,0.032-0.491-0.137-0.67C1012.336,744.759,1004.706,733.33,998.969,720.607z"/>
		<path style="fill:#F4BA73;" d="M1000.11,971.672c-0.005,0.003-0.015,0.005-0.021,0.005c-13.744,3.717-45.075-6.712-63.798-12.948
			c-3.488-1.164-6.593-2.196-9.139-2.995c-26.207-8.213-51.261-23.676-72.457-44.721c-25.043-24.859-45.377-57.746-60.435-97.736
			c-16.865-44.786-18.543-82.14-4.984-111.024c0.096-0.207,0.075-0.451-0.053-0.64c-0.128-0.189-0.343-0.335-0.577-0.277
			c-44.81,3.075-85.019,22.757-110.311,53.999c-27.632,34.132-34.855,81.87-17.972,118.788
			c12.292,26.882,36.691,49.641,74.589,69.586c52.399,27.572,111.555,41.731,170.704,41.728c31.958,0,63.918-4.135,94.789-12.521
			c0.346-0.093,0.546-0.448,0.454-0.791C1000.808,971.783,1000.455,971.587,1000.11,971.672z"/>
		<path style="fill:#F4BA73;" d="M1493.844,1381.242c-4.73-7.792-12.731-14.043-19.919-10.462c-5.447,2.705-6.87,9.58-7.5,15.267
			c-0.378,3.41-0.695,6.835-1.009,10.26c-0.82,8.87-1.665,18.042-3.634,26.847c-3.136,14.028-8.775,24.958-16.761,32.488
			c-1.262,1.189-2.616,2.367-4.05,3.612c-7.953,6.91-16.969,14.747-11.379,26.685c3.244,6.931,8.586,8.835,14.018,8.835
			c2.446,0,4.906-0.383,7.205-0.871c21.667-4.584,43.063-23.815,50.878-45.725
			C1509.292,1426.877,1506.355,1401.853,1493.844,1381.242z"/>
		<path style="fill:#F4BA73;" d="M1282.883,1215.638c-4.478-4.433-12.593-6.221-17.53-1.803c-3.621,3.239-4.332,8.573-4.551,13.363
			c-0.098,2.191-0.141,4.417-0.187,6.664c-0.143,7.505-0.292,15.272-2.624,22.299c-2.178,6.563-6.032,10.714-10.109,15.111
			c-2.06,2.216-4.188,4.513-6.196,7.213c-4.296,5.773-5.787,10.84-4.43,15.055c1.335,4.15,5.4,7.334,12.082,9.465
			c4.142,1.32,8.028,1.979,11.649,1.979c6.574,0,12.271-2.171,17.017-6.502c15.371-14.018,16.574-47.635,12.548-65.939
			C1289.199,1226.367,1287.331,1220.046,1282.883,1215.638z"/>
		<path style="fill:#F4BA73;" d="M911.175,1253.229c-2.151-0.509-4.588-1.088-6.915-3.193c-2.815-2.543-5.037-6.069-6.994-11.091
			c-4.828-12.411-5.362-26.167-5.495-39.192c-0.046-4.463-0.623-9.847-4.733-11.917c-3.667-1.843-7.784,0.277-9.383,1.274
			c-5.506,3.445-9.636,9.59-12.275,18.274c-5.02,16.547-3.188,34.76,5.026,49.977c4.343,8.044,9.75,13.826,16.069,17.186
			c3.858,2.05,8.101,3.083,12.189,3.083c3.942,0,7.74-0.962,10.907-2.881c4.569-2.765,9.096-9.101,8.443-14.511
			C917.346,1254.699,914.349,1253.984,911.175,1253.229z"/>
	</g>
	<path style="fill:#E83C69;" d="M1194.854,580.157c-3.55-17.863-10.602-36.228-21.563-56.144c-0.146-0.265-0.45-0.393-0.73-0.312
		c-0.287,0.076-0.483,0.34-0.479,0.635c0.348,16.619-1.637,26.887-5.893,30.521c-1.472,1.252-3.196,1.672-5.214,1.31
		c-4.924-0.889-7.832-6.11-8.89-15.957c-0.99-9.218-2.523-18.919-4.554-28.834c-0.06-0.287-0.304-0.498-0.596-0.516
		c-55.388-2.896-105.114,17.69-133.005,55.192c-14.151,19.002-23.555,43.562-27.194,71.023c-0.247,1.879-0.457,3.765-0.653,5.653
		c-1.705,16.612-1.113,32.4,1.76,46.924c2.145,11.003,5.493,21.596,9.95,31.483c5.793,12.857,13.507,24.406,22.927,34.327
		c16.221,17.082,37.086,29.365,62.019,36.502c0.058,0.018,0.117,0.025,0.177,0.025c0.121,0,0.239-0.033,0.346-0.098
		c1.825-1.154,3.651-2.355,5.427-3.556c37.571-25.149,66.141-54.965,84.916-88.622
		C1194.996,661.426,1202.543,618.967,1194.854,580.157z"/>
	<path style="fill:#D32059;" d="M1225.139,533.934c-14.658-9.354-32.392-16.063-52.717-19.941c-0.203-0.048-0.398,0.015-0.546,0.149
		c-0.151,0.131-0.232,0.325-0.216,0.524c0.219,3.427,0.36,6.681,0.423,9.671c0.002,0.106,0.031,0.206,0.081,0.297
		c10.892,19.8,17.901,38.043,21.427,55.776c7.628,38.509,0.131,80.656-21.112,118.675c-18.675,33.477-47.108,63.145-84.507,88.181
		c-1.768,1.194-3.584,2.39-5.4,3.533c-0.214,0.136-0.329,0.386-0.292,0.638c0.036,0.251,0.215,0.458,0.459,0.528
		c16.06,4.614,33.334,6.931,51.169,6.931c12.829,0,25.951-1.201,39.108-3.609c27.995-5.12,53.547-20.924,73.894-45.703
		c14.807-18.032,25.852-39.784,31.944-62.904c2.193-8.329,3.717-16.796,4.525-25.164c0.542-5.609,0.782-11.051,0.706-16.176
		C1283.419,599.313,1260.833,556.622,1225.139,533.934z"/>
	<path style="fill:#F29BBC;" d="M1112.234,558.521c-5.447-9.555-16.781-12.93-25.887-12.93c-0.282,0-0.564,0.005-0.841,0.01
		c-15.607,0.36-31.564,9.289-42.685,23.878c-8.71,11.429-14.825,26.056-19.244,46.033c-4.783,21.621-9.309,61.816,14.105,88.065
		c6.936,7.777,15.054,12.021,22.425,12.021c2.289,0,4.509-0.408,6.596-1.249c7.963-3.206,12.275-11.874,11.833-23.779
		c-0.976-26.333,0.542-54.384,18.114-81.097c1.533-2.334,3.188-4.661,4.785-6.91c3.722-5.239,7.568-10.656,10.276-16.62
		C1116.261,575.909,1116.452,565.915,1112.234,558.521z"/>
	<path style="fill:#512619;" d="M1173.372,524.311c-0.063-3.01-0.206-6.281-0.428-9.727c-1.579-24.502-6.724-52.107-8.321-58.862
		c-9.663-40.914-27.827-80.465-52.528-114.371c-39.59-54.339-97.223-96.671-162.28-119.196c-12.281-4.254-25.517-8.031-39.094-7.071
		c-14.747,1.068-27.647,8.421-33.668,19.19c-4.382,7.835-4.987,19.576,2.523,25.903c4.104,3.455,9.532,4.427,14.778,5.364
		l0.348,0.063c66.216,11.867,127.943,45.504,173.813,94.714c39.213,42.064,66.097,94.389,77.753,151.314
		c2.022,9.877,3.548,19.538,4.534,28.713c1.13,10.494,4.382,16.085,9.943,17.09c0.542,0.098,1.067,0.146,1.579,0.146
		c1.765,0,3.341-0.584,4.702-1.746C1171.592,551.94,1173.727,541.333,1173.372,524.311z"/>
</g>
</svg>
