<?xml version="1.0" encoding="utf-8"?>
<!-- Generator: Adobe Illustrator 16.0.0, SVG Export Plug-In . SVG Version: 6.00 Build 0)  -->
<!DOCTYPE svg PUBLIC "-//W3C//DTD SVG 1.1//EN" "http://www.w3.org/Graphics/SVG/1.1/DTD/svg11.dtd">
<svg version="1.1" id="Layer_1" xmlns="http://www.w3.org/2000/svg" xmlns:xlink="http://www.w3.org/1999/xlink" x="0px" y="0px"
	 width="512px" height="512px" viewBox="0 0 512 512" enable-background="new 0 0 512 512" xml:space="preserve">
<g id="Layer_1_1_">
	<g id="filter">
		<g id="menu_1_">
			<g>
				<g>
					<path d="M392.96,214.71c0,6.58-5.34,11.92-11.92,11.92H233.76c-5.56,17.18-21.57,28.95-39.84,28.95s-34.28-11.77-39.84-28.95
						h-23.12c-6.57,0-11.92-5.34-11.92-11.92c0-6.57,5.35-11.92,11.92-11.92h22.53c4.89-18.1,21.45-30.96,40.43-30.96
						s35.54,12.86,40.43,30.96h146.69C387.62,202.79,392.96,208.14,392.96,214.71z"/>
				</g>
			</g>
		</g>
		<g id="menu_2_">
			<g>
				<g>
					<path d="M392.96,299.29c0,6.58-5.35,11.92-11.92,11.92h-23.12c-5.56,17.18-21.57,28.96-39.84,28.96
						c-18.271,0-34.28-11.78-39.84-28.96H130.96c-6.58,0-11.92-5.34-11.92-11.92c0-6.57,5.34-11.91,11.92-11.91h146.69
						c4.89-18.11,21.449-30.96,40.43-30.96c18.979,0,35.54,12.85,40.43,30.96h22.53C387.61,287.38,392.96,292.72,392.96,299.29z"/>
				</g>
			</g>
		</g>
	</g>
</g>
</svg>
